<svg width="36" height="212" viewBox="0 0 36 212" fill="none" xmlns="http://www.w3.org/2000/svg">
<path d="M35.2153 22.3219L35.2153 33.4828L21.9108 23.3815L8.82038 33.4828L8.82038 22.3219L15.9898 16.7414L8.82038 11.1609L8.82038 3.24114e-07L21.9108 10.1367L35.2153 9.35762e-09L35.2153 11.1609L28.0102 16.7414L35.2153 22.3219Z" fill="#1F2023"/>
<path d="M16.4535 31.1388L21.8038 31.1388L21.8038 43.4653L16.4535 43.4653L16.4535 31.1388Z" fill="#1F2023"/>
<path d="M27.0115 41.0961L35.2153 41.0961L35.2153 72.5657L27.0115 41.0961ZM35.2153 72.5657L27.0115 72.5657L27.0115 61.9346L8.82038 61.9346L8.82038 51.8685L27.0115 51.8685L27.0115 41.0961L35.2153 41.0961L35.2153 72.5657Z" fill="#1F2023"/>
<path d="M8.82038 94.6992L17.3452 87.4587L17.3452 84.0327L8.82038 84.0327L8.82038 74.4964L35.2153 74.4964L35.2153 94.8404C35.2153 97.0302 34.8467 98.961 34.1096 100.633C33.3724 102.328 32.338 103.635 31.0064 104.553C29.6985 105.495 28.1766 105.966 26.4408 105.966L26.2981 105.966C24.0391 105.966 22.1724 105.307 20.6981 103.988C19.2238 102.693 18.2369 100.892 17.7376 98.5843L8.82038 106.178L8.82038 94.6992ZM26.2981 96.6771C27.0115 96.6771 27.5227 96.5122 27.8319 96.1826C28.1648 95.8765 28.3669 95.4526 28.4382 94.9111C28.5096 94.3931 28.5452 93.5925 28.5452 92.5094L28.5452 91.3791C28.5214 90.6492 28.5096 88.2004 28.5096 84.0327L24.158 84.0327L24.158 92.5094C24.158 93.5925 24.1936 94.3931 24.265 94.9111C24.3363 95.4526 24.5147 95.8765 24.8 96.1826C25.1091 96.5122 25.6085 96.6771 26.2981 96.6771Z" fill="#1F2023"/>
<path d="M8.82038 142.812L8.82038 132.746L12.8153 130.592L12.8153 116.641L8.82038 114.486L8.82038 104.42L35.2153 118.583L35.2153 128.649L8.82038 142.812ZM25.8344 123.634L19.307 120.102L19.307 127.13L25.8344 123.634Z" fill="#1F2023"/>
<path d="M8.82038 153.235L8.82038 143.169L35.2153 143.169L8.82038 153.235ZM20.3414 167.716L35.2153 167.716L35.2153 177.782L8.82039 177.782L8.82039 167.716L23.6943 153.235L8.82038 153.235L8.82038 143.169L35.2153 143.169L35.2153 153.235L20.3414 167.716Z" fill="#1F2023"/>
<path d="M24.6573 197.837C24.7049 198.967 24.7287 199.85 24.7287 200.486C24.7287 203.9 24.2412 206.667 23.2662 208.786C22.2913 210.929 20.3771 212 17.5236 212C13.7902 212 11.2696 210.364 9.96179 207.091C8.65393 203.818 8 200.133 8 196.036C8 191.915 8.65393 188.136 9.96179 184.698C11.2696 181.26 13.7902 179.541 17.5236 179.541L17.5236 189.925C16.1444 189.925 15.2645 190.526 14.8841 191.727C14.5036 192.928 14.3134 194.364 14.3134 196.036C14.3134 197.613 14.5631 198.967 15.0624 200.097C15.5618 201.228 16.3346 201.793 17.3809 201.793C18.2607 201.793 18.8314 201.192 19.093 199.991C19.3783 198.814 19.521 197.437 19.521 195.859L19.4854 192.327C19.4854 189.972 19.6518 187.877 19.9847 186.04C20.3414 184.227 21.0667 182.685 22.1605 181.413C23.2781 180.165 24.907 179.541 27.0471 179.541C29.6391 179.541 31.589 180.448 32.8968 182.261C34.2285 184.098 35.0726 186.193 35.4293 188.548C35.8098 190.903 36 193.398 36 196.036C36 200.133 35.3461 203.818 34.0382 207.091C32.7541 210.364 30.2335 212 26.4764 212L26.4764 201.793C27.4752 201.793 28.2242 201.228 28.7236 200.097C29.2229 198.991 29.4964 197.637 29.544 196.036C29.544 194.34 29.3537 192.892 28.9733 191.691C28.5928 190.514 27.9864 189.925 27.1541 189.925C26.203 189.925 25.549 190.526 25.1924 191.727C24.8357 192.928 24.6454 194.281 24.6217 195.788L24.6573 197.837Z" fill="#1F2023"/>
<line x1="0.5" y1="2.18557e-08" x2="0.499991" y2="212" stroke="#28292D"/>
</svg>
