<svg width="1410" height="185" viewBox="0 0 1410 185" fill="none" xmlns="http://www.w3.org/2000/svg">
<path d="M148.462 5.16797H222.692L155.509 92.7885L222.692 179H148.462L111.346 131.783L74.2308 179H0L67.4185 92.7885L0 5.16797H74.2308L111.346 52.6193L148.462 5.16797Z" fill="#1F2023"/>
<path d="M207.102 128.729V93.4932H289.085V128.729H207.102Z" fill="#1F2023"/>
<path d="M273.328 59.1967V5.16797H482.631L273.328 59.1967ZM482.631 5.16797V59.1967H411.923V179H344.975V59.1967H273.328V5.16797H482.631Z" fill="#1F2023"/>
<path d="M629.839 179L581.683 122.857H558.897V179H495.472V5.16797H630.778C645.343 5.16797 658.184 7.59535 669.303 12.4501C680.579 17.3049 689.27 24.1172 695.378 32.8871C701.642 41.5004 704.774 51.5231 704.774 62.9552V63.8949C704.774 78.7724 700.389 91.0659 691.619 100.775C683.006 110.485 671.026 116.984 655.679 120.273L706.184 179H629.839ZM642.994 63.8949C642.994 59.1967 641.897 55.8297 639.705 53.7938C637.669 51.6014 634.85 50.2702 631.248 49.8004C627.803 49.3306 622.478 49.0957 615.274 49.0957H607.757C602.903 49.2523 586.616 49.3306 558.897 49.3306V77.9893H615.274C622.478 77.9893 627.803 77.7544 631.248 77.2846C634.85 76.8148 637.669 75.6403 639.705 73.761C641.897 71.7251 642.994 68.4364 642.994 63.8949Z" fill="#1F2023"/>
<path d="M949.836 179H882.887L868.558 152.69H775.77L761.44 179H694.492L788.69 5.16797H855.638L949.836 179ZM822.281 66.9487L798.791 109.937H845.537L822.281 66.9487Z" fill="#1F2023"/>
<path d="M1019.16 179H952.211V5.16797L1019.16 179ZM1115.47 103.124V5.16797H1182.42V179H1115.47L1019.16 81.0431V179H952.211V5.16797H1019.16L1115.47 103.124Z" fill="#1F2023"/>
<path d="M1315.8 74.7006C1323.32 74.3874 1329.19 74.2308 1333.42 74.2308C1356.13 74.2308 1374.53 77.4412 1388.62 83.862C1402.87 90.2828 1410 102.89 1410 121.682C1410 146.269 1399.12 162.869 1377.35 171.483C1355.58 180.096 1331.07 184.403 1303.82 184.403C1276.42 184.403 1251.28 180.096 1228.42 171.483C1205.55 162.869 1194.12 146.269 1194.12 121.682H1263.18C1263.18 130.765 1267.18 136.56 1275.16 139.065C1283.15 141.571 1292.7 142.824 1303.82 142.824C1314.31 142.824 1323.32 141.18 1330.84 137.891C1338.35 134.602 1342.11 129.512 1342.11 122.622C1342.11 116.827 1338.12 113.069 1330.13 111.346C1322.3 109.467 1313.14 108.527 1302.65 108.527L1279.16 108.762C1263.5 108.762 1249.56 107.666 1237.34 105.474C1225.28 103.124 1215.03 98.348 1206.57 91.1442C1198.27 83.7837 1194.12 73.0563 1194.12 58.9618C1194.12 41.8919 1200.15 29.0503 1212.21 20.437C1224.42 11.6671 1238.36 6.1076 1254.02 3.75852C1269.68 1.25284 1286.28 0 1303.82 0C1331.07 0 1355.58 4.30664 1377.35 12.9199C1399.12 21.3766 1410 37.9767 1410 62.7203H1342.11C1342.11 56.1429 1338.35 51.2099 1330.84 47.9212C1323.48 44.6324 1314.47 42.8315 1303.82 42.5183C1292.55 42.5183 1282.91 43.7711 1274.93 46.2768C1267.1 48.7825 1263.18 52.7759 1263.18 58.2571C1263.18 64.5213 1267.18 68.8279 1275.16 71.177C1283.15 73.5261 1292.15 74.7789 1302.18 74.9355L1315.8 74.7006Z" fill="#1F2023"/>
</svg>
