<svg width="12" height="12" viewBox="0 0 12 12" fill="none" xmlns="http://www.w3.org/2000/svg">
<g clip-path="url(#clip0_592_3346)">
<path d="M0.163576 6.0138C0.0345801 6.06131 -0.0319097 6.2043 0.0150808 6.33379L0.172083 6.76577L1.36752 5.57031L0.163576 6.0138Z" fill="#FF4D29"/>
<path d="M1.29492 9.85156L2.0149 11.8315C2.0374 11.894 2.08439 11.945 2.14438 11.9725C2.17788 11.988 2.21387 11.996 2.24987 11.996C2.27938 11.996 2.30837 11.991 2.33638 11.9805L3.13086 11.6875L1.29492 9.85156Z" fill="#FF4D29"/>
<path d="M11.9841 8.16385L11.1602 5.89844L9.18275 7.87586L10.1627 7.51487C10.2912 7.46586 10.4362 7.53286 10.4837 7.66287C10.5317 7.79236 10.4652 7.93635 10.3357 7.98386L9.09073 8.44284C9.06224 8.45334 9.03325 8.45833 9.00423 8.45833C8.90273 8.45833 8.80673 8.39583 8.76975 8.29484C8.76925 8.29334 8.76975 8.29184 8.76925 8.29034L6.67383 10.3858L11.8356 8.48383C11.9651 8.43635 12.0316 8.29334 11.9841 8.16385Z" fill="#FF4D29"/>
<path d="M11.9262 4.07299L7.92635 0.0731224C7.82886 -0.0243741 7.67036 -0.0243741 7.57286 0.0731224L0.0731224 7.57286C-0.0243741 7.67036 -0.0243741 7.82886 0.0731224 7.92635L4.07299 11.9262C4.12148 11.9752 4.18549 11.9997 4.24949 11.9997C4.3135 11.9997 4.37748 11.9752 4.42649 11.9267L11.9262 4.42698C12.0237 4.32899 12.0237 4.17098 11.9262 4.07299ZM2.92654 6.9269L1.92657 7.92685C1.87756 7.97534 1.81358 7.99985 1.74957 7.99985C1.68557 7.99985 1.62158 7.97536 1.57258 7.92685C1.47508 7.82935 1.47508 7.67085 1.57258 7.57335L2.57255 6.57338C2.67005 6.47588 2.82855 6.47588 2.92605 6.57338C3.02354 6.6709 3.02403 6.82889 2.92654 6.9269ZM7.24388 7.24437C7.06688 7.42136 6.8264 7.50637 6.55889 7.50637C6.1169 7.50637 5.60043 7.27489 5.16844 6.84239C4.85245 6.52639 4.63045 6.1484 4.54397 5.77843C4.44798 5.36594 4.52698 5.00697 4.76646 4.76697C5.00596 4.52698 5.36494 4.44798 5.77791 4.54449C6.14791 4.63099 6.5259 4.85247 6.84187 5.16896C7.53637 5.86292 7.71336 6.77489 7.24388 7.24437ZM10.4263 4.42698L9.4263 5.42695C9.37729 5.47544 9.31331 5.49996 9.24931 5.49996C9.1853 5.49996 9.12132 5.47546 9.07231 5.42695C8.97482 5.32945 8.97482 5.17095 9.07231 5.07346L10.0723 4.07348C10.1698 3.97599 10.3283 3.97599 10.4258 4.07348C10.5233 4.17098 10.5238 4.32899 10.4263 4.42698Z" fill="#FF4D29"/>
</g>
<defs>
<clipPath id="clip0_592_3346">
<rect width="12" height="12" fill="white"/>
</clipPath>
</defs>
</svg>
