<svg width="50" height="26" viewBox="0 0 50 26" fill="none" xmlns="http://www.w3.org/2000/svg">
<path d="M49.9591 4.38022C49.6231 2.69272 47.0606 1.56773 46.0684 1.27085H46.0606C46.0528 1.27085 46.045 1.26304 46.045 1.26304C43.3497 0.45835 39.0997 0.0442873 34.1856 2.62241L32.2872 3.48179L23.2794 1.64585C23.1075 1.6146 22.9356 1.63804 22.7794 1.71616L18.334 4.02866C18.0762 4.16148 17.92 4.43491 17.9278 4.72398C17.9356 5.01304 18.1075 5.27085 18.3731 5.39585L23.2637 7.57554L12.7403 12.3412L5.34967 8.52085C5.13092 8.41148 4.87311 8.41148 4.66217 8.52085L0.412172 10.6771C0.185609 10.7943 0.0371719 11.0052 0.00592189 11.2552C-0.0253281 11.5052 0.0684219 11.7552 0.255922 11.9193L5.59967 16.5912C5.97467 16.9193 6.29498 17.3412 6.58405 17.888C6.90436 18.4818 8.04498 20.2396 10.4903 20.2396C10.8184 20.2396 11.1778 20.2084 11.5528 20.138C11.6153 20.1302 17.1622 19.5443 23.1075 18.138L20.2715 24.2943C20.1387 24.5834 20.2012 24.9271 20.4278 25.1537C20.5762 25.2943 20.7637 25.3724 20.959 25.3724C21.0684 25.3724 21.1778 25.349 21.2872 25.2943L27.4122 22.3568C27.5528 22.2865 27.67 22.1849 27.7481 22.0443L31.4512 15.4662C31.9356 15.2396 32.6544 14.9115 33.5606 14.5052C38.1778 12.4271 46.7716 8.5521 49.0919 6.4271C49.9981 5.68491 50.0684 4.90366 49.9591 4.38022ZM20.4278 4.64585L23.2403 3.18491L29.9356 4.5521L25.1153 6.7396L20.4278 4.64585ZM4.99811 10.0365L7.38092 11.2709L3.75592 12.9584L2.09967 11.513L4.99811 10.0365ZM26.545 21.0834L22.5294 23.013L27.045 13.2083L32.3262 10.8177L26.545 21.0834ZM48.1075 5.27085C45.9356 7.25523 37.1622 11.2162 32.9434 13.1146C32.8653 13.1537 32.795 13.1849 32.7169 13.2162L34.7872 9.54429C34.9512 9.25523 34.9044 8.90366 34.6856 8.66148C34.4669 8.41929 34.1153 8.34897 33.8106 8.48179L26.1622 11.9427C25.9981 12.0209 25.8653 12.1537 25.7872 12.3177L23.92 16.3646C17.67 17.9427 11.4669 18.6068 11.3419 18.6224C9.24811 19.013 8.3028 17.8802 7.9278 17.1693C7.5528 16.4584 7.1153 15.8958 6.59967 15.4427L5.00592 14.0521L9.08405 12.1537L12.3731 13.8568C12.5762 13.9662 12.8262 13.9662 13.0372 13.8724L34.8575 3.98179C38.2403 2.20835 41.2481 1.97398 43.5606 2.27866L41.1309 3.49741C40.7559 3.68491 40.6075 4.13804 40.795 4.51304C40.9278 4.77866 41.1934 4.93491 41.4747 4.93491C41.5919 4.93491 41.7012 4.91148 41.8106 4.85679L45.8887 2.81772C47.0294 3.22397 48.3575 4.08335 48.4825 4.69273C48.4903 4.7396 48.5216 4.9271 48.1075 5.27085Z" fill="#4C4D51"/>
</svg>
