<svg width="40" height="26" viewBox="0 0 40 26" fill="none" xmlns="http://www.w3.org/2000/svg">
<path fill-rule="evenodd" clip-rule="evenodd" d="M4.92329 22.1942H2.72831C1.97666 22.1942 1.29497 21.888 0.799998 21.3938C0.306687 20.8996 0 20.219 0 19.4685V2.72579C0 1.97529 0.306666 1.29465 0.801662 0.800433C1.29668 0.306174 1.97832 0 2.72998 0H23.5717C24.3234 0 25.0051 0.306196 25.5 0.800433C25.9951 1.29469 26.3017 1.97529 26.3017 2.72579V5.73117H33.8635C34.1518 5.73117 34.4235 5.79441 34.6685 5.91588C34.9135 6.03737 35.1268 6.21709 35.3018 6.44674L39.8467 12.4693C39.9417 12.5841 40 12.7305 40 12.8903V20.3936C40 20.8895 39.7983 21.3388 39.4717 21.665C39.145 21.9911 38.695 22.1925 38.1983 22.1925H36.34C36.1983 23.1627 35.7433 24.0314 35.08 24.692C34.2717 25.4991 33.1567 25.9983 31.9234 25.9983C30.6917 25.9983 29.575 25.4991 28.7667 24.692C28.1034 24.0297 27.65 23.1627 27.5067 22.1925H25.6484L13.7568 22.1942C13.6151 23.1643 13.1601 24.033 12.4968 24.6937C11.6885 25.5008 10.5735 26 9.34017 26C8.10685 26 6.99184 25.5008 6.18353 24.6937C5.52185 24.0314 5.06661 23.1627 4.92329 22.1942ZM4.26495 14.2231H22.0347C22.3964 14.2231 22.688 13.9319 22.688 13.5708C22.688 13.2114 22.3964 12.9185 22.0347 12.9185H4.26495C3.90495 12.9185 3.61164 13.2097 3.61164 13.5708C3.61164 13.9303 3.90497 14.2231 4.26495 14.2231ZM13.7565 20.8894H24.9932V2.72553C24.9932 2.33613 24.8332 1.98001 24.5749 1.72207C24.3165 1.46413 23.9615 1.30437 23.5699 1.30437H2.72811C2.33811 1.30437 1.98145 1.46413 1.7231 1.72207C1.46477 1.98 1.30477 2.33446 1.30477 2.72553V19.4682C1.30477 19.8576 1.46477 20.2137 1.7231 20.47C1.98143 20.7279 2.33643 20.8877 2.72811 20.8877H4.92309C5.06643 19.9175 5.51974 19.0489 6.18308 18.3882C6.99139 17.5811 8.1064 17.0819 9.33972 17.0819C10.573 17.0819 11.688 17.5811 12.4964 18.3882C13.158 19.0522 13.6132 19.9192 13.7565 20.8894ZM9.33971 24.6935C10.2114 24.6935 11.0014 24.3407 11.573 23.7699C12.1447 23.1991 12.4981 22.4104 12.4981 21.54C12.4981 20.6697 12.1447 19.8809 11.573 19.3101C11.0014 18.7393 10.2114 18.3865 9.33971 18.3865C8.46803 18.3865 7.67806 18.7393 7.10637 19.3101C6.53468 19.8809 6.18136 20.6697 6.18136 21.54C6.18136 22.4104 6.53469 23.1991 7.10637 23.7699C7.67805 24.3407 8.46803 24.6935 9.33971 24.6935ZM36.3378 20.8894H38.1962C38.3328 20.8894 38.4562 20.8328 38.5462 20.7446C38.6362 20.6547 38.6911 20.5299 38.6911 20.3951V13.544L32.3714 13.5424C32.0114 13.5424 31.7181 13.2511 31.7181 12.8901V8.50171C31.7181 8.1406 32.0097 7.8494 32.3714 7.8494C32.733 7.8494 33.0247 8.14062 33.0247 8.50171V12.2376H38.0363L34.258 7.23198C34.208 7.16542 34.1496 7.11549 34.0846 7.08388C34.0213 7.05226 33.9463 7.03562 33.8613 7.03562H26.2995V20.8895H27.5062C27.6495 19.9193 28.1045 19.0507 28.7661 18.39C29.5745 17.5829 30.6895 17.0837 31.9228 17.0837C33.1544 17.0837 34.2711 17.5829 35.0794 18.39C35.7411 19.0523 36.1962 19.9192 36.3378 20.8894ZM31.921 24.6935C32.7926 24.6935 33.5826 24.3407 34.1543 23.7699C34.726 23.1992 35.0793 22.4104 35.0793 21.54C35.0793 20.6697 34.726 19.8809 34.1543 19.3101C33.5827 18.7393 32.7926 18.3865 31.921 18.3865C31.0493 18.3865 30.2593 18.7393 29.6876 19.3101C29.116 19.8809 28.7626 20.6697 28.7626 21.54C28.7626 22.4104 29.116 23.1991 29.6876 23.7699C30.261 24.3407 31.0493 24.6935 31.921 24.6935Z" fill="#4C4D51"/>
</svg>
