<svg width="37" height="37" viewBox="0 0 37 37"  xmlns="http://www.w3.org/2000/svg">
<g clip-path="url(#clip0_511_22958)">
<path d="M13.8498 8.03906H10.3549C9.85767 8.03906 9.45312 8.44361 9.45312 8.94079V10.6017C9.45312 11.0989 9.85767 11.5034 10.3549 11.5034H13.8498C14.347 11.5034 14.7516 11.0989 14.7516 10.6017V8.94079C14.7516 8.44361 14.347 8.03906 13.8498 8.03906ZM13.6663 10.418H10.5385V9.12435H13.6663V10.418Z" />
<path d="M20.2483 8.03906H16.7533C16.2561 8.03906 15.8516 8.44361 15.8516 8.94079V10.6017C15.8516 11.0989 16.2561 11.5034 16.7533 11.5034H20.2483C20.7455 11.5034 21.15 11.0989 21.15 10.6017V8.94079C21.15 8.44361 20.7455 8.03906 20.2483 8.03906ZM20.0646 10.418H16.9369V9.12435H20.0646V10.418Z" />
<path d="M26.6467 8.03906H23.1517C22.6545 8.03906 22.25 8.44361 22.25 8.94079V10.6017C22.25 11.0989 22.6545 11.5034 23.1517 11.5034H26.6467C27.1439 11.5034 27.5484 11.0989 27.5484 10.6017V8.94079C27.5484 8.44361 27.1439 8.03906 26.6467 8.03906ZM26.4632 10.418H23.3354V9.12435H26.4632V10.418Z" />
<path d="M36.1832 34.9109C35.1165 34.9492 34.5142 35.221 33.9829 35.4608C33.438 35.7068 32.9673 35.9193 31.962 35.9193C30.9566 35.9193 30.486 35.7068 29.941 35.4608C29.3651 35.2009 28.7125 34.9062 27.4735 34.9062C26.2345 34.9062 25.5819 35.2008 25.006 35.4608C24.4611 35.7068 23.9904 35.9193 22.9851 35.9193C21.9799 35.9193 21.5093 35.7068 20.9644 35.4608C20.3885 35.2009 19.7358 34.9062 18.497 34.9062C17.2582 34.9062 16.6056 35.2008 16.0298 35.4608C15.4849 35.7068 15.0143 35.9193 14.0091 35.9193C13.0039 35.9193 12.5333 35.7068 11.9883 35.4608C11.4124 35.2009 10.7598 34.9062 9.52095 34.9062C8.2821 34.9062 7.6294 35.2008 7.05359 35.4608C6.50863 35.7068 6.03804 35.9193 5.03282 35.9193C4.02761 35.9193 3.55702 35.7068 3.01213 35.4608C2.48084 35.221 1.87872 34.9492 0.812078 34.9109C0.512681 34.9023 0.261052 35.1344 0.250357 35.4339C0.239589 35.7334 0.47373 35.9849 0.773271 35.9956C1.62666 36.0261 2.06177 36.2226 2.5656 36.4501C3.14149 36.71 3.79412 37.0046 5.03297 37.0046C6.27182 37.0046 6.92445 36.7101 7.50033 36.4501C8.04529 36.2041 8.51588 35.9916 9.52117 35.9916C10.5265 35.9916 10.997 36.2041 11.5419 36.4501C12.1178 36.71 12.7704 37.0046 14.0092 37.0046C15.2481 37.0046 15.9007 36.71 16.4765 36.4501C17.0214 36.2041 17.492 35.9916 18.4972 35.9916C19.5024 35.9916 19.973 36.2041 20.518 36.4501C21.0939 36.71 21.7465 37.0046 22.9853 37.0046C24.2242 37.0046 24.8769 36.7101 25.4527 36.4501C25.9977 36.2041 26.4683 35.9916 27.4736 35.9916C28.479 35.9916 28.9496 36.2041 29.4946 36.4501C30.0705 36.71 30.7232 37.0046 31.9621 37.0046C33.201 37.0046 33.8537 36.7101 34.4296 36.4501C34.9335 36.2226 35.3687 36.0261 36.2222 35.9956C36.5218 35.9848 36.7558 35.7333 36.7451 35.4339C36.7342 35.1343 36.4813 34.8992 36.1832 34.9109Z"/>
<path d="M36.1612 32.5614C35.1094 32.6026 34.5119 32.8723 33.9846 33.1103C33.4397 33.3563 32.969 33.5688 31.9637 33.5688C31.1314 33.5688 30.6655 33.4229 30.2205 33.2332L35.5502 20.6153C35.7014 20.2574 35.7031 19.8626 35.5553 19.5033C35.4075 19.144 35.1282 18.8648 34.769 18.7169L30.7241 17.0527L30.2652 13.1182C30.2304 12.8206 29.9612 12.6063 29.6633 12.6421C29.3656 12.6768 29.1524 12.9463 29.1871 13.244L29.5764 16.5805L18.706 12.1078C18.5737 12.0534 18.4253 12.0534 18.293 12.1078L7.42224 16.5805L8.43353 7.91085C8.49025 7.42414 8.9026 7.0571 9.39263 7.0571H11.9052H25.0932H27.6057C28.0958 7.0571 28.508 7.42414 28.5648 7.91085L28.8984 10.7708C28.9332 11.0684 29.2024 11.2822 29.5003 11.2468C29.798 11.2122 30.0112 10.9427 29.9765 10.6449L29.6429 7.78503C29.5223 6.75127 28.6465 5.97174 27.6057 5.97174H25.6359V4.1169C25.6359 3.34546 25.0084 2.71798 24.237 2.71798H20.848V1.12055C20.848 0.50268 20.3453 0 19.7274 0H17.2712C16.6533 0 16.1506 0.50268 16.1506 1.12055V2.71798H12.7616C11.9902 2.71798 11.3627 3.34554 11.3627 4.1169V5.97174H9.39285C8.35208 5.97174 7.4763 6.75127 7.35568 7.78503L6.27445 17.0527L2.22959 18.717C1.87036 18.8649 1.59113 19.1441 1.44327 19.5033C1.29542 19.8626 1.29722 20.2575 1.4484 20.6154L6.77792 33.233C6.33284 33.4229 5.86701 33.5688 5.03437 33.5688C4.02923 33.5688 3.55863 33.3564 3.01368 33.1104C2.4865 32.8724 1.88901 32.6027 0.837397 32.5614C0.536411 32.5481 0.285505 32.7829 0.27387 33.0824C0.262018 33.3819 0.495292 33.6342 0.79476 33.6459C1.63514 33.679 2.067 33.8739 2.56707 34.0996C3.14289 34.3596 3.79552 34.6542 5.0343 34.6542C6.27315 34.6542 6.92578 34.3596 7.50166 34.0996C7.56916 34.0691 7.63557 34.0392 7.70198 34.0101C7.70227 34.0099 7.70256 34.0099 7.70292 34.0097C7.7139 34.005 7.72496 34.0002 7.73595 33.9954C7.7556 33.9869 7.77526 33.9784 7.79499 33.97C7.8038 33.9662 7.81284 33.9625 7.82173 33.9588C7.84709 33.9482 7.87246 33.9377 7.89811 33.9274C7.90346 33.9252 7.90881 33.9231 7.91415 33.9211C7.94422 33.9091 7.97442 33.8973 8.00506 33.8859C8.00745 33.8851 8.00983 33.8841 8.01222 33.8833C8.14865 33.8326 8.29225 33.7874 8.45152 33.7501C8.46453 33.747 8.47819 33.7442 8.49141 33.7413C8.5162 33.7358 8.54113 33.7303 8.56671 33.7252C8.58622 33.7213 8.60631 33.7177 8.6264 33.714C8.64685 33.7103 8.66738 33.7066 8.68833 33.7031C8.71139 33.6993 8.73495 33.6957 8.75872 33.6922C8.77831 33.6893 8.79811 33.6866 8.8182 33.6839C8.84342 33.6805 8.86893 33.6774 8.89494 33.6744C8.91547 33.672 8.93649 33.6699 8.9576 33.6678C8.98397 33.6652 9.01049 33.6626 9.03781 33.6603C9.06137 33.6584 9.08572 33.6568 9.11 33.655C9.13602 33.6532 9.16189 33.6514 9.18877 33.6499C9.21927 33.6482 9.25107 33.6472 9.28272 33.6459C9.30505 33.6451 9.3268 33.644 9.34971 33.6434C9.40557 33.642 9.46295 33.6411 9.52242 33.6411C10.5276 33.6411 10.9982 33.8536 11.5432 34.0995C11.5872 34.1194 11.6319 34.1394 11.677 34.1596C12.2224 34.4028 12.8663 34.6541 14.0106 34.6541C15.0171 34.6541 15.6367 34.4596 16.1425 34.2473C16.2592 34.1983 16.3699 34.1483 16.4778 34.0995C17.0227 33.8536 17.4933 33.6411 18.4985 33.6411C19.5038 33.6411 19.9743 33.8536 20.5193 34.0995C21.0952 34.3595 21.7478 34.6541 22.9867 34.6541C24.1271 34.6541 24.7705 34.4045 25.3148 34.1621C25.3618 34.1411 25.4084 34.1202 25.4541 34.0996C25.9991 33.8536 26.4697 33.6412 27.475 33.6412C27.5346 33.6412 27.5919 33.642 27.6478 33.6435C27.6708 33.6441 27.6925 33.6452 27.7149 33.646C27.7464 33.6472 27.7782 33.6483 27.8087 33.6499C27.8358 33.6514 27.8619 33.6532 27.8882 33.6551C27.9121 33.6568 27.9361 33.6584 27.9594 33.6603C27.9871 33.6626 28.0139 33.6652 28.0406 33.6679C28.0613 33.67 28.0819 33.6721 28.1021 33.6744C28.1286 33.6774 28.1546 33.6807 28.1802 33.6841C28.1997 33.6867 28.2189 33.6894 28.2379 33.6922C28.2623 33.6958 28.2865 33.6995 28.3101 33.7034C28.3303 33.7067 28.3501 33.7103 28.3698 33.7139C28.3906 33.7176 28.4114 33.7214 28.4317 33.7254C28.4562 33.7303 28.48 33.7355 28.5037 33.7407C28.5181 33.7439 28.5328 33.747 28.5469 33.7503C28.6662 33.7783 28.7768 33.8106 28.8821 33.8464C28.8822 33.8465 28.8824 33.8465 28.8826 33.8465C28.9174 33.8584 28.9515 33.8706 28.9852 33.8831C28.988 33.8841 28.9907 33.8851 28.9934 33.8862C29.0237 33.8976 29.0538 33.9092 29.0836 33.9211C29.0889 33.9232 29.0943 33.9253 29.0998 33.9275C29.1257 33.9379 29.1514 33.9485 29.1771 33.9593C29.1855 33.9628 29.194 33.9663 29.2024 33.9698C29.2241 33.979 29.2457 33.9884 29.2674 33.9978C29.2767 34.0018 29.2861 34.0058 29.2955 34.0099C29.2957 34.01 29.2959 34.0101 29.2961 34.0102C29.3624 34.0392 29.4287 34.0691 29.4961 34.0995C30.072 34.3595 30.7247 34.6541 31.9636 34.6541C33.2026 34.6541 33.8553 34.3596 34.4312 34.0995C34.9313 33.8738 35.3632 33.6788 36.2038 33.6459C36.5032 33.6342 36.7365 33.3818 36.7247 33.0823C36.713 32.7828 36.46 32.5508 36.1612 32.5614ZM17.2357 1.12055C17.2358 1.10111 17.2516 1.08536 17.271 1.08536H19.7272C19.7466 1.08536 19.7624 1.10111 19.7624 1.12055V2.71798H17.2357V1.12055ZM12.4477 4.1169C12.4477 3.94397 12.5884 3.80334 12.7613 3.80334H16.6931H20.3051H24.2369C24.4098 3.80334 24.5504 3.94404 24.5504 4.1169V5.97174H12.4477V4.1169ZM29.2189 32.8147C28.9645 32.7291 28.6699 32.6542 28.3117 32.6073C28.3057 32.6065 28.2997 32.6057 28.2937 32.6049C28.2367 32.5977 28.1783 32.591 28.118 32.5852C28.1128 32.5847 28.1073 32.5843 28.1021 32.5838C28.0464 32.5786 27.9893 32.5741 27.9306 32.5703C27.9219 32.5698 27.9133 32.5691 27.9045 32.5685C27.8441 32.5648 27.7819 32.562 27.7181 32.5599C27.7046 32.5595 27.6908 32.5591 27.6771 32.5588C27.6113 32.557 27.5444 32.5557 27.4749 32.5557C26.236 32.5557 25.5834 32.8503 25.0075 33.1103C24.4625 33.3563 23.9919 33.5688 22.9866 33.5688C21.9814 33.5688 21.5108 33.3563 20.9658 33.1103C20.3899 32.8504 19.7373 32.5557 18.4985 32.5557C17.2597 32.5557 16.6071 32.8503 16.0312 33.1103C15.4864 33.3563 15.0158 33.5688 14.0106 33.5688C13.0053 33.5688 12.5347 33.3563 11.9898 33.1103C11.45 32.8666 10.8426 32.5924 9.74796 32.5591C9.67498 32.5569 9.59982 32.5557 9.52242 32.5557C9.4529 32.5557 9.38591 32.557 9.32008 32.5588C9.30657 32.5591 9.29291 32.5595 9.27954 32.5599C9.21566 32.562 9.15329 32.5648 9.09273 32.5685C9.08421 32.569 9.0759 32.5697 9.06744 32.5703C9.00811 32.5741 8.95022 32.5786 8.894 32.5839C8.88938 32.5844 8.88468 32.5847 8.88006 32.5851C8.81906 32.591 8.76002 32.5977 8.70243 32.6051C8.69737 32.6057 8.69231 32.6064 8.68732 32.607C8.32874 32.6539 8.0339 32.7287 7.77931 32.8143L3.27101 22.1412L5.31664 21.3388C5.59565 21.2293 5.7331 20.9144 5.62369 20.6354C5.51421 20.3564 5.19935 20.2191 4.92033 20.3283L2.84855 21.141L2.44813 20.1931C2.41048 20.1041 2.41004 20.0058 2.44682 19.9164C2.48361 19.827 2.55306 19.7576 2.64245 19.7207L18.4991 13.1964L34.3557 19.7207C34.4451 19.7575 34.5145 19.827 34.5513 19.9164C34.5881 20.0058 34.5877 20.1041 34.5501 20.1931L34.1497 21.141L18.6973 15.0799C18.5699 15.03 18.4284 15.03 18.301 15.0799L7.27099 19.4064C6.99197 19.5158 6.85452 19.8308 6.96393 20.1097C7.07341 20.3887 7.38835 20.5262 7.66729 20.4168L18.4991 16.1681L33.7272 22.1412L29.2189 32.8147Z" />
</g>
<defs>
<clipPath id="clip0_511_22958">
<rect width="37" height="37" />
</clipPath>
</defs>
</svg>
