<svg width="648" height="85" viewBox="0 0 648 85" fill="none" xmlns="http://www.w3.org/2000/svg">
<path d="M68.2292 2.38217L102.344 2.38217L71.4679 42.7707L102.344 82.5096H68.2292L51.1719 60.7452L34.1146 82.5096H0L30.9838 42.7707L0 2.38217L34.1146 2.38217L51.1719 24.2548L68.2292 2.38217Z" fill="#252528"/>
<path d="M95.1789 59.3376V43.0955H132.856V59.3376H95.1789Z" fill="#252528"/>
<path d="M125.615 27.2866V2.38217L221.805 2.38217L125.615 27.2866ZM221.805 2.38217V27.2866L189.309 27.2866V82.5096H158.542V27.2866L125.615 27.2866V2.38217L221.805 2.38217Z" fill="#252528"/>
<path d="M289.458 82.5096L267.327 56.6306H256.855V82.5096H227.706V2.38217L289.89 2.38217C296.583 2.38217 302.485 3.50106 307.595 5.73885C312.777 7.97664 316.771 11.1168 319.578 15.1592C322.457 19.1295 323.896 23.7495 323.896 29.0191V29.4522C323.896 36.31 321.881 41.9766 317.851 46.4522C313.892 50.9278 308.386 53.9236 301.333 55.4395L324.544 82.5096H289.458ZM295.503 29.4522C295.503 27.2866 295 25.7346 293.992 24.7962C293.056 23.7856 291.761 23.172 290.106 22.9554C288.522 22.7389 286.075 22.6306 282.764 22.6306H279.31C277.079 22.7028 269.594 22.7388 256.855 22.7388V35.949H282.764C286.075 35.949 288.522 35.8408 290.106 35.6242C291.761 35.4076 293.056 34.8662 293.992 34C295 33.0616 295.503 31.5456 295.503 29.4522Z" fill="#252528"/>
<path d="M436.52 82.5096H405.753L399.167 70.3822H356.524L349.939 82.5096L319.171 82.5096L362.462 2.38217L393.229 2.38217L436.52 82.5096ZM377.9 30.8599L367.104 50.6752H388.587L377.9 30.8599Z" fill="#252528"/>
<path d="M468.38 82.5096H437.612V2.38217L468.38 82.5096ZM512.642 47.535V2.38217L543.41 2.38217V82.5096H512.642L468.38 37.3567V82.5096H437.612V2.38217L468.38 2.38217L512.642 47.535Z" fill="#252528"/>
<path d="M604.709 34.4331C608.164 34.2887 610.863 34.2166 612.806 34.2166C623.242 34.2166 631.698 35.6964 638.176 38.656C644.725 41.6157 648 47.4268 648 56.0892C648 67.4225 642.998 75.0743 632.994 79.0446C622.99 83.0149 611.726 85 599.203 85C586.608 85 575.057 83.0149 564.549 79.0446C554.041 75.0743 548.787 67.4225 548.787 56.0892H580.527C580.527 60.276 582.362 62.9469 586.032 64.1019C589.703 65.2569 594.093 65.8344 599.203 65.8344C604.025 65.8344 608.164 65.0764 611.618 63.5605C615.073 62.0446 616.8 59.6985 616.8 56.5223C616.8 53.8514 614.965 52.1189 611.294 51.3248C607.696 50.4586 603.486 50.0255 598.663 50.0255L587.868 50.1338C580.67 50.1338 574.265 49.6284 568.651 48.6178C563.109 47.535 558.395 45.3333 554.509 42.0127C550.694 38.62 548.787 33.6752 548.787 27.1783C548.787 19.31 551.558 13.3907 557.1 9.42038C562.714 5.37792 569.119 2.81529 576.316 1.73248C583.513 0.577494 591.142 0 599.203 0C611.726 0 622.99 1.98514 632.994 5.95541C642.998 9.8535 648 17.5053 648 28.9108H616.8C616.8 25.879 615.073 23.6051 611.618 22.0892C608.236 20.5732 604.097 19.7431 599.203 19.5987C594.021 19.5987 589.595 20.1762 585.924 21.3312C582.326 22.4862 580.527 24.327 580.527 26.8535C580.527 29.741 582.362 31.7261 586.032 32.8089C589.703 33.8917 593.841 34.4692 598.448 34.5414L604.709 34.4331Z" fill="#252528"/>
</svg>
