<svg width="54" height="54" viewBox="0 0 54 54" fill="none" xmlns="http://www.w3.org/2000/svg">
<g clip-path="url(#clip0_511_23371)">
<mask id="mask0_511_23371" style="mask-type:luminance" maskUnits="userSpaceOnUse" x="0" y="0" width="54" height="54">
<path d="M54 0H0V54H54V0Z" fill="white"/>
</mask>
<g mask="url(#mask0_511_23371)">
<path d="M53.2473 5.4H25.5993C24.8433 5.4 24.1953 4.752 24.1953 3.996V1.404C24.1953 0.648 24.8433 0 25.5993 0H52.5993C53.3553 0 54.0033 0.648 54.0033 1.404V4.644C54.0033 5.076 53.6793 5.4 53.2473 5.4ZM25.8153 3.78H52.3833V1.62H25.8153V3.78Z" fill="#5B5C61"/>
<path d="M53.2473 41.0406H25.5993C24.8433 41.0406 24.1953 40.3926 24.1953 39.6366V37.0446C24.1953 36.2886 24.8433 35.6406 25.5993 35.6406H53.2473C53.6793 35.6406 54.1113 35.9646 54.1113 36.5046V40.2846C54.0033 40.7166 53.6793 41.0406 53.2473 41.0406ZM25.8153 39.4206H52.3833V37.2606H25.8153V39.4206Z" fill="#5B5C61"/>
<path d="M38.8831 54.0005C34.8871 54.0005 31.5391 50.7605 31.5391 46.6565C31.5391 42.5525 34.7791 39.3125 38.8831 39.3125C42.9871 39.3125 46.2271 42.5525 46.2271 46.6565C46.2271 50.7605 42.9871 54.0005 38.8831 54.0005ZM38.8831 41.0405C35.7511 41.0405 33.2671 43.6325 33.2671 46.6565C33.2671 49.6805 35.8591 52.2725 38.8831 52.2725C41.9071 52.2725 44.4991 49.6805 44.4991 46.6565C44.4991 43.6325 42.0151 41.0405 38.8831 41.0405Z" fill="#5B5C61"/>
<path d="M38.8804 50.3311C36.9364 50.3311 35.3164 48.7111 35.3164 46.7671C35.3164 44.8231 36.9364 43.2031 38.8804 43.2031C40.8244 43.2031 42.4444 44.8231 42.4444 46.7671C42.4444 48.7111 40.9324 50.3311 38.8804 50.3311ZM38.8804 44.7151C37.8004 44.7151 36.9364 45.5791 36.9364 46.6591C36.9364 47.7391 37.8004 48.6031 38.8804 48.6031C39.9604 48.6031 40.8244 47.7391 40.8244 46.6591C40.8244 45.5791 40.0684 44.7151 38.8804 44.7151Z" fill="#5B5C61"/>
<path d="M32.3982 47.5219H28.0782C26.9982 47.5219 26.2422 46.6579 26.2422 45.6859V40.2859C26.2422 39.8539 26.5662 39.4219 27.1062 39.4219H38.8782C39.3102 39.4219 39.7422 39.7459 39.7422 40.2859C39.7422 40.8259 39.4182 41.0419 38.8782 41.0419C35.7462 41.0419 33.2622 43.6339 33.2622 46.6579C33.2622 47.1979 32.9382 47.5219 32.3982 47.5219ZM27.7542 41.0419V45.6859C27.7542 45.7939 27.8622 45.9019 27.9702 45.9019H31.6422C31.8582 43.9579 32.8302 42.2299 34.3422 41.0419H27.7542Z" fill="#5B5C61"/>
<path d="M52.1636 47.5205H45.3596C44.9276 47.5205 44.4956 47.1965 44.4956 46.6565C44.4956 43.5245 41.9036 41.0405 38.8796 41.0405C38.4476 41.0405 38.0156 40.7165 38.0156 40.1765C38.0156 39.6365 38.3396 39.3125 38.8796 39.3125H53.1356C53.5676 39.3125 53.9996 39.6365 53.9996 40.1765V45.5765C53.9996 46.6565 53.1356 47.5205 52.1636 47.5205ZM46.2236 45.9005H52.1636C52.2716 45.9005 52.3796 45.7925 52.3796 45.6845V41.0405H43.5236C44.9276 42.2285 46.0076 43.9565 46.2236 45.9005Z" fill="#5B5C61"/>
<path d="M30.0242 34.2367C29.5922 34.2367 29.1602 33.9127 29.1602 33.3727V7.66869C29.1602 7.23669 29.4842 6.80469 30.0242 6.80469C30.5642 6.80469 30.8882 7.12869 30.8882 7.66869V33.4807C30.7802 33.9127 30.4562 34.2367 30.0242 34.2367Z" fill="#5B5C61"/>
<path d="M33.8054 34.2367C33.3734 34.2367 32.9414 33.9127 32.9414 33.3727V7.66869C32.9414 7.23669 33.2654 6.80469 33.8054 6.80469C34.3454 6.80469 34.6694 7.12869 34.6694 7.66869V33.4807C34.6694 33.9127 34.3454 34.2367 33.8054 34.2367Z" fill="#5B5C61"/>
<path d="M41.4734 34.2367C41.0414 34.2367 40.6094 33.9127 40.6094 33.3727V7.66869C40.6094 7.23669 40.9334 6.80469 41.4734 6.80469C42.0134 6.80469 42.3374 7.12869 42.3374 7.66869V33.4807C42.3374 33.9127 42.0134 34.2367 41.4734 34.2367Z" fill="#5B5C61"/>
<path d="M49.2468 34.2367C48.8148 34.2367 48.3828 33.9127 48.3828 33.3727V7.66869C48.3828 7.23669 48.7068 6.80469 49.2468 6.80469C49.7868 6.80469 50.1108 7.12869 50.1108 7.66869V33.4807C50.0028 33.9127 49.6788 34.2367 49.2468 34.2367Z" fill="#5B5C61"/>
<path d="M10.2607 39.8532C10.1527 39.8532 10.0447 39.8532 10.0447 39.8532C9.72069 39.7452 9.50469 39.6372 9.28869 39.3132L6.91269 35.5332C6.80469 35.3172 6.80469 35.1012 6.80469 34.8852C6.80469 34.6692 7.02069 34.4532 7.12869 34.3452L9.72069 32.7252C9.93669 32.6172 10.1527 32.6172 10.3687 32.6172C10.5847 32.6172 10.8007 32.8332 10.9087 32.9412L13.2847 36.7212C13.5007 37.0452 13.5007 37.3692 13.3927 37.6932C13.2847 38.0172 13.1767 38.2332 12.8527 38.4492L10.9087 39.7452C10.6927 39.7452 10.4767 39.8532 10.2607 39.8532ZM8.64069 35.3172L10.3687 38.0172L11.6647 37.1532L9.93669 34.4532L8.64069 35.3172Z" fill="#5B5C61"/>
<path d="M9.83019 47.1927C9.29019 47.1927 8.85819 46.9767 8.64219 46.5447L3.45819 38.4447C3.24219 38.1207 3.24219 37.6887 3.24219 37.2567C3.35019 36.8247 3.56619 36.5007 3.89019 36.2847L12.8542 30.5607C13.5022 30.1287 14.4742 30.3447 14.9062 30.9927L20.0902 39.0927C20.5222 39.7407 20.3062 40.4967 19.7662 41.0367C19.7662 41.0367 19.6582 41.0367 19.6582 41.1447L10.5862 46.8687C10.3702 47.1927 10.1542 47.1927 9.83019 47.1927ZM4.97019 37.6887L9.93819 45.5727L18.6862 40.0647L13.7182 32.1807L4.97019 37.6887Z" fill="#5B5C61"/>
<path d="M0.75647 42.5546C0.54047 42.5546 0.21647 42.4466 0.10847 42.2306C-0.10753 41.9066 0.000469731 41.3666 0.32447 41.1506L2.16047 39.8546C2.48447 39.6386 3.02447 39.7466 3.24047 40.0706C3.45647 40.3946 3.34847 40.9346 3.02447 41.1506L1.18847 42.3386C1.08047 42.4466 0.97247 42.5546 0.75647 42.5546Z" fill="#5B5C61"/>
<path d="M0.75647 49.2513C0.54047 49.2513 0.21647 49.1433 0.10847 48.9273C-0.10753 48.6033 0.000469731 48.0633 0.32447 47.8473L5.07647 44.8233C5.40047 44.6073 5.94047 44.7153 6.15647 45.0393C6.37247 45.3633 6.26447 45.9033 5.94047 46.1193L1.18847 49.1433C1.08047 49.2513 0.97247 49.2513 0.75647 49.2513Z" fill="#5B5C61"/>
<path d="M0.75647 45.8965C0.54047 45.8965 0.21647 45.7885 0.10847 45.5725C-0.10753 45.2485 0.000469731 44.7085 0.32447 44.4925L3.56447 42.4405C3.88847 42.2245 4.42847 42.3325 4.64447 42.6565C4.86047 42.9805 4.75247 43.5205 4.42847 43.7365L1.18847 45.7885C1.08047 45.7885 0.97247 45.8965 0.75647 45.8965Z" fill="#5B5C61"/>
<path d="M10.5832 29.5896L2.91519 29.0496C2.48319 29.0496 2.05119 28.7256 1.83519 28.4016C1.61919 28.0776 1.61919 27.5376 1.72719 27.1056L4.64319 20.0856C4.85919 19.6536 5.29119 19.3296 5.83119 19.2216C6.37119 19.2216 6.80319 19.4376 7.12719 19.8696L7.99119 21.2736L15.7672 16.5216C16.4152 16.0896 17.2792 16.3056 17.7112 16.9536L19.1152 19.2216C19.3312 19.5456 19.3312 19.8696 19.3312 20.3016C19.2232 20.6256 19.0072 20.9496 18.6832 21.1656L10.9072 25.9176L11.7712 27.3216C12.0952 27.7536 12.0952 28.2936 11.7712 28.7256C11.4472 29.3736 11.0152 29.5896 10.5832 29.5896ZM3.34719 27.5376L10.0432 27.9696L9.17919 26.5656C8.96319 26.2416 8.96319 25.9176 9.07119 25.5936C9.17919 25.2696 9.28719 25.0536 9.61119 24.8376L17.6032 19.9776L16.4152 18.0336L8.53119 22.8936C8.20719 23.1096 7.88319 23.1096 7.55919 23.0016C7.23519 22.8936 7.01919 22.7856 6.80319 22.4616L5.93919 21.0576L3.34719 27.5376Z" fill="#5B5C61"/>
<path d="M4.85982 53.999H1.40382C0.755815 53.999 0.215815 53.567 0.107815 53.027C-0.108185 52.379 0.215815 51.839 0.647815 51.407L24.6238 36.287C24.8398 36.071 25.2718 36.071 25.4878 36.287C25.7038 36.503 25.9198 36.719 25.8118 37.043V39.419C26.1358 39.527 26.3518 39.743 26.4598 39.959C26.5678 40.283 26.4598 40.715 26.1358 40.823L17.8198 46.115C17.4958 46.331 16.9558 46.223 16.7398 45.899C16.5238 45.575 16.6318 45.035 16.9558 44.819L24.4078 40.175C24.2998 39.959 24.2998 39.851 24.2998 39.635V38.447L2.15982 52.379H4.85982C4.96782 52.379 4.96781 52.379 5.07582 52.271L13.7158 46.763C14.0398 46.547 14.5798 46.655 14.7958 46.979C15.0118 47.303 14.9038 47.843 14.5798 48.059L5.93982 53.567C5.61582 53.891 5.29182 53.999 4.85982 53.999Z" fill="#5B5C61"/>
<path d="M53.2441 37.2612H26.0281C25.5961 37.2612 25.1641 36.9373 25.1641 36.3973V4.64525C25.1641 4.21325 25.4881 3.78125 26.0281 3.78125H53.2441C53.6761 3.78125 54.1081 4.10525 54.1081 4.64525V19.4413C54.1081 19.8733 53.7841 20.3053 53.2441 20.3053C52.7041 20.3053 52.3801 19.9813 52.3801 19.4413V5.40125H26.7841V35.6413H52.3801V23.1133C52.3801 22.6812 52.7041 22.2493 53.2441 22.2493C53.7841 22.2493 54.1081 22.5732 54.1081 23.1133V36.5052C54.0001 36.8293 53.6761 37.2612 53.2441 37.2612Z" fill="#5B5C61"/>
</g>
</g>
<defs>
<clipPath id="clip0_511_23371">
<rect width="54" height="54" fill="white"/>
</clipPath>
</defs>
</svg>
