<svg width="60" height="62" viewBox="0 0 60 62" fill="none" xmlns="http://www.w3.org/2000/svg">
<path d="M22.6425 30.0052C22.4856 30.0052 22.3287 29.9648 22.187 29.8863L20.6787 29.0511C20.3269 28.8563 20.1396 28.4614 20.2054 28.0667L21.6201 19.8263L14.3315 12.7223C14.0733 12.4717 13.9822 12.0972 14.0936 11.7555C14.2049 11.4139 14.4985 11.1658 14.8553 11.1152L24.9279 9.65244L29.4327 0.526403C29.5922 0.204996 29.9186 0 30.278 0C30.6374 0 30.9639 0.202463 31.1233 0.526403L35.6281 9.65244L45.6981 11.1152C46.0524 11.1658 46.3485 11.4164 46.4598 11.7555C46.5712 12.0972 46.4776 12.4717 46.2219 12.7223L38.9359 19.8263L40.3152 27.8639C40.4037 28.3776 40.0596 28.8636 39.5458 28.9521C39.0321 29.0407 38.5461 28.6965 38.4576 28.1828L36.9948 19.6567C36.9416 19.3504 37.0429 19.0392 37.2656 18.8215L43.5394 12.7046L34.8688 11.4443C34.5626 11.3987 34.2968 11.2064 34.1602 10.928L30.2805 3.06985L26.4008 10.928C26.2641 11.2064 25.9984 11.3987 25.6921 11.4443L17.0189 12.7046L23.2953 18.8215C23.518 19.0391 23.6192 19.3504 23.5661 19.6567L22.1817 27.7273L22.6601 27.993L29.8399 24.2171C30.1132 24.0729 30.4422 24.0729 30.7181 24.2171L38.1434 28.1196C38.604 28.3625 38.7812 28.932 38.5382 29.3925C38.2953 29.8531 37.7258 30.0303 37.2653 29.7873L30.2779 26.1152L23.0851 29.8961C22.9485 29.9695 22.7966 30.0049 22.6473 30.0049L22.6425 30.0052Z" fill="#6D6E73"/>
<path d="M30.0709 34.1217C29.914 34.1217 29.7571 34.0812 29.6154 34.0028L13.522 25.0944L6.50937 21.2147C6.21327 21.0502 6.026 20.7389 6.02346 20.3998C6.02093 20.0607 6.20062 19.7444 6.49419 19.5748L16.9056 13.5642C17.3561 13.3036 17.9331 13.4579 18.1938 13.9084C18.4545 14.3589 18.3001 14.9359 17.8496 15.1966L8.88036 20.3746L30.0706 32.1025L51.2634 20.3746L42.5474 15.3409C42.097 15.0802 41.9426 14.5032 42.2033 14.0527C42.4639 13.6022 43.041 13.4479 43.4914 13.7085L53.6502 19.5749C53.9438 19.7444 54.1235 20.0608 54.1209 20.3999C54.1184 20.739 53.9311 21.0503 53.635 21.2148L30.5316 34.0001C30.3899 34.0785 30.2305 34.119 30.0735 34.119L30.0709 34.1217Z" fill="#6D6E73"/>
<path d="M30.0709 61.3505C29.9089 61.3505 29.7444 61.3075 29.6002 61.224L6.49416 47.8842C6.20312 47.7146 6.02344 47.4058 6.02344 47.0693V31.6367C6.02344 31.1154 6.44608 30.6953 6.96487 30.6953C7.48621 30.6953 7.90631 31.1179 7.90631 31.6367V46.525L30.0709 59.3207L52.2356 46.525V31.6367C52.2356 31.1154 52.6582 30.6953 53.177 30.6953C53.6983 30.6953 54.1184 31.1179 54.1184 31.6367V47.0693C54.1184 47.4058 53.9387 47.7171 53.6477 47.8842L30.5417 61.224C30.3949 61.3075 30.2328 61.3505 30.0709 61.3505Z" fill="#6D6E73"/>
<path d="M30.0742 61.3509C29.5529 61.3509 29.1328 60.9282 29.1328 60.4094V33.1758C29.1328 32.6545 29.5554 32.2344 30.0742 32.2344C30.5956 32.2344 31.0157 32.657 31.0157 33.1758V60.4094C31.0157 60.9308 30.593 61.3509 30.0742 61.3509Z" fill="#6D6E73"/>
<path d="M18.7748 50.4957C18.6128 50.4957 18.4483 50.4527 18.3041 50.3692L10.4356 45.8264C10.1445 45.6569 9.96484 45.3481 9.96484 45.0115V40.198C9.96484 39.8614 10.1445 39.5501 10.4356 39.3831C10.7266 39.2161 11.086 39.2161 11.377 39.3831L19.2455 43.9258C19.5365 44.0954 19.7162 44.4041 19.7162 44.7407V49.5543C19.7162 49.8909 19.5365 50.2022 19.2455 50.3692C19.0987 50.4527 18.9368 50.4957 18.7748 50.4957ZM11.8503 44.4649L17.833 47.9194V45.2823L11.8503 41.8278V44.4649Z" fill="#6D6E73"/>
<path d="M24.1231 42.6363C23.9611 42.6363 23.7966 42.5933 23.6473 42.5072L1.41466 29.4738C1.19701 29.3448 1.03757 29.1347 0.976831 28.8892C0.916092 28.6437 0.956585 28.3831 1.08819 28.1679L6.16491 19.8945C6.42811 19.4643 6.98487 19.32 7.42523 19.563L30.5312 32.3508C30.7641 32.4799 30.9336 32.7026 30.9918 32.9633C31.0526 33.224 30.9994 33.4973 30.8476 33.715L24.9002 42.2333C24.718 42.4939 24.4244 42.6357 24.1258 42.6357L24.1231 42.6363ZM3.19592 28.3324L23.8497 40.44L28.7012 33.4928L7.29849 21.6489L3.19592 28.3324Z" fill="#6D6E73"/>
<path d="M36.0234 42.6357C35.7248 42.6357 35.4312 42.4939 35.249 42.2333L29.3017 33.715C29.1498 33.4948 29.0967 33.2215 29.1574 32.9633C29.2181 32.7026 29.3852 32.4799 29.618 32.3508L52.724 19.563C53.1644 19.32 53.7186 19.4643 53.9843 19.8945L59.061 28.1679C59.1926 28.3831 59.2331 28.6437 59.1724 28.8892C59.1117 29.1347 58.9522 29.3448 58.7346 29.4738L36.5019 42.5072C36.3526 42.5958 36.1881 42.6363 36.0261 42.6363L36.0234 42.6357ZM31.4452 33.4921L36.2968 40.4394L56.9505 28.3318L52.8481 21.6482L31.4452 33.4921Z" fill="#6D6E73"/>
</svg>
