<svg width="50" height="61" viewBox="0 0 50 61" fill="none" xmlns="http://www.w3.org/2000/svg">
<path fill-rule="evenodd" clip-rule="evenodd" d="M41.7759 1.3683L48.6178 8.14347C49.5268 9.04098 50 10.1795 50 11.4476V57.1213C50 59.2499 48.2301 60.9974 46.0778 60.9974L3.91691 61C1.76465 61 0 59.2526 0 57.1239V3.87609C0 1.74745 1.76459 0 3.91691 0H38.4393C39.7253 0 40.8696 0.471268 41.7786 1.36878L41.7759 1.3683ZM14.7319 41.7918H5.97841C5.44636 41.7918 5.0186 42.2181 5.0186 42.7449C5.0186 43.2718 5.44639 43.698 5.97841 43.698H14.7319C15.2639 43.698 15.6971 43.2718 15.6971 42.7449C15.6971 42.2181 15.2639 41.7918 14.7319 41.7918ZM31.0595 30.9975H5.98046C5.44841 30.9975 5.02066 31.4238 5.02066 31.9506C5.02066 32.4774 5.44844 32.9037 5.98046 32.9037H31.0622C31.5942 32.9037 32.0274 32.4774 32.0274 31.9506C32.0274 31.4238 31.5943 30.9975 31.0622 30.9975H31.0595ZM44.0134 41.7918H18.3649C17.8329 41.7918 17.4051 42.2181 17.4051 42.7449C17.4051 43.2718 17.8329 43.698 18.3649 43.698H44.0134C44.5454 43.698 44.9786 43.2718 44.9786 42.7449C44.9786 42.2181 44.5455 41.7918 44.0134 41.7918ZM44.0134 36.3961H5.98115C5.4491 36.3961 5.02134 36.8223 5.02134 37.3492C5.02134 37.876 5.44912 38.3023 5.98115 38.3023H44.0161C44.5482 38.3023 44.9813 37.876 44.9813 37.3492C44.9813 36.8223 44.5482 36.3961 44.0161 36.3961H44.0134ZM44.0134 31.0003H35.1798C34.6478 31.0003 34.2146 31.4266 34.2146 31.9534C34.2146 32.4803 34.6478 32.9065 35.1798 32.9065H44.0134C44.5454 32.9065 44.9786 32.4803 44.9786 31.9534C44.9786 31.4266 44.5455 31.0003 44.0134 31.0003ZM32.902 51.1406C33.0143 49.8432 33.1292 48.5513 33.5223 48.0111C33.5677 47.945 33.7816 47.7173 33.8431 47.8258C34.1105 48.2838 34.0276 49.8353 34.3859 50.7117C34.7896 51.7018 35.7521 52.1228 36.7547 51.7257C37.4926 51.4318 37.9471 50.8414 38.4257 50.2086C38.6984 49.8512 38.9631 49.5017 38.9872 49.4964C39.0246 49.4911 39.2198 49.7373 39.5085 49.9836C39.7973 50.2351 40.0967 50.4919 40.4523 50.6958C41.4683 51.2782 42.388 51.1353 43.3078 50.9738C44.5724 50.807 44.3852 49.0702 43.2195 49.0702C42.8025 49.0702 42.0057 49.3905 41.4175 49.0516C40.6956 48.6386 39.9149 47.4287 38.6824 47.6219C37.4177 47.8205 36.8188 49.4726 36.1317 49.9094C35.9205 49.1734 36.0381 47.8046 35.5007 46.8806C34.9286 45.8904 33.7361 45.6282 32.7496 46.1896C31.2417 47.0474 31.1748 49.1204 30.985 50.9764C30.9235 51.5615 31.3727 52.0433 31.9395 52.0433C32.4555 52.0433 32.8726 51.6436 32.8993 51.1405L32.902 51.1406ZM44.0134 53.992H31.1532C30.6212 53.992 30.188 54.4183 30.188 54.9451C30.188 55.4719 30.6211 55.8982 31.1532 55.8982H44.0134C44.5454 55.8982 44.9786 55.4719 44.9786 54.9451C44.9786 54.4183 44.5455 53.992 44.0134 53.992ZM40.8852 3.18489V6.95504C40.8852 8.16502 41.8771 9.15783 43.099 9.15783H46.9116L40.8826 3.18489H40.8852ZM48.048 11.0641H43.0991C40.8292 11.0641 38.9603 9.21341 38.9603 6.95504V1.94848C38.7892 1.91936 38.6207 1.90612 38.4336 1.90612H3.91669C2.82314 1.90612 1.92479 2.78778 1.92479 3.87589V57.1237C1.92479 58.2145 2.82314 59.0935 3.91669 59.0935H46.0803C47.1791 59.0935 48.0775 58.2118 48.0775 57.1237V11.4474C48.0775 11.315 48.0668 11.1853 48.0508 11.0608L48.048 11.0641ZM27.3379 14.2835L23.9878 17.6036L22.651 16.2825C22.274 15.9092 21.6645 15.9092 21.2901 16.2825C20.9132 16.6558 20.9132 17.2568 21.2901 17.6301L23.3087 19.6264C23.6857 19.9997 24.2953 19.9997 24.6723 19.6264L28.7041 15.6338C29.0811 15.2605 29.0811 14.6595 28.7041 14.2862C28.3271 13.9129 27.7175 13.9129 27.3405 14.2862L27.3379 14.2835ZM24.4985 28.6281C24.8033 28.8426 25.2257 28.8637 25.568 28.6519C32.0809 24.5535 36.0407 18.6255 36.0407 10.9768C36.0407 10.4499 35.613 10.0237 35.0809 10.0237C32.7388 10.0237 30.6748 8.34243 30.6748 6.05492C30.6748 5.52806 30.247 5.10183 29.715 5.10183H20.416C19.884 5.10183 19.4508 5.52809 19.4508 6.05492C19.4508 8.41129 17.3252 10.1428 14.9136 10.1428C14.3869 10.1428 13.9592 10.5717 13.9592 11.0958C13.9485 19.1655 17.3547 24.522 24.5011 28.6253L24.4985 28.6281ZM18.1245 20.2616C19.6058 22.7317 21.8677 24.8498 25.0197 26.7323C30.4445 23.1634 33.8081 18.26 34.0969 11.8611C31.4848 11.4825 29.2817 9.57358 28.8272 7.01076H21.2927C20.8329 9.64509 18.5629 11.6069 15.884 11.9855C15.9883 15.1626 16.6995 17.8896 18.1245 20.2646L18.1245 20.2616Z" fill="#6D6E73"/>
</svg>
