<svg width="62" height="58" viewBox="0 0 62 58" fill="none" xmlns="http://www.w3.org/2000/svg">
<path d="M24.7115 37.8545L23.491 38.287C22.9633 38.4728 22.6184 38.972 22.639 39.5234C22.6626 40.0778 23.0458 40.5508 23.5853 40.6931L29.5436 42.3329L29.5465 42.3358C29.9445 42.4431 30.3573 42.4983 30.773 42.4983C31.3096 42.4954 31.8403 42.4025 32.3443 42.2197L32.8396 42.0339C33.1345 42.6811 33.6563 43.2035 34.3108 43.5025C34.7029 43.6796 35.1274 43.7724 35.5608 43.7753C35.9145 43.7724 36.2654 43.7115 36.5985 43.5896L42.887 41.2677C44.361 40.725 45.1512 39.149 44.6942 37.6688L50.9208 35.3847C51.419 35.2047 51.7522 34.7374 51.7551 34.215C51.7699 33.6984 51.4573 33.2254 50.9679 33.0308L46.581 31.243C45.5374 30.8193 44.3669 30.7932 43.3026 31.1734L30.614 35.7474L26.9288 32.8683C25.7259 31.9482 24.0985 31.78 22.7306 32.4359L22.2205 32.6826H22.2176C22.0997 32.7348 22.0112 32.8393 21.9758 32.9612C21.9228 33.0802 21.9228 33.2137 21.9758 33.3327L24.7115 37.8545ZM42.5573 40.4231L36.2688 42.745C35.4935 43.0294 34.6208 42.8262 34.0577 42.2284C33.4946 41.6334 33.3531 40.7597 33.698 40.0196C33.925 39.535 34.3377 39.1576 34.8448 38.969L41.1333 36.6471C42.1946 36.2582 43.3709 36.7922 43.7631 37.8342C44.1581 38.8761 43.6157 40.037 42.5573 40.4231ZM43.6422 32.0963C44.4824 31.7945 45.4081 31.8148 46.2366 32.1485L46.7555 32.3662L44.3969 33.1412C44.1522 33.2253 44.0225 33.4865 44.1051 33.7274C44.167 33.9161 44.3468 34.0409 44.5473 34.038C44.5974 34.0467 44.6505 34.0467 44.7035 34.038L48.0763 32.8684L50.656 33.9132C50.7828 33.9654 50.8683 34.0873 50.8683 34.2237C50.8624 34.363 50.7739 34.4849 50.6383 34.5343L44.3498 36.8561C44.0521 36.4295 43.6393 36.09 43.1617 35.8723C42.4424 35.5472 41.6198 35.5153 40.874 35.7881L34.5855 38.11C33.2795 38.5366 32.4452 39.7933 32.5719 41.1429L32.0235 41.3838C31.3101 41.645 30.5317 41.6769 29.7977 41.4767L23.8394 39.834C23.695 39.7962 23.5947 39.6714 23.5859 39.5263C23.58 39.3783 23.6743 39.2448 23.8158 39.2013L43.6422 32.0963ZM23.1375 33.2805C24.1812 32.7813 25.4194 32.9119 26.3305 33.6114L29.5616 36.119L25.6317 37.5266L23.0933 33.3095L23.1375 33.2805ZM61.5287 57.0713H38.7923L36.3866 48.6576C36.0357 47.4618 34.9242 46.6346 33.6565 46.6318H21.8638V44.3563C21.8638 42.8152 20.599 41.5701 19.0335 41.5701H17.0936V15.1386H20.543C20.8054 15.1386 21.0147 14.9296 21.0147 14.6742V11.4845C21.0147 10.3874 20.1185 9.49353 19.004 9.48194L17.8395 5.17195V5.16905C17.5977 4.29253 16.7899 3.68015 15.8671 3.67725H12.919V0.464374C12.919 0.208969 12.7067 0 12.4472 0C12.1849 0 11.9755 0.208969 11.9755 0.464374V3.67725H8.98611C8.06035 3.67725 7.25255 4.28965 7.01376 5.16905L5.84331 9.48193C4.72887 9.49644 3.83262 10.3904 3.82968 11.4845V14.6742C3.82968 14.9296 4.04195 15.1386 4.30139 15.1386H7.7537V41.5701H5.84331C4.28078 41.573 3.016 42.8181 3.01305 44.3563V57.0713H0.47171C0.212269 57.0713 0 57.2802 0 57.5356C0 57.791 0.212269 58 0.47171 58H61.5283C61.7877 58 62 57.791 62 57.5356C62 57.2802 61.7881 57.0713 61.5287 57.0713ZM7.94246 5.40986C8.08102 4.94839 8.5144 4.63201 9.00377 4.63491H15.8672C16.3566 4.63201 16.7871 4.94836 16.9285 5.40986L18.0281 9.47317H6.8339L7.94246 5.40986ZM4.79672 11.4845C4.79672 10.8866 5.28907 10.4019 5.89637 10.4019H18.9714C19.5787 10.4019 20.0711 10.8866 20.0711 11.4845V14.2098H4.78766L4.79672 11.4845ZM8.72663 15.1385H16.1649V41.57H8.71191L8.72663 15.1385ZM3.94764 44.3562C3.95059 43.3317 4.79378 42.5016 5.83448 42.4987H19.0273C20.068 42.5016 20.9082 43.3317 20.9141 44.3562V46.6317H16.1262C14.8614 46.6346 13.7529 47.4618 13.405 48.6575L10.9905 57.0713H3.91481L3.94764 44.3562ZM21.3858 57.0712H11.9516L14.3102 48.9131C14.546 48.1207 15.286 47.5751 16.1262 47.5751H33.6587H33.6558C34.5019 47.578 35.2419 48.1294 35.4718 48.9304L37.8304 57.0886L21.3858 57.0712ZM32.1174 13.9542L29.9564 14.7291H29.9534C29.4257 14.9091 29.0808 15.4141 29.1132 15.9656C29.1308 16.517 29.5112 16.9901 30.0477 17.1352L36.0148 18.775C36.9377 19.0275 37.9164 18.9869 38.8156 18.6589L39.3197 18.4732H39.3168C39.6057 19.1262 40.1305 19.6515 40.7879 19.9447C41.1771 20.1217 41.6016 20.2146 42.0291 20.2146C42.3858 20.2175 42.7366 20.1536 43.0668 20.0288L49.3553 17.707H49.3582C50.8264 17.1642 51.6136 15.5882 51.1566 14.108L57.392 11.7861C57.8873 11.6033 58.2205 11.1389 58.2264 10.6194C58.2352 10.1028 57.9227 9.63264 57.4392 9.43523L53.0523 7.64742C52.0057 7.22078 50.8382 7.19756 49.7739 7.57776L38.9095 11.4466C38.9095 11.4466 38.9095 11.4088 38.8623 11.3914L34.3899 7.9173H34.3869C33.0131 6.85793 31.1439 6.66639 29.5755 7.421L28.9858 7.70833C28.8679 7.76638 28.7795 7.87086 28.7441 7.99567C28.691 8.11466 28.691 8.24817 28.7441 8.36717L32.1174 13.9542ZM49.0816 16.8565L42.7931 19.1784C42.0178 19.4628 41.1451 19.2596 40.582 18.6618C40.0189 18.0668 39.8774 17.1931 40.2223 16.453C40.4493 15.9713 40.8591 15.594 41.3632 15.4024L47.6517 13.0805C47.8787 12.9992 48.1175 12.9586 48.3592 12.9557C49.2083 12.9789 49.9572 13.51 50.2461 14.2937C50.6235 15.3182 50.1076 16.4502 49.0816 16.8565ZM50.1046 8.50668C50.9478 8.20483 51.8765 8.22515 52.7079 8.55892L53.2267 8.7766L50.8682 9.55154C50.6353 9.60959 50.4849 9.83307 50.5232 10.0682C50.5645 10.3003 50.7768 10.4658 51.0156 10.4484C51.0657 10.4571 51.1158 10.4571 51.166 10.4484L54.5858 9.31069L57.1242 10.3468C57.2539 10.399 57.3394 10.5209 57.3394 10.6573C57.3394 10.7938 57.2539 10.9157 57.1242 10.9679L50.8358 13.2898C50.535 12.8602 50.1223 12.5206 49.6418 12.3059C48.9224 11.9808 48.1028 11.9489 47.3599 12.2217L41.0714 14.5436C40.3285 14.8193 39.7271 15.3766 39.4057 16.0905C39.1817 16.5752 39.0962 17.1092 39.1522 17.6374L38.5714 17.8464C37.8609 18.1105 37.0855 18.1425 36.3544 17.9393L30.3961 16.2995C30.2487 16.2676 30.1426 16.137 30.1426 15.9889C30.1367 15.8467 30.2251 15.7132 30.3637 15.6639L50.1046 8.50668ZM30.0007 8.33544C31.2448 7.73175 32.7278 7.88557 33.8157 8.73016L37.8959 11.8879L33.0137 13.638L29.868 8.3993L30.0007 8.33544ZM19.2692 50.7644C19.2692 50.5061 19.4814 50.3 19.7409 50.3H30.0475C30.3099 50.3 30.5192 50.5061 30.5192 50.7644C30.5192 51.0198 30.3099 51.2288 30.0475 51.2288H19.7409C19.4814 51.2288 19.2692 51.0198 19.2692 50.7644ZM32.8778 53.8583C32.8778 54.1166 32.6685 54.3227 32.4061 54.3227H17.3823C17.1229 54.3227 16.9106 54.1166 16.9106 53.8583C16.9106 53.6029 17.1229 53.3939 17.3823 53.3939H32.4061C32.6685 53.3939 32.8778 53.6029 32.8778 53.8583Z" fill="#6D6E73"/>
</svg>
