<svg width="58" height="58" viewBox="0 0 58 58" fill="none" xmlns="http://www.w3.org/2000/svg">
<path d="M55.2256 22.1911H48.3239L32.321 13.6225C32.606 13.0929 32.7825 12.4953 32.7825 11.8522C32.7825 10.0265 31.4813 8.49832 29.7564 8.14526V5.54788H37.0693C38.6 5.54788 39.8433 4.30465 39.8433 2.77394V0.756541C39.8433 0.337929 39.5054 0 39.0867 0H18.9128C18.4942 0 18.1563 0.337916 18.1563 0.756541V2.77394C18.1563 4.30465 19.3995 5.54788 20.9302 5.54788H28.2432V8.82614C28.2432 9.24475 28.5811 9.58268 28.9997 9.58268C30.2505 9.58268 31.2693 10.6014 31.2693 11.8522C31.2693 13.103 30.2505 14.1218 28.9997 14.1218C27.7489 14.1218 26.7302 13.103 26.7302 11.8522C26.7302 11.4336 26.3923 11.0957 25.9736 11.0957C25.555 11.0957 25.2171 11.4336 25.2171 11.8522C25.2171 12.4953 25.3936 13.093 25.6786 13.6225L9.67566 22.1911H2.77393C1.24323 22.1911 0 23.4344 0 24.9651V55.2261C0 56.7568 1.24323 58 2.77393 58H55.2261C56.7568 58 58 56.7568 58 55.2261V24.9651C58 23.4344 56.7563 22.1911 55.2256 22.1911ZM19.6692 2.77375V1.51289H38.3299V2.77375C38.3299 3.46973 37.765 4.0346 37.0691 4.0346H20.9299C20.234 4.0346 19.6692 3.46973 19.6692 2.77375ZM26.6697 14.8078C27.3153 15.3172 28.1172 15.6349 28.9998 15.6349C29.8824 15.6349 30.6869 15.3171 31.3299 14.8078L45.1185 22.1918H12.8784L26.667 14.8078H26.6697ZM1.5127 24.9651C1.5127 24.2691 2.07757 23.7043 2.77355 23.7043H55.2257C55.9217 23.7043 56.4866 24.2691 56.4866 24.9651V28.2434H1.51283L1.5127 24.9651ZM56.4864 29.7565V50.4347H1.5127V29.7565H56.4864ZM56.4864 55.2261C56.4864 55.922 55.9216 56.4869 55.2256 56.4869H2.77342C2.07744 56.4869 1.51257 55.922 1.51257 55.2261V51.9478H56.4863L56.4864 55.2261ZM24.2082 45.1391V35.0521C24.2082 34.6335 24.5461 34.2955 24.9647 34.2955C25.3833 34.2955 25.7213 34.6334 25.7213 35.0521V45.1391C25.7213 45.5577 25.3833 45.8956 24.9647 45.8956C24.5461 45.8956 24.2082 45.5577 24.2082 45.1391ZM32.2777 45.1391V35.0521C32.2777 34.6335 32.6157 34.2955 33.0343 34.2955C33.4529 34.2955 33.7908 34.6334 33.7908 35.0521V45.1391C33.7908 45.5577 33.4529 45.8956 33.0343 45.8956C32.6157 45.8956 32.2777 45.5577 32.2777 45.1391ZM40.3473 45.1391V35.0521C40.3473 34.6335 40.6852 34.2955 41.1038 34.2955C41.5225 34.2955 41.8604 34.6334 41.8604 35.0521V45.1391C41.8604 45.5577 41.5225 45.8956 41.1038 45.8956C40.6852 45.8956 40.3473 45.5577 40.3473 45.1391ZM48.4169 45.1391V35.0521C48.4169 34.6335 48.7548 34.2955 49.1734 34.2955C49.592 34.2955 49.9299 34.6334 49.9299 35.0521V45.1391C49.9299 45.5577 49.592 45.8956 49.1734 45.8956C48.7548 45.8956 48.4169 45.5577 48.4169 45.1391ZM16.1386 45.1391V35.0521C16.1386 34.6335 16.4765 34.2955 16.8952 34.2955C17.3138 34.2955 17.6517 34.6334 17.6517 35.0521V45.1391C17.6517 45.5577 17.3138 45.8956 16.8952 45.8956C16.4765 45.8956 16.1386 45.5577 16.1386 45.1391ZM8.06906 45.1391V35.0521C8.06906 34.6335 8.40697 34.2955 8.8256 34.2955C9.24422 34.2955 9.58213 34.6334 9.58213 35.0521V45.1391C9.58213 45.5577 9.24422 45.8956 8.8256 45.8956C8.40697 45.8956 8.06906 45.5577 8.06906 45.1391Z" fill="#6D6E73"/>
</svg>
