<svg width="19" height="18" viewBox="0 0 19 18" fill="none" xmlns="http://www.w3.org/2000/svg">
<g clip-path="url(#clip0_582_5738)">
<path d="M11.2407 9.0146L18.6389 2.00554C19.1204 1.54963 19.1204 0.812491 18.6389 0.356581C18.1577 -0.0993291 17.3796 -0.0993291 16.8983 0.356581L9.49989 7.36564L2.10167 0.356581C1.62021 -0.0993291 0.842336 -0.0993291 0.361098 0.356581C-0.120366 0.812491 -0.120366 1.54963 0.361098 2.00554L7.75932 9.0146L0.361098 16.0237C-0.120366 16.4796 -0.120366 17.2167 0.361098 17.6726C0.600928 17.9 0.916269 18.0143 1.23138 18.0143C1.5465 18.0143 1.86161 17.9 2.10167 17.6726L9.49989 10.6636L16.8983 17.6726C17.1384 17.9 17.4535 18.0143 17.7686 18.0143C18.0837 18.0143 18.3989 17.9 18.6389 17.6726C19.1204 17.2167 19.1204 16.4796 18.6389 16.0237L11.2407 9.0146Z" fill="#454649"/>
</g>
<defs>
<clipPath id="clip0_582_5738">
<rect width="19" height="18" fill="white"/>
</clipPath>
</defs>
</svg>
