<svg width="23" height="23" viewBox="0 0 23 23" fill="none" xmlns="http://www.w3.org/2000/svg">
<path d="M14.2518 16.2773C12.1772 16.2773 10.2266 15.4691 8.75928 14.0021C7.29229 12.5351 6.48438 10.5845 6.48438 8.50959C6.48438 6.43504 7.29265 4.48445 8.75928 3.01745C10.2266 1.5501 12.1769 0.742188 14.2518 0.742188C16.3267 0.742188 18.2769 1.55046 19.7443 3.01745C21.2113 4.48445 22.0192 6.43504 22.0192 8.50959C22.0192 10.5845 21.2109 12.5351 19.7443 14.0021C18.2769 15.4691 16.3263 16.2773 14.2518 16.2773ZM14.2518 2.53386C12.6558 2.53386 11.1553 3.15547 10.0263 4.28445C8.89766 5.41308 8.27605 6.91359 8.27605 8.50959C8.27605 10.1059 8.89766 11.6065 10.0263 12.7351C11.1553 13.8637 12.6558 14.4857 14.2518 14.4857C15.8478 14.4857 17.3483 13.8641 18.4773 12.7351C19.6059 11.6065 20.2275 10.1059 20.2275 8.50959C20.2275 6.91359 19.6059 5.41308 18.4773 4.28445C17.3483 3.15547 15.8478 2.53386 14.2518 2.53386Z" fill="#FF4D29"/>
<path d="M1.64593 22.0112C1.41674 22.0112 1.18756 21.9237 1.01243 21.7489C0.662524 21.3993 0.662524 20.8321 1.01243 20.4819L8.75532 12.739C9.10522 12.3891 9.67206 12.3891 10.0223 12.739C10.3722 13.0885 10.3722 13.6557 10.0223 14.006L2.27943 21.7489C2.10466 21.9237 1.87511 22.0112 1.64593 22.0112Z" fill="#FF4D29"/>
</svg>
