<?xml version="1.0" encoding="utf-8"?><svg xmlns="http://www.w3.org/2000/svg" xmlns:xlink="http://www.w3.org/1999/xlink"><symbol fill="none" viewBox="0 0 24 15" id="arrow" xmlns="http://www.w3.org/2000/svg"><path d="M17.418.918l-1.07 1.069 4.758 4.757H0v1.512h21.106l-4.757 4.757 1.069 1.07L24 7.5 17.418.918z" fill="#fff"/></symbol><symbol fill="none" viewBox="0 0 12 12" id="clock_icon" xmlns="http://www.w3.org/2000/svg"><g clip-path="url(#bclip0_592_3339)"><path d="M6 .5A5.5 5.5 0 1011.5 6 5.506 5.506 0 006 .5zm1.854 7.354a.5.5 0 01-.708 0l-1.5-1.5A.5.5 0 015.5 6V3a.5.5 0 111 0v2.793l1.354 1.353a.5.5 0 010 .708z" fill="#FF4D29"/></g><defs><clipPath id="bclip0_592_3339"><path fill="#fff" d="M0 0h12v12H0z"/></clipPath></defs></symbol><symbol fill="none" viewBox="0 0 12 12" id="money_icon" xmlns="http://www.w3.org/2000/svg"><g clip-path="url(#cclip0_592_3346)" fill="#FF4D29"><path d="M.164 6.014a.25.25 0 00-.149.32l.157.432L1.368 5.57l-1.204.444zM1.295 9.852l.72 1.98a.248.248 0 00.235.164c.03 0 .058-.005.086-.016l.795-.293-1.836-1.835zM11.984 8.164l-.824-2.266-1.977 1.978.98-.361a.25.25 0 11.173.469l-1.245.459a.249.249 0 01-.321-.148V8.29l-2.096 2.096 5.162-1.902a.25.25 0 00.148-.32zM11.926 4.073l-4-4a.25.25 0 00-.353 0l-7.5 7.5a.25.25 0 000 .353l4 4a.251.251 0 00.354 0l7.5-7.499a.25.25 0 000-.354zm-9 2.854l-1 1a.251.251 0 01-.353 0 .25.25 0 010-.354l1-1a.25.25 0 01.354.354zm4.318.317a.944.944 0 01-.685.262c-.442 0-.959-.231-1.39-.664-.317-.316-.539-.694-.625-1.064-.096-.412-.017-.771.222-1.011.24-.24.599-.319 1.012-.223.37.087.748.308 1.064.625.694.694.871 1.606.402 2.075zm3.182-2.817l-1 1a.251.251 0 01-.354 0 .25.25 0 010-.354l1-1a.25.25 0 01.354.354z"/></g><defs><clipPath id="cclip0_592_3346"><path fill="#fff" d="M0 0h12v12H0z"/></clipPath></defs></symbol><symbol fill="none" viewBox="0 0 24 24" id="slide-next" xmlns="http://www.w3.org/2000/svg"><g clip-path="url(#dclip0_511_5608)"><path d="M17.418 5.414l-1.07 1.07 4.758 4.756H0v1.512h21.106l-4.757 4.757 1.069 1.07L24 11.996l-6.582-6.582z" fill="#fff"/></g><defs><clipPath id="dclip0_511_5608"><path fill="#fff" d="M0 0h24v24H0z"/></clipPath></defs></symbol><symbol fill="none" viewBox="0 0 24 24" id="slide-prev" xmlns="http://www.w3.org/2000/svg"><g clip-path="url(#eclip0_511_5604)"><path d="M6.582 5.414l1.07 1.07-4.758 4.756H24v1.512H2.894l4.757 4.757-1.069 1.07L0 11.996l6.582-6.582z" fill="#fff"/></g><defs><clipPath id="eclip0_511_5604"><path fill="#fff" transform="matrix(-1 0 0 1 24 0)" d="M0 0h24v24H0z"/></clipPath></defs></symbol><symbol fill="none" viewBox="0 0 36 36" id="up-left-arrow_1" xmlns="http://www.w3.org/2000/svg"><g clip-path="url(#fclip0_511_4645)"><path d="M4.29 34.805h30.509V4.295H25.41V18.78L6.637.005-.001 6.642l18.775 18.775H4.29v9.388z" fill="#FF4D29"/></g><defs><clipPath id="fclip0_511_4645"><path fill="#fff" transform="rotate(-180 18 18)" d="M0 0h36v36H0z"/></clipPath></defs></symbol></svg>