<svg width="45" height="45" viewBox="0 0 45 45" fill="none" xmlns="http://www.w3.org/2000/svg">
<mask id="mask0_511_19726" style="mask-type:luminance" maskUnits="userSpaceOnUse" x="0" y="0" width="45" height="45">
<path d="M45 0H0V45H45V0Z" fill="white"/>
</mask>
<g mask="url(#mask0_511_19726)">
<path d="M11.925 40.4099L2.92501 36.5535C2.72413 36.4658 2.55322 36.3214 2.43331 36.1379C2.31339 35.9544 2.24968 35.7399 2.25001 35.5207C2.25001 35.4937 2.25001 35.4668 2.25001 35.4375V25.3125C2.25001 25.2855 2.25001 25.2607 2.25001 25.2337C2.24924 25.0141 2.31275 24.7992 2.43269 24.6153C2.55263 24.4314 2.72378 24.2866 2.92501 24.1988L9.00001 21.6022V12.3772C8.99924 12.1577 9.06275 11.9426 9.18269 11.7587C9.30263 11.5748 9.47378 11.43 9.67501 11.3422L25.425 4.59217C25.5669 4.5303 25.7202 4.49897 25.875 4.50003C26.0298 4.4995 26.1829 4.5308 26.325 4.59217L42.075 11.3422C42.2762 11.43 42.4474 11.5748 42.5673 11.7587C42.6873 11.9426 42.7508 12.1577 42.75 12.3772V30.312C42.75 30.3345 42.75 30.3547 42.75 30.3772C42.7503 30.5964 42.6866 30.8109 42.5667 30.9944C42.4468 31.1779 42.2759 31.3223 42.075 31.4099L26.325 38.1599C26.1828 38.2205 26.0296 38.2513 25.875 38.25C25.7204 38.2513 25.5672 38.2205 25.425 38.1599L21.7417 36.5849L12.8115 40.4099C12.6694 40.4713 12.5163 40.5028 12.3615 40.5022C12.2113 40.5009 12.0629 40.4695 11.925 40.4099ZM13.5 29.8349V37.6717L20.25 34.7782V26.9415L13.5 29.8349ZM4.50001 34.7849L11.25 37.6763V29.8394L4.50001 26.9483V34.7849ZM27 19.8765V35.4263L40.5 29.6414V14.0894L27 19.8765ZM24.75 35.4263V19.8765L11.25 14.0894V20.6392L11.925 20.3467C12.0671 20.2853 12.2203 20.2539 12.375 20.2544C12.5298 20.2539 12.6829 20.2853 12.825 20.3467L21.825 24.2032C22.0262 24.291 22.1974 24.4358 22.3173 24.6197C22.4373 24.8036 22.5008 25.0187 22.5 25.2382C22.5 25.2652 22.5 25.2899 22.5 25.3169V34.4588L24.75 35.4263ZM6.23025 25.2404L12.375 27.873L18.5198 25.2404L12.375 22.6058L6.23025 25.2404ZM12.9803 12.384L25.8727 17.9099L38.7675 12.384L25.8727 6.85797L12.9803 12.384Z" fill="#FF4D29"/>
</g>
</svg>
