<svg width="44" height="37" viewBox="0 0 44 37" fill="none" xmlns="http://www.w3.org/2000/svg">
<path d="M36.5768 29.8553C36.5768 27.8618 34.9555 26.2388 32.9603 26.2388C30.9668 26.2388 29.3438 27.86 29.3438 29.8553C29.3438 31.8487 30.965 33.4718 32.9603 33.4718C34.9537 33.4718 36.5768 31.8505 36.5768 29.8553ZM30.7434 29.8553C30.7434 28.6334 31.7383 27.6331 32.9656 27.6331C34.1928 27.6331 35.1877 28.628 35.1877 29.8553C35.1877 31.0826 34.1928 32.0775 32.9656 32.0775C31.7383 32.0775 30.7434 31.0826 30.7434 29.8553Z" fill="#FF4D29"/>
<path d="M0.89666 23.3761L2.70491 24.2258C2.71399 24.44 2.77935 24.6488 2.89555 24.834C2.82111 24.9974 2.75212 25.159 2.71944 25.3133C2.11486 25.4622 1.69187 25.9959 1.69187 26.6241V29.8775C1.69187 30.5002 2.11489 31.0394 2.69039 31.1701C2.75575 31.3372 2.82474 31.5042 2.90462 31.6349C2.57964 32.1687 2.66316 32.8477 3.10433 33.2889L5.4046 35.5891C5.84577 36.0303 6.5248 36.1102 7.02587 35.7943C7.18927 35.8687 7.3563 35.9377 7.50515 35.9704C7.65402 36.575 8.18781 36.998 8.81595 36.998H12.0694C12.6921 36.998 13.2313 36.5749 13.362 35.9994C13.529 35.9341 13.6961 35.8651 13.8213 35.7852C14.3551 36.1102 15.0341 36.0267 15.4753 35.5891L17.7755 33.2889C18.2167 32.8477 18.2966 32.1687 17.9807 31.6676C18.0134 31.5986 18.0406 31.5278 18.0697 31.4534L18.5018 31.6585C18.5944 31.7003 18.6978 31.7239 18.7995 31.7239H26.0923C26.9147 34.7594 29.6852 37 32.9751 37C36.2651 37 39.0409 34.756 39.858 31.715C41.7407 31.5843 43.2331 30.0194 43.2331 28.104V24.3204C43.2331 22.1364 42.0239 20.152 40.0813 19.1391L34.1736 16.0818V10.5644C34.1736 10.3829 34.2535 10.2068 34.3878 10.0815L35.9256 8.68173C36.3014 8.33859 36.521 7.86837 36.5392 7.35637C36.5574 6.84438 36.3758 6.36148 36.0272 5.98929L35.4045 5.32842C35.0505 4.95624 34.5766 4.74202 34.0665 4.73839C33.5599 4.72931 33.0716 4.92358 32.7084 5.28306L29.9761 7.98819C29.5912 8.36945 29.3679 8.89957 29.3679 9.44242V15.1122L25.2648 14.484L21.0764 4.03588H21.1835C22.1966 4.03588 23.0244 3.20803 23.0244 2.19496V1.84093C23.0244 0.827857 22.1966 0 21.1835 0L3.66193 0.00363105C2.64886 0.00363105 1.821 0.831488 1.821 1.84456V2.19859C1.821 3.21166 2.64886 4.03951 3.66193 4.03951H3.99236V17.6398C2.5563 18.5094 1.29267 19.675 0.315896 21.0457C0.036306 21.4088 -0.0653635 21.8735 0.0417532 22.3238C0.1525 22.7886 0.464773 23.1735 0.896846 23.3786L0.89666 23.3761ZM5.381 16.893V4.03175H19.5622L24.1083 15.3713C24.2009 15.5983 24.406 15.7617 24.6529 15.7998L33.0988 17.0924L39.4332 20.3731C40.9111 21.1447 41.8316 22.6552 41.8316 24.3146V28.0982C41.8316 29.1621 41.0781 30.0498 40.0796 30.2732C40.0887 30.1334 40.0978 29.999 40.0978 29.8592C40.0978 25.9231 36.8952 22.724 32.9625 22.724C29.0299 22.724 25.8273 25.9266 25.8273 29.8592C25.8273 30.0172 25.8418 30.1715 25.8509 30.3294H22.681C22.6901 30.2877 22.6901 30.2405 22.6992 30.1987C22.7409 29.9337 22.7736 29.6686 22.7972 29.4035C22.8027 29.3527 22.8117 29.2964 22.8117 29.2456C22.8299 28.995 22.8444 28.7481 22.848 28.4976V28.3306V28.2507V28.0782C22.848 27.9711 22.848 27.8694 22.839 27.7623C22.839 27.6515 22.8299 27.5444 22.8208 27.4373C22.8154 27.3538 22.8063 27.2703 22.8027 27.1868C22.7936 27.056 22.779 26.9271 22.7609 26.7964C22.7554 26.7456 22.7464 26.6948 22.7427 26.6439C22.7191 26.4805 22.6955 26.3189 22.6683 26.161C22.6683 26.1519 22.6683 26.1428 22.6629 26.1337C22.1291 23.0619 20.4642 20.3715 18.1131 18.5124H19.9904C20.2083 18.5124 20.4134 18.4107 20.5441 18.2382C20.6748 18.0658 20.7202 17.8388 20.6603 17.63L17.5921 6.57349C17.5085 6.27211 17.2344 6.06149 16.9185 6.06149H8.73755C8.35266 6.06149 8.04038 6.37376 8.04038 6.75865V16.0686C7.97139 16.0831 7.89696 16.0958 7.82615 16.1103C7.58468 16.1612 7.3432 16.2211 7.10175 16.2919C6.99463 16.3191 6.88389 16.3572 6.77677 16.3899C6.60066 16.4462 6.42819 16.5007 6.25571 16.5624C6.16675 16.5951 6.0796 16.6223 5.99609 16.655C5.78731 16.7349 5.57852 16.822 5.3679 16.9146L5.381 16.893ZM3.21691 2.19263V1.8386C3.21691 1.59169 3.41662 1.39198 3.66353 1.39198H21.1763C21.4232 1.39198 21.6229 1.59169 21.6229 1.8386V2.19263C21.6229 2.43954 21.4232 2.63925 21.1763 2.63925L3.66167 2.63744C3.41476 2.63744 3.21505 2.43773 3.21505 2.19082L3.21691 2.19263ZM30.9435 8.97742L33.6759 6.27229C33.7685 6.17969 33.9028 6.13794 34.0299 6.12886C34.1643 6.12886 34.2859 6.18514 34.3785 6.28136L35.0012 6.94223C35.0938 7.04027 35.141 7.16554 35.1356 7.29989C35.1301 7.43423 35.0756 7.55587 34.9722 7.64302L33.4344 9.04278C33.0059 9.42767 32.7645 9.9814 32.7645 10.5587V15.635L30.7474 15.3282V9.44413C30.7474 9.26803 30.8164 9.10463 30.9435 8.97936V8.97742ZM32.966 35.6002C29.8016 35.6002 27.2251 33.0258 27.2251 29.8593C27.2251 26.6948 29.7996 24.1184 32.966 24.1184C36.1305 24.1184 38.7069 26.6928 38.7069 29.8593C38.7069 33.0238 36.1325 35.6002 32.966 35.6002ZM9.4475 7.43948H16.401L19.0789 17.1017H15.9235C14.6399 16.4644 13.2329 16.0414 11.7405 15.8889C10.9689 15.809 10.2028 15.809 9.44931 15.8707V7.44484L9.4475 7.43948ZM5.03214 18.6303C7.01287 17.5047 9.28408 17.0363 11.5989 17.2723C17.2418 17.8478 21.5679 22.7608 21.4573 28.4632C21.4428 29.0804 21.3774 29.705 21.2612 30.3223H19.0953C19.1461 30.1788 19.1751 30.03 19.1751 29.872V26.6186C19.1751 25.9959 18.7521 25.4566 18.1766 25.3259C18.1113 25.1589 18.0423 24.9919 17.9624 24.8612C18.2874 24.3274 18.2038 23.6484 17.7627 23.2072L15.4624 20.907C15.0212 20.4658 14.3422 20.3859 13.8411 20.7018C13.6777 20.6274 13.5107 20.5584 13.3619 20.5257C13.2184 19.9211 12.6792 19.4945 12.0565 19.4945H8.80307C8.18036 19.4945 7.64113 19.9175 7.51044 20.493C7.3434 20.5583 7.17638 20.6273 7.05111 20.7072C7.04566 20.7072 7.04203 20.7018 7.03658 20.6981C6.50646 20.3822 5.83291 20.4657 5.39537 20.9033L3.33112 22.9712L1.49019 22.107C1.42484 22.0743 1.40668 22.018 1.3976 21.9962C1.38852 21.9599 1.3976 21.9218 1.42483 21.8746C1.43028 21.8655 1.43391 21.8601 1.43936 21.851C2.37434 20.5256 3.61436 19.4163 5.02686 18.6248L5.03214 18.6303ZM16.704 31.0812C16.5188 31.486 16.5406 31.9454 16.7549 32.323L14.5109 34.567C14.1351 34.3528 13.6739 34.3292 13.2691 34.5162C13.1347 34.5761 12.9949 34.6378 12.8606 34.6886C12.4466 34.8466 12.1398 35.1806 12.0236 35.5946H8.84462C8.73388 35.1806 8.4216 34.8411 8.01309 34.6886C7.8733 34.6378 7.7335 34.5779 7.59915 34.5162C7.19429 34.331 6.73495 34.3528 6.35732 34.567L4.11334 32.323C4.32757 31.9472 4.35117 31.4861 4.16418 31.0812C4.10426 30.9468 4.04254 30.807 3.9917 30.6727C3.83375 30.2588 3.49969 29.9519 3.08576 29.8412V26.6622C3.4997 26.5514 3.83921 26.2392 3.9917 25.8307C4.04254 25.6909 4.10245 25.5511 4.16418 25.4167C4.34936 25.0119 4.32757 24.5525 4.11334 24.1749L6.35732 21.9255C6.73313 22.1397 7.19429 22.1633 7.59915 21.9763C7.7335 21.9164 7.86785 21.8547 8.01309 21.8038C8.42703 21.6459 8.73387 21.3118 8.84462 20.8979H12.0236C12.1343 21.3118 12.4466 21.6513 12.8606 21.8038C13.0004 21.8547 13.1347 21.9146 13.2691 21.9763C13.6739 22.1615 14.1333 22.1433 14.5109 21.9255L16.7549 24.1695C16.5406 24.5453 16.517 25.0064 16.704 25.4113C16.7639 25.5456 16.8257 25.68 16.8765 25.8198C17.0345 26.2337 17.3685 26.5406 17.7824 26.6513V29.8303C17.3685 29.941 17.029 30.2533 16.8765 30.6618C16.8257 30.8016 16.7658 30.936 16.704 31.0703V31.0812Z" fill="#FF4D29"/>
<path d="M14.7988 28.2461C14.7988 25.8387 12.838 23.8779 10.4306 23.8779C8.02325 23.8779 6.0625 25.8387 6.0625 28.2461C6.0625 30.6535 8.02329 32.6142 10.4306 32.6142C12.838 32.6142 14.7988 30.6534 14.7988 28.2461ZM10.4306 31.2199C8.78943 31.2199 7.45682 29.8855 7.45682 28.2461C7.45682 26.6049 8.79124 25.2723 10.4306 25.2723C12.0719 25.2723 13.4045 26.6067 13.4045 28.2461C13.4045 29.8873 12.07 31.2199 10.4306 31.2199Z" fill="#FF4D29"/>
</svg>
