<svg width="36" height="40" viewBox="0 0 36 40" fill="none" xmlns="http://www.w3.org/2000/svg">
<path d="M34.6522 34.1206C34.6182 34.3261 34.5408 34.5221 34.4253 34.6954C34.3097 34.8687 34.1586 35.0155 33.9819 35.1259C29.1229 38.2156 19.3847 38.0748 18.0979 38.0413H17.984C17.9463 38.0347 17.9077 38.0347 17.87 38.0413C16.4827 38.0413 6.83831 38.1955 2.01277 35.1192C1.83806 35.0084 1.68836 34.8625 1.57323 34.6906C1.45809 34.5188 1.38006 34.3248 1.34411 34.1211C1.30817 33.9174 1.31509 33.7084 1.36444 33.5075C1.4138 33.3066 1.5045 33.1183 1.63075 32.9544L3.07841 31.1046C3.14882 31.0094 3.19274 30.8972 3.20569 30.7794C3.21864 30.6617 3.20016 30.5427 3.15213 30.4344C2.51561 28.715 2.15812 26.9049 2.0932 25.0727C2.00194 23.1447 2.18243 21.2134 2.62937 19.3357C3.16848 17.0505 4.0521 14.8607 5.2499 12.8413C9.40465 14.0462 13.7117 14.6444 18.0376 14.6174H18.0711C22.3498 14.6309 26.6085 14.0328 30.718 12.8413C31.9399 14.8627 32.844 17.0598 33.3989 19.3558C33.8458 21.2335 34.0263 23.1648 33.935 25.0928C33.8701 26.9251 33.5126 28.7351 32.8761 30.4545C32.8281 30.5628 32.8096 30.6818 32.8225 30.7996C32.8355 30.9173 32.8794 31.0295 32.9498 31.1247L34.3975 32.9678C34.5239 33.1315 34.6149 33.3197 34.6645 33.5205C34.7141 33.7213 34.7213 33.9302 34.6857 34.134L34.6522 34.1206ZM3.19235 10.7167C3.17704 10.6866 3.16906 10.6533 3.16906 10.6195C3.16906 10.5858 3.17704 10.5525 3.19235 10.5224L4.98182 7.92194C5.21669 8.06783 5.46599 8.18911 5.72575 8.28385C6.67136 8.60082 7.6455 8.82528 8.63448 8.95406C11.712 9.40751 14.8197 9.62485 17.9303 9.60417H18.0376C21.1389 9.63395 24.2379 9.42332 27.3066 8.97417C27.8696 8.88704 28.379 8.78651 28.828 8.68598C29.2989 8.58305 29.7624 8.44871 30.2153 8.28385C30.4751 8.18637 30.7244 8.06287 30.9593 7.91523L32.7286 10.5224C32.7439 10.5525 32.7519 10.5858 32.7519 10.6195C32.7519 10.6533 32.7439 10.6866 32.7286 10.7167C32.7182 10.7505 32.7001 10.7815 32.6757 10.8071C32.6512 10.8327 32.6212 10.8522 32.5879 10.8642C27.8892 12.5603 22.9256 13.4045 17.9303 13.3574C12.9573 13.4002 8.01645 12.5559 3.33979 10.8642C3.3065 10.8522 3.27644 10.8327 3.25201 10.8071C3.22759 10.7815 3.20945 10.7505 3.19905 10.7167H3.19235ZM8.76852 6.02523L7.06618 7.36566C6.59875 7.26257 6.14771 7.09568 5.72575 6.8697C6.69135 6.42151 7.72366 6.134 8.78192 6.01853L8.76852 6.02523ZM15.8795 2.00395C16.4899 1.52647 17.2425 1.26695 18.0175 1.26672C18.7977 1.26801 19.5541 1.53514 20.1621 2.02406L27.2329 7.72757L26.5627 7.8281C23.7253 8.20086 20.8657 8.37777 18.0041 8.35757H17.8968C15.0352 8.37777 12.1755 8.20086 9.3382 7.8281L8.66799 7.71417L15.8795 2.00395ZM30.2556 6.8764C29.8142 7.1179 29.3401 7.29399 28.8481 7.39917L27.1391 6.02523C28.2178 6.13469 29.2709 6.42232 30.2556 6.8764ZM35.3559 32.1904L34.1361 30.6154C34.7376 28.8741 35.0808 27.0542 35.1548 25.2134C35.2588 23.1625 35.0738 21.1072 34.6052 19.1078C34.0452 16.7692 33.1417 14.5264 31.9244 12.4526L33.0637 12.0437C33.272 11.96 33.4587 11.8303 33.61 11.6645C33.7613 11.4987 33.8734 11.3009 33.9377 11.0858C34.0021 10.8708 34.0172 10.644 33.982 10.4223C33.9467 10.2006 33.8619 9.98968 33.734 9.80523L31.5625 6.64183C31.4571 6.28572 31.2166 5.985 30.8923 5.80406C30.4704 5.56354 30.0201 5.37666 29.5518 5.24778C28.1451 4.8802 26.7104 4.62914 25.2625 4.49714L20.9731 1.03884C20.1432 0.369894 19.1102 0.00350719 18.0443 1.41318e-05C16.9838 -0.00258766 15.9538 0.354142 15.1221 1.01204L10.7255 4.49714C9.28195 4.62893 7.85175 4.88 6.44958 5.24778C5.92682 5.40193 4.59979 5.78395 4.39203 6.63512L2.21383 9.81194C2.08588 9.99583 2.00111 10.2063 1.96585 10.4275C1.93058 10.6487 1.94573 10.8751 2.01016 11.0896C2.0746 11.3042 2.18665 11.5014 2.33797 11.6667C2.48928 11.8319 2.67595 11.9608 2.88405 12.0437L4.02341 12.4526C2.80765 14.5296 1.90434 16.7743 1.34256 19.1145C0.873791 21.1116 0.688781 23.1647 0.792982 25.2134C0.867003 27.0542 1.21022 28.8741 1.81171 30.6154L0.591918 32.1837C0.354183 32.485 0.182057 32.8327 0.0865784 33.2045C-0.00890059 33.5763 -0.0256247 33.9639 0.037479 34.3425C0.100583 34.7212 0.242122 35.0824 0.453017 35.4031C0.663912 35.7239 0.939508 35.997 1.26213 36.2049C3.59447 37.6861 7.1265 38.6579 11.7644 39.0936C13.8353 39.2879 15.6449 39.3281 16.7776 39.3281C17.3875 39.3281 17.803 39.3281 17.9571 39.3281H19.0965C20.2292 39.3281 22.0387 39.2879 24.1097 39.0936C28.7476 38.6579 32.2796 37.6861 34.6119 36.2049C34.9346 35.997 35.2102 35.7239 35.4211 35.4031C35.632 35.0824 35.7735 34.7212 35.8366 34.3425C35.8997 33.9639 35.883 33.5763 35.7875 33.2045C35.692 32.8327 35.5199 32.485 35.2822 32.1837L35.3559 32.1904Z" fill="#FF4D29"/>
<path d="M13.5062 6.53313C13.5032 6.57329 13.5032 6.61361 13.5062 6.65377C13.5196 6.69287 13.54 6.7292 13.5665 6.76101C13.5644 6.77882 13.5644 6.79681 13.5665 6.81462L13.6067 6.85484L13.6536 6.90175L13.7072 6.93526L13.8145 6.99558L13.9284 7.02909H14.1764L14.297 6.99558L14.4042 6.93526L14.4512 6.90175C14.47 6.8897 14.486 6.87369 14.4981 6.85484L14.5383 6.81462L14.5785 6.76101L14.6388 6.65377C14.6418 6.61361 14.6418 6.57329 14.6388 6.53313C14.6507 6.45315 14.6507 6.37184 14.6388 6.29186C14.6418 6.2517 14.6418 6.21137 14.6388 6.17122L14.6321 6.06398V6.01037L14.5919 5.97015C14.5798 5.9513 14.5638 5.93529 14.545 5.92324L14.4981 5.88973L14.3908 5.82941L14.2702 5.7959H14.0222L13.9083 5.82941L13.801 5.88973L13.7474 5.92324L13.7005 5.97015L13.6603 6.01037C13.6583 6.02818 13.6583 6.04617 13.6603 6.06398C13.6339 6.09579 13.6134 6.13212 13.6 6.17122C13.597 6.21137 13.597 6.2517 13.6 6.29186C13.6 6.29186 13.6 6.33207 13.6 6.35218V6.47281C13.6 6.47281 13.6 6.51303 13.6 6.53313H13.5062Z" fill="#FF4D29"/>
<path d="M15.457 4.55748C15.4651 4.5985 15.4763 4.63883 15.4905 4.67812C15.504 4.71722 15.5244 4.75355 15.5509 4.78536C15.5581 4.80347 15.5696 4.81957 15.5844 4.83227L15.6246 4.87919L15.6715 4.9261L15.7251 4.95961L15.8324 5.01993L15.9463 5.05344H16.1943L16.3149 5.01993L16.4221 4.95961L16.4691 4.9261C16.4879 4.91405 16.5039 4.89804 16.516 4.87919L16.5562 4.83227L16.5964 4.78536L16.6567 4.67812C16.6597 4.63796 16.6597 4.59764 16.6567 4.55748C16.6567 4.55748 16.6567 4.51727 16.6567 4.49716C16.6656 4.45745 16.6656 4.41624 16.6567 4.37653C16.6567 4.37653 16.6567 4.33631 16.6567 4.31621C16.6597 4.27605 16.6597 4.23573 16.6567 4.19557L16.5964 4.08833L16.5562 4.03472L16.516 3.9945C16.5039 3.97565 16.4879 3.95964 16.4691 3.94759H16.4221C16.3879 3.92496 16.352 3.9048 16.3149 3.88727L16.1943 3.85376H16.1339H16.0133H15.9463L15.8324 3.88727C15.7945 3.90335 15.7585 3.92358 15.7251 3.94759H15.6715L15.6246 3.9945L15.5844 4.03472C15.5708 4.051 15.5596 4.06903 15.5509 4.08833C15.5244 4.12014 15.504 4.15647 15.4905 4.19557C15.4763 4.23486 15.4651 4.27519 15.457 4.31621C15.457 4.31621 15.457 4.35642 15.457 4.37653V4.49716C15.457 4.49716 15.457 4.53738 15.457 4.55748Z" fill="#FF4D29"/>
<path d="M19.1035 5.22782L19.1437 5.34845C19.1575 5.38609 19.1755 5.42206 19.1973 5.45569L19.2376 5.5093L19.2778 5.54952L19.3247 5.58303L19.3716 5.61654L19.4855 5.67686L19.5995 5.71037H19.8475L19.9681 5.67686L20.0753 5.61654L20.1222 5.58303C20.1395 5.56912 20.1552 5.55339 20.1692 5.53611L20.2094 5.4959L20.2496 5.44228C20.2714 5.40866 20.2894 5.37269 20.3032 5.33505C20.3196 5.2959 20.333 5.25557 20.3434 5.21441C20.3434 5.21441 20.3434 5.1742 20.3434 5.15409C20.3434 5.13399 20.3434 5.11388 20.3434 5.09377C20.3377 4.9282 20.2708 4.77062 20.1558 4.65143C20.1437 4.63257 20.1277 4.61657 20.1088 4.60452H20.0619L19.9949 4.52409L19.8743 4.49058H19.8139C19.7209 4.48106 19.627 4.49236 19.5389 4.52365C19.4508 4.55495 19.3707 4.60547 19.3046 4.67154L19.2644 4.71175L19.2242 4.76537C19.2023 4.799 19.1843 4.83497 19.1705 4.8726L19.1303 4.99324C19.1303 4.99324 19.1303 5.03345 19.1303 5.05356V5.1742C19.1303 5.1742 19.1303 5.21441 19.1303 5.23452L19.1035 5.22782Z" fill="#FF4D29"/>
<path d="M23.1924 27.0291C22.5694 27.5954 21.7737 27.9354 20.9338 27.9942C20.402 27.9493 19.8866 27.7887 19.4235 27.5235C18.9604 27.2584 18.5608 26.8952 18.2529 26.4594L18.5813 26.131C19.2848 25.4778 20.1906 25.0852 21.1482 25.0184C21.6691 25.0507 22.1772 25.1928 22.6393 25.4353C23.1013 25.6779 23.5068 26.0155 23.8291 26.4259C23.6295 26.642 23.4169 26.8456 23.1924 27.0358V27.0291ZM17.1605 31.7206C16.6224 31.6828 16.0995 31.5254 15.6299 31.2599C15.1603 30.9943 14.7559 30.6274 14.4461 30.1858L14.7745 29.8574C15.4875 29.1933 16.4091 28.7977 17.3816 28.7381C17.9024 28.7708 18.4104 28.913 18.8724 29.1556C19.3343 29.3981 19.7399 29.7355 20.0625 30.1456C19.5464 30.7085 18.454 31.7139 17.1605 31.7206ZM11.9864 26.5532C11.9864 25.2597 13.0052 24.1606 13.5681 23.6512C13.9789 23.9727 14.3163 24.3781 14.5579 24.8404C14.7994 25.3027 14.9396 25.8113 14.9689 26.332C14.9125 27.3073 14.5165 28.2321 13.8496 28.9459L13.5279 29.2743C12.4958 28.3963 11.9797 27.4848 11.9864 26.5599V26.5532ZM17.3146 19.9114C17.7254 20.2329 18.0628 20.6383 18.3044 21.1006C18.5459 21.5629 18.686 22.0715 18.7154 22.5923C18.659 23.5675 18.263 24.4923 17.5961 25.2061L17.2744 25.5345C16.2423 24.6565 15.7262 23.745 15.7329 22.8536C15.7329 21.5601 16.7516 20.461 17.3146 19.9516V19.9114ZM21.2019 20.3403C21.6013 19.9586 22.0877 19.6797 22.619 19.5279C23.1502 19.3761 23.7105 19.3559 24.2513 19.4691C24.3627 20.0099 24.3417 20.5697 24.19 21.1007C24.0382 21.6317 23.7604 22.1181 23.3801 22.5185C23.0064 22.8894 22.5395 23.1525 22.0287 23.2799C21.5178 23.4073 20.9821 23.3943 20.478 23.2424C20.3237 22.7348 20.3115 22.1947 20.4426 21.6807C20.5738 21.1667 20.8433 20.6985 21.222 20.3269L21.2019 20.3403ZM25.2231 25.0318L24.7071 25.5412C24.2496 25.0286 23.7078 24.5979 23.1053 24.2678C23.5457 24.0532 23.945 23.7629 24.2848 23.4099C24.8602 22.8034 25.266 22.0562 25.4612 21.2433C25.6565 20.4304 25.6345 19.5804 25.3974 18.7787C25.3649 18.6766 25.3084 18.5837 25.2326 18.5079C25.1568 18.4321 25.0639 18.3756 24.9618 18.3431C24.1608 18.1038 23.3108 18.08 22.4977 18.2741C21.6845 18.4683 20.937 18.8735 20.3306 19.449C19.9858 19.7887 19.7023 20.1855 19.4928 20.6218C19.1635 20.0206 18.7353 19.4791 18.2261 19.02L18.7355 18.504C18.794 18.4454 18.8405 18.376 18.8722 18.2995C18.9039 18.223 18.9202 18.141 18.9202 18.0583C18.9202 17.9755 18.9039 17.8935 18.8722 17.817C18.8405 17.7406 18.794 17.6711 18.7355 17.6126C18.678 17.5534 18.6092 17.5063 18.5333 17.4742C18.4573 17.4421 18.3756 17.4255 18.2931 17.4255C18.2106 17.4255 18.129 17.4421 18.053 17.4742C17.977 17.5063 17.9083 17.5534 17.8508 17.6126L16.6109 18.8659C15.9407 19.4691 14.5399 20.8765 14.5131 22.7531C14.3523 22.6124 14.1847 22.4649 14.0105 22.3242C13.8983 22.2463 13.765 22.2046 13.6285 22.2046C13.4919 22.2046 13.3586 22.2463 13.2464 22.3242C13.1459 22.3979 10.7934 24.1069 10.7666 26.5398C10.7959 27.2474 10.9817 27.9396 11.3109 28.5666C11.64 29.1936 12.1043 29.7398 12.67 30.1657L10.5857 32.25C10.4764 32.3728 10.416 32.5314 10.416 32.6957C10.416 32.8601 10.4764 33.0187 10.5857 33.1414C10.6437 33.2008 10.7131 33.248 10.7896 33.2802C10.8661 33.3124 10.9483 33.329 11.0314 33.329C11.1144 33.329 11.1966 33.3124 11.2732 33.2802C11.3497 33.248 11.419 33.2008 11.4771 33.1414L13.5815 31.0503C14.0022 31.6121 14.5417 32.0739 15.1615 32.403C15.7814 32.732 16.4662 32.9201 17.1672 32.9537C19.6068 32.9537 21.3158 30.5745 21.3895 30.474C21.4659 30.3624 21.5067 30.2304 21.5067 30.0953C21.5067 29.9601 21.4659 29.8281 21.3895 29.7166C21.2488 29.5357 21.1013 29.3748 20.9539 29.214C22.8104 29.214 24.2446 27.7998 24.8411 27.1162L26.1011 25.8763C26.1705 25.7559 26.1981 25.6159 26.1796 25.4781C26.1611 25.3404 26.0976 25.2126 25.9989 25.1147C25.9003 25.0168 25.772 24.9543 25.6341 24.9369C25.4962 24.9195 25.3564 24.9481 25.2365 25.0184L25.2231 25.0318Z" fill="#FF4D29"/>
</svg>
