<svg width="38" height="33" viewBox="0 0 38 33" fill="none" xmlns="http://www.w3.org/2000/svg">
<path d="M36.6774 28.1206L21.3687 1.62646C20.7837 0.61349 19.7279 0 18.558 0C17.3881 0 16.3324 0.61349 15.7474 1.62646L0.438716 28.1206C-0.146239 29.1336 -0.146239 30.3606 0.438716 31.3735C1.02367 32.3865 2.07944 33 3.24935 33H33.8382C35.0081 33 36.0639 32.3865 36.6488 31.3735C37.2623 30.3463 37.2623 29.1336 36.6774 28.1206ZM35.4361 30.6602C35.108 31.2309 34.5088 31.5733 33.8525 31.5733H3.26362C2.60733 31.5733 2.00811 31.2309 1.67996 30.6602C1.35182 30.0895 1.35182 29.4047 1.67996 28.834L16.9744 2.33982C17.3025 1.76913 17.9018 1.42672 18.558 1.42672C19.2143 1.42672 19.8136 1.76913 20.1417 2.33982L35.4361 28.834C35.7643 29.4047 35.7643 30.0895 35.4361 30.6602Z" fill="#FF4D29"/>
<path d="M19.1281 7.51562H17.9867C17.416 7.51562 16.8596 7.75817 16.4601 8.17191C16.0606 8.58566 15.8609 9.15635 15.8894 9.72704L16.4601 20.3418C16.5172 21.4547 17.4445 22.325 18.5574 22.325C19.6702 22.325 20.5833 21.4547 20.6546 20.3418L21.2253 9.72704C21.2539 9.15635 21.0541 8.58566 20.6546 8.17191C20.2552 7.7439 19.6987 7.51562 19.1281 7.51562ZM19.2279 20.2562C19.2137 20.6129 18.914 20.884 18.5574 20.884C18.2007 20.884 17.9153 20.6129 17.8868 20.2562L17.3161 9.64143C17.3019 9.45596 17.3732 9.28475 17.5016 9.14208C17.63 9.01368 17.8012 8.92808 17.9867 8.92808H19.1138C19.2993 8.92808 19.4705 8.99941 19.5989 9.14208C19.7273 9.27049 19.7843 9.45596 19.7843 9.64143L19.2279 20.2562Z" fill="#FF4D29"/>
<path d="M18.5589 24.0156C17.1322 24.0156 15.9766 25.1713 15.9766 26.598C15.9766 28.0247 17.1322 29.1803 18.5589 29.1803C19.9856 29.1803 21.1413 28.0247 21.1413 26.598C21.1413 25.1713 19.9856 24.0156 18.5589 24.0156ZM18.5589 27.7536C17.9169 27.7536 17.4033 27.24 17.4033 26.598C17.4033 25.956 17.9169 25.4423 18.5589 25.4423C19.2009 25.4423 19.7146 25.956 19.7146 26.598C19.7146 27.24 19.2009 27.7536 18.5589 27.7536Z" fill="#FF4D29"/>
</svg>
