<svg width="22" height="23" viewBox="0 0 22 23" fill="none" xmlns="http://www.w3.org/2000/svg">
<path fill-rule="evenodd" clip-rule="evenodd" d="M7.62446 13.2048C7.32097 13.2058 7.31816 12.7292 7.6226 12.7273L8.61504 12.7206C8.89806 12.7186 9.13081 12.4799 9.13081 12.1843V10.8461C9.13081 10.7142 9.23415 10.6064 9.36263 10.6064C9.49017 10.6064 9.59444 10.7132 9.59444 10.8461V12.1843C9.59444 12.7408 9.15689 13.1942 8.6169 13.1981L7.62446 13.2048ZM8.36181 19.7294C8.27151 19.636 8.27151 19.4839 8.36181 19.3905C8.45212 19.2971 8.59921 19.2971 8.68952 19.3905L8.91575 19.6245L9.14198 19.3905C9.23228 19.2971 9.37938 19.2971 9.46968 19.3905C9.55999 19.4839 9.55999 19.636 9.46968 19.7294L9.24345 19.9634L9.46968 20.1973C9.55999 20.2907 9.55999 20.4428 9.46968 20.5362C9.37938 20.6296 9.23228 20.6296 9.14198 20.5362L8.91575 20.3022L8.68952 20.5362C8.59921 20.6296 8.45212 20.6296 8.36181 20.5362C8.27151 20.4428 8.27151 20.2907 8.36181 20.1973L8.58804 19.9634L8.36181 19.7294ZM11.1474 20.8144C11.0199 20.8144 10.9156 20.7076 10.9156 20.5747C10.9156 20.4428 11.019 20.335 11.1474 20.335H15.0706C15.1982 20.335 15.3024 20.4418 15.3024 20.5747C15.3024 20.7066 15.1991 20.8144 15.0706 20.8144H11.1474ZM11.1474 19.6601C11.0199 19.6601 10.9156 19.5532 10.9156 19.4204C10.9156 19.2885 11.019 19.1806 11.1474 19.1806H15.0706C15.1982 19.1806 15.3024 19.2875 15.3024 19.4204C15.3024 19.5523 15.1991 19.6601 15.0706 19.6601H11.1474ZM8.9075 18.5183C8.11245 18.5183 7.46819 19.1845 7.46819 20.0067C7.46819 20.8289 8.11242 21.4951 8.9075 21.4951C9.70257 21.4951 10.3468 20.8289 10.3468 20.0067C10.3468 19.1855 9.70257 18.5183 8.9075 18.5183ZM9.59735 19.2933C8.98383 18.6588 7.93089 19.1104 7.93089 20.0067C7.93089 20.903 8.98383 21.3545 9.59735 20.72C9.97813 20.3263 9.97813 19.6871 9.59735 19.2933ZM11.1474 16.7614C11.0199 16.7614 10.9156 16.6545 10.9156 16.5216C10.9156 16.3897 11.019 16.2819 11.1474 16.2819H15.0706C15.1982 16.2819 15.3024 16.3888 15.3024 16.5216C15.3024 16.6535 15.1991 16.7614 15.0706 16.7614H11.1474ZM11.1474 15.607C11.0199 15.607 10.9156 15.5002 10.9156 15.3673C10.9156 15.2354 11.019 15.1276 11.1474 15.1276H15.0706C15.1982 15.1276 15.3024 15.2345 15.3024 15.3673C15.3024 15.4992 15.1991 15.607 15.0706 15.607H11.1474ZM8.9075 14.4652C9.70255 14.4652 10.3468 15.1314 10.3468 15.9536C10.3468 16.7758 9.70257 17.442 8.9075 17.442C8.11242 17.442 7.46819 16.7758 7.46819 15.9536C7.46819 15.1315 8.11242 14.4652 8.9075 14.4652ZM9.59735 15.2402C8.98383 14.6058 7.93089 15.0573 7.93089 15.9536C7.93089 16.8499 8.98383 17.3015 9.59735 16.667C9.97813 16.2732 9.97813 15.634 9.59735 15.2402ZM9.13093 15.5117L8.78275 15.8987L8.66731 15.7928C8.57142 15.7052 8.42619 15.7149 8.34147 15.8131C8.25675 15.9122 8.26606 16.0624 8.36102 16.15L8.63658 16.4013C8.73805 16.4976 8.88049 16.4918 8.968 16.3946L9.46888 15.8371C9.55546 15.7409 9.5508 15.5897 9.45677 15.4992C9.36368 15.4097 9.21752 15.4155 9.13093 15.5117ZM6.66301 23H16.3583V9.92393H9.36283C9.32932 9.92393 9.30138 9.93645 9.27718 9.96051L6.69843 12.6272C6.67516 12.6513 6.66305 12.6812 6.66305 12.7158L6.66301 23ZM15.3378 9.44456V8.86789H8.34158C8.30806 8.86789 8.28013 8.8804 8.25593 8.90447L5.67813 11.5712C5.65486 11.5953 5.64276 11.6251 5.64276 11.6598V21.9447H6.2004L6.19947 12.7149C6.19947 12.5531 6.25999 12.402 6.37077 12.2874L8.94952 9.62069C9.06031 9.50612 9.20647 9.44354 9.36288 9.44354L15.3378 9.44456ZM5.17892 20.39V15.4627C4.42017 14.3007 3.97701 12.9 3.97701 11.3921C3.97701 7.37551 7.1218 4.1185 11.0004 4.1185C14.8797 4.1185 18.0238 7.37452 18.0238 11.3921C18.0238 12.8998 17.5806 14.3006 16.8219 15.4627V20.3909C17.2166 20.6278 17.7007 20.5623 18.0238 20.2273L19.5338 18.6628C19.8588 18.3258 19.9202 17.8214 19.6856 17.4122L18.9324 16.099C18.7602 15.7996 18.7434 15.4617 18.884 15.145C18.9762 14.938 19.0609 14.7262 19.1382 14.5105C19.2555 14.1841 19.4984 13.9569 19.8252 13.8703L21.2515 13.4938C21.6974 13.3764 22 12.974 22 12.4974V10.284C22 9.80749 21.6974 9.40506 21.2515 9.2876L19.8252 8.91117C19.4984 8.82453 19.2555 8.59829 19.1382 8.27094C19.0609 8.05528 18.9762 7.84444 18.884 7.6365C18.7434 7.31974 18.7602 6.98184 18.9324 6.68241L19.6856 5.36924C19.9202 4.96006 19.8588 4.45464 19.5338 4.11864L18.0238 2.55417C17.698 2.2172 17.2083 2.1527 16.8117 2.39724L15.5474 3.17512C15.2579 3.35323 14.9302 3.37152 14.6229 3.22518C14.4237 3.12987 14.2198 3.04226 14.0122 2.96332C13.6966 2.84201 13.4778 2.59074 13.394 2.25282L13.0309 0.775002C12.9174 0.313846 12.5282 0 12.0674 0H9.93263C9.47179 0 9.08265 0.312884 8.96906 0.775002L8.60598 2.25282C8.52313 2.59074 8.30435 2.84201 7.9878 2.96332C7.78019 3.04323 7.5763 3.13084 7.37708 3.22615C7.07077 3.37248 6.74307 3.35419 6.45261 3.17608L5.18833 2.3982C4.79173 2.15463 4.30298 2.21817 3.9762 2.55513L2.46616 4.1196C2.14124 4.45656 2.0798 4.96105 2.31441 5.3702L3.06758 6.68337C3.23982 6.98278 3.25657 7.3207 3.11599 7.63746C3.02383 7.84445 2.93911 8.05624 2.86184 8.2719C2.74453 8.59923 2.50155 8.82548 2.17478 8.91214L0.748504 9.28856C0.302562 9.40601 0 9.80845 0 10.285V12.4984C0 12.9749 0.302562 13.3773 0.748504 13.4948L2.17478 13.8712C2.50155 13.9579 2.74453 14.1841 2.86184 14.5105C2.93911 14.7262 3.02383 14.938 3.11599 15.145C3.25657 15.4617 3.23981 15.7996 3.06758 16.099L2.31441 17.4122C2.0798 17.8214 2.14125 18.3268 2.46616 18.6628L3.9762 20.2273C4.30019 20.5614 4.78417 20.6268 5.17892 20.39Z" fill="#FF4D29"/>
</svg>
