<svg width="19" height="23" viewBox="0 0 19 23" fill="none" xmlns="http://www.w3.org/2000/svg">
<path d="M9.2256 0C4.35086 0 0.384766 3.43935 0.384766 7.66668C0.384766 8.93573 0.750641 10.194 1.44618 11.31L8.74214 22.7529C8.83926 22.9055 9.02435 23 9.2256 23C9.42685 23 9.61194 22.9055 9.70907 22.7529L17.0077 11.3063C17.7006 10.194 18.0664 8.93568 18.0664 7.66664C18.0664 3.43935 14.1003 0 9.2256 0ZM9.2256 11.5C6.78823 11.5 4.80521 9.78035 4.80521 7.66668C4.80521 5.55302 6.78823 3.83336 9.2256 3.83336C11.663 3.83336 13.646 5.55302 13.646 7.66668C13.646 9.78035 11.663 11.5 9.2256 11.5Z" fill="#FF4D29"/>
</svg>
