<svg width="41" height="41" viewBox="0 0 41 41" fill="none" xmlns="http://www.w3.org/2000/svg">
<g clip-path="url(#clip0_511_21706)">
<path d="M34.2852 9.77321V3.71607H32.2852V2.6875H34.7994C35.0852 2.6875 35.3137 2.91607 35.3137 3.20179V9.77321H34.2852Z" fill="#5B5C61"/>
<path d="M5.19788 37.3147C4.91217 37.3147 4.68359 37.0862 4.68359 36.8004V20.1719H5.71217V36.2862H31.5979V32.229H32.5693V36.7433C32.5693 37.029 32.3407 37.2576 32.055 37.2576H5.19788V37.3147Z" fill="#5B5C61"/>
<path d="M31.5979 10.4V7.02857H26.055C25.7693 7.02857 25.5407 6.8 25.5407 6.51429V1.02857H5.71217V1.71429H4.68359V0.514286C4.68359 0.228571 4.91217 0 5.19788 0H26.055C26.1122 0 26.1693 0 26.2265 0.0571429C26.3407 0.114286 26.3979 0.114286 26.3979 0.171429L32.455 6.22857C32.5122 6.28571 32.5122 6.34286 32.5693 6.4C32.6265 6.51429 32.6265 6.51429 32.6265 6.57143V6.62857V10.4571H31.5979V10.4ZM26.5693 6.05714H30.9122L26.5693 1.71429V6.05714Z" fill="#5B5C61"/>
<path d="M15.942 33.9391C15.6563 33.9391 15.4277 33.7105 15.4277 33.4248V28.0533C15.4277 27.7676 15.6563 27.5391 15.942 27.5391H19.8277V28.5676H16.4563V32.9676H24.5134V33.9391H15.942Z" fill="#5B5C61"/>
<path d="M21.8862 30.2891H18.1719V31.2605H21.8862V30.2891Z" fill="#5B5C61"/>
<path d="M8.05664 39.9962V39.0248H34.2852V27.9391L28.3995 33.8248C28.2852 33.9391 28.1709 33.9962 28.0566 33.9962C27.9424 33.9962 27.7709 33.9391 27.7138 33.8248L18.2852 24.3962C18.1138 24.2248 18.1138 23.8819 18.2852 23.7105L24.3424 17.6533C24.4566 17.5391 24.5709 17.4819 24.6852 17.4819C24.7995 17.4819 24.9709 17.5391 25.0281 17.6533L27.3138 19.9391L30.9138 16.1676V16.0533C30.9138 13.5391 32.9709 11.5391 35.4281 11.5391C37.9424 11.5391 39.9424 13.5962 39.9424 16.0533C39.9424 18.5105 37.8852 20.5676 35.4281 20.5676H35.3138L31.4852 24.1676L34.2852 26.8533V23.5391H35.2566V39.4819C35.2566 39.7676 35.0281 39.9962 34.7424 39.9962H8.05664ZM19.3709 24.0533L28.0566 32.7391L29.3709 31.4248L20.6852 22.7391L19.3709 24.0533ZM21.3709 21.9962L30.0566 30.6819L33.3709 27.3676L30.7424 24.7391L29.0281 26.3962C28.9138 26.5105 28.7995 26.5105 28.6852 26.5105C28.5709 26.5105 28.3995 26.4533 28.3424 26.3391L24.9709 22.9676C24.7995 22.7962 24.7995 22.4533 24.9709 22.2819L26.6281 20.5676L24.6852 18.6248L21.3709 21.9962ZM35.4852 12.4533C33.5424 12.4533 31.9424 14.0533 31.9424 15.9962V16.3391C31.9424 16.4533 31.8852 16.5676 31.8281 16.6819L26.1138 22.7391L28.7995 25.4248L34.8566 19.7105C34.9709 19.5962 35.0852 19.5962 35.1995 19.5962H35.5424C37.4852 19.5962 39.0852 17.9962 39.0852 16.0533C39.0852 14.1105 37.4281 12.4533 35.4852 12.4533Z" fill="#5B5C61"/>
<path d="M19.2008 19.4844H12.8008V20.4558H19.2008V19.4844Z" fill="#5B5C61"/>
<path d="M16.4565 22.1719H8.74219V23.1433H16.4565V22.1719Z" fill="#5B5C61"/>
<path d="M22.5151 16.7969H14.8008V17.7683H22.5151V16.7969Z" fill="#5B5C61"/>
<path d="M12.4565 24.8594H8.74219V25.8308H12.4565V24.8594Z" fill="#5B5C61"/>
<path d="M13.7708 27.6016H8.74219V28.573H13.7708V27.6016Z" fill="#5B5C61"/>
<path d="M13.7708 30.2891H8.74219V31.2605H13.7708V30.2891Z" fill="#5B5C61"/>
<path d="M13.7708 32.9688H8.74219V33.9402H13.7708V32.9688Z" fill="#5B5C61"/>
<path d="M11.085 19.4844H8.74219V20.4558H11.085V19.4844Z" fill="#5B5C61"/>
<path d="M16.4561 24.8594H14.1133V25.8308H16.4561V24.8594Z" fill="#5B5C61"/>
<path d="M23.2008 13.4297H16.8008V14.4011H23.2008V13.4297Z" fill="#5B5C61"/>
<path d="M7.88497 18.5136C3.99925 18.5136 0.74211 15.7136 0.113539 11.885C-0.515033 8.05647 1.6564 4.34219 5.37068 3.14219C6.17068 2.85647 7.02782 2.74219 7.94211 2.74219C10.8564 2.74219 13.5421 4.34219 14.9135 6.91362L15.0278 7.14219L15.1993 6.91362C15.2564 6.79933 15.3707 6.74219 15.4278 6.68504L15.485 6.6279V6.51362C15.4278 5.99933 15.5993 5.54219 15.9421 5.19933C16.2278 4.91362 16.685 4.74219 17.085 4.74219C17.1421 4.74219 17.1993 4.74219 17.2564 4.74219H17.3707L17.4278 4.68504C17.7707 4.28504 18.2278 4.11362 18.685 4.11362C19.1421 4.11362 19.6564 4.34219 19.9421 4.68504H19.9993H20.1135C20.1707 4.68504 20.2278 4.68504 20.285 4.68504C20.7421 4.68504 21.1421 4.85647 21.4278 5.14219C21.7707 5.48504 21.9421 5.94219 21.885 6.45647V6.57076L21.9421 6.6279C22.3421 6.97076 22.5135 7.4279 22.5135 7.88504C22.5135 8.39933 22.285 8.85647 21.9421 9.14219L21.885 9.19933V9.31362C21.9421 9.8279 21.7707 10.285 21.4278 10.6279C21.1421 10.9136 20.685 11.085 20.285 11.085C20.2278 11.085 20.1707 11.085 20.1135 11.085H19.9993L19.9421 11.1422C19.5993 11.5422 19.1421 11.7136 18.685 11.7136C18.2278 11.7136 17.7135 11.485 17.4278 11.1422L17.3707 11.085H17.2564C17.1993 11.085 17.1421 11.085 17.085 11.085C16.685 11.085 16.3421 10.9708 16.0564 10.685L15.7707 10.4565V10.7993C15.5993 15.1422 12.1707 18.4565 7.88497 18.5136ZM7.88497 3.71362C4.11354 3.71362 0.970682 6.79933 0.970682 10.6279C0.970682 14.4565 4.0564 17.5422 7.88497 17.5422C11.7135 17.5422 14.7993 14.4565 14.7993 10.6279C14.7993 6.79933 11.7135 3.71362 7.88497 3.71362ZM17.5993 9.99933C17.6564 9.99933 17.7135 9.99933 17.7707 10.0565C17.885 10.1136 17.9993 10.2279 18.0564 10.3422C18.1707 10.5708 18.3993 10.7993 18.685 10.7993C18.9707 10.7993 19.1993 10.6279 19.3135 10.3422C19.3707 10.2279 19.485 10.1136 19.5993 10.0565C19.6564 10.0565 19.7135 9.99933 19.7707 9.99933C19.8278 9.99933 19.9421 9.99933 19.9993 10.0565C20.0564 10.1136 20.1707 10.1136 20.285 10.1136C20.4564 10.1136 20.6278 10.0565 20.7421 9.94219C20.9135 9.77076 20.9707 9.4279 20.8564 9.19933C20.7993 9.08504 20.7993 8.91362 20.8564 8.79933C20.9135 8.68504 21.0278 8.57076 21.1421 8.51362C21.3707 8.39933 21.5993 8.17076 21.5993 7.88504C21.5993 7.59933 21.4278 7.37076 21.1421 7.25647C21.0278 7.19933 20.9135 7.08504 20.8564 6.97076C20.7993 6.85647 20.7993 6.68504 20.8564 6.57076C20.9707 6.34219 20.9135 6.05647 20.7421 5.8279C20.5707 5.77076 20.3993 5.71362 20.2278 5.71362C20.1135 5.71362 20.0564 5.71362 19.9421 5.77076C19.885 5.8279 19.8278 5.8279 19.7135 5.8279C19.6564 5.8279 19.5993 5.8279 19.5421 5.77076C19.4278 5.71362 19.3135 5.59933 19.2564 5.48504C19.1421 5.25647 18.9135 5.0279 18.6278 5.0279C18.3421 5.0279 18.1135 5.19933 17.9993 5.48504C17.9421 5.59933 17.8278 5.71362 17.7135 5.77076C17.6564 5.77076 17.5993 5.8279 17.5421 5.8279C17.485 5.8279 17.3707 5.8279 17.3135 5.77076C17.2564 5.71362 17.1993 5.71362 17.085 5.71362C16.9135 5.71362 16.7421 5.77076 16.6278 5.88504C16.4564 6.05647 16.3993 6.39933 16.5135 6.6279C16.5707 6.74219 16.5707 6.91362 16.5135 7.0279C16.4564 7.14219 16.3421 7.25647 16.2278 7.31362H16.1707C15.9421 7.4279 15.8278 7.65647 15.8278 7.88504C15.8278 8.17076 15.9993 8.39933 16.285 8.51362C16.3993 8.57076 16.5135 8.68504 16.5707 8.79933C16.6278 8.91362 16.6278 9.08504 16.5707 9.19933C16.4564 9.4279 16.5135 9.71362 16.685 9.94219C16.7993 10.0565 16.9707 10.1136 17.1421 10.1136C17.2564 10.1136 17.3135 10.1136 17.4278 10.0565C17.4278 9.99933 17.485 9.99933 17.5993 9.99933Z" fill="#5B5C61"/>
<path d="M5.19928 14.4545C5.08499 14.4545 4.91356 14.3973 4.85642 14.283L2.9707 12.3973L3.65642 11.7116L5.19928 13.2545L11.4278 6.96875L12.1136 7.65446L5.54213 14.283C5.48499 14.3973 5.31356 14.4545 5.19928 14.4545Z" fill="#5B5C61"/>
</g>
<defs>
<clipPath id="clip0_511_21706">
<rect width="40" height="40" fill="white"/>
</clipPath>
</defs>
</svg>
