<svg width="40" height="40" viewBox="0 0 40 40" fill="none" xmlns="http://www.w3.org/2000/svg">
<path d="M18.6519 7.85001C18.3449 7.85001 18.096 8.09887 18.096 8.40587C18.096 8.71294 18.3449 8.96172 18.6519 8.96172H21.1554C21.6929 8.96172 22.1302 8.52444 22.1302 7.98701V6.06072C22.1302 5.52322 21.6929 5.08594 21.1554 5.08594H9.65838C9.12088 5.08594 8.68359 5.52322 8.68359 6.06072V7.98708C8.68359 8.52451 9.12088 8.9618 9.65838 8.9618H16.0392C16.3462 8.9618 16.595 8.71294 16.595 8.40594C16.595 8.09887 16.3462 7.85008 16.0392 7.85008H9.79538V6.19772H21.0184V7.84994L18.6519 7.85001Z" fill="#5B5C61"/>
<path d="M6.19922 11.8137C6.19922 12.1207 6.44808 12.3695 6.75508 12.3695H24.1766C24.4837 12.3695 24.7325 12.1207 24.7325 11.8137C24.7325 11.5066 24.4836 11.2578 24.1766 11.2578H6.75508C6.44808 11.2577 6.19922 11.5066 6.19922 11.8137Z" fill="#5B5C61"/>
<path d="M6.75508 15.8695H24.1766C24.4837 15.8695 24.7325 15.6207 24.7325 15.3137C24.7325 15.0066 24.4836 14.7578 24.1766 14.7578H6.75508C6.44808 14.7578 6.19922 15.0067 6.19922 15.3137C6.19922 15.6207 6.44808 15.8695 6.75508 15.8695Z" fill="#5B5C61"/>
<path d="M20.7403 18.8059C20.7403 18.4988 20.4914 18.25 20.1844 18.25H6.75508C6.44808 18.25 6.19922 18.4989 6.19922 18.8059C6.19922 19.1129 6.44808 19.3617 6.75508 19.3617H20.1844C20.4914 19.3617 20.7403 19.1129 20.7403 18.8059Z" fill="#5B5C61"/>
<path d="M13.6984 22.8617C14.0054 22.8617 14.2543 22.6129 14.2543 22.3059C14.2543 21.9988 14.0054 21.75 13.6984 21.75H6.75508C6.44808 21.75 6.19922 21.9989 6.19922 22.3059C6.19922 22.6129 6.44808 22.8617 6.75508 22.8617H13.6984Z" fill="#5B5C61"/>
<path d="M6.08344 33.6745C6.37886 33.7592 6.68622 33.5875 6.77036 33.2922C6.77394 33.2799 7.13858 32.0571 8.55815 32.0571C9.25886 32.0571 9.59144 32.3324 10.0518 32.7135C10.5807 33.1513 11.2391 33.6962 12.5111 33.6962C14.0971 33.6962 14.9497 32.0192 14.9853 31.9479C15.1217 31.6738 15.0102 31.3419 14.7366 31.2045C14.4631 31.0671 14.1294 31.1777 13.9909 31.4507C13.9851 31.4621 13.4056 32.5844 12.5111 32.5844C11.6395 32.5844 11.2517 32.2634 10.7607 31.857C10.2444 31.4296 9.65929 30.9453 8.55808 30.9453C6.75836 30.9453 5.90229 32.2812 5.70108 32.9876C5.61701 33.2829 5.78822 33.5905 6.08344 33.6745Z" fill="#5B5C61"/>
<path d="M37.7413 7.70771C37.6863 7.5705 37.5789 7.46093 37.4429 7.403L36.1513 6.85343C36.2596 6.57957 36.1234 6.2545 35.8553 6.13864L35.5978 6.02743L36.0156 5.05971C36.4876 3.9645 35.9656 2.65164 34.8715 2.179C33.7782 1.70671 32.4641 2.22893 31.9917 3.32186L31.5611 4.31864C31.0686 4.23279 30.5703 4.50343 30.3726 4.96129L29.2147 7.64264V4.79693C29.2147 3.25464 27.96 2 26.4178 2H4.51099C2.9692 2 1.71484 3.25436 1.71484 4.79614V35.7753C1.71484 37.3171 2.9692 38.5714 4.51099 38.5714H26.4186C27.9603 38.5714 29.2146 37.3171 29.2146 35.7753V27.9926C29.2146 27.6855 28.9658 27.4367 28.6588 27.4367C28.3518 27.4367 28.1029 27.6856 28.1029 27.9926V35.7753C28.1029 36.7041 27.3473 37.4596 26.4186 37.4596H4.51099C3.5822 37.4596 2.82663 36.7041 2.82663 35.7753V4.79614C2.82663 3.86736 3.58227 3.11179 4.51099 3.11179H26.4178C27.3469 3.11179 28.1029 3.86771 28.1029 4.79693V10.2171L19.5825 29.9508C19.5528 30.0195 19.5363 30.0966 19.5365 30.1715L19.543 34.8541C19.5438 35.8989 20.8359 36.4616 21.6007 35.7425L25.0127 32.5363C25.0598 32.4925 25.0993 32.4379 25.1281 32.3806C25.1311 32.3746 25.1341 32.3688 25.1369 32.3627C25.1387 32.3589 25.1408 32.3553 25.1424 32.3514L35.7113 7.87443L36.4941 8.2075L32.3596 17.8219C32.2383 18.1039 32.3686 18.4309 32.6506 18.5522C32.7222 18.5831 32.7967 18.5976 32.8699 18.5976C33.0853 18.5976 33.2903 18.4716 33.3808 18.2611L37.7358 8.13414C37.7943 7.99829 37.7962 7.84486 37.7413 7.70771ZM34.0666 3.11371C34.8038 3.15157 35.2844 3.94771 34.9948 4.61921L34.5771 5.5865L32.5943 4.7305L33.0123 3.76286C33.1913 3.34871 33.6141 3.08871 34.0666 3.11371ZM31.3857 5.41971L34.9043 6.93893L30.4336 17.2929L26.9144 15.7733L31.3857 5.41971ZM24.3421 31.4005L20.8236 29.8811L26.4738 16.7941L29.9929 18.3136L24.3421 31.4005ZM20.8392 34.9324C20.7707 34.9966 20.6547 34.9474 20.6547 34.853L20.6495 31.0169L23.6343 32.3058L20.8392 34.9324Z" fill="#5B5C61"/>
</svg>
