<svg width="36" height="37" viewBox="0 0 36 37" fill="none" xmlns="http://www.w3.org/2000/svg">
<path d="M3.98639 8.27484H22.9829C23.6882 8.27484 24.2623 7.70084 24.2623 6.99548V4.53105C24.2623 3.82573 23.6883 3.25168 22.9829 3.25168L3.98639 3.25C3.28108 3.25 2.70703 3.82401 2.70703 4.52936V6.9938C2.70703 7.69911 3.28104 8.27316 3.98639 8.27316V8.27484ZM3.38041 4.52941C3.38041 4.19442 3.65143 3.92343 3.98639 3.92343H22.9829C23.3179 3.92343 23.5889 4.19445 23.5889 4.52941V6.99384C23.5889 7.32883 23.3162 7.59982 22.9829 7.59982L3.98639 7.60151C3.65309 7.60151 3.38041 7.32881 3.38041 6.99553V4.52941Z" fill="#5B5C61"/>
<path d="M23.3938 10.0391H20.4211C19.9413 10.0391 19.5508 10.4296 19.5508 10.911V13.8838C19.5508 14.3635 19.9413 14.7557 20.4211 14.7557H23.3938C23.8753 14.7557 24.2658 14.3652 24.2658 13.8838V10.911C24.2658 10.4313 23.8752 10.0391 23.3938 10.0391ZM23.5908 13.8838C23.5908 13.9932 23.5016 14.0825 23.3921 14.0825H20.4194C20.3116 14.0825 20.2224 13.9916 20.2224 13.8838V10.9111C20.2224 10.8033 20.3133 10.7124 20.4194 10.7124H23.3921C23.5016 10.7124 23.5908 10.8016 23.5908 10.9111V13.8838Z" fill="#5B5C61"/>
<path d="M17.7783 10.0391H14.8055C14.3241 10.0391 13.9336 10.4296 13.9336 10.911V13.8838C13.9336 14.3635 14.3241 14.7557 14.8055 14.7557H17.7783C18.2581 14.7557 18.6486 14.3652 18.6486 13.8838V10.911C18.6486 10.4313 18.2581 10.0391 17.7783 10.0391ZM17.977 13.8838C17.977 13.9916 17.886 14.0825 17.78 14.0825H14.8072C14.6978 14.0825 14.6086 13.9932 14.6086 13.8838V10.9111C14.6086 10.8016 14.6978 10.7124 14.8072 10.7124H17.78C17.8877 10.7124 17.977 10.8033 17.977 10.9111V13.8838Z" fill="#5B5C61"/>
<path d="M6.55175 10.0391H3.57899C3.09755 10.0391 2.70703 10.4296 2.70703 10.911V13.8838C2.70703 14.3635 3.09757 14.7557 3.57899 14.7557H6.55175C7.03151 14.7557 7.42371 14.3652 7.42371 13.8838V10.911C7.42371 10.4313 7.03317 10.0391 6.55175 10.0391ZM6.75039 13.8838C6.75039 13.9932 6.66117 14.0825 6.55175 14.0825H3.57899C3.46957 14.0825 3.38035 13.9932 3.38035 13.8838V10.9111C3.38035 10.8016 3.46957 10.7124 3.57899 10.7124H6.55175C6.66117 10.7124 6.75039 10.8016 6.75039 10.9111V13.8838Z" fill="#5B5C61"/>
<path d="M12.165 10.0391H9.19227C8.71083 10.0391 8.32031 10.4296 8.32031 10.911V13.8838C8.32031 14.3635 8.71085 14.7557 9.19227 14.7557H12.165C12.6448 14.7557 13.037 14.3652 13.037 13.8838V10.911C13.037 10.4313 12.6465 10.0391 12.165 10.0391ZM12.3637 13.8838C12.3637 13.9932 12.2745 14.0825 12.165 14.0825H9.19227C9.08285 14.0825 8.99363 13.9932 8.99363 13.8838V10.9111C8.99363 10.8016 9.08285 10.7124 9.19227 10.7124H12.165C12.2745 10.7124 12.3637 10.8016 12.3637 10.9111V13.8838Z" fill="#5B5C61"/>
<path d="M12.165 16.2266H9.19227C8.71083 16.2266 8.32031 16.6171 8.32031 17.0985V20.0713C8.32031 20.551 8.71085 20.9432 9.19227 20.9432H12.165C12.6448 20.9432 13.037 20.5527 13.037 20.0713V17.0985C13.037 16.6188 12.6465 16.2266 12.165 16.2266ZM12.3637 20.0713C12.3637 20.1807 12.2745 20.27 12.165 20.27H9.19227C9.08285 20.27 8.99363 20.1807 8.99363 20.0713V17.0986C8.99363 16.9891 9.08285 16.8999 9.19227 16.8999H12.165C12.2728 16.8999 12.3637 16.9908 12.3637 17.0986V20.0713Z" fill="#5B5C61"/>
<path d="M17.7783 16.2266H14.8055C14.3241 16.2266 13.9336 16.6171 13.9336 17.0985V20.0713C13.9336 20.551 14.3241 20.9432 14.8055 20.9432H17.7783C18.2581 20.9432 18.6486 20.5527 18.6486 20.0713V17.0985C18.6486 16.6188 18.2581 16.2266 17.7783 16.2266ZM17.977 20.0713C17.977 20.1791 17.886 20.27 17.78 20.27H14.8072C14.6978 20.27 14.6086 20.1807 14.6086 20.0713V17.0986C14.6086 16.9891 14.6978 16.8999 14.8072 16.8999H17.78C17.8877 16.8999 17.977 16.9908 17.977 17.0986V20.0713Z" fill="#5B5C61"/>
<path d="M6.55175 16.2266H3.57899C3.09755 16.2266 2.70703 16.6171 2.70703 17.0985V20.0713C2.70703 20.551 3.09757 20.9432 3.57899 20.9432H6.55175C7.03151 20.9432 7.42371 20.5527 7.42371 20.0713V17.0985C7.42371 16.6188 7.03317 16.2266 6.55175 16.2266ZM6.75039 20.0713C6.75039 20.1807 6.66117 20.27 6.55175 20.27H3.57899C3.46957 20.27 3.38035 20.1807 3.38035 20.0713V17.0986C3.38035 16.9891 3.46957 16.8999 3.57899 16.8999H6.55175C6.65949 16.8999 6.75039 16.9908 6.75039 17.0986V20.0713Z" fill="#5B5C61"/>
<path d="M23.3938 16.2266H20.4211C19.9413 16.2266 19.5508 16.6171 19.5508 17.0985V20.0713C19.5508 20.551 19.9413 20.9432 20.4211 20.9432H23.3938C23.8753 20.9432 24.2658 20.5527 24.2658 20.0713V17.0985C24.2658 16.6188 23.8752 16.2266 23.3938 16.2266ZM23.5908 20.0713C23.5908 20.1807 23.5016 20.27 23.3921 20.27H20.4194C20.3116 20.27 20.2224 20.1791 20.2224 20.0713V17.0986C20.2224 16.9908 20.3133 16.8999 20.4194 16.8999H23.3921C23.5016 16.8999 23.5908 16.9891 23.5908 17.0986V20.0713Z" fill="#5B5C61"/>
<path d="M12.165 22.4297H9.19227C8.71251 22.4297 8.32031 22.8202 8.32031 23.3016V26.2744C8.32031 26.7559 8.71085 27.1464 9.19227 27.1464H12.165C12.6448 27.1464 13.0353 26.7558 13.0353 26.2744V23.3016C13.0353 22.8202 12.6448 22.4297 12.165 22.4297ZM12.362 26.2745C12.362 26.3822 12.2711 26.4731 12.165 26.4731H9.19227C9.08453 26.4731 8.99363 26.3822 8.99363 26.2745V23.3017C8.99363 23.194 9.08453 23.103 9.19227 23.103H12.165C12.2728 23.103 12.362 23.194 12.362 23.3017V26.2745Z" fill="#5B5C61"/>
<path d="M12.167 28.625H9.19422C8.71446 28.625 8.32227 29.0155 8.32227 29.497V32.4697C8.32227 32.9495 8.7128 33.3417 9.19422 33.3417H12.167C12.6467 33.3417 13.0373 32.9511 13.0373 32.4697V29.497C13.0373 29.0155 12.6467 28.625 12.167 28.625ZM12.3639 32.4698C12.3639 32.5775 12.273 32.6684 12.167 32.6684H9.19422C9.0848 32.6684 8.99559 32.5792 8.99559 32.4698V29.497C8.99559 29.3876 9.0848 29.2984 9.19422 29.2984H12.167C12.2764 29.2984 12.3639 29.3876 12.3639 29.497V32.4698Z" fill="#5B5C61"/>
<path d="M17.7783 28.625H14.8055C14.3241 28.625 13.9336 29.0155 13.9336 29.497V32.4697C13.9336 32.9495 14.3241 33.3417 14.8055 33.3417H17.7783C18.2581 33.3417 18.6486 32.9511 18.6486 32.4697V29.497C18.6486 29.0155 18.2581 28.625 17.7783 28.625ZM17.977 32.4698C17.977 32.5775 17.886 32.6684 17.78 32.6684H14.8072C14.6995 32.6684 14.6086 32.5775 14.6086 32.4698V29.497C14.6086 29.3893 14.6995 29.2984 14.8072 29.2984H17.78C17.8894 29.2984 17.977 29.3876 17.977 29.497V32.4698Z" fill="#5B5C61"/>
<path d="M6.55175 22.4297H3.57899C3.09923 22.4297 2.70703 22.8202 2.70703 23.3016V26.2744C2.70703 26.7559 3.09757 27.1464 3.57899 27.1464H6.55175C7.03151 27.1464 7.42371 26.7558 7.42371 26.2744V23.3016C7.42371 22.8202 7.03317 22.4297 6.55175 22.4297ZM6.75039 26.2745C6.75039 26.3822 6.65949 26.4731 6.55175 26.4731H3.57899C3.47125 26.4731 3.38035 26.3822 3.38035 26.2745V23.3017C3.38035 23.194 3.47125 23.103 3.57899 23.103H6.55175C6.65949 23.103 6.75039 23.194 6.75039 23.3017V26.2745Z" fill="#5B5C61"/>
<path d="M6.55175 28.625H3.57899C3.09923 28.625 2.70703 29.0155 2.70703 29.497V32.4697C2.70703 32.9495 3.09757 33.3417 3.57899 33.3417H6.55175C7.03151 33.3417 7.42371 32.9511 7.42371 32.4697V29.497C7.42371 29.0155 7.03317 28.625 6.55175 28.625ZM6.75039 32.4698C6.75039 32.5792 6.66117 32.6684 6.55175 32.6684H3.57899C3.46957 32.6684 3.38035 32.5792 3.38035 32.4698V29.497C3.38035 29.3876 3.46957 29.2984 3.57899 29.2984H6.55175C6.66117 29.2984 6.75039 29.3876 6.75039 29.497V32.4698Z" fill="#5B5C61"/>
<path d="M17.7783 22.4297H14.8055C14.3241 22.4297 13.9336 22.8202 13.9336 23.3016V26.2744C13.9336 26.7559 14.3241 27.1464 14.8055 27.1464H17.7783C18.2581 27.1464 18.6486 26.7558 18.6486 26.2744V23.3016C18.6486 22.8202 18.2581 22.4297 17.7783 22.4297ZM17.977 26.2745C17.977 26.3822 17.886 26.4731 17.78 26.4731H14.8072C14.6995 26.4731 14.6086 26.3822 14.6086 26.2745V23.3017C14.6086 23.194 14.6995 23.103 14.8072 23.103H17.78C17.8877 23.103 17.977 23.194 17.977 23.3017V26.2745Z" fill="#5B5C61"/>
<path d="M33.7872 28.1102H32.5685C32.725 27.8745 32.8159 27.5917 32.8159 27.287V25.4976C32.8159 24.6728 32.1443 24.0011 31.3194 24.0011H26.4378V3.81783C26.4378 1.71366 24.7258 0 22.6216 0H4.34908C2.24491 0 0.53125 1.71198 0.53125 3.81783V32.7849C0.53125 34.8891 2.24323 36.601 4.34908 36.601H22.6216C22.7125 36.601 22.8017 36.5977 22.891 36.5909C23.1586 36.8434 23.5188 37 23.9161 37H32.2301C33.055 37 33.7267 36.3283 33.7267 35.5035V33.7158C33.7267 33.4111 33.6358 33.1283 33.4792 32.8926H33.7873C34.6121 32.8926 35.2838 32.221 35.2838 31.3961V29.6067C35.2838 28.7819 34.612 28.1102 33.7872 28.1102ZM32.1409 25.4993V27.2887C32.1409 27.7415 31.7722 28.1119 31.3177 28.1119H23.0037C22.5508 28.1119 22.1805 27.7432 22.1805 27.2887V25.4993C22.1805 25.0465 22.5492 24.6762 23.0037 24.6762H31.316C31.7688 24.6762 32.1392 25.0448 32.1392 25.4993H32.1409ZM22.8473 32.6688H20.4183C20.3089 32.6688 20.2213 32.5796 20.2213 32.4719V23.2994C20.2213 23.1917 20.3122 23.1007 20.4183 23.1007H23.3927C23.5021 23.1007 23.5914 23.19 23.5914 23.2994V24.003H23.0055C22.1807 24.003 21.509 24.6747 21.509 25.4995V27.2889C21.509 28.1138 22.1807 28.7854 23.0055 28.7854H23.5914V32.2565C23.3035 32.3204 23.0476 32.4669 22.849 32.6706L22.8473 32.6688ZM1.20617 32.785V3.81789C1.20617 2.08406 2.6168 0.673393 4.35067 0.673393H22.6232C24.3553 0.673393 25.766 2.08402 25.766 3.81789V24.0046H24.2645V23.301C24.2645 22.8196 23.8739 22.4291 23.3925 22.4291H20.4181C19.9383 22.4291 19.5478 22.8196 19.5478 23.301V32.4735C19.5478 32.9532 19.9383 33.3437 20.4181 33.3437H22.4684C22.4381 33.4633 22.4195 33.5878 22.4195 33.7158V35.5035C22.4195 35.6516 22.4414 35.793 22.4818 35.9277H4.34892C2.6151 35.9277 1.20443 34.517 1.20443 32.7849L1.20617 32.785ZM33.0532 35.5036C33.0532 35.9564 32.6845 36.3267 32.23 36.3267H23.916C23.4615 36.3267 23.0928 35.9581 23.0928 35.5036V33.7159C23.0928 33.263 23.4614 32.8944 23.9142 32.8927H23.9193H23.9243H32.2298C32.6843 32.8927 33.0529 33.2613 33.0529 33.7159L33.0532 35.5036ZM34.6086 31.3962C34.6086 31.849 34.2399 32.2194 33.7854 32.2194H25.4714C25.0186 32.2194 24.6482 31.8507 24.6482 31.3962V29.6068C24.6482 29.1523 25.0169 28.7837 25.4714 28.7837H33.7854C34.2383 28.7837 34.6086 29.1523 34.6086 29.6068V31.3962Z" fill="#5B5C61"/>
</svg>
