<svg width="36" height="36" viewBox="0 0 36 36" fill="none" xmlns="http://www.w3.org/2000/svg">
<path d="M26.7962 12.7041C26.4213 12.7035 26.0618 12.5543 25.7968 12.2891C25.5317 12.0238 25.3826 11.6643 25.3822 11.2894C25.3822 11.1029 25.3082 10.9241 25.1763 10.7922C25.0444 10.6603 24.8656 10.5863 24.6791 10.5863C24.4926 10.5863 24.3138 10.6603 24.1819 10.7922C24.0501 10.9241 23.976 11.1029 23.976 11.2894C23.9767 11.915 24.1851 12.5227 24.5683 13.0172C24.9516 13.5116 25.4881 13.865 26.0938 14.0217V14.8197C26.0938 15.0062 26.1679 15.1851 26.2997 15.3169C26.4316 15.4488 26.6104 15.5229 26.7969 15.5229C26.9834 15.5229 27.1622 15.4488 27.2941 15.3169C27.426 15.1851 27.5 15.0062 27.5 14.8197V14.0217C28.1668 13.852 28.7486 13.4444 29.1358 12.8757C29.5231 12.307 29.6891 11.6163 29.6027 10.9337C29.5163 10.2511 29.1834 9.62363 28.6667 9.16934C28.1499 8.71506 27.485 8.4653 26.7969 8.46706C26.5169 8.4672 26.2432 8.38429 26.0103 8.22882C25.7774 8.07335 25.5959 7.85231 25.4887 7.59365C25.3815 7.335 25.3534 7.05035 25.408 6.77573C25.4626 6.50111 25.5974 6.24885 25.7954 6.05086C25.9934 5.85287 26.2456 5.71806 26.5203 5.66347C26.7949 5.60888 27.0795 5.63697 27.3382 5.74418C27.5968 5.85139 27.8179 6.03291 27.9734 6.26578C28.1288 6.49865 28.2117 6.77239 28.2116 7.05239C28.2116 7.23887 28.2857 7.41771 28.4175 7.54957C28.5494 7.68143 28.7282 7.75551 28.9147 7.75551C29.1012 7.75551 29.28 7.68143 29.4119 7.54957C29.5438 7.41771 29.6178 7.23887 29.6178 7.05239C29.6171 6.42677 29.4087 5.81909 29.0255 5.32461C28.6422 4.83013 28.1057 4.47682 27.5 4.32007V3.52343C27.5 3.33695 27.426 3.15811 27.2941 3.02625C27.1622 2.89439 26.9834 2.82031 26.7969 2.82031C26.6104 2.82031 26.4316 2.89439 26.2997 3.02625C26.1679 3.15811 26.0938 3.33695 26.0938 3.52343V4.32147C25.427 4.4912 24.8453 4.89878 24.458 5.4675C24.0707 6.03621 23.9047 6.72686 23.9911 7.40946C24.0775 8.09206 24.4104 8.71955 24.9272 9.17383C25.4439 9.62812 26.1089 9.87788 26.7969 9.87611C27.1721 9.87611 27.5319 10.0252 27.7972 10.2905C28.0625 10.5558 28.2116 10.9156 28.2116 11.2908C28.2116 11.666 28.0625 12.0258 27.7972 12.2911C27.5319 12.5564 27.1721 12.7055 26.7969 12.7055L26.7962 12.7041Z" fill="#5B5C61"/>
<path d="M26.7961 18.3514C31.855 18.3514 35.9711 14.2354 35.9711 9.17641C35.9711 4.11747 31.855 0 26.7961 0C21.7372 0 17.6211 4.11606 17.6211 9.175C17.6211 14.2339 21.7372 18.3514 26.7961 18.3514ZM26.7961 1.40624C28.3326 1.40624 29.8346 1.86187 31.1122 2.71551C32.3898 3.56915 33.3855 4.78247 33.9735 6.20203C34.5615 7.62158 34.7153 9.18362 34.4156 10.6906C34.1158 12.1976 33.3759 13.5819 32.2894 14.6684C31.203 15.7548 29.8187 16.4947 28.3117 16.7945C26.8047 17.0943 25.2427 16.9404 23.8231 16.3524C22.4036 15.7644 21.1902 14.7687 20.3366 13.4911C19.483 12.2135 19.0273 10.7115 19.0273 9.175C19.0298 7.11534 19.849 5.14073 21.3054 3.68433C22.7618 2.22793 24.7364 1.40866 26.7961 1.40624Z" fill="#5B5C61"/>
<path d="M33.2108 21.1023L33.1545 21.1171C31.9156 21.444 30.4341 22.0768 29.0019 22.6822C28.0281 23.095 27.0289 23.5189 26.15 23.8269C25.9068 23.1357 25.3618 22.6935 24.5582 22.5529C23.661 22.3954 22.7498 22.2948 21.8687 22.1971C21.2233 22.1268 20.5567 22.0515 19.9099 21.9566C19.1069 21.8385 18.2885 21.695 17.4967 21.5565C16.6868 21.4159 15.8493 21.2668 15.0168 21.1452C14.9022 21.129 14.7461 21.0918 14.5647 21.0482C13.3596 20.7613 11.1096 20.2269 8.12768 22.3897L8.11221 22.401C7.14191 23.1456 6.44441 23.7475 5.82989 24.2776C4.28303 25.6135 3.50959 26.2822 0.708366 27.1787C0.569906 27.2231 0.448629 27.3094 0.361238 27.4256C0.273848 27.5418 0.224643 27.6823 0.220402 27.8277L0.000325261 35.2744C-0.00377568 35.4092 0.0309754 35.5423 0.100435 35.6579C0.169895 35.7735 0.271133 35.8667 0.39208 35.9264C0.513026 35.986 0.648578 36.0096 0.782573 35.9944C0.916569 35.9791 1.04335 35.9257 1.14782 35.8404C2.89647 34.4138 10.4796 30.5297 21.989 31.3686C23.1083 31.4501 23.9577 31.2617 24.7529 30.7583C26.5107 29.6417 29.8801 27.7594 34.7717 25.1656C35.7842 24.6285 36.2018 23.5063 35.7891 22.4361C35.3764 21.366 34.3161 20.8211 33.2108 21.1023ZM34.1129 23.9232C29.191 26.5346 25.7858 28.4351 23.9985 29.5714C23.4704 29.9068 22.9009 30.0249 22.0916 29.9658C16.9708 29.5932 11.8922 30.1029 7.40417 31.4424C4.80263 32.2193 2.7678 33.1594 1.44664 33.9441L1.61187 28.3641C4.31185 27.4459 5.24841 26.638 6.74816 25.3442C7.34722 24.8281 8.02643 24.2424 8.96088 23.5246C11.4162 21.7471 13.1149 22.1514 14.2392 22.4186C14.4501 22.4692 14.6379 22.5135 14.8136 22.5388C15.6257 22.6576 16.4533 22.8032 17.2535 22.9431C18.0536 23.083 18.8833 23.2293 19.7059 23.3502C20.3767 23.4486 21.0566 23.5239 21.7141 23.597C22.5733 23.6919 23.462 23.7903 24.3156 23.9401C24.6257 23.9942 24.883 24.092 24.8893 24.7346V24.7606C24.8893 25.0911 24.7262 25.5109 24.2804 25.6262C23.8508 25.738 23.3572 25.745 22.8489 25.7429C22.0895 25.7429 21.3147 25.7274 20.5659 25.7155C19.6103 25.6993 18.6217 25.6831 17.6465 25.6867C17.46 25.6867 17.2812 25.7607 17.1493 25.8926C17.0175 26.0245 16.9434 26.2033 16.9434 26.3898C16.9434 26.5763 17.0175 26.7551 17.1493 26.887C17.2812 27.0188 17.46 27.0929 17.6465 27.0929C18.6077 27.0894 19.5885 27.1055 20.537 27.121C21.2908 27.1337 22.0691 27.1463 22.8376 27.1491C23.4184 27.1491 24.0329 27.1407 24.6271 26.9881C25.028 26.8835 25.3915 26.6681 25.6757 26.3665C25.96 26.065 26.1536 25.6895 26.2344 25.2831C27.2497 24.9526 28.4141 24.4583 29.5454 23.9788C30.9327 23.3903 32.367 22.7835 33.5096 22.4783L33.5511 22.4678C34.1888 22.3054 34.4293 22.8362 34.4715 22.9445C34.5136 23.0528 34.6993 23.6117 34.1129 23.9232Z" fill="#5B5C61"/>
</svg>
