<svg width="40" height="38" viewBox="0 0 40 38" fill="none" xmlns="http://www.w3.org/2000/svg">
<path d="M24.1179 20.6501C24.3418 20.6501 24.521 20.4709 24.521 20.247V16.0437C24.521 15.8198 24.3418 15.6406 24.1179 15.6406C23.894 15.6406 23.7148 15.8198 23.7148 16.0437V20.247C23.7148 20.4645 23.894 20.6501 24.1179 20.6501Z" fill="#5B5C61"/>
<path d="M24.1628 21.4531C23.9389 21.4531 23.7598 21.6323 23.7598 21.8562V22.2273C23.7598 22.4512 23.9389 22.6303 24.1628 22.6303C24.3867 22.6303 24.5659 22.4512 24.5659 22.2273V21.8562C24.5723 21.6323 24.3867 21.4531 24.1628 21.4531Z" fill="#5B5C61"/>
<path d="M0.241323 31.3719L3.84326 36.842C4.16315 37.3346 4.53422 37.8209 5.13561 37.9616C5.23798 37.9872 5.34674 38 5.4555 38C5.83297 38 6.23603 37.8529 6.65828 37.5586C7.33004 37.0915 7.86106 36.4773 8.11697 35.8759C8.3153 35.4089 8.19374 34.9291 7.98901 34.5004C8.94228 34.0846 10.1707 33.9886 11.6549 34.2189C12.1987 34.3021 12.7489 34.4236 13.2864 34.5324C14.278 34.7435 15.3081 34.9611 16.3573 34.9931C16.4405 34.9931 16.53 34.9994 16.6132 34.9994C19.2875 34.9994 21.6354 33.7903 23.1581 32.7538C25.135 31.4039 26.8048 29.6701 28.4107 27.9875C28.7178 27.6676 29.0632 27.3029 29.2808 26.8487C29.5495 26.2857 29.5559 25.6779 29.2936 25.2109C28.8713 24.4559 27.8988 24.2832 27.1567 24.5007C27.0288 24.5391 26.9008 24.5903 26.7856 24.6415C26.9776 24.36 27.0863 24.0145 27.0863 23.6498V10.9439C27.0863 10.8607 27.0735 10.7839 27.0607 10.7071C27.6877 11.0206 28.3979 11.2574 29.1528 11.2574C29.1848 11.2574 29.2168 11.2574 29.2488 11.2574C30.4516 11.2254 31.5392 10.5792 32.4157 10.0546L34.9236 8.5575L34.9684 8.70465C35.1859 9.37641 35.6209 10.0994 36.4974 10.0994C36.6574 10.0994 36.8365 10.0738 37.0349 10.0162C37.5659 9.86264 38.1609 9.6963 38.6599 9.30604C39.2869 8.81341 39.562 8.09046 39.3508 7.45708L37.4251 1.6927C37.2972 1.30883 37.0796 0.662657 36.5166 0.361962C36.1136 0.150836 35.6146 0.150836 35.0324 0.361962C34.3158 0.624271 33.6824 1.04652 33.3114 1.53275C33.0235 1.90382 33.0107 2.36446 33.0874 2.79311C32.147 2.92747 31.0338 2.72274 29.7798 2.17253C29.3064 1.9678 28.8393 1.73108 28.3851 1.50076C27.5406 1.07211 26.6705 0.630668 25.7364 0.355565C23.2541 -0.380178 20.7462 0.163632 19.0827 0.745828C16.9843 1.48797 15.0713 2.65236 13.2288 3.77837C12.8769 3.99589 12.4738 4.23901 12.1668 4.59728C11.7893 5.04512 11.6357 5.60173 11.7573 6.08796C11.9556 6.86209 12.7681 7.25875 13.4847 7.25875C13.5039 7.25875 13.5167 7.25875 13.5359 7.25875C14.1245 7.24595 14.6491 7.02203 15.1545 6.81091L15.3464 6.72774C16.7923 6.13274 18.3726 5.78726 19.9656 5.71689C19.9272 6.10076 20.0168 6.51021 20.2407 6.86209C20.535 7.32273 21.034 7.681 21.7122 7.93052C21.9745 8.02648 22.2432 8.10326 22.5055 8.17363C22.7614 8.24401 22.9982 8.30798 23.2349 8.39755C23.7403 8.58309 24.2009 8.85179 24.6616 9.15889H11.3798C10.3946 9.15889 9.58845 9.965 9.58845 10.9503V23.6626C9.58845 24.0273 9.69722 24.3664 9.88915 24.6479C9.82517 24.6607 9.7548 24.6735 9.69082 24.6927C8.44965 25.0573 7.50278 26.0298 6.74145 26.8103L4.52143 29.0879L4.41266 28.9152C3.71531 27.8276 2.8836 27.5652 1.93673 28.1219C1.43131 28.4225 0.855508 28.7616 0.452449 29.299C-0.0657696 29.9708 -0.142543 30.7897 0.241323 31.3719ZM4.16315 32.2804L4.25912 32.3764C4.41906 32.5363 4.41266 32.7922 4.25912 32.9458C4.18234 33.0225 4.07998 33.0609 3.97122 33.0609C3.86885 33.0609 3.76649 33.0225 3.68332 32.9394L3.58735 32.8562C3.42741 32.6963 3.43381 32.4403 3.58735 32.2868C3.7409 32.1333 4.00321 32.1269 4.16315 32.2804ZM3.49778 31.3719C3.61294 31.5639 3.54897 31.8134 3.35703 31.9285C3.29306 31.9669 3.22268 31.9861 3.1523 31.9861C3.01155 31.9861 2.8772 31.9157 2.80683 31.7878L1.83437 30.1627C1.71921 29.9708 1.78318 29.7213 1.97512 29.6061C2.16705 29.491 2.41656 29.555 2.53172 29.7469L3.49778 31.3719ZM5.41711 34.3533C6.24882 34.1422 6.8694 35.2554 6.26162 35.8568C6.03769 36.0743 5.69222 36.1574 5.39792 36.0615C4.63659 35.812 4.61739 34.558 5.41711 34.3533ZM20.8549 27.8915C20.7973 27.4757 20.5926 27.0662 20.2535 26.7591C19.8249 26.3689 19.2171 26.1322 18.4494 26.0618C18.1487 26.0362 17.8544 26.0362 17.5601 26.0298C17.2786 26.0298 17.0099 26.0234 16.7412 25.9978C16.0118 25.9338 15.3081 25.7035 14.5851 25.4412H25.295C25.3973 25.4412 25.4997 25.4284 25.6021 25.4092L25.4293 25.5436C24.0794 26.5736 22.5055 27.3797 20.8549 27.8915ZM35.8129 2.03818C36.4335 2.44124 36.152 3.57364 35.3906 3.56724C34.5909 3.56084 34.303 2.40925 34.9876 2.01898C35.2371 1.87183 35.5698 1.87823 35.8129 2.03818ZM36.651 6.20312C36.8685 6.13914 37.0924 6.2671 37.15 6.47822L37.6298 8.16723C37.6938 8.38476 37.5659 8.60868 37.3483 8.66626C37.31 8.67905 37.2716 8.67905 37.2396 8.67905C37.0604 8.67905 36.9005 8.56389 36.8493 8.38476L36.3695 6.69575C36.3119 6.49102 36.4335 6.2671 36.651 6.20312ZM36.5486 5.88323C36.4846 5.92162 36.4143 5.94081 36.3439 5.94081C36.2031 5.94081 36.0688 5.87044 35.992 5.73608L35.928 5.62732C35.8193 5.43539 35.8833 5.18588 36.0752 5.07711C36.2671 4.96835 36.5166 5.03233 36.6254 5.22426L36.6894 5.33302C36.8109 5.52496 36.7406 5.77447 36.5486 5.88323ZM22.7167 7.38671C22.4608 7.31633 22.224 7.25235 21.9873 7.16278C21.4755 6.97725 21.1172 6.72774 20.9189 6.41425C20.7334 6.13274 20.6822 5.6785 20.9061 5.42259C21.0724 5.23706 21.3731 5.14109 21.725 5.16668C22.0257 5.19227 22.32 5.28824 22.6399 5.397L22.8638 5.46738C24.4057 5.96 26.0627 6.07516 27.6621 5.80646C27.8797 5.76807 28.0332 5.56334 27.9948 5.33942C27.9564 5.1219 27.7517 4.96835 27.5278 5.00674C26.0563 5.25625 24.5336 5.14749 23.1133 4.69325L22.9022 4.62287C22.5567 4.50771 22.192 4.38616 21.8018 4.35417C21.1876 4.30298 20.6438 4.49492 20.3047 4.87878C18.5005 4.91717 16.6836 5.28824 15.0457 5.96L14.8474 6.04318C14.3932 6.23511 13.9581 6.41425 13.5231 6.42704C13.1264 6.43344 12.6466 6.22871 12.5506 5.86404C12.4802 5.58893 12.6274 5.28824 12.7937 5.1027C13.0177 4.8404 13.3439 4.64207 13.6574 4.45013C15.468 3.34332 17.3425 2.20452 19.3642 1.49437C20.9125 0.950557 23.2413 0.438736 25.5189 1.1169C26.3826 1.37281 27.1823 1.78227 28.0332 2.21092C28.4938 2.44763 28.9737 2.68435 29.4599 2.90187C30.8994 3.53525 32.1917 3.75278 33.3114 3.56724L34.6805 7.75138L32.019 9.33802C31.1873 9.83705 30.2404 10.4001 29.2488 10.4256C28.1931 10.4512 27.1887 9.87544 26.4338 9.36362C26.2354 9.22926 26.0435 9.09491 25.8452 8.95416C25.1286 8.44873 24.3801 7.92412 23.5228 7.61063C23.2413 7.53385 22.9726 7.46348 22.7167 7.38671ZM10.401 10.9439C10.401 10.4001 10.8424 9.965 11.3798 9.965H16.0438V11.2957C16.0438 12.1019 16.7028 12.7608 17.5089 12.7608H19.6137C20.1768 12.7608 20.631 12.3066 20.631 11.7436V9.965H25.295C25.8388 9.965 26.2738 10.4065 26.2738 10.9439V23.6562C26.2738 24.2 25.8324 24.6351 25.295 24.6351H12.0196C11.6677 24.5647 11.3095 24.5263 10.9384 24.5263C10.6185 24.3664 10.401 24.0337 10.401 23.6562V10.9439ZM7.31725 27.3669C8.05299 26.6184 8.8847 25.7675 9.91474 25.4604C10.1962 25.3772 10.4777 25.3388 10.7656 25.3324C10.9576 25.4028 11.1623 25.4476 11.3798 25.4476H11.9364C12.3715 25.5372 12.7873 25.6651 13.1584 25.7931C13.4015 25.8762 13.6446 25.9658 13.8814 26.0554C14.7706 26.3817 15.6855 26.7207 16.6644 26.8103C16.9651 26.8359 17.2594 26.8423 17.5473 26.8423C17.8352 26.8423 18.1039 26.8487 18.3726 26.8743C18.9612 26.9255 19.409 27.0918 19.7097 27.3605C19.9848 27.61 20.1768 28.0707 20.004 28.4289C19.8825 28.6785 19.5818 28.8704 19.1979 28.9344C18.878 28.9919 18.5389 28.9728 18.1743 28.9472L17.9247 28.9344C16.1909 28.8512 14.4316 29.1839 12.8513 29.9004C12.6466 29.99 12.557 30.2331 12.653 30.4378C12.7234 30.585 12.8705 30.6746 13.0241 30.6746C13.0816 30.6746 13.1392 30.6618 13.1904 30.6362C14.6555 29.9708 16.2805 29.6637 17.8864 29.7405L18.1295 29.7533C18.5197 29.7789 18.9228 29.8045 19.3386 29.7277C19.9848 29.6125 20.4902 29.2671 20.727 28.7808C20.727 28.7744 20.727 28.7744 20.7334 28.768C22.6015 28.2306 24.3929 27.3477 25.9155 26.1897L26.1011 26.049C26.5233 25.7227 26.9264 25.4092 27.387 25.2749C27.8157 25.1469 28.3787 25.2365 28.5898 25.6075C28.7434 25.8826 28.673 26.2473 28.5514 26.4968C28.3915 26.8359 28.1036 27.1366 27.8285 27.4245C26.2482 29.0751 24.6104 30.7833 22.7039 32.0821C21.2388 33.0801 18.9548 34.2509 16.3829 34.1805C15.4104 34.1549 14.4635 33.9502 13.4591 33.7391C12.9153 33.6239 12.3523 33.5024 11.7829 33.4128C10.1003 33.1505 8.69916 33.2785 7.58595 33.7903C7.58595 33.7839 7.57956 33.7839 7.57956 33.7775L4.97567 29.7661L7.31725 27.3669Z" fill="#5B5C61"/>
</svg>
