<svg width="38" height="38" viewBox="0 0 38 38" fill="none" xmlns="http://www.w3.org/2000/svg">
<path d="M27.9805 34.4375H14.1758C13.8479 34.4375 13.582 34.1716 13.582 33.8438C13.582 33.5159 13.8479 33.25 14.1758 33.25H27.9805C28.3084 33.25 28.5742 33.5159 28.5742 33.8438C28.5742 34.1716 28.3084 34.4375 27.9805 34.4375Z" fill="#5B5C61"/>
<path d="M37.4062 34.4375H33.7695C33.4416 34.4375 33.1758 34.1716 33.1758 33.8438C33.1758 33.5159 33.4416 33.25 33.7695 33.25H36.8125V29.6875H4.15625C3.82835 29.6875 3.5625 29.4216 3.5625 29.0938V2.375C3.5625 2.05838 3.43878 1.76002 3.21419 1.53484C2.98998 1.31122 2.69162 1.1875 2.375 1.1875C1.72024 1.1875 1.1875 1.72024 1.1875 2.375V33.25H8.38672C8.71462 33.25 8.98047 33.5159 8.98047 33.8438C8.98047 34.1716 8.71462 34.4375 8.38672 34.4375H0.59375C0.265852 34.4375 0 34.1716 0 33.8438V2.375C0 1.06541 1.06541 0 2.375 0C3.00831 0 3.60451 0.246852 4.0539 0.695133C4.50315 1.14549 4.75 1.74169 4.75 2.375V28.5H37.4062C37.7341 28.5 38 28.7659 38 29.0938V33.8438C38 34.1716 37.7341 34.4375 37.4062 34.4375Z" fill="#5B5C61"/>
<path d="M30.875 38C28.9106 38 27.3125 36.4019 27.3125 34.4375C27.3125 32.4731 28.9106 30.875 30.875 30.875C32.8394 30.875 34.4375 32.4731 34.4375 34.4375C34.4375 36.4019 32.8394 38 30.875 38ZM30.875 32.0625C29.5654 32.0625 28.5 33.1279 28.5 34.4375C28.5 35.7471 29.5654 36.8125 30.875 36.8125C32.1846 36.8125 33.25 35.7471 33.25 34.4375C33.25 33.1279 32.1846 32.0625 30.875 32.0625Z" fill="#5B5C61"/>
<path d="M11.2812 38C9.3169 38 7.71875 36.4019 7.71875 34.4375C7.71875 32.4731 9.3169 30.875 11.2812 30.875C13.2456 30.875 14.8438 32.4731 14.8438 34.4375C14.8438 36.4019 13.2456 38 11.2812 38ZM11.2812 32.0625C9.97166 32.0625 8.90625 33.1279 8.90625 34.4375C8.90625 35.7471 9.97166 36.8125 11.2812 36.8125C12.5908 36.8125 13.6562 35.7471 13.6562 34.4375C13.6562 33.1279 12.5908 32.0625 11.2812 32.0625Z" fill="#5B5C61"/>
<path d="M35.0312 29.6875H8.90625C8.57835 29.6875 8.3125 29.4216 8.3125 29.0938V6.53125C8.3125 6.20335 8.57835 5.9375 8.90625 5.9375H35.0312C35.3591 5.9375 35.625 6.20335 35.625 6.53125V29.0938C35.625 29.4216 35.3591 29.6875 35.0312 29.6875ZM9.5 28.5H34.4375V7.125H9.5V28.5Z" fill="#5B5C61"/>
<path d="M26.1251 16.625C25.986 16.625 25.8483 16.5762 25.7386 16.4821L21.9688 13.2508L18.199 16.4821C18.0228 16.633 17.7752 16.6677 17.5645 16.5707C17.3538 16.4737 17.2188 16.2631 17.2188 16.0312V6.53125C17.2188 6.20335 17.4846 5.9375 17.8125 5.9375H26.125C26.4529 5.9375 26.7188 6.20335 26.7188 6.53125V16.0312C26.7188 16.2631 26.5838 16.4737 26.3731 16.5707C26.2938 16.6072 26.2092 16.625 26.1251 16.625ZM21.9688 11.875C22.1064 11.875 22.244 11.9226 22.3551 12.0179L25.5312 14.7403V7.125H18.4062V14.7403L21.5824 12.0179C21.6935 11.9226 21.8311 11.875 21.9688 11.875Z" fill="#5B5C61"/>
<path d="M32.6562 26.7188H21.9688C21.6409 26.7188 21.375 26.4529 21.375 26.125V20.1875C21.375 19.8596 21.6409 19.5938 21.9688 19.5938H32.6562C32.9841 19.5938 33.25 19.8596 33.25 20.1875V26.125C33.25 26.4529 32.9841 26.7188 32.6562 26.7188ZM22.5625 25.5312H32.0625V20.7812H22.5625V25.5312Z" fill="#5B5C61"/>
<path d="M30.2812 23.75H24.3438C24.0159 23.75 23.75 23.4841 23.75 23.1562C23.75 22.8284 24.0159 22.5625 24.3438 22.5625H30.2812C30.6091 22.5625 30.875 22.8284 30.875 23.1562C30.875 23.4841 30.6091 23.75 30.2812 23.75Z" fill="#5B5C61"/>
</svg>
