<svg width="43" height="42" viewBox="0 0 43 42" fill="none" xmlns="http://www.w3.org/2000/svg">
<path d="M34.0874 7.1386C34.4478 7.18413 34.7324 7.46868 34.7779 7.83101C34.8102 8.0264 34.9183 8.20282 35.0814 8.32043C35.2427 8.43614 35.4456 8.48357 35.641 8.44942C36.0565 8.38113 36.3391 7.99035 36.2746 7.5749C36.1172 6.54862 35.2977 5.75379 34.2676 5.62859C33.856 5.58876 33.486 5.88468 33.4367 6.29633C33.3893 6.70608 33.6777 7.08168 34.0874 7.1386Z" fill="#5B5C61"/>
<path d="M37.5323 22.3564C38.3024 21.7968 38.7805 20.9203 38.8355 19.968C38.8032 18.9493 38.1715 18.0426 37.225 17.6613C36.2803 17.2781 35.1971 17.4925 34.4648 18.2038L33.6852 18.9949L32.1619 15.2464L37.4543 9.86465V9.86655C38.2302 9.09449 38.7613 8.10804 38.9757 7.03436C39.1445 5.89046 39.8293 3.93468 38.7537 3.05448C37.8413 2.02251 36.0391 2.67129 34.8743 2.87806H34.8762C33.7342 3.12656 32.6909 3.70892 31.8809 4.5512L26.6715 9.84553L22.8965 8.38485L23.6781 7.59002C24.6607 6.58462 24.6456 4.97598 23.644 3.98952C22.6405 3.005 21.0318 3.01637 20.0435 4.01418L17.7177 6.37973L14.4739 5.12394L15.2402 4.34616C15.7183 3.86432 15.9838 3.21177 15.9801 2.53451C15.9763 1.85541 15.7012 1.20661 15.2175 0.730497C14.7337 0.256251 14.0812 -0.00741696 13.4039 0.00015886C12.7248 0.00584947 12.0779 0.284709 11.6037 0.770319L9.29318 3.11877L3.39181 0.83481C3.22677 0.772208 3.04656 0.772208 2.87962 0.829119C2.76769 0.870853 2.66526 0.931558 2.5761 1.01123L0.21623 3.41092C0.0644712 3.56458 -0.0133072 3.77704 0.00186869 3.99329C0.0151477 4.20765 0.121377 4.40683 0.290211 4.54151L18.175 18.4825L10.6477 26.135C10.4542 26.3361 10.2721 26.5467 10.1071 26.7705L3.45249 24.1204C3.16794 24.0085 2.84355 24.0768 2.6292 24.295L0.459016 26.5031C0.305358 26.6567 0.227584 26.8692 0.240861 27.0854C0.256037 27.3017 0.362269 27.5009 0.532997 27.6337L6.72283 32.4577C6.33205 33.1406 6.27324 33.9658 6.56159 34.6981L4.9188 36.3674C4.71013 36.5875 4.64943 36.91 4.76704 37.1907C4.88465 37.4715 5.15592 37.6555 5.46134 37.6593C5.66432 37.6593 5.85971 37.5777 6.002 37.4335L7.64668 35.7604C7.92174 35.8761 8.21768 35.9368 8.51552 35.9368C8.99356 35.9254 9.464 35.7983 9.88324 35.5669L14.808 41.6751C14.9446 41.8421 15.1457 41.9426 15.3619 41.954C15.5763 41.9654 15.7868 41.8838 15.9405 41.7302L18.1126 39.5221H18.1107C18.325 39.3039 18.3895 38.9795 18.27 38.6969L15.5137 32.0899C15.7262 31.9248 15.9291 31.7465 16.1188 31.5549L23.6631 23.8834L24.0007 24.3027C15.9403 33.6588 27.2712 46.7931 37.7295 40.2318C44.1621 36.1286 44.0636 26.2812 37.5323 22.3564ZM35.5556 19.2624C35.9578 18.8735 36.5989 18.8773 36.9973 19.2718C37.3957 19.6645 37.4052 20.3057 37.0201 20.7136L36.1133 21.6298H36.1152C35.6049 21.4079 35.0776 21.2277 34.5369 21.0911L34.3074 20.5257L35.5556 19.2624ZM32.7765 20.7913H32.7746C32.1695 20.7401 31.5605 20.7439 30.9535 20.797L29.3354 18.1185L30.999 16.4263L32.7765 20.7913ZM23.8472 12.7177L11.8259 5.72903C12.5088 5.99461 16.8415 7.66965 17.6268 7.97507C19.5693 8.72629 23.5549 10.2704 25.5105 11.0273L23.8472 12.7177ZM21.1269 5.08023C21.5272 4.68755 22.1702 4.68755 22.5706 5.08213C22.9708 5.4767 22.9822 6.11788 22.5952 6.52576L21.3527 7.78728L19.2603 6.97725L21.1269 5.08023ZM12.6872 1.83448C13.0893 1.4418 13.7305 1.44369 14.1308 1.83637C14.5311 2.23095 14.5424 2.87212 14.1574 3.28L12.9319 4.52632L10.8357 3.71629L12.6872 1.83448ZM1.89696 3.86805L3.2457 2.49653L22.7466 13.835L19.2467 17.3919L1.89696 3.86805ZM3.35953 25.7194L9.28567 28.0793L7.48923 31.1296L2.13759 26.9601L3.35953 25.7194ZM15.4546 40.0567L11.1978 34.7774L14.2178 32.9297L16.6744 38.816L15.4546 40.0567ZM15.0373 30.4883C14.546 31.1048 9.98771 33.6772 9.28549 34.1666C8.64242 34.6484 12.3529 31.0213 12.2372 31.0935L12.2353 31.0954C12.5293 30.7956 12.5255 30.3157 12.2277 30.0217C11.928 29.7276 11.4461 29.7314 11.1521 30.0293L8.06571 33.1669C8.08848 33.1213 8.10176 33.0777 8.12832 33.0322L11.0288 28.1113C11.2242 27.7812 11.4613 27.4739 11.7307 27.2007L27.4073 11.2643L32.9634 5.61694C33.9935 4.43701 35.6249 4.27578 37.0097 4.00261C37.243 3.91346 37.5048 3.96847 37.6831 4.14299C37.8595 4.31751 37.9183 4.5793 37.833 4.81262C37.5769 6.16136 37.4896 7.78521 36.3704 8.80008C32.6352 12.5978 19.0111 26.4498 15.0347 30.4902L15.0373 30.4883ZM28.2367 19.2353L29.3426 21.0659H29.3407C27.7757 21.4491 26.3188 22.1908 25.0877 23.2322L24.7348 22.7959L28.2367 19.2353ZM39.4766 36.4033C34.5067 43.815 22.8549 40.3035 22.8229 31.3537C22.6749 25.7403 28.3508 21.1516 33.8161 22.4643C39.9928 23.6385 43.0678 31.2644 39.4766 36.4033Z" fill="#5B5C61"/>
<path d="M39.9189 31.3549C39.9208 29.2303 39.0767 27.1948 37.5743 25.6924C36.0738 24.1919 34.0364 23.3497 31.9138 23.3516C29.7891 23.3535 27.7537 24.1995 26.2552 25.7039C24.7566 27.2063 23.9162 29.2456 23.9219 31.3682C24.362 41.9802 39.5115 41.9418 39.9189 31.3549ZM35.2713 36.9076C34.4784 37.3799 33.5944 37.6796 32.6781 37.7878V37.0593C32.6781 36.6401 32.3386 36.3005 31.9193 36.3005C31.5001 36.3005 31.1587 36.6401 31.1587 37.0593V37.7916C28.1842 37.4349 25.8415 35.0884 25.4884 32.1141H26.2131C26.6266 32.1065 26.9586 31.7688 26.9586 31.3553C26.9586 30.9398 26.6267 30.6022 26.2131 30.5946H25.4884C25.8413 27.622 28.186 25.2755 31.1587 24.9205V25.6489C31.1662 26.0625 31.5039 26.3945 31.9193 26.3945C32.3329 26.3945 32.6706 26.0625 32.6781 25.6489V24.9205C35.6526 25.2771 37.9953 27.6218 38.3522 30.5946H37.6238C37.4227 30.5946 37.2292 30.6743 37.085 30.8165C36.9428 30.9588 36.8631 31.1523 36.8631 31.3553C36.8631 31.5564 36.9428 31.7499 37.085 31.8922C37.2292 32.0344 37.4227 32.1141 37.6238 32.1141H38.3409C38.117 34.1022 36.9824 35.8737 35.2713 36.9076Z" fill="#5B5C61"/>
<path d="M31.9176 27.5625C31.7165 27.5625 31.523 27.6422 31.3807 27.7844C31.2385 27.9286 31.1569 28.1202 31.1569 28.3232V31.0397C30.7206 31.5386 29.6146 32.2045 30.3184 32.9519H30.3203C30.4626 33.0942 30.6561 33.1738 30.8572 33.1738C31.0583 33.1738 31.2517 33.0942 31.394 32.9519C31.7583 32.5213 32.7409 31.8194 32.6764 31.3546V28.3232C32.6764 28.1202 32.5967 27.9286 32.4544 27.7844C32.3122 27.6422 32.1187 27.5625 31.9176 27.5625Z" fill="#5B5C61"/>
</svg>
