<svg width="37" height="37" viewBox="0 0 37 37" fill="none" xmlns="http://www.w3.org/2000/svg">
<g clip-path="url(#clip0_511_21787)">
<mask id="mask0_511_21787" style="mask-type:luminance" maskUnits="userSpaceOnUse" x="0" y="0" width="37" height="37">
<path d="M37 0H0V37H37V0Z" fill="white"/>
</mask>
<g mask="url(#mask0_511_21787)">
<path d="M36.4841 3.7H17.5401C17.0221 3.7 16.5781 3.256 16.5781 2.738V0.962C16.5781 0.444 17.0221 0 17.5401 0H36.0401C36.5581 0 37.0021 0.444 37.0021 0.962V3.182C37.0021 3.478 36.7801 3.7 36.4841 3.7ZM17.6881 2.59H35.8921V1.11H17.6881V2.59Z" fill="#5B5C61"/>
<path d="M36.4841 28.1219H17.5401C17.0221 28.1219 16.5781 27.6779 16.5781 27.1599V25.3839C16.5781 24.8659 17.0221 24.4219 17.5401 24.4219H36.4841C36.7801 24.4219 37.0761 24.6439 37.0761 25.0139V27.6039C37.0021 27.8999 36.7801 28.1219 36.4841 28.1219ZM17.6881 27.0119H35.8921V25.5319H17.6881V27.0119Z" fill="#5B5C61"/>
<path d="M26.6414 37.0015C23.9034 37.0015 21.6094 34.7815 21.6094 31.9695C21.6094 29.1575 23.8294 26.9375 26.6414 26.9375C29.4534 26.9375 31.6734 29.1575 31.6734 31.9695C31.6734 34.7815 29.4534 37.0015 26.6414 37.0015ZM26.6414 28.1215C24.4954 28.1215 22.7934 29.8975 22.7934 31.9695C22.7934 34.0415 24.5694 35.8175 26.6414 35.8175C28.7134 35.8175 30.4894 34.0415 30.4894 31.9695C30.4894 29.8975 28.7874 28.1215 26.6414 28.1215Z" fill="#5B5C61"/>
<path d="M26.6451 34.4856C25.3131 34.4856 24.2031 33.3756 24.2031 32.0436C24.2031 30.7116 25.3131 29.6016 26.6451 29.6016C27.9771 29.6016 29.0871 30.7116 29.0871 32.0436C29.0871 33.3756 28.0511 34.4856 26.6451 34.4856ZM26.6451 30.6376C25.9051 30.6376 25.3131 31.2296 25.3131 31.9696C25.3131 32.7096 25.9051 33.3016 26.6451 33.3016C27.3851 33.3016 27.9771 32.7096 27.9771 31.9696C27.9771 31.2296 27.4591 30.6376 26.6451 30.6376Z" fill="#5B5C61"/>
<path d="M22.2024 32.5578H19.2424C18.5024 32.5578 17.9844 31.9658 17.9844 31.2998V27.5998C17.9844 27.3038 18.2064 27.0078 18.5764 27.0078H26.6424C26.9384 27.0078 27.2344 27.2298 27.2344 27.5998C27.2344 27.9698 27.0124 28.1178 26.6424 28.1178C24.4964 28.1178 22.7944 29.8938 22.7944 31.9658C22.7944 32.3358 22.5724 32.5578 22.2024 32.5578ZM19.0204 28.1178V31.2998C19.0204 31.3738 19.0944 31.4478 19.1684 31.4478H21.6844C21.8324 30.1158 22.4984 28.9318 23.5344 28.1178H19.0204Z" fill="#5B5C61"/>
<path d="M35.7448 32.5615H31.0828C30.7868 32.5615 30.4908 32.3395 30.4908 31.9695C30.4908 29.8235 28.7148 28.1215 26.6428 28.1215C26.3468 28.1215 26.0508 27.8995 26.0508 27.5295C26.0508 27.1595 26.2728 26.9375 26.6428 26.9375H36.4108C36.7068 26.9375 37.0028 27.1595 37.0028 27.5295V31.2295C37.0028 31.9695 36.4108 32.5615 35.7448 32.5615ZM31.6748 31.4515H35.7448C35.8188 31.4515 35.8928 31.3775 35.8928 31.3035V28.1215H29.8248C30.7868 28.9355 31.5268 30.1195 31.6748 31.4515Z" fill="#5B5C61"/>
<path d="M20.5764 23.4601C20.2804 23.4601 19.9844 23.2381 19.9844 22.8681V5.25606C19.9844 4.96006 20.2064 4.66406 20.5764 4.66406C20.9464 4.66406 21.1684 4.88606 21.1684 5.25606V22.9421C21.0944 23.2381 20.8724 23.4601 20.5764 23.4601Z" fill="#5B5C61"/>
<path d="M23.1623 23.4601C22.8663 23.4601 22.5703 23.2381 22.5703 22.8681V5.25606C22.5703 4.96006 22.7923 4.66406 23.1623 4.66406C23.5323 4.66406 23.7543 4.88606 23.7543 5.25606V22.9421C23.7543 23.2381 23.5323 23.4601 23.1623 23.4601Z" fill="#5B5C61"/>
<path d="M25.8264 23.4601C25.5304 23.4601 25.2344 23.2381 25.2344 22.8681V5.25606C25.2344 4.96006 25.4564 4.66406 25.8264 4.66406C26.1964 4.66406 26.4184 4.88606 26.4184 5.25606V22.9421C26.3444 23.2381 26.1224 23.4601 25.8264 23.4601Z" fill="#5B5C61"/>
<path d="M28.4201 23.4601C28.1241 23.4601 27.8281 23.2381 27.8281 22.8681V5.25606C27.8281 4.96006 28.0501 4.66406 28.4201 4.66406C28.7901 4.66406 29.0121 4.88606 29.0121 5.25606V22.9421C29.0121 23.2381 28.7901 23.4601 28.4201 23.4601Z" fill="#5B5C61"/>
<path d="M31.0842 23.4601C30.7882 23.4601 30.4922 23.2381 30.4922 22.8681V5.25606C30.4922 4.96006 30.7142 4.66406 31.0842 4.66406C31.4542 4.66406 31.6762 4.88606 31.6762 5.25606V22.9421C31.6762 23.2381 31.3802 23.4601 31.0842 23.4601Z" fill="#5B5C61"/>
<path d="M33.7482 23.4601C33.4522 23.4601 33.1562 23.2381 33.1562 22.8681V5.25606C33.1562 4.96006 33.3782 4.66406 33.7482 4.66406C34.1182 4.66406 34.3403 4.88606 34.3403 5.25606V22.9421C34.2663 23.2381 34.0442 23.4601 33.7482 23.4601Z" fill="#5B5C61"/>
<path d="M7.03206 27.3096C6.95806 27.3096 6.88406 27.3096 6.88406 27.3096C6.66206 27.2356 6.51406 27.1616 6.36606 26.9396L4.73806 24.3496C4.66406 24.2016 4.66406 24.0536 4.66406 23.9056C4.66406 23.7576 4.81206 23.6096 4.88606 23.5356L6.66206 22.4256C6.81006 22.3516 6.95806 22.3516 7.10606 22.3516C7.25406 22.3516 7.40206 22.4996 7.47606 22.5736L9.10406 25.1636C9.25206 25.3856 9.25206 25.6076 9.17806 25.8296C9.10406 26.0516 9.03006 26.1996 8.80806 26.3476L7.47606 27.2356C7.32806 27.2356 7.18006 27.3096 7.03206 27.3096ZM5.92206 24.2016L7.10606 26.0516L7.99406 25.4596L6.81006 23.6096L5.92206 24.2016Z" fill="#5B5C61"/>
<path d="M6.74056 32.3391C6.37056 32.3391 6.07456 32.1911 5.92656 31.8951L2.37456 26.3451C2.22656 26.1231 2.22656 25.8271 2.22656 25.5311C2.30056 25.2351 2.44856 25.0131 2.67056 24.8651L8.81256 20.9431C9.25656 20.6471 9.92256 20.7951 10.2186 21.2391L13.7706 26.7891C14.0666 27.2331 13.9186 27.7511 13.5486 28.1211C13.5486 28.1211 13.4746 28.1211 13.4746 28.1951L7.25856 32.1171C7.11056 32.3391 6.96256 32.3391 6.74056 32.3391ZM3.41056 25.8271L6.81456 31.2291L12.8086 27.4551L9.40456 22.0531L3.41056 25.8271Z" fill="#5B5C61"/>
<path d="M0.520998 29.1536C0.372998 29.1536 0.150998 29.0796 0.0769984 28.9316C-0.0710016 28.7096 0.00299836 28.3396 0.224998 28.1916L1.483 27.3036C1.705 27.1556 2.075 27.2296 2.223 27.4516C2.371 27.6736 2.297 28.0436 2.075 28.1916L0.816998 29.0056C0.742998 29.0796 0.668998 29.1536 0.520998 29.1536Z" fill="#5B5C61"/>
<path d="M0.520998 33.7438C0.372998 33.7438 0.150998 33.6698 0.0769984 33.5218C-0.0710016 33.2998 0.00299836 32.9298 0.224998 32.7818L3.481 30.7098C3.703 30.5618 4.073 30.6358 4.221 30.8578C4.369 31.0798 4.295 31.4498 4.073 31.5978L0.816998 33.6698C0.742998 33.7438 0.668998 33.7438 0.520998 33.7438Z" fill="#5B5C61"/>
<path d="M0.520998 31.4528C0.372998 31.4528 0.150998 31.3788 0.0769984 31.2308C-0.0710016 31.0088 0.00299836 30.6388 0.224998 30.4908L2.445 29.0848C2.667 28.9368 3.037 29.0108 3.185 29.2328C3.333 29.4548 3.259 29.8248 3.037 29.9728L0.816998 31.3788C0.742998 31.3788 0.668998 31.4528 0.520998 31.4528Z" fill="#5B5C61"/>
<path d="M7.25723 20.2799L2.00323 19.9099C1.70723 19.9099 1.41123 19.6879 1.26323 19.4659C1.11523 19.2439 1.11523 18.8739 1.18923 18.5779L3.18723 13.7679C3.33523 13.4719 3.63123 13.2499 4.00123 13.1759C4.37123 13.1759 4.66723 13.3239 4.88923 13.6199L5.48123 14.5819L10.8092 11.3259C11.2532 11.0299 11.8452 11.1779 12.1412 11.6219L13.1032 13.1759C13.2512 13.3979 13.2512 13.6199 13.2512 13.9159C13.1772 14.1379 13.0292 14.3599 12.8072 14.5079L7.47923 17.7639L8.07123 18.7259C8.29323 19.0219 8.29323 19.3919 8.07123 19.6879C7.84923 20.1319 7.55323 20.2799 7.25723 20.2799ZM2.29923 18.8739L6.88723 19.1699L6.29523 18.2079C6.14723 17.9859 6.14723 17.7639 6.22123 17.5419C6.29523 17.3199 6.36923 17.1719 6.59123 17.0239L12.0672 13.6939L11.2532 12.3619L5.85123 15.6919C5.62923 15.8399 5.40723 15.8399 5.18523 15.7659C4.96323 15.6919 4.81523 15.6179 4.66723 15.3959L4.07523 14.4339L2.29923 18.8739Z" fill="#5B5C61"/>
<path d="M3.33436 36.997H0.966358C0.522358 36.997 0.152358 36.701 0.0783584 36.331C-0.0696416 35.887 0.152358 35.517 0.448358 35.221L16.8764 24.861C17.0244 24.713 17.3204 24.713 17.4684 24.861C17.6164 25.009 17.7644 25.157 17.6904 25.379V27.007C17.9124 27.081 18.0604 27.229 18.1344 27.377C18.2084 27.599 18.1344 27.895 17.9124 27.969L12.2144 31.595C11.9924 31.743 11.6224 31.669 11.4744 31.447C11.3264 31.225 11.4004 30.855 11.6224 30.707L16.7284 27.525C16.6544 27.377 16.6544 27.303 16.6544 27.155V26.341L1.48436 35.887H3.33436C3.40836 35.887 3.40836 35.887 3.48236 35.813L9.40236 32.039C9.62436 31.891 9.99436 31.965 10.1424 32.187C10.2904 32.409 10.2164 32.779 9.99436 32.927L4.07436 36.701C3.85236 36.923 3.63036 36.997 3.33436 36.997Z" fill="#5B5C61"/>
<path d="M36.4822 25.5338H17.8342C17.5382 25.5338 17.2422 25.3118 17.2422 24.9418V3.18575C17.2422 2.88975 17.4642 2.59375 17.8342 2.59375H36.4822C36.7782 2.59375 37.0742 2.81575 37.0742 3.18575V13.3238C37.0742 13.6198 36.8522 13.9157 36.4822 13.9157C36.1122 13.9157 35.8902 13.6938 35.8902 13.3238V3.70375H18.3522V24.4237H35.8902V15.8398C35.8902 15.5437 36.1122 15.2478 36.4822 15.2478C36.8522 15.2478 37.0742 15.4697 37.0742 15.8398V25.0157C37.0002 25.2377 36.7782 25.5338 36.4822 25.5338Z" fill="#5B5C61"/>
</g>
</g>
<defs>
<clipPath id="clip0_511_21787">
<rect width="37" height="37" fill="white"/>
</clipPath>
</defs>
</svg>
