<svg width="41" height="41" viewBox="0 0 41 41" fill="none" xmlns="http://www.w3.org/2000/svg">
<path d="M28.0172 29.1328C27.6445 29.1328 27.396 29.3813 27.396 29.754C27.396 31.3692 26.0915 32.7358 24.4142 32.7358C24.0415 32.7358 23.793 32.9843 23.793 33.3571C23.793 33.7298 24.0415 33.9783 24.4142 33.9783C26.7127 33.9783 28.6384 32.1146 28.6384 29.754C28.6384 29.4434 28.3899 29.1328 28.0172 29.1328Z" fill="#5B5C61"/>
<path d="M39.7575 28.2618H37.8317V3.91027C37.8317 3.53755 37.5832 3.28906 37.2105 3.28906H3.78928C3.41655 3.28906 3.16806 3.53755 3.16806 3.91027V28.2618H1.24231C0.869579 28.2618 0.621094 28.5103 0.621094 28.883C0.621094 31.7406 2.91958 33.9769 5.71503 33.9769H14.4741L16.0893 36.0269C16.8969 37.083 18.0772 37.6421 19.4438 37.6421H27.5817C29.7559 37.6421 31.4953 36.0269 31.7438 33.9148H35.2847C38.0802 33.9148 40.3787 31.6163 40.3787 28.8209C40.3787 28.5103 40.1302 28.2618 39.7575 28.2618ZM4.41049 4.53149H36.5893V28.2618H31.7438V23.4785C31.7438 21.6769 29.7559 20.3103 27.9544 21.3663C27.6438 19.3785 25.2832 18.8194 23.9165 19.8754C23.2953 18.8194 21.9287 18.1982 20.4999 19.0057V14.7815C20.4999 13.4148 19.3817 12.2966 18.015 12.2966C16.6484 12.2966 15.5302 13.4148 15.5302 14.7815V26.0875C15.4681 26.0254 13.1696 22.4845 9.93928 24.9694C9.06958 25.6527 8.88321 26.9572 9.56655 27.8269L9.93928 28.2618H4.41049V4.53149ZM5.71503 32.7345C3.78928 32.7345 2.17412 31.3057 1.86352 29.5042H10.9332L13.4802 32.7345H5.71503ZM30.5014 33.48C30.5014 35.0951 29.1969 36.4618 27.5196 36.4618H19.4438C18.512 36.4618 17.6423 36.0269 17.0832 35.3436L10.6226 27.0194C10.3741 26.6466 10.4362 26.1497 10.7469 25.9012C13.3559 23.8512 15.0953 27.7648 15.7165 28.2618C16.0893 28.7588 16.8347 28.4482 16.8347 27.8891V14.7815C16.8347 14.0982 17.3938 13.5391 18.0772 13.5391C18.7605 13.5391 19.3196 14.0982 19.3196 14.7815V24.1618C19.3196 24.5345 19.5681 24.783 19.9408 24.783C20.3135 24.783 20.562 24.5345 20.562 24.1618V21.1179C20.562 19.4406 23.0469 19.4406 23.0469 21.1179V24.1618C23.0469 24.5345 23.2953 24.783 23.6681 24.783C24.0408 24.783 24.2893 24.5345 24.2893 24.1618V21.8012C24.2893 20.1239 26.7741 20.1239 26.7741 21.8012V24.1618C26.7741 24.5345 27.0226 24.783 27.3953 24.783C27.7681 24.783 28.0165 24.5345 28.0165 24.1618V23.4785C28.0165 21.8012 30.5014 21.9254 30.5014 23.4785V33.48ZM35.2847 32.7345H31.8059V29.5042H37.2726H39.1362C38.7635 31.3679 37.2105 32.7345 35.2847 32.7345Z" fill="#5B5C61"/>
<path d="M17.8907 10.0584C18.2635 10.0584 18.512 9.80994 18.512 9.43722V7.44934C18.512 7.07661 18.2635 6.82812 17.8907 6.82812C17.518 6.82812 17.2695 7.07661 17.2695 7.44934V9.43722C17.2695 9.80994 17.518 10.0584 17.8907 10.0584Z" fill="#5B5C61"/>
<path d="M14.8467 10.126C15.0331 10.4366 15.4058 10.5608 15.7164 10.3744C16.0271 10.1881 16.1513 9.81536 15.9649 9.50475L14.9089 7.70323C14.7225 7.39263 14.3498 7.26839 14.0392 7.45475C13.7286 7.64111 13.6043 8.01384 13.7907 8.32445L14.8467 10.126Z" fill="#5B5C61"/>
<path d="M20.0646 10.3744C20.3752 10.5608 20.7479 10.4366 20.9343 10.126L21.9282 8.32445C22.1146 8.01384 21.9903 7.64111 21.6797 7.45475C21.3691 7.26839 20.9964 7.39263 20.81 7.70323L19.8161 9.50475C19.6297 9.81536 19.754 10.1881 20.0646 10.3744Z" fill="#5B5C61"/>
<path d="M34.1664 12.7969H26.5255C26.1528 12.7969 25.9043 13.0454 25.9043 13.4181C25.9043 13.7908 26.1528 14.0393 26.5255 14.0393H34.1664C34.5391 14.0393 34.7876 13.7908 34.7876 13.4181C34.7876 13.1075 34.5391 12.7969 34.1664 12.7969Z" fill="#5B5C61"/>
<path d="M25.2833 9.68774H34.1667C34.5394 9.68774 34.7879 9.43925 34.7879 9.06652C34.7879 8.6938 34.5394 8.44531 34.1667 8.44531H25.2833C24.9106 8.44531 24.6621 8.6938 24.6621 9.06652C24.6621 9.43925 24.9727 9.68774 25.2833 9.68774Z" fill="#5B5C61"/>
<path d="M34.1659 17.1406H29.0099C28.6372 17.1406 28.3887 17.3891 28.3887 17.7618C28.3887 18.1346 28.6372 18.383 29.0099 18.383H34.1659C34.5387 18.383 34.7872 18.1346 34.7872 17.7618C34.7872 17.4512 34.5387 17.1406 34.1659 17.1406Z" fill="#5B5C61"/>
<path d="M7.82824 14.0393H12.1767C12.5495 14.0393 12.7979 13.7908 12.7979 13.4181C12.7979 13.0454 12.5495 12.7969 12.1767 12.7969H7.82824C7.45552 12.7969 7.20703 13.0454 7.20703 13.4181C7.20703 13.7908 7.45552 14.0393 7.82824 14.0393Z" fill="#5B5C61"/>
<path d="M12.7979 17.7618C12.7979 17.3891 12.5495 17.1406 12.1767 17.1406H7.82824C7.45552 17.1406 7.20703 17.3891 7.20703 17.7618C7.20703 18.1346 7.45552 18.383 7.82824 18.383H12.1767C12.5495 18.383 12.7979 18.1346 12.7979 17.7618Z" fill="#5B5C61"/>
</svg>
