<svg width="40" height="40" viewBox="0 0 40 40" fill="none" xmlns="http://www.w3.org/2000/svg">
<g clip-path="url(#clip0_511_21662)">
<path d="M36.359 7.23823H28.8359C28.5605 7.23823 28.3379 7.01559 28.3379 6.74021C28.3379 6.46483 28.5605 6.24219 28.8359 6.24219H36.3648C36.6402 6.24219 36.8629 6.46483 36.8629 6.74021C36.8629 7.01559 36.6402 7.23823 36.359 7.23823Z" fill="#5B5C61"/>
<path d="M36.359 10.3398H28.8359C28.5605 10.3398 28.3379 10.1171 28.3379 9.84177C28.3379 9.5664 28.5605 9.34375 28.8359 9.34375H36.3648C36.6402 9.34375 36.8629 9.5664 36.8629 9.84177C36.8629 10.1171 36.6402 10.3398 36.359 10.3398Z" fill="#5B5C61"/>
<path d="M13.5114 21.8255C9.97837 21.8255 7.10742 18.9546 7.10742 15.4215V12.6385C7.10742 12.3162 7.37108 12.0526 7.69333 12.0526C8.03316 12.0526 8.30853 11.7772 8.30853 11.4374V10.2011C8.30853 9.22848 9.09951 8.4375 10.0721 8.4375C10.3241 8.4375 10.5643 8.49023 10.7928 8.58984C12.5212 9.36324 14.5016 9.36324 16.2242 8.58984C16.4527 8.49023 16.6929 8.4375 16.9448 8.4375C17.9174 8.4375 18.7084 9.22848 18.7084 10.2011V11.4374C18.7084 11.7772 18.9838 12.0526 19.3236 12.0526C19.6459 12.0526 19.9095 12.3162 19.9095 12.6385V15.4215C19.9095 18.9546 17.0386 21.8255 13.5114 21.8255ZM8.27924 13.1248V15.4215C8.27924 18.3042 10.6287 20.6537 13.5114 20.6537C16.3941 20.6537 18.7436 18.3042 18.7436 15.4215V13.1248C18.0463 12.8845 17.5425 12.2166 17.5425 11.4374V10.2011C17.5425 9.87298 17.2788 9.60932 16.9507 9.60932C16.8687 9.60932 16.7866 9.6269 16.7105 9.66205C14.6774 10.5761 12.3513 10.5761 10.3182 9.66205C10.242 9.6269 10.16 9.60932 10.078 9.60932C9.74987 9.60932 9.48621 9.87298 9.48621 10.2011V11.4374C9.48035 12.2166 8.97647 12.8787 8.27924 13.1248Z" fill="#5B5C61"/>
<path d="M7.69714 16.0955H6.68352C5.85739 16.0955 5.18359 15.4217 5.18359 14.5956V13.5468C5.18359 12.7207 5.85739 12.0469 6.68352 12.0469H7.69128C8.01353 12.0469 8.27719 12.3105 8.27719 12.6328C8.27719 12.955 8.01353 13.2187 7.69128 13.2187H6.68352C6.50189 13.2187 6.35541 13.3652 6.35541 13.5468V14.5956C6.35541 14.7772 6.50189 14.9237 6.68352 14.9237H7.38075C7.46864 14.8651 7.57996 14.8358 7.69128 14.8358C8.01353 14.8358 8.27719 15.0995 8.27719 15.4217C8.27719 15.4334 8.27719 15.4451 8.27719 15.451C8.27719 15.4686 8.27719 15.4862 8.27719 15.4979C8.27719 15.6561 8.2186 15.8084 8.10728 15.9197C8.00182 16.0311 7.84948 16.0955 7.69714 16.0955Z" fill="#5B5C61"/>
<path d="M20.3359 16.0955H19.3222C19.164 16.0955 19.0176 16.0311 18.9062 15.9197C18.7949 15.8084 18.7363 15.6561 18.7363 15.4979C18.7363 15.4803 18.7363 15.4627 18.7363 15.451C18.7363 15.4393 18.7363 15.4334 18.7363 15.4217C18.7363 15.0995 19 14.8358 19.3222 14.8358C19.4394 14.8358 19.5449 14.871 19.6328 14.9237H20.33C20.5116 14.9237 20.6581 14.7772 20.6581 14.5956V13.5468C20.6581 13.3652 20.5116 13.2187 20.33 13.2187H19.3281C19.0058 13.2187 18.7422 12.955 18.7422 12.6328C18.7422 12.3105 19.0058 12.0469 19.3281 12.0469H20.3359C21.162 12.0469 21.8358 12.7207 21.8358 13.5468V14.5956C21.8358 15.4276 21.162 16.0955 20.3359 16.0955Z" fill="#5B5C61"/>
<path d="M20.5227 13.2456C20.2005 13.2456 19.9368 12.982 19.9368 12.6597V9.21457C19.9368 6.80063 17.974 4.84369 15.5659 4.84369H11.4646C9.05063 4.84369 7.09369 6.80649 7.09369 9.21457V12.6597C7.09369 12.982 6.83003 13.2456 6.50778 13.2456C6.18553 13.2456 5.92188 12.982 5.92188 12.6597V9.21457C5.92188 6.15613 8.41199 3.67188 11.4646 3.67188H15.5659C18.6244 3.67188 21.1086 6.16199 21.1086 9.21457V12.6597C21.1086 12.982 20.845 13.2456 20.5227 13.2456Z" fill="#5B5C61"/>
<path d="M15.8085 27.8691C15.3866 27.8691 14.9589 27.7226 14.6191 27.4297L13.125 26.1348C12.9902 26.0176 12.9199 25.8536 12.9199 25.6778C12.9258 25.502 13.0078 25.338 13.1426 25.2325L16.9978 22.2092C17.3435 21.9397 17.783 21.8284 18.2165 21.8928C18.6443 21.9631 19.031 22.2092 19.277 22.5725L20.1969 23.9494C20.361 24.1955 20.32 24.5236 20.0973 24.7169L17.0037 27.4238C16.6639 27.7168 16.2362 27.8691 15.8085 27.8691ZM14.4316 25.713L15.3925 26.5391C15.6327 26.75 16.0018 26.75 16.242 26.5391L18.9489 24.172L18.3103 23.2228C18.2458 23.1291 18.1521 23.0705 18.0408 23.0529C17.9294 23.0354 17.8181 23.0647 17.7302 23.135L14.4316 25.713Z" fill="#5B5C61"/>
<path d="M11.2091 27.8693C10.7814 27.8693 10.3537 27.7229 10.0139 27.424L6.92029 24.7113C6.69765 24.5179 6.65664 24.1898 6.82069 23.9437L7.74057 22.5669C7.98079 22.2036 8.36749 21.9575 8.80106 21.8872C9.22878 21.8169 9.67407 21.9341 10.0198 22.2036L13.875 25.2269C14.0157 25.3323 14.0977 25.4964 14.0977 25.6722C14.1035 25.8479 14.0274 26.012 13.8926 26.1292L12.3985 27.424C12.0587 27.7229 11.631 27.8693 11.2091 27.8693ZM8.07453 24.1722L10.7756 26.5393C11.0158 26.7502 11.3791 26.7502 11.6251 26.5393L12.586 25.7132L9.29323 23.1293C9.20534 23.059 9.09402 23.0297 8.98269 23.0473C8.87137 23.0649 8.77763 23.1235 8.71318 23.2172L8.07453 24.1722Z" fill="#5B5C61"/>
<path d="M23.9988 36.9722H3.01743C1.35345 36.9722 0 35.6188 0 33.9548V33.3865C0 33.0642 0.263659 32.8006 0.585909 32.8006C0.908159 32.8006 1.17182 33.0642 1.17182 33.3865V33.9548C1.17182 34.9743 1.99795 35.8004 3.01743 35.8004H24.0047C25.0242 35.8004 25.8503 34.9743 25.8503 33.9548V30.0702C25.8503 27.9902 24.45 26.1563 22.4403 25.6115L19.5635 24.8322C19.253 24.7502 19.0655 24.4279 19.1534 24.1115C19.2354 23.801 19.5576 23.6135 19.874 23.7014L22.7508 24.4806C25.2644 25.1662 27.0221 27.4629 27.0221 30.0702V33.9548C27.0163 35.6246 25.6628 36.9722 23.9988 36.9722Z" fill="#5B5C61"/>
<path d="M0.585909 31.2361C0.263659 31.2361 0 30.9725 0 30.6502V30.076C0 27.4687 1.75773 25.172 4.27128 24.4864L7.14809 23.7072C7.45862 23.6252 7.78087 23.8068 7.86876 24.1173C7.95078 24.4278 7.76915 24.7501 7.45862 24.838L4.58181 25.6172C2.578 26.1621 1.17182 27.996 1.17182 30.076V30.6502C1.17182 30.9783 0.908159 31.2361 0.585909 31.2361Z" fill="#5B5C61"/>
<path d="M16.4804 23.9373C16.1582 23.9373 15.8945 23.6736 15.8945 23.3514V20.4218C15.8945 20.0996 16.1582 19.8359 16.4804 19.8359C16.8027 19.8359 17.0663 20.0996 17.0663 20.4218V23.3514C17.0663 23.6795 16.8085 23.9373 16.4804 23.9373Z" fill="#5B5C61"/>
<path d="M10.5371 23.9373C10.2148 23.9373 9.95117 23.6736 9.95117 23.3514V20.4218C9.95117 20.0996 10.2148 19.8359 10.5371 19.8359C10.8593 19.8359 11.123 20.0996 11.123 20.4218V23.3514C11.123 23.6736 10.8593 23.9373 10.5371 23.9373Z" fill="#5B5C61"/>
<path d="M27.8085 17.6926C27.6971 17.6926 27.58 17.6633 27.4804 17.6106C27.2108 17.4641 27.0702 17.1595 27.1347 16.8607L27.7909 13.8139H27.3222C26.1328 13.8139 25.1602 12.8472 25.1602 11.6519V5.17763C25.1602 3.98824 26.1269 3.01562 27.3222 3.01562H37.8451C39.0345 3.01562 40.0071 3.98238 40.0071 5.17763V5.57019C40.0071 5.84557 39.7844 6.06821 39.5091 6.06821C39.2337 6.06821 39.011 5.84557 39.011 5.57019V5.17763C39.011 4.53899 38.4896 4.01753 37.8509 4.01753H27.3163C26.6777 4.01753 26.1562 4.53899 26.1562 5.17763V11.6519C26.1562 12.2906 26.6777 12.812 27.3163 12.812H28.037C28.2772 12.812 28.5057 12.9175 28.658 13.1108C28.8104 13.2983 28.869 13.5444 28.8162 13.7788L28.3299 16.0345L31.1306 13.228C31.4001 12.9585 31.7516 12.812 32.1325 12.812H37.8392C38.4779 12.812 38.9993 12.2906 38.9993 11.6519V7.90796C38.9993 7.63259 39.222 7.40994 39.4973 7.40994C39.7727 7.40994 39.9954 7.63259 39.9954 7.90796V11.6519C39.9954 12.8413 39.0286 13.8139 37.8334 13.8139H32.1383C32.027 13.8139 31.9215 13.8608 31.8454 13.937L28.2948 17.4934C28.16 17.6223 27.9842 17.6926 27.8085 17.6926Z" fill="#5B5C61"/>
</g>
<defs>
<clipPath id="clip0_511_21662">
<rect width="40" height="40" fill="white"/>
</clipPath>
</defs>
</svg>
