<svg width="85" height="85" viewBox="0 0 85 85" fill="none" xmlns="http://www.w3.org/2000/svg">
<path d="M84.3174 31.2953L53.7051 84.3174L0.683013 53.7051L31.2953 0.683013L84.3174 31.2953Z" fill="#1A1B1D" stroke="white"/>
<path d="M11.1953 11.1953L73.4196 11.1953V73.4196H11.1953L11.1953 11.1953Z" fill="#1F2023"/>
<g clip-path="url(#clip0_511_5762)">
<path d="M36.1942 60.3514C36.4336 60.5905 36.8214 60.5905 37.0608 60.3514L40.1248 57.2873L39.2583 56.4208L36.6275 59.0516L25.2379 47.662L32.1583 40.7415L31.2918 39.875L23.9381 47.2287C23.699 47.4681 23.699 47.8559 23.9381 48.0952L36.1942 60.3514Z" fill="white"/>
<path d="M60.5238 36.5593L59.2982 25.5287C59.2665 25.2436 59.0415 25.0182 58.7563 24.9868L47.7258 23.7612C47.5412 23.7418 47.3572 23.8064 47.2252 23.9372L42.9355 28.2268L43.8021 29.0934L47.8835 25.012L58.1375 26.1505L59.2761 36.4016L56.8715 38.8064L55.707 30.974C56.543 30.6418 57.0181 29.7561 56.8323 28.8761C56.6468 27.9961 55.8542 27.3779 54.9553 27.4117C54.0567 27.4458 53.3132 28.1221 53.1944 29.0138C53.0756 29.9051 53.6163 30.7525 54.4748 31.0206L55.4227 37.3938L46.8661 28.8396C46.6268 28.6002 46.239 28.6002 45.9996 28.8396L42.9355 31.9037L43.8021 32.7702L46.4329 30.1394L54.1456 37.8522L52.7405 39.2573L53.607 40.1239L55.4454 38.2855C55.4801 38.246 55.5095 38.202 55.5325 38.155L55.7898 39.8848L54.5789 41.0958L55.4454 41.9623L56.014 41.3935L56.4032 44.0054C56.4957 44.7594 56.9939 45.4022 57.701 45.6798C58.4083 45.9575 59.2105 45.8256 59.7916 45.336C60.3724 44.8465 60.6387 44.0784 60.4852 43.3342L59.3575 38.05L60.3479 37.0599C60.4795 36.9282 60.5442 36.7442 60.5238 36.5593ZM55.0122 28.6601C55.3506 28.6601 55.625 28.9345 55.625 29.2729C55.625 29.6113 55.3506 29.8857 55.0122 29.8857C54.6737 29.8857 54.3993 29.6113 54.3993 29.2729C54.3993 28.9345 54.6737 28.6601 55.0122 28.6601ZM59.2853 43.5832C59.344 43.8869 59.2321 44.1987 58.993 44.3956C58.7542 44.5925 58.4266 44.6427 58.1396 44.5266C57.8527 44.4105 57.6522 44.1469 57.6172 43.8393L57.0956 40.3151L58.3281 39.0826L59.2853 43.5832Z" fill="white"/>
<path d="M28.2275 47.5923L32.2105 43.6094L33.077 44.4759L29.0941 48.4589L28.2275 47.5923Z" fill="white"/>
<path d="M30.127 49.4905L34.1099 45.5076L34.9767 46.3741L30.9935 50.3571L30.127 49.4905Z" fill="white"/>
<path d="M32.0273 51.391L34.3559 49.0625L35.2227 49.929L32.8939 52.2576L32.0273 51.391Z" fill="white"/>
<path d="M33.9277 53.2953L35.5827 51.6406L36.4493 52.5072L34.7946 54.1622L33.9277 53.2953Z" fill="white"/>
<path d="M35.8271 55.1941L37.0528 53.9688L37.9193 54.8353L36.694 56.0606L35.8271 55.1941Z" fill="white"/>
<path d="M45.8199 57.4656C47.9076 57.4647 49.9399 56.7933 51.6171 55.55L56.0366 59.9695C56.7837 60.7164 57.9947 60.7164 58.7415 59.9695C59.4884 59.2227 59.4884 58.0114 58.7415 57.2645L54.2197 52.7427L54.1413 52.8211C56.4875 49.0261 55.9722 44.1251 52.8888 40.9007C49.805 37.676 44.9318 36.9429 41.036 39.1173C37.1398 41.2918 35.2056 45.8244 36.3316 50.1419C37.4573 54.459 41.3582 57.4701 45.8199 57.4656ZM57.875 58.1311C58.1434 58.3995 58.1434 58.8346 57.875 59.103C57.6066 59.3714 57.1715 59.3714 56.9031 59.103L52.5608 54.7613C52.8944 54.4456 53.2053 54.1072 53.4917 53.7484L57.875 58.1311ZM45.8199 39.0814C50.5581 39.0814 54.3992 42.9225 54.3992 47.6607C54.3992 52.3989 50.5581 56.24 45.8199 56.24C41.0817 56.24 37.2406 52.3989 37.2406 47.6607C37.2457 42.9246 41.0838 39.0865 45.8199 39.0814Z" fill="white"/>
<path d="M45.8205 55.0042C49.8818 55.0042 53.1742 51.7119 53.1742 47.6506C53.1742 43.5892 49.8818 40.2969 45.8205 40.2969C41.7591 40.2969 38.4668 43.5892 38.4668 47.6506C38.4713 51.7101 41.7609 54.9998 45.8205 55.0042ZM45.8205 41.5225C49.205 41.5225 51.9486 44.2661 51.9486 47.6506C51.9486 51.0351 49.205 53.7786 45.8205 53.7786C42.436 53.7786 39.6924 51.0351 39.6924 47.6506C39.696 44.2676 42.4375 41.5261 45.8205 41.5225Z" fill="white"/>
<path d="M46.4322 50.1115H45.2066C44.8682 50.1115 44.5938 49.8371 44.5938 49.4987H43.3682C43.3682 50.514 44.1913 51.3371 45.2066 51.3371V52.5627H46.4322V51.3371C47.4475 51.3371 48.2706 50.514 48.2706 49.4987V48.8859C48.2706 47.8706 47.4475 47.0475 46.4322 47.0475H45.2066C44.8682 47.0475 44.5938 46.7731 44.5938 46.4347V45.8218C44.5938 45.4834 44.8682 45.209 45.2066 45.209H46.4322C46.7706 45.209 47.045 45.4834 47.045 45.8218H48.2706C48.2706 44.8066 47.4475 43.9834 46.4322 43.9834V42.7578H45.2066V43.9834C44.1913 43.9834 43.3682 44.8066 43.3682 45.8218V46.4347C43.3682 47.4499 44.1913 48.2731 45.2066 48.2731H46.4322C46.7706 48.2731 47.045 48.5475 47.045 48.8859V49.4987C47.045 49.8371 46.7706 50.1115 46.4322 50.1115Z" fill="white"/>
<path d="M26.8228 38.4652H30.9165L35.0461 41.4146C35.1499 41.4891 35.2744 41.5292 35.4021 41.5292C35.52 41.5289 35.6355 41.4948 35.7349 41.4311C35.947 41.294 36.0532 41.0412 36.0027 40.7937L35.5371 38.4652H39.079C40.7705 38.4631 42.1409 37.0924 42.143 35.4011V26.8218C42.1409 25.1303 40.7705 23.7599 39.079 23.7578H26.8228C25.1313 23.7599 23.7609 25.1303 23.7588 26.8218V35.4011C23.7609 37.0924 25.1313 38.4631 26.8228 38.4652ZM24.9844 26.8218C24.9844 25.8066 25.8076 24.9834 26.8228 24.9834H39.079C40.0942 24.9834 40.9174 25.8066 40.9174 26.8218V35.4011C40.9174 36.4164 40.0942 37.2396 39.079 37.2396H34.7893C34.6053 37.2396 34.4309 37.3222 34.3145 37.4646C34.1981 37.6073 34.152 37.7946 34.1888 37.9748L34.4952 39.5196L31.4668 37.3566C31.3638 37.2815 31.2399 37.2405 31.1125 37.2396H26.8228C25.8076 37.2396 24.9844 36.4164 24.9844 35.4011V26.8218Z" fill="white"/>
<path d="M26.8237 36.0202H39.6927V34.7946H27.4366V33.1603L28.6622 31.5265L30.0105 33.3239C30.1334 33.478 30.3199 33.5681 30.517 33.569C30.716 33.5636 30.9 33.4619 31.0105 33.2961L33.0063 30.3021L35.5446 33.3491C35.6616 33.4882 35.8339 33.5687 36.0159 33.569C36.035 33.5702 36.0542 33.5702 36.0736 33.569C36.2747 33.5499 36.4533 33.4332 36.5515 33.2563L39.6155 27.7411L38.5443 27.1468L35.9141 31.8802L33.4231 28.8895C33.3007 28.7381 33.1131 28.6549 32.9186 28.6665C32.7259 28.677 32.5491 28.7779 32.4419 28.9385L30.4713 31.8961L29.1523 30.1372C29.0317 29.9906 28.8519 29.9056 28.6622 29.9056C28.4725 29.9056 28.2926 29.9906 28.172 30.1372L27.4366 31.1178V26.8281H26.2109V35.4074C26.2109 35.7458 26.4853 36.0202 26.8237 36.0202Z" fill="white"/>
</g>
<defs>
<clipPath id="clip0_511_5762">
<rect width="36.7689" height="36.7689" fill="white" transform="translate(23.7588 23.7578)"/>
</clipPath>
</defs>
</svg>
