<svg width="85" height="85" viewBox="0 0 85 85" fill="none" xmlns="http://www.w3.org/2000/svg">
<path d="M84.3174 31.2953L53.7051 84.3174L0.683013 53.7051L31.2953 0.683013L84.3174 31.2953Z" fill="#1A1B1D" stroke="white"/>
<path d="M11.1953 11.1953L73.4196 11.1953V73.4196H11.1953L11.1953 11.1953Z" fill="#1F2023"/>
<g clip-path="url(#clip0_511_5732)">
<path d="M59.5042 50.5755V40.7282C59.5042 40.5744 59.4273 40.4974 59.3504 40.4205L54.5806 37.651V33.8044C54.5806 33.6505 54.5036 33.4966 54.4267 33.4966C54.3498 33.4197 43.1177 26.8805 43.0408 26.8805C42.8869 26.8036 42.6561 26.8036 42.5023 27.0344C42.4253 27.1882 42.4253 27.419 42.6561 27.5729L53.5035 33.8813L45.5026 38.2664C42.4253 36.497 35.1168 32.1888 30.1162 29.2654L37.9633 24.7264L39.5019 25.6496C39.6558 25.7265 39.8866 25.7265 40.0405 25.4957C40.1174 25.3419 40.1174 25.1111 39.8866 25.0341L38.1172 24.034C37.9633 23.9571 37.8864 23.9571 37.7325 24.034L29.1931 28.9577C29.0392 29.0346 28.9623 29.1885 28.9623 29.2654V38.8819C28.9623 38.8819 29.27 38.728 25.5003 40.8821C25.3465 40.959 25.2695 41.1129 25.2695 41.1898V51.0371C25.2695 51.191 25.3465 51.2679 25.4234 51.3448L41.5791 60.7305C41.733 60.8075 41.8099 60.8075 41.9638 60.7305C43.7332 59.7304 35.5784 64.4233 59.1196 50.8063C59.4273 50.8063 59.5042 50.7294 59.5042 50.5755ZM26.5004 41.2668L29.3469 39.6512C35.3476 43.1131 41.1944 46.5751 44.7333 48.5753L41.8868 50.1909C40.3482 49.2677 47.5798 53.4989 26.5004 41.2668ZM53.6574 34.3429V43.3439C51.2725 44.7287 45.9642 47.806 45.8103 47.8829C45.8103 36.5739 45.8103 39.3435 45.8103 38.8819C47.9644 37.651 51.811 35.4969 53.6574 34.3429ZM45.118 38.8819V47.8829C44.3486 47.4213 49.0415 50.1139 29.7316 38.9588V29.9578L45.118 38.8819ZM58.2733 40.7282L54.4267 42.9593V38.4972L58.2733 40.7282ZM26.1158 41.9591C43.3485 51.9603 41.2714 50.8063 41.5022 50.8832V59.8843L26.1927 50.8832L26.1158 41.9591ZM42.2715 59.8073C42.2715 47.4982 42.2715 51.7295 42.2715 50.8063C46.6566 48.2676 43.7332 49.9601 50.1185 46.2673V55.2684L42.2715 59.8073ZM50.8879 54.8837V45.8827C61.5814 39.6512 57.8887 41.8053 58.7349 41.3437V50.3447L50.8879 54.8837Z" fill="white"/>
<path d="M58.1198 43.0371C58.1198 42.8832 58.0429 42.8063 57.889 42.7293C57.7352 42.6524 57.6582 42.6524 57.5044 42.7293L51.6576 46.1143C51.5037 46.1913 51.4268 46.3451 51.4268 46.4221V53.1921C51.4268 53.3459 51.5037 53.4229 51.6576 53.4998C51.8114 53.5767 51.8883 53.5767 52.0422 53.4998L57.966 50.1148C58.1198 50.0379 58.1968 49.884 58.1968 49.8071L58.1198 43.0371ZM55.658 44.6526V50.5764L53.9655 51.5765V45.6527L55.658 44.6526ZM52.1961 46.6529L53.1193 46.1143V52.0381L52.1961 52.5766V46.6529ZM56.4273 50.1148V44.191L57.3505 43.6525V49.5763L56.4273 50.1148Z" fill="white"/>
<path d="M28.0399 44.5779C27.8091 44.5779 27.6553 44.7317 27.6553 44.9625V50.04C27.6553 50.2708 27.8091 50.4247 28.0399 50.4247C28.2707 50.4247 28.4246 50.2708 28.4246 50.04V44.9625C28.4246 44.7317 28.2707 44.5779 28.0399 44.5779Z" fill="white"/>
<path d="M29.9628 45.7263C29.732 45.7263 29.5781 45.8802 29.5781 46.111V51.1885C29.5781 51.4193 29.732 51.5731 29.9628 51.5731C30.1936 51.5731 30.3474 51.4193 30.3474 51.1885V46.111C30.3474 45.8802 30.1936 45.7263 29.9628 45.7263Z" fill="white"/>
<path d="M31.8856 46.8123C31.6548 46.8123 31.501 46.9661 31.501 47.1969V52.2744C31.501 52.5052 31.6548 52.6591 31.8856 52.6591C32.1164 52.6591 32.2703 52.5052 32.2703 52.2744V47.1969C32.2703 46.9661 32.1164 46.8123 31.8856 46.8123Z" fill="white"/>
<path d="M33.8085 47.9607C33.5777 47.9607 33.4238 48.1146 33.4238 48.3454V53.4229C33.4238 53.6537 33.5777 53.8075 33.8085 53.8075C34.0393 53.8075 34.1931 53.6537 34.1931 53.4229V48.3454C34.1931 48.1146 34.0393 47.9607 33.8085 47.9607Z" fill="white"/>
<path d="M35.7323 49.031C35.5015 49.031 35.3477 49.1849 35.3477 49.4157V54.4932C35.3477 54.724 35.5015 54.8778 35.7323 54.8778C35.9631 54.8778 36.117 54.724 36.117 54.4932V49.4157C36.117 49.2618 35.9631 49.031 35.7323 49.031Z" fill="white"/>
<path d="M37.6561 50.1873C37.4253 50.1873 37.2715 50.3411 37.2715 50.5719V55.6494C37.2715 55.8802 37.4253 56.0341 37.6561 56.0341C37.8869 56.0341 38.0408 55.8802 38.0408 55.6494V50.5719C38.0408 50.3411 37.8869 50.1873 37.6561 50.1873Z" fill="white"/>
<path d="M39.6561 51.3513C39.4253 51.3513 39.2715 51.5052 39.2715 51.736V56.8135C39.2715 57.0443 39.4253 57.1981 39.6561 57.1981C39.8869 57.1981 40.0408 57.0443 40.0408 56.8135V51.736C40.0408 51.5052 39.81 51.3513 39.6561 51.3513Z" fill="white"/>
<path d="M49.5024 47.9589C49.5024 47.8051 49.4255 47.7281 49.2716 47.6512C49.1178 47.5743 49.0408 47.5743 48.887 47.6512L42.9632 51.0362C42.8094 51.1131 42.7324 51.267 42.7324 51.3439V58.1139C42.7324 58.2678 42.8094 58.3447 42.9632 58.4217C43.1171 58.4986 43.194 58.4986 43.3479 58.4217L49.2716 55.0367C49.4255 54.9597 49.5024 54.8059 49.5024 54.7289V47.9589ZM47.0406 49.6514V55.5752L45.3481 56.5753V50.6515L47.0406 49.6514ZM43.5787 51.6517L44.5019 51.1131V57.0369L43.5787 57.5754V51.6517ZM47.8099 55.1136V49.1898L48.7331 48.6513V54.5751L47.8099 55.1136Z" fill="white"/>
<path d="M31.2695 38.1182C31.2695 38.349 31.4234 38.5028 31.6542 38.5028C31.885 38.5028 32.0389 38.349 32.0389 38.1182V33.0407C32.0389 32.8099 31.885 32.656 31.6542 32.656C31.4234 32.656 31.2695 32.8099 31.2695 33.0407V38.1182Z" fill="white"/>
<path d="M33.578 39.6513C33.8088 39.6513 33.9627 39.4974 33.9627 39.2666V34.1891C33.9627 33.9583 33.8088 33.8044 33.578 33.8044C33.3472 33.8044 33.1934 33.9583 33.1934 34.1891V39.2666C33.1934 39.4205 33.3472 39.6513 33.578 39.6513Z" fill="white"/>
<path d="M35.5028 40.7294C35.7336 40.7294 35.8875 40.5755 35.8875 40.3447V35.2672C35.8875 35.0364 35.7336 34.8826 35.5028 34.8826C35.272 34.8826 35.1182 35.0364 35.1182 35.2672V40.3447C35.1182 40.5755 35.272 40.7294 35.5028 40.7294Z" fill="white"/>
<path d="M37.4247 41.8778C37.6555 41.8778 37.8094 41.724 37.8094 41.4932V36.4157C37.8094 36.1849 37.6555 36.031 37.4247 36.031C37.1939 36.031 37.04 36.1849 37.04 36.4157V41.4932C37.04 41.724 37.1939 41.8778 37.4247 41.8778Z" fill="white"/>
<path d="M39.3476 42.956C39.5783 42.956 39.7322 42.8021 39.7322 42.5713V37.4938C39.7322 37.263 39.5783 37.1091 39.3476 37.1091C39.1168 37.1091 38.9629 37.263 38.9629 37.4938V42.5713C38.9629 42.8021 39.1937 42.956 39.3476 42.956Z" fill="white"/>
<path d="M41.2714 44.1122C41.5022 44.1122 41.656 43.9583 41.656 43.7275V38.65C41.656 38.4192 41.5022 38.2654 41.2714 38.2654C41.0406 38.2654 40.8867 38.4192 40.8867 38.65V43.7275C40.8867 43.9583 41.1175 44.1122 41.2714 44.1122Z" fill="white"/>
<path d="M43.2714 45.2685C43.5022 45.2685 43.656 45.1146 43.656 44.8838V39.8063C43.656 39.5755 43.5022 39.4216 43.2714 39.4216C43.0406 39.4216 42.8867 39.5755 42.8867 39.8063V44.8838C42.8867 45.0377 43.0406 45.2685 43.2714 45.2685Z" fill="white"/>
<path d="M41.3479 26.8013C41.5017 26.8782 41.7325 26.8782 41.8864 26.6474C41.9633 26.4936 41.9633 26.2628 41.7325 26.1089L40.8863 25.6473C40.7324 25.5704 40.5016 25.5704 40.3478 25.8012C40.2708 25.9551 40.2708 26.1859 40.5016 26.3397L41.3479 26.8013Z" fill="white"/>
<path d="M46.4248 46.2702C46.4248 46.501 46.5787 46.6549 46.8095 46.6549C46.8864 46.6549 46.9633 46.6549 47.0403 46.5779L52.964 43.1929C53.1179 43.116 53.1948 42.9621 53.1948 42.8852V36.1152C53.1948 35.9613 53.1179 35.8844 52.964 35.8075C52.8102 35.7305 52.7332 35.7305 52.5794 35.8075L46.6556 39.1925C46.5017 39.2694 46.4248 39.4233 46.4248 39.5002V46.2702ZM48.9636 44.5777V38.6539L50.6561 37.6538V43.5776L48.9636 44.5777ZM52.3486 42.5775L51.4254 43.116V37.1922L52.3486 36.6537V42.5775ZM48.1942 39.1155V45.0393L47.2711 45.5778V39.654L48.1942 39.1155Z" fill="white"/>
</g>
<defs>
<clipPath id="clip0_511_5732">
<rect width="38.4659" height="38.4659" fill="white" transform="translate(23.1924 23.1875)"/>
</clipPath>
</defs>
</svg>
