<svg width="85" height="85" viewBox="0 0 85 85" fill="none" xmlns="http://www.w3.org/2000/svg">
<path d="M84.3174 31.2953L53.7051 84.3174L0.683013 53.7051L31.2953 0.683013L84.3174 31.2953Z" fill="#1A1B1D" stroke="white"/>
<path d="M11.1953 11.1953L73.4196 11.1953V73.4196H11.1953L11.1953 11.1953Z" fill="#1F2023"/>
<path fill-rule="evenodd" clip-rule="evenodd" d="M36.8114 31.7606C39.2513 29.609 42.4548 28.3012 45.9619 28.3012C53.6005 28.3012 59.8033 34.5041 59.8033 42.1426C59.8033 49.7811 53.6005 55.984 45.9619 55.984C42.4548 55.984 39.2513 54.6762 36.8114 52.5246C36.2195 52.0015 35.3127 52.0569 34.7896 52.6506C34.2665 53.2424 34.3237 54.1474 34.9156 54.6705C37.8614 57.2708 41.7293 58.8477 45.9619 58.8477C55.1813 58.8477 62.6671 51.3619 62.6671 42.1426C62.6671 32.9233 55.1813 25.4375 45.9619 25.4375C41.7293 25.4375 37.8614 27.0145 34.9156 29.6147C34.3237 30.1378 34.2665 31.0428 34.7896 31.6346C35.3127 32.2284 36.2195 32.2837 36.8114 31.7606Z" fill="white"/>
<path fill-rule="evenodd" clip-rule="evenodd" d="M43.7666 33.7444V41.381C43.7666 41.7609 43.9174 42.1256 44.1866 42.3928L50.2959 48.5021C50.8534 49.0615 51.7621 49.0615 52.3196 48.5021C52.879 47.9447 52.879 47.0359 52.3196 46.4784L46.6303 40.7872V33.7444C46.6303 32.954 45.9889 32.3125 45.1985 32.3125C44.4081 32.3125 43.7666 32.954 43.7666 33.7444Z" fill="white"/>
<path fill-rule="evenodd" clip-rule="evenodd" d="M23.052 36.895H34.5069C35.2973 36.895 35.9388 36.2535 35.9388 35.4631C35.9388 34.6727 35.2973 34.0312 34.5069 34.0312H23.052C22.2616 34.0312 21.6201 34.6727 21.6201 35.4631C21.6201 36.2535 22.2616 36.895 23.052 36.895Z" fill="white"/>
<path fill-rule="evenodd" clip-rule="evenodd" d="M24.9602 43.5744H36.4151C37.2055 43.5744 37.847 42.933 37.847 42.1426C37.847 41.3522 37.2055 40.7107 36.4151 40.7107H24.9602C24.1698 40.7107 23.5283 41.3522 23.5283 42.1426C23.5283 42.933 24.1698 43.5744 24.9602 43.5744Z" fill="white"/>
<path fill-rule="evenodd" clip-rule="evenodd" d="M26.8713 50.2544H38.3263C39.1166 50.2544 39.7581 49.6129 39.7581 48.8225C39.7581 48.0321 39.1166 47.3906 38.3263 47.3906H26.8713C26.0809 47.3906 25.4395 48.0321 25.4395 48.8225C25.4395 49.6129 26.0809 50.2544 26.8713 50.2544Z" fill="white"/>
</svg>
