<svg width="85" height="85" viewBox="0 0 85 85" fill="none" xmlns="http://www.w3.org/2000/svg">
<path d="M84.3174 31.2953L53.7051 84.3174L0.683013 53.7051L31.2953 0.683013L84.3174 31.2953Z" fill="#1A1B1D" stroke="white"/>
<path d="M11.1953 11.1953L73.4196 11.1953V73.4196H11.1953L11.1953 11.1953Z" fill="#1F2023"/>
<g clip-path="url(#clip0_511_5717)">
<path d="M50.9326 53.25C50.5057 53.25 50.1592 53.5965 50.1592 54.0234C50.1592 54.4503 50.5057 54.7968 50.9326 54.7968C51.3595 54.7968 51.7059 54.4503 51.7059 54.0234C51.7059 53.5965 51.3595 53.25 50.9326 53.25Z" fill="white"/>
<path d="M52.837 50.7501L49.1611 49.5251L47.8415 46.8858C49.0303 45.6757 49.8558 44.0747 50.1341 42.4047L50.2987 41.4182H51.7062C52.9855 41.4182 54.0263 40.3774 54.0263 39.0981V34.2258C54.0263 27.8291 48.8222 22.625 42.4255 22.625C36.0125 22.625 30.8248 27.8142 30.8248 34.2258V39.0981C30.8248 40.1063 31.4714 40.966 32.3715 41.2852V42.1916C32.3715 43.471 33.4124 44.5118 34.6917 44.5118H35.3709C35.7061 45.2401 36.1401 45.9146 36.6682 46.5206C36.7777 46.6465 36.8919 46.7685 37.0089 46.8872L35.69 49.5251L32.014 50.7502C27.7399 52.1754 24.6377 56.6749 24.6377 61.4489C24.6377 61.876 24.9839 62.2223 25.4111 62.2223H59.44C59.8671 62.2223 60.2134 61.876 60.2134 61.4489C60.2134 56.6749 57.1113 52.1754 52.837 50.7501ZM52.4795 39.0981C52.4795 39.5245 52.1326 39.8715 51.7062 39.8715H50.5258C50.7224 38.3487 50.8534 36.7282 50.9061 35.1322C50.9076 35.0872 50.9089 35.0434 50.9103 34.9992H52.4795V39.0981ZM33.1449 39.8715C32.7185 39.8715 32.3715 39.5245 32.3715 39.0981V34.9992H33.9414C33.9439 35.0798 33.9466 35.1609 33.9496 35.2425C33.9497 35.2452 33.9499 35.248 33.9499 35.2507C33.9499 35.251 33.9499 35.2512 33.9499 35.2514C34.0041 36.8038 34.1334 38.3822 34.3255 39.8714H33.1449V39.8715ZM34.6917 42.965C34.2653 42.965 33.9183 42.6181 33.9183 42.1916V41.4182H34.5523L34.7169 42.405C34.7483 42.5926 34.7869 42.7794 34.8315 42.965H34.6917ZM33.9196 33.4524H32.4009C32.7926 28.2691 37.1183 24.1718 42.4255 24.1718C47.7092 24.1718 52.0539 28.2685 52.4501 33.4524H50.9315C50.8759 29.1812 47.3977 25.7185 43.1178 25.7185H41.7334C37.4536 25.7185 33.9752 29.1812 33.9196 33.4524ZM41.7334 27.2653H43.1177C46.5832 27.2653 49.388 30.0998 49.386 33.5614C49.386 33.8048 49.3841 34.0167 49.38 34.2095C49.38 34.212 49.3799 34.2146 49.3799 34.2171L48.4125 34.0789C45.7846 33.7037 43.3033 32.463 41.4256 30.5854C41.2805 30.4404 41.0839 30.3588 40.8788 30.3588C38.8018 30.3588 36.8136 31.3052 35.4993 32.9039C35.8232 29.7548 38.4854 27.2653 41.7334 27.2653ZM36.4349 42.965C36.0477 41.6771 35.6048 37.8875 35.5068 35.4591L36.5477 34.0712C37.5037 32.7969 38.991 32.0052 40.5731 31.9144C42.6549 33.8955 45.3479 35.2037 48.1938 35.6101L49.3324 35.7728C49.2563 37.388 49.1008 39.0088 48.878 40.4995C48.8779 40.5 48.8778 40.5005 48.8777 40.5011C48.8069 40.9804 48.7511 41.2888 48.6084 42.1503C48.1989 44.6069 46.3658 46.8285 43.9459 47.4335C42.9501 47.6821 41.9009 47.682 40.9055 47.4335C39.3946 47.0558 38.0091 46.0103 37.115 44.5118H38.6916C39.0109 45.4119 39.8705 46.0586 40.8788 46.0586H42.4255C43.7074 46.0586 44.7457 45.0204 44.7457 43.7384C44.7457 42.4591 43.7049 41.4182 42.4255 41.4182H40.8788C39.8481 41.4182 39.0012 42.084 38.6903 42.965H36.4349ZM40.8137 48.9987C41.3442 49.1104 41.885 49.1676 42.4255 49.1676C42.8487 49.1676 43.2719 49.1321 43.6903 49.0635L42.3237 50.5087L40.8137 48.9987ZM41.2604 51.633L38.8074 54.2271C38.1321 52.9345 37.5518 51.5892 37.0759 50.2119L37.9971 48.3696L41.2604 51.633ZM46.7229 48.1076L47.775 50.2119C47.2983 51.5914 46.7179 52.9372 46.0433 54.2283L43.4178 51.6028L46.7229 48.1076ZM40.1054 43.7384C40.1054 43.3114 40.4517 42.965 40.8788 42.965H42.4255C42.852 42.965 43.1989 43.312 43.1989 43.7384C43.1989 44.1655 42.8525 44.5118 42.4255 44.5118H40.8788C40.4523 44.5118 40.1054 44.1648 40.1054 43.7384ZM26.2154 60.6755C26.5219 56.8443 29.0717 53.3619 32.5032 52.2176L35.7587 51.1327C36.3551 52.7819 37.094 54.3849 37.9599 55.9075C37.9614 55.9102 37.9628 55.9128 37.9643 55.9153L37.9643 55.9155C38.5971 57.0283 39.3092 58.1158 40.0813 59.1482L41.0327 60.6755H26.2154ZM42.4255 59.9861L41.3767 58.3022C41.3649 58.2834 41.3524 58.265 41.3391 58.2472C40.7128 57.4118 40.1286 56.5382 39.5965 55.6439L42.3546 52.7271L45.2608 55.6334C44.7252 56.5341 44.139 57.4115 43.5121 58.2471C43.4743 58.2976 43.528 58.218 42.4255 59.9861ZM43.8184 60.6755L44.7697 59.1482C45.5452 58.1119 46.2625 57.0157 46.9015 55.8898C46.9054 55.883 46.909 55.8761 46.9129 55.8692C46.9133 55.8684 46.9138 55.8676 46.9143 55.8668C47.7692 54.3587 48.5004 52.7696 49.0924 51.1327L52.3478 52.2176C55.7794 53.3619 58.3292 56.8443 58.6357 60.6755H43.8184Z" fill="white"/>
<path d="M56.3113 57.545C55.7945 56.5104 55.0374 55.5913 54.1219 54.8871C53.7833 54.6265 53.2978 54.6899 53.0374 55.0285C52.7769 55.367 52.8403 55.8526 53.1788 56.113C53.9099 56.6755 54.5146 57.4097 54.9275 58.2362C55.1187 58.619 55.5836 58.773 55.965 58.5825C56.347 58.3916 56.5021 57.9271 56.3113 57.545Z" fill="white"/>
</g>
<defs>
<clipPath id="clip0_511_5717">
<rect width="39.5973" height="39.5973" fill="white" transform="translate(22.627 22.625)"/>
</clipPath>
</defs>
</svg>
