<svg width="85" height="85" viewBox="0 0 85 85" fill="none" xmlns="http://www.w3.org/2000/svg">
<path d="M84.3174 31.2953L53.7051 84.3174L0.683013 53.7051L31.2953 0.683013L84.3174 31.2953Z" fill="#1A1B1D" stroke="white"/>
<path d="M11.1953 11.1953L73.4196 11.1953V73.4196H11.1953L11.1953 11.1953Z" fill="#1F2023"/>
<g clip-path="url(#clip0_511_5683)">
<path d="M59.278 22.6172H30.7679C28.8942 22.6195 27.3762 24.1376 27.3738 26.0112V52.4849H22.6222C22.2473 52.4849 21.9434 52.7888 21.9434 53.1637V54.5213C21.9457 56.395 23.4637 57.913 25.3374 57.9153H46.3968V61.3094C46.3968 61.5666 46.542 61.8016 46.772 61.9166C47.002 62.0316 47.2771 62.0068 47.483 61.8523L49.7908 60.1215L52.0987 61.8523C52.2161 61.9408 52.3593 61.9885 52.5061 61.9882C52.6115 61.9892 52.7156 61.966 52.8104 61.9203C53.0414 61.8046 53.1866 61.5676 53.1849 61.3094V57.9153H53.8475C55.7212 57.913 57.2392 56.395 57.2415 54.5213V28.0477H61.9932C62.3681 28.0477 62.672 27.7437 62.672 27.3689V26.0112C62.6697 24.1376 61.1516 22.6195 59.278 22.6172ZM46.3968 56.5577H25.3374C24.2128 56.5577 23.301 55.6459 23.301 54.5213V53.8425H46.3968V56.5577ZM51.8273 59.9518L50.1982 58.73C49.9569 58.5487 49.6251 58.5487 49.3835 58.73L47.7544 59.9518V52.3702C47.8857 52.3805 48.0176 52.3781 48.1482 52.3626C48.5399 52.868 49.1435 53.1637 49.7829 53.1637C50.4223 53.1637 51.0255 52.868 51.4173 52.3626C51.5525 52.3788 51.6891 52.3814 51.8246 52.3702L51.8273 59.9518ZM52.7003 49.0772C52.5193 49.1415 52.3738 49.2797 52.3006 49.4571C52.227 49.6347 52.232 49.8349 52.3148 50.0086C52.4431 50.2777 52.3888 50.5986 52.1786 50.81C51.9681 51.0215 51.6476 51.0779 51.3778 50.9509C51.2045 50.868 51.0039 50.8627 50.8263 50.936C50.6483 51.0096 50.5104 51.1551 50.4458 51.3364C50.3467 51.6175 50.0809 51.8057 49.7829 51.8057C49.4846 51.8057 49.2188 51.6175 49.1197 51.3364C49.0554 51.1551 48.9171 51.0096 48.7395 50.936C48.5615 50.8627 48.361 50.868 48.1876 50.9509C47.9178 51.0779 47.5973 51.0215 47.3872 50.81C47.1767 50.5986 47.1223 50.2777 47.2509 50.0086C47.3335 49.8352 47.3388 49.6347 47.2652 49.4574C47.1919 49.2797 47.0468 49.1418 46.8658 49.0772C46.5844 48.9771 46.3961 48.7106 46.3961 48.412C46.3961 48.1134 46.5844 47.8469 46.8658 47.7468C47.0468 47.6821 47.1916 47.5443 47.2649 47.3669C47.3384 47.1896 47.3331 46.9894 47.2509 46.8161C47.1217 46.5469 47.176 46.2257 47.3865 46.014C47.5966 45.8025 47.9175 45.7458 48.1876 45.8731C48.361 45.9559 48.5615 45.9613 48.7395 45.888C48.9171 45.8144 49.0554 45.6689 49.1197 45.4876C49.2188 45.2065 49.4846 45.0183 49.7829 45.0183C50.0809 45.0183 50.3467 45.2065 50.4458 45.4876C50.5104 45.6689 50.6483 45.8144 50.8263 45.888C51.0039 45.9613 51.2045 45.9559 51.3778 45.8731C51.6476 45.7461 51.9681 45.8025 52.1786 46.014C52.3888 46.2254 52.4431 46.5463 52.3148 46.8154C52.232 46.9891 52.227 47.1893 52.3006 47.3669C52.3738 47.5443 52.5193 47.6825 52.7003 47.7468C52.9811 47.8475 53.1687 48.1137 53.1687 48.412C53.1687 48.7103 52.9811 48.9765 52.7003 49.0772ZM56.5103 24.0597C56.4719 24.114 56.4377 24.1717 56.4026 24.2287C56.33 24.3447 56.2651 24.4647 56.2071 24.5883C56.1766 24.6563 56.1481 24.7189 56.1215 24.7852C56.0712 24.9184 56.0287 25.0543 55.9953 25.1926C55.9797 25.2559 55.9598 25.3169 55.9479 25.3812C55.9068 25.589 55.8856 25.7998 55.8839 26.0112V54.5213C55.8839 55.6459 54.9721 56.5577 53.8475 56.5577C53.6211 56.5534 53.3974 56.5113 53.1849 56.4328V51.7109C53.6072 51.2668 53.8064 50.6559 53.7281 50.048C54.2326 49.6553 54.5276 49.0514 54.5276 48.412C54.5276 47.7726 54.2326 47.1687 53.7281 46.776C53.8084 46.1422 53.5913 45.5068 53.1401 45.0541C52.689 44.6016 52.0543 44.3829 51.4199 44.4614C51.0281 43.956 50.4249 43.6603 49.7855 43.6603C49.1462 43.6603 48.5426 43.956 48.1508 44.4614C47.5168 44.3832 46.882 44.602 46.4309 45.0544C45.9802 45.5068 45.7631 46.1422 45.8429 46.776C45.3385 47.1687 45.0431 47.7726 45.0431 48.412C45.0431 49.0514 45.3385 49.6553 45.8429 50.048C45.7627 50.6645 45.9682 51.284 46.4008 51.7308V52.4849H28.7315V26.0112C28.7315 24.8866 29.6433 23.9748 30.7679 23.9748H56.5627C56.5438 24.0013 56.5296 24.0318 56.5103 24.0597ZM61.3144 26.6901H57.2415V26.0112C57.2415 24.8866 58.1533 23.9748 59.278 23.9748C60.4026 23.9748 61.3144 24.8866 61.3144 26.0112V26.6901Z" fill="white"/>
<path d="M44.3438 28.0469H47.059V29.4045H44.3438V28.0469Z" fill="white"/>
<path d="M37.5557 28.0469H42.9861V29.4045H37.5557V28.0469Z" fill="white"/>
<path d="M35.5195 31.4375H49.0957V32.7951H35.5195V31.4375Z" fill="white"/>
<path d="M32.125 35.5156H35.5191V36.8732H32.125V35.5156Z" fill="white"/>
<path d="M32.125 38.9062H39.5919V40.2639H32.125V38.9062Z" fill="white"/>
<path d="M36.877 35.5156H52.4896V36.8732H36.877V35.5156Z" fill="white"/>
<path d="M40.9502 38.9062H52.49V40.2639H40.9502V38.9062Z" fill="white"/>
<path d="M32.125 42.2969H45.7012V43.6545H32.125V42.2969Z" fill="white"/>
<path d="M32.125 45.7031H43.6648V47.0607H32.125V45.7031Z" fill="white"/>
</g>
<defs>
<clipPath id="clip0_511_5683">
<rect width="40.7286" height="40.7286" fill="white" transform="translate(21.9434 21.9375)"/>
</clipPath>
</defs>
</svg>
