<svg width="90" height="679" viewBox="0 0 90 679" fill="none" xmlns="http://www.w3.org/2000/svg">
<path d="M87.4777 71.4932L87.4777 107.24L44.7134 74.8869L2.63694 107.24L2.63694 71.4932L25.6815 53.6199L2.63694 35.7466L2.63694 1.04179e-06L44.7134 32.4661L87.4777 3.00781e-08L87.4777 35.7466L64.3185 53.6199L87.4777 71.4932Z" fill="#252528"/>
<path d="M27.172 99.7322L44.3694 99.7322L44.3694 139.212L27.172 139.212L27.172 99.7322Z" fill="#252528"/>
<path d="M61.1083 131.624L87.4777 131.624L87.4777 232.416L61.1083 131.624ZM87.4777 232.416L61.1083 232.416L61.1083 198.366L2.63694 198.366L2.63694 166.126L61.1083 166.126L61.1083 131.624L87.4777 131.624L87.4777 232.416Z" fill="#252528"/>
<path d="M2.63694 303.305L30.0382 280.115L30.0382 269.142L2.63694 269.142L2.63694 238.599L87.4777 238.599L87.4777 303.758C87.4777 310.771 86.293 316.955 83.9236 322.31C81.5541 327.74 78.2293 331.925 73.949 334.866C69.7452 337.883 64.8535 339.391 59.2739 339.391L58.8153 339.391C51.5541 339.391 45.5541 337.28 40.8153 333.056C36.0764 328.909 32.9045 323.139 31.2994 315.749L2.63694 340.07L2.63694 303.305ZM58.8153 309.64C61.1083 309.64 62.7516 309.112 63.7452 308.056C64.8153 307.076 65.465 305.719 65.6943 303.984C65.9236 302.325 66.0382 299.761 66.0382 296.292L66.0382 292.672C65.9618 290.334 65.9236 282.491 65.9236 269.142L51.9363 269.142L51.9363 296.292C51.9363 299.761 52.051 302.325 52.2803 303.984C52.5096 305.719 53.0828 307.076 54 308.056C54.9936 309.112 56.5987 309.64 58.8153 309.64Z" fill="#252528"/>
<path d="M2.63695 457.403L2.63695 425.164L15.4777 418.263L15.4777 373.58L2.63694 366.679L2.63694 334.44L87.4777 379.802L87.4777 412.041L2.63695 457.403ZM57.3248 395.978L36.3439 384.666L36.3439 407.177L57.3248 395.978Z" fill="#252528"/>
<path d="M2.63695 490.787L2.63695 458.547L87.4777 458.547L2.63695 490.787ZM39.6688 537.167L87.4777 537.167L87.4777 569.407L2.63695 569.407L2.63695 537.167L50.4459 490.787L2.63695 490.787L2.63695 458.547L87.4777 458.547L87.4777 490.787L39.6688 537.167Z" fill="#252528"/>
<path d="M53.5414 633.638C53.6943 637.258 53.7707 640.086 53.7707 642.122C53.7707 653.057 52.2038 661.919 49.0701 668.706C45.9363 675.569 39.7834 679 30.6115 679C18.6115 679 10.5096 673.759 6.30574 663.276C2.10191 652.793 1.43455e-08 640.991 -1.42134e-07 627.869C-2.99515e-07 614.671 2.10191 602.567 6.30574 591.557C10.5096 580.546 18.6115 575.041 30.6115 575.041L30.6115 608.299C26.1783 608.299 23.3503 610.222 22.1274 614.068C20.9045 617.914 20.293 622.514 20.293 627.869C20.293 632.922 21.0955 637.258 22.7006 640.878C24.3057 644.498 26.7898 646.308 30.1529 646.308C32.9809 646.308 34.8153 644.385 35.6561 640.538C36.5733 636.768 37.0319 632.356 37.0319 627.303L36.9172 615.991C36.9172 608.449 37.4522 601.738 38.5223 595.855C39.6688 590.048 42 585.109 45.5159 581.036C49.1083 577.039 54.344 575.041 61.2229 575.041C69.5541 575.041 75.8217 577.944 80.0255 583.751C84.3057 589.633 87.0191 596.345 88.1656 603.887C89.3885 611.428 90 619.422 90 627.869C90 640.991 87.8981 652.793 83.6943 663.276C79.5669 673.759 71.465 679 59.3885 679L59.3885 646.308C62.5987 646.308 65.0064 644.498 66.6115 640.878C68.2166 637.333 69.0956 632.997 69.2484 627.869C69.2484 622.439 68.6369 617.801 67.414 613.955C66.1911 610.184 64.242 608.299 61.5669 608.299C58.5096 608.299 56.4076 610.222 55.2612 614.068C54.1147 617.914 53.5032 622.25 53.4268 627.077L53.5414 633.638Z" fill="#252528"/>
</svg>
