<svg width="96" height="135" viewBox="0 0 96 135" fill="none" xmlns="http://www.w3.org/2000/svg">
<path d="M64.4775 84.8425C65.4966 84.0641 65.2399 83.5954 65.7147 82.6579C66.1895 81.7204 65.7848 81.327 66.5863 80.5067C67.3877 79.6864 66.4382 79.1424 67.4578 78.6317C68.4774 78.1211 68.3293 79.1005 67.4968 80.2304C66.6643 81.3689 66.5162 81.6785 67.6059 80.8164C68.695 79.9542 69.0923 78.7489 69.7146 77.3761C70.3296 76.0118 70.8043 75.5764 71.3492 75.5012C71.8935 75.4259 71.8935 73.9777 71.8234 72.965C71.7539 71.9522 71.4577 71.0062 71.8624 70.345C72.2597 69.6838 71.8624 69.056 72.3682 69.056C72.8741 69.056 73.6371 68.2357 74.4385 67.3741C75.24 66.5119 75.7458 66.4366 76.5784 66.3613C77.4109 66.2855 76.944 65.9679 77.4889 65.8173C78.0337 65.6582 78.3994 65.1142 78.7572 64.7626C79.1235 64.4111 80.6094 64.804 81.4815 64.804C82.353 64.804 82.9363 64.8798 82.9363 64.2939C82.9363 63.708 83.3336 63.2392 83.8468 63.2392C84.3606 63.2392 84.5708 63.0801 84.5708 62.3017C84.5708 61.5233 84.7884 61.0546 85.2242 60.7031C85.66 60.3515 85.73 59.5731 85.8781 59.0625C86.0262 58.5518 86.493 58.8615 86.493 58.125C86.493 57.3885 86.7497 56.5597 86.7497 55.9738C86.7497 55.3879 87.3335 55.4632 87.5822 55.0363C87.8393 54.6095 87.3646 54.0569 87.7614 52.8517C88.1581 51.638 87.7614 50.508 87.7614 49.4114C87.7614 48.3149 87.7614 47.1849 88.127 46.8334C88.4927 46.4818 88.3062 46.2894 88.0179 46.1303C87.7303 45.9712 88.0569 45.5443 88.3062 45.6281C88.5628 45.7034 88.8511 46.2894 89.3258 45.9797C89.8 45.67 90.2364 44.3391 90.6331 43.2426C91.0299 42.1466 91.6838 42.1879 92.197 41.9535C92.7029 41.7192 93.8005 40.3888 94.4849 38.472C95.1779 36.5551 94.4459 34.6802 94.1583 33.3577C93.8706 32.0268 93.4659 32.3031 92.7419 32.345C92.0184 32.3868 90.6331 32.1859 88.82 30.0766C87.0062 27.9672 85.2242 28.1263 84.026 28.4779C82.8278 28.8294 81.59 27.85 80.7885 27.6576C79.9871 27.4651 79.2246 28.5532 78.6487 28.7875C78.0648 29.0219 78.9364 27.85 78.9754 27.105C79.0144 26.36 76.7965 25.3054 75.123 24.6023C73.45 23.8992 72.7266 24.2507 72.7266 25.3807C72.7266 26.5112 72.0726 25.0291 71.5668 26.2429C71.0609 27.4566 70.1114 26.6697 70.7342 26.2848C71.3492 25.8913 71.9325 24.9957 72.1506 24.2507C72.3682 23.5063 69.7536 22.9204 68.8431 23.3138C67.9326 23.7067 68.5164 25.1129 67.7924 24.6781C67.0689 24.2507 67.6449 23.1881 68.2282 23.23C68.812 23.2719 69.4654 21.9829 69.8627 21.0454C70.2595 20.1079 69.1698 19.9489 68.5164 19.1705C67.8704 18.4006 68.0026 16.1401 67.3414 15.7885C66.6332 16.542 65.6757 17.7309 65.4033 18.601C65.0608 19.7145 64.6171 19.0782 63.6834 19.3964C62.7497 19.7145 62.306 19.2877 62.0573 18.8687C61.816 18.4419 60.8744 18.8687 60.2363 18.8104C59.5982 18.76 59.987 19.6556 59.5433 19.9234C59.0997 20.1832 57.9715 19.3963 57.5748 19.8736C57.1774 20.3502 56.9367 19.8736 56.7417 20.2919C56.5472 20.7103 55.8549 20.451 55.6604 20.7103C55.4654 20.9781 54.7731 21.1292 53.8857 20.0745C52.9989 19.0199 53.1464 17.27 53.5432 16.9524C53.9326 16.6343 53.9326 15.7387 53.3957 15.4709C52.8508 15.2111 53.3957 14.0981 52.7107 13.9894C52.0183 13.8887 52.1195 14.8346 51.6758 14.9937C51.2321 15.1528 50.1503 15.9476 49.6603 15.8389C49.1697 15.7302 48.5316 15.9476 48.5316 16.5256C48.5316 17.103 47.9947 16.9525 47.8935 16.4752C47.7923 15.998 46.7654 16.2658 46.4698 15.9476C46.1736 15.63 44.7962 15.7885 45.388 16.1571C45.9792 16.5256 46.0261 16.8936 46.0261 17.4795C46.0261 18.0654 46.4698 17.8979 46.4698 18.593C46.4698 19.2877 46.9598 18.8019 47.3023 18.8019C47.6448 18.8019 47.6448 19.4382 47.1079 19.5384C46.563 19.6477 46.3217 19.9574 46.1736 20.4929C46.0261 21.0199 45.5355 20.652 45.0918 21.0703C44.6487 21.4972 44.2593 21.9155 43.9637 21.7066C43.6681 21.4972 43.4268 21.6563 43.0763 21.8657C42.7338 22.0746 42.5863 21.8657 42.0957 21.4468C41.73 21.1292 41.4966 20.3672 40.8432 19.6726C40.4538 19.8736 39.6603 20.1748 39.2398 20.1748C38.6638 20.1748 36.8665 20.0327 36.7653 20.3672C36.6642 20.7018 36.8976 21.2628 37.1932 21.3381C37.4888 21.4134 38.1116 21.6059 37.5199 22.0582C36.9287 22.5184 36.407 21.8991 36.407 23.0036C36.407 24.1086 37.7301 24.8367 37.4577 25.8579C37.3175 26.3855 37.1231 27.7414 37.1231 28.2605C37.1231 28.779 36.9287 30.5538 36.4929 30.654C36.0571 30.7627 35.6677 30.2441 35.0844 30.7627C34.5006 31.2818 33.7771 30.9721 33.1 31.5416C32.4229 32.1106 31.6989 31.9011 31.6447 32.5793C31.5898 33.2575 30.9676 33.6255 31.1156 34.2448C31.2632 34.8726 30.8274 34.7136 30.3916 35.1823C29.9559 35.651 30.4385 35.9607 30.1503 36.3292C29.8626 36.6972 30.2435 37.2667 30.586 37.8357C30.9286 38.4046 31.3101 38.8235 31.2632 39.3506C31.2168 39.8697 31.5977 40.0791 32.0883 40.0288C32.5704 39.9784 32.1816 41.0166 32.9599 41.0166C33.7382 41.0166 34.5085 41.2255 34.7029 40.7568C34.8974 40.288 35.427 39.9201 35.427 40.5977C35.427 41.2759 35.2789 43.1005 35.8158 42.891C36.3527 42.6821 37.4114 42.7325 37.9483 42.9414C38.4773 43.1508 39.0143 42.9414 39.3489 42.5734C39.6914 42.2049 40.0729 42.2134 40.7494 41.795C41.4265 41.3761 42.0573 40.8575 42.6875 40.8575C43.3177 40.8575 44.3836 40.4386 44.2361 40.9577C44.088 41.4769 43.9948 43.4101 44.7651 44.398C45.5434 45.3853 45.9792 45.7538 46.7032 45.6536C47.4266 45.5528 47.3334 45.9633 47.8624 45.9129C48.3914 45.8625 48.0568 46.5322 48.5395 46.5322C49.0222 46.5322 49.8937 46.6324 49.8937 47.2104C49.8937 47.7878 51.3491 47.3106 51.6837 47.6288C52.0257 47.9384 52.4072 48.1977 52.3139 48.8255C52.2127 49.4533 53.0374 49.9221 52.5552 50.1814C52.0726 50.4412 52.7028 50.9603 52.7497 51.6379C52.7966 52.3161 53.4731 52.5754 54.5397 52.5251C55.6056 52.4752 55.8939 52.5754 55.8939 53.4127C55.8939 54.2494 56.6173 54.3502 56.8587 55.1286C57.1 55.907 56.5704 56.7941 56.6642 57.4219C56.7343 57.8991 56.4692 58.4092 56.1663 58.6187C56.5393 59.1293 56.5704 59.3636 56.2358 59.5561C55.7927 59.8154 56.7807 60.5604 56.532 61.7238C56.2906 62.8877 56.2358 63.0966 57.3724 63.1554C58.5006 63.2053 58.4073 63.5738 58.7961 63.3145C59.1935 63.0467 59.7768 64.2186 59.9248 64.796C60.0724 65.3735 60.516 66.7463 60.711 66.7463C60.9055 66.7463 61.4967 66.11 62.0884 66.4281C62.6406 66.7208 61.9562 68.7129 61.9324 69.5836C62.345 69.5666 62.843 69.5666 63.0063 69.6589C63.3025 69.818 63.45 71.9522 63.3025 72.3542C63.1544 72.7476 61.9403 73.1076 61.3175 73.5424C60.6952 73.9778 59.1856 75.5266 58.4853 76.7483C58.0727 77.4763 57.4657 78.0792 57.0378 78.5983C57.2402 78.6317 57.4114 78.6232 57.5278 78.5649C57.8624 78.4059 58.3762 78.4059 58.9284 79.1169C59.4812 79.8285 59.4422 80.381 59.6677 80.3476C59.8859 80.3057 60.1504 79.4016 60.5861 80.0714C61.0298 80.7411 62.1659 81.2596 62.423 81.5778C62.6796 81.8959 63.528 82.1303 63.528 82.9591C63.528 83.5535 63.2635 84.6749 63.6992 85.6288C63.9095 85.3447 64.1429 85.0599 64.4617 84.817L64.4775 84.8425Z" fill="#6B6B6B" stroke="#1C1D20" stroke-width="0.5" stroke-miterlimit="10"/>
<path d="M63.5426 82.9726C63.5426 82.1438 62.6948 81.9015 62.4376 81.5918C62.181 81.2737 61.0371 80.763 60.6013 80.0848C60.1576 79.4151 59.901 80.3192 59.6828 80.3611C59.4652 80.403 59.4963 79.842 58.9436 79.1309C58.3908 78.4193 57.8776 78.4193 57.543 78.5784C57.426 78.6367 57.2548 78.6452 57.0524 78.6118C56.7568 78.9719 56.5466 79.298 56.5466 79.6076C56.5466 80.3611 56.0328 81.1899 55.9944 82.6125C55.9554 84.0357 55.5897 83.8013 55.5507 84.9064C55.5117 86.0194 55.8853 85.8184 56.0255 85.9775C56.1108 86.0612 56.0096 86.4213 55.9005 86.714C56.0565 86.8646 56.212 87.091 56.5466 87.0491C57.2005 86.9738 57.8539 87.2495 58.6559 87.635C59.4573 88.0279 59.1617 87.5179 59.9242 87.635C60.6866 87.7522 61.5582 87.8275 62.3913 87.2835C62.9666 86.9065 63.247 86.2622 63.6986 85.6344C63.2628 84.68 63.5273 83.5585 63.5273 82.9641L63.5426 82.9726Z" fill="#6B6B6B" stroke="#1C1D20" stroke-width="0.5" stroke-miterlimit="10"/>
<path d="M42.9059 131.371C41.9954 131.33 40.2212 129.538 39.6763 129.07C39.1315 128.601 39.5283 128.132 38.8749 128.249C38.221 128.367 38.6567 127.705 39.0224 127.504C39.357 127.32 38.8902 126.659 38.4465 126.55C38.4001 127.597 38.1978 132.309 38.4544 132.351C38.7189 132.401 40.6491 132.108 41.2171 132.51C41.4347 132.585 41.7308 132.778 41.9643 132.51C42.3299 132.083 43.4197 132.317 43.995 131.924C44.5789 131.531 43.8164 131.413 42.9059 131.38V131.371ZM63.0303 69.6752C62.8669 69.5829 62.3611 69.5829 61.9564 69.5999C61.9564 69.6667 61.9564 69.7256 61.9564 69.7754C62.0576 70.5119 61.6139 72.4208 61.1239 72.3704C60.6333 72.3201 60.2365 73.1653 59.8477 73.0566C59.4503 72.9479 58.9134 73.6929 58.4234 73.3747C57.9328 73.0566 57.2404 73.4834 56.8515 73.2157C56.4542 72.9564 55.3261 73.1653 55.3261 72.8477C55.3261 72.5295 55.8709 72.6382 55.8709 71.6837C55.8709 70.7299 57.3416 69.6752 57.1471 69.3067C56.9527 68.9387 54.4387 68.1433 54.0962 67.6661C53.7543 67.1894 53.2637 66.7626 52.2752 66.6618C51.2951 66.5531 51.3414 66.0261 50.4546 65.4481C49.7154 64.9629 48.5714 63.6654 48.182 62.9459C47.5829 62.8785 46.7345 62.7449 46.5633 62.9623C46.3219 63.2719 45.9331 64.737 45.5985 64.0084C45.256 63.2804 44.4387 63.2804 43.7073 63.1717C42.9833 63.071 43.0302 62.3429 42.2519 63.2215C41.9094 63.615 41.4584 64.0085 41.0537 64.2847C41.0068 65.1305 40.8593 66.0759 40.7191 66.3436C40.5247 66.7122 38.8981 67.5076 38.8512 67.9344C38.8048 68.3528 39.0456 68.9387 38.75 69.2065C38.4544 69.4657 39.435 70.7882 38.8981 71.1063C38.3532 71.4245 39.2869 71.9521 38.9444 72.2697C38.6025 72.5878 37.9644 72.7469 37.9644 73.1154C37.9644 73.4834 37.9175 74.3875 37.4738 74.5969C37.0301 74.8058 36.7345 75.6012 36.7345 76.1872C36.7345 76.7731 36.0495 76.3966 36.2908 77.1416C36.5322 77.8861 36.8278 78.7816 36.2908 78.9407C35.746 79.0998 35.894 80.3135 35.5984 80.3135C35.3029 80.3135 35.1548 81.5861 35.5984 82.2134C36.0421 82.8497 36.1433 83.3773 36.1433 83.9632C36.1433 84.5491 36.7345 84.8588 36.5322 85.4945C36.3377 86.1308 36.431 86.7083 36.0885 86.9761C35.746 87.2438 36.0421 88.0307 35.5984 88.2487C35.1548 88.4576 35.941 90.1485 35.5984 90.4667C35.2559 90.7848 34.3686 91.0526 34.3686 92.216C34.3686 93.3793 34.5325 94.0405 34.4155 94.5427C34.3143 94.961 34.9055 94.8608 34.8123 95.5469C34.7111 96.2336 33.9255 95.8068 33.8786 96.2336C33.8316 96.6605 34.073 97.5057 33.7774 97.5561C33.4818 97.6064 33.3337 97.9246 33.3337 98.669C33.3337 99.414 32.9369 99.5148 32.89 99.8828C32.8437 100.251 33.2325 100.678 33.2325 101.097C33.2325 101.515 33.4739 102.947 33.1314 103.005C32.7889 103.055 32.5944 104.645 32.89 104.855C33.1862 105.064 33.1862 105.491 33.0381 105.809C32.89 106.127 33.7231 106.445 33.2874 106.922C32.8437 107.4 33.1935 108.01 33.7774 107.818C34.2674 107.659 34.5636 108.613 34.0266 108.613C33.4891 108.613 32.9448 108.613 33.3885 108.981C33.8316 109.349 34.2753 109.877 33.6372 110.145C32.9991 110.412 33.536 110.881 33.3885 111.517C33.2404 112.154 33.8317 112.731 33.3416 112.89C32.851 113.049 33.536 114.003 32.851 114.104C32.1666 114.204 32.6023 114.899 32.1666 115.267C31.7229 115.635 32.7578 116.272 32.2129 116.64C31.676 117.008 32.0654 117.853 31.5285 117.853C30.9915 117.853 30.688 118.649 30.6411 119.017C30.5942 119.385 30.2443 120.13 30.688 120.658C31.1317 121.185 30.5869 121.612 30.9836 121.821C31.3804 122.03 32.7035 121.712 32.5091 122.348C32.3141 122.985 32.361 124.357 32.6103 124.357C32.8589 124.357 33.007 125.152 33.3959 125.094C33.7926 125.044 35.5595 124.826 36.2987 125.043C36.6644 125.144 36.9679 125.378 37.1782 125.588C37.5981 125.387 38.5245 126.031 38.7347 125.813C38.9913 125.537 37.8242 124.524 37.8632 124.173C37.9016 123.821 37.684 123.235 37.684 122.842C37.684 122.449 37.5049 121.595 38.0107 121.202C38.5166 120.808 38.5556 120.424 38.8822 120.499C39.2095 120.574 39.8629 120.181 39.9019 119.243C39.9409 118.306 40.3376 117.954 41.0616 117.293C41.8552 116.573 43.1704 115.887 42.9833 115.577C42.8047 115.267 43.2716 114.246 43.2716 113.861C43.2716 113.476 42.0344 113.551 41.637 113.392C41.2403 113.233 39.7849 112.145 40.5089 110.697C41.2323 109.249 42.7578 109.09 43.1936 109.057C43.6293 109.015 43.2326 108.353 43.5903 108.119C43.9566 107.885 44.0267 107.491 44.0267 106.905C44.0267 106.244 44.0267 105.189 44.68 105.106C45.334 105.03 45.5126 104.637 45.1158 104.52C44.719 104.403 44.532 103.892 45.1859 103.817C45.8398 103.741 45.6217 104.403 46.0964 104.403C46.5712 104.403 47.3647 103.54 46.7504 103.038C46.1354 102.536 45.9483 103.273 45.6217 103.348C45.295 103.423 45.0378 102.879 44.7111 102.879C44.3844 102.879 44.602 101.9 44.4545 101.549C44.3064 101.197 44.0888 100.335 44.3844 99.9083C44.6721 99.4814 45.9099 100.569 46.999 100.653C48.0887 100.729 48.8902 100.067 48.8902 99.6405C48.8902 99.2131 48.3843 98.4268 49.0383 97.958C49.6916 97.4893 49.1468 97.3302 48.9682 96.7024C48.789 96.0746 49.2559 95.6896 49.5515 95.9993C49.8397 96.3089 51.9875 96.1165 53.7616 95.723C55.5437 95.3296 56.7736 94.6265 56.8826 94.0824C56.9912 93.5384 58.1198 92.2494 58.3691 91.7806C58.6257 91.3119 58.4075 90.726 57.6762 90.6088C56.9527 90.4916 56.9838 89.596 57.3885 89.0854C57.7853 88.5747 57.1703 88.106 56.478 88.0307C55.785 87.9554 54.6959 87.4448 55.3182 86.817C55.6138 86.5158 55.7619 86.5747 55.9099 86.7168C56.0111 86.4156 56.1123 86.064 56.0343 85.9803C55.8862 85.8212 55.5205 86.0222 55.5595 84.9086C55.5985 83.8042 55.9642 84.0385 56.0032 82.6153C56.0343 81.1927 56.5554 80.3554 56.5554 79.6104C56.5554 78.8654 57.8084 77.9868 58.5087 76.7646C59.2095 75.5344 60.7192 73.994 61.3415 73.5587C61.9643 73.1239 63.1784 72.7639 63.3259 72.3704C63.474 71.977 63.3259 69.8343 63.0303 69.6752Z" fill="#6B6B6B" stroke="#1C1D20" stroke-width="0.5" stroke-miterlimit="10"/>
<path d="M33.3871 125.108C32.9904 125.158 32.8428 124.371 32.6015 124.371C32.3602 124.371 32.3059 122.999 32.5003 122.363C32.6948 121.726 31.3716 122.045 30.9749 121.835C30.586 121.626 31.1229 121.199 30.6793 120.672C30.2356 120.145 30.5781 119.4 30.6324 119.031C30.6793 118.663 30.9749 117.868 31.5197 117.868C32.0646 117.868 31.6678 117.023 32.2047 116.654C32.749 116.286 31.7141 115.65 32.1578 115.281C32.6015 114.913 32.1578 114.219 32.8428 114.118C33.5273 114.009 32.8428 113.055 33.3329 112.904C33.8235 112.745 33.2317 112.168 33.3798 111.531C33.5273 110.896 32.9825 110.418 33.6285 110.159C34.2666 109.891 33.8229 109.364 33.3798 108.995C32.9361 108.627 33.481 108.627 34.0179 108.627C34.5548 108.627 34.2666 107.681 33.7686 107.832C33.1848 108.016 32.8349 107.414 33.2786 106.936C33.7223 106.46 32.8892 106.141 33.0294 105.823C33.1774 105.505 33.1774 105.078 32.8813 104.869C32.5857 104.66 32.7801 103.069 33.1226 103.019C33.4651 102.969 33.2238 101.538 33.2238 101.111C33.2238 100.684 32.827 100.265 32.8813 99.8973C32.9282 99.5288 33.325 99.4201 33.325 98.6836C33.325 97.9471 33.473 97.6289 33.7686 97.5701C34.0642 97.5202 33.8156 96.6665 33.8698 96.2476C33.9167 95.8293 34.7023 96.2476 34.8035 95.5615C34.9047 94.8754 34.3135 94.9756 34.4067 94.5572C34.5237 94.0466 34.3604 93.3938 34.3604 92.2299C34.3604 91.0666 35.2472 90.7988 35.5897 90.4807C35.9322 90.1625 35.146 88.4721 35.5897 88.2626C36.0334 88.0532 35.7378 87.2584 36.0797 86.9906C36.4222 86.7228 36.329 86.1448 36.5234 85.5091C36.7184 84.8728 36.1346 84.5546 36.1346 83.9772C36.1346 83.3998 36.0334 82.8642 35.5897 82.2279C35.146 81.5916 35.2941 80.3281 35.5897 80.3281C35.8853 80.3281 35.7378 79.1143 36.2821 78.9552C36.8196 78.7962 36.5234 77.9006 36.2821 77.1556C36.0334 76.4106 36.7257 76.787 36.7257 76.2011C36.7257 75.6158 37.0213 74.8289 37.465 74.6109C37.9087 74.402 37.9556 73.498 37.9556 73.1294C37.9556 72.7614 38.5937 72.6024 38.9362 72.2842C39.2782 71.9661 38.3445 71.439 38.8893 71.1209C39.4263 70.8027 38.4456 69.4803 38.7412 69.2204C39.0374 68.9527 38.7881 68.3752 38.8424 67.9484C38.8893 67.53 40.516 66.7346 40.7104 66.3582C40.8506 66.0904 40.9981 65.1359 41.045 64.2992C40.5391 64.6508 40.0954 64.8433 40.0174 64.6423C39.8699 64.2738 40.0644 63.1857 39.6286 62.717C39.1928 62.2482 39.4805 61.3108 39.0447 61.1019C38.609 60.8924 38.08 59.9549 38.4615 59.6453C38.8503 59.3356 38.4615 58.7078 38.804 58.3981C39.1386 58.0885 38.609 58.0296 38.1269 57.4103C37.6442 56.7824 38.3213 56.004 37.7374 55.5353C37.1542 55.0666 37.1542 54.4976 37.014 54.7569C36.8659 55.0167 36.8196 55.9038 36.3369 56.1631C36.2589 56.205 36.1345 56.3058 35.9786 56.4394C35.9786 56.8747 35.8389 57.6027 35.9944 58.0217C36.2125 58.6076 36.3211 61.4613 36.1035 62.5579C35.8853 63.6544 35.6677 64.55 35.4495 65.2112C35.2319 65.881 35.9554 65.9144 35.6677 66.224C35.3795 66.5337 35.4885 67.3206 35.4885 68.5677C35.4885 69.8148 34.7962 71.9242 34.7651 72.5939C34.7261 73.2551 34.2592 73.6904 34.3287 74.4269C34.3988 75.1719 34.0021 75.5988 33.6053 75.9503C33.2085 76.3019 34.2592 77.4318 34.2202 78.0597C34.1812 78.6875 33.4188 78.9552 33.6053 79.9765C33.8308 81.2401 33.6053 83.4162 33.6053 83.843C33.6053 84.2704 33.1305 84.2365 33.2396 85.0568C33.3487 85.8771 32.7648 86.0695 32.6558 87.2499C32.5467 88.4217 31.7141 90.1042 31.3875 90.9998C31.0608 91.8954 31.0608 92.406 30.625 92.406C30.1887 92.406 30.0802 92.9166 30.4068 93.695C30.7335 94.4734 30.1887 95.1432 30.625 95.9216C31.0608 96.7 30.9127 96.9762 30.6945 97.7212C30.4769 98.4577 30.1887 98.4996 30.1887 99.2027C30.1887 99.9058 29.6828 100.492 29.9711 101.27C30.2588 102.049 30.1887 102.325 29.823 102.325C29.4573 102.325 29.2787 102.952 29.1306 104.241C28.9826 105.53 29.0215 105.488 29.8931 105.413C30.7646 105.338 30.0723 102.249 30.6171 102.249C31.162 102.249 30.6872 101.739 31.2315 101.588C31.7763 101.429 31.3015 102.132 31.6678 102.249C32.0335 102.366 32.2822 102.676 31.7763 103.028C31.2705 103.379 31.8854 104.082 31.6288 104.517C31.3716 104.944 31.0139 105.413 31.2315 105.924C31.4496 106.434 30.9749 106.392 30.9438 107.054C30.9048 107.715 31.2705 107.757 31.0139 107.916C30.7573 108.075 31.3406 108.577 30.9749 108.661C30.6092 108.736 30.8268 109.247 31.045 109.715C31.2631 110.184 30.5702 109.908 30.2124 110.226C29.8467 110.536 30.5781 110.962 30.3599 111.398C30.1423 111.825 29.5585 111.163 29.3098 110.929C29.0526 110.695 29.7066 110.226 30.0332 109.757C30.3599 109.289 29.7066 108.234 29.1617 108.468C28.6169 108.703 29.7066 109.364 29.7066 109.874C29.7066 110.385 28.796 109.757 28.835 110.301C28.874 110.845 28.2201 110.653 27.8934 111.046C27.5662 111.44 28.3292 111.791 27.9635 111.908C27.5973 112.026 26.9829 112.57 26.9439 112.963C26.9049 113.357 27.3407 113.432 27.3407 113.038C27.3407 112.645 27.9245 112.528 28.1031 113.038C28.2823 113.549 28.5389 113.038 29.0447 113.156C29.5506 113.273 29.4805 114.093 29.1928 114.051C28.9051 114.009 28.609 114.562 28.687 115.148C28.757 115.734 29.7767 115.148 30.2124 115.307C30.6482 115.466 30.5001 116.286 30.2514 116.01C29.9943 115.734 29.4183 115.265 29.1617 115.734C28.9051 116.202 28.5078 115.968 28.1811 115.809C27.8544 115.65 26.6946 116.479 27.0914 116.788C27.4887 117.098 27.4576 117.609 27.7063 117.567C27.9635 117.525 28.3603 117.332 28.5078 117.023C28.6559 116.705 29.1617 116.395 29.2007 117.098C29.2397 117.801 28.5078 117.45 28.3682 117.843C28.2201 118.236 27.9319 118.546 27.4961 118.898C27.0603 119.249 27.4961 119.835 27.8623 119.642C28.228 119.442 27.7533 120.111 28.2591 120.186C28.726 120.262 28.874 119.876 28.7649 119.483C28.6559 119.09 29.0216 118.236 29.4573 118.663C29.8931 119.09 29.2397 119.525 29.2397 119.91C29.2397 120.295 28.9826 120.814 28.9826 121.241C28.9826 121.668 28.5078 121.433 28.5468 121.902C28.5858 122.371 27.5277 122.061 28.0019 122.371C28.4767 122.68 27.7142 123.116 27.9635 123.425C28.2201 123.735 28.4377 122.999 28.835 123.149C29.2318 123.308 29.1617 123.425 29.6676 123.191C30.1734 122.957 30.469 123.618 29.9942 123.777C29.5195 123.936 29.0136 124.522 29.2318 124.597C29.4494 124.673 30.0643 124.204 30.2124 124.714C30.3599 125.225 30.7183 125.066 30.7573 124.522C30.7957 123.978 31.6678 124.447 31.8074 124.915C31.9555 125.384 30.8969 125.66 30.3526 125.543C29.8077 125.426 29.5195 126.087 29.8778 126.598C30.2435 127.108 30.6793 126.598 31.076 126.171C31.4728 125.744 33.434 125.861 33.5821 126.33C33.7296 126.799 32.6716 126.405 32.5625 126.682C32.4534 126.958 31.652 127.192 31.5429 126.883C31.4338 126.573 30.6713 127 30.6324 127.51C30.5934 128.021 30.018 128.021 30.6713 128.214C31.3253 128.406 31.1461 127.469 32.1578 127.552C33.1774 127.628 33.7223 126.54 34.01 127.159C34.2977 127.787 33.1774 128.289 32.7728 127.895C32.3754 127.502 31.9012 128.172 31.9397 128.758C31.9787 129.343 30.7804 128.598 30.1966 128.523C29.6133 128.448 29.8699 129.109 30.3758 129.695C30.8816 130.281 31.1772 129.62 31.7921 130.047C32.4071 130.473 32.4071 130.942 32.8428 130.515C33.2786 130.08 32.8428 130.122 32.5546 129.929C32.2669 129.737 32.5156 129.067 33.2085 129.419C33.9009 129.77 34.695 129.109 34.4768 128.172C34.2592 127.234 35.0918 126.807 35.9322 126.489C36.7647 126.18 36.329 127.075 35.7141 127.351C35.0997 127.628 34.9906 127.82 35.4574 128.364C35.9322 128.908 36.5471 128.013 36.9439 128.439C37.3407 128.866 36.2199 128.791 36.0334 129.218C35.8542 129.645 36.7257 130.155 36.1035 130.465C35.4885 130.775 35.7762 129.176 35.4105 129.017C35.0448 128.858 34.7182 129.218 35.0838 130.113C35.4495 131.009 34.6481 130.231 34.2824 129.795C33.9167 129.368 33.4109 129.988 33.8466 130.456C34.2824 130.925 33.0141 130.415 33.0141 131.16C33.0141 131.905 33.5584 131.277 34.2123 131.436C34.8662 131.595 34.578 132.608 35.0448 133.001C35.5196 133.395 35.1149 131.754 35.6287 131.637C36.1346 131.52 35.6677 132.884 36.7879 133.277C37.9166 133.671 36.858 133.043 37.3718 132.65C37.8776 132.256 38.5316 133.821 39.0758 133.98C39.6207 134.14 39.255 133.277 38.8582 132.809C38.4615 132.34 39.255 132.616 39.7998 132.809C40.3447 133.01 40.7805 133.085 40.8895 132.65C40.928 132.491 41.0291 132.49 41.162 132.541C40.5934 132.139 38.6638 132.432 38.3993 132.382C38.1342 132.34 38.3366 127.653 38.3914 126.581C38.3524 126.573 38.3134 126.556 38.2744 126.556C37.7996 126.556 36.7495 126.673 36.9281 125.895C36.9592 125.761 37.0293 125.677 37.1231 125.635C36.9049 125.426 36.6014 125.192 36.2436 125.091C35.5044 124.882 33.7376 125.091 33.3408 125.141L33.3871 125.108Z" fill="#6B6B6B" stroke="#1C1D20" stroke-width="0.5" stroke-miterlimit="10"/>
<path d="M62.1036 66.4538C61.5124 66.1357 60.9206 66.772 60.7262 66.772C60.5318 66.772 60.0881 65.3992 59.94 64.8218C59.7925 64.2358 59.2007 63.0725 58.8119 63.3402C58.4151 63.608 58.5163 63.24 57.3876 63.1812C56.2594 63.1313 56.3058 62.9219 56.5471 61.7501C56.7964 60.5867 55.8078 59.8502 56.2515 59.5824C56.5861 59.3814 56.555 59.1556 56.1814 58.6449C56.0882 58.7117 55.9949 58.7451 55.909 58.7451C55.5202 58.7451 55.0375 58.0171 54.3604 58.0171C53.6833 58.0171 52.9519 57.9667 52.4692 58.226C51.9871 58.4859 51.0608 58.1762 50.4848 58.5946C49.9015 59.0129 49.1775 59.8921 49.2244 60.26C49.2708 60.6286 49.0294 62.863 48.7417 62.9723C48.6564 63.0057 48.4382 62.9887 48.1816 62.9553C48.5705 63.6833 49.7145 64.9723 50.4537 65.4581C51.3411 66.044 51.2863 66.571 52.2748 66.6718C53.2554 66.772 53.7534 67.1988 54.0959 67.6761C54.4384 68.1533 56.9518 68.9402 57.1462 69.3167C57.3412 69.6846 55.87 70.7393 55.87 71.6938C55.87 72.6482 55.3252 72.539 55.3252 72.8571C55.3252 73.1753 56.4539 72.9579 56.8506 73.2256C57.2474 73.4934 57.9324 73.0666 58.4225 73.3847C58.913 73.7023 59.4579 72.9658 59.8467 73.0666C60.2435 73.1753 60.6329 72.3301 61.123 72.3799C61.6135 72.4303 62.0567 70.5304 61.9555 69.7854C61.8543 69.0404 62.6953 66.772 62.1036 66.4538Z" fill="#6B6B6B" stroke="#1C1D20" stroke-width="0.5" stroke-miterlimit="10"/>
<path d="M24.6264 22.5498C25.078 22.8346 25.724 22.7593 25.8794 22.5498C26.0275 22.3489 26.4474 22.7927 27.0545 23.5292C27.0776 23.5626 27.1014 23.5875 27.1245 23.6215C27.6304 23.5043 28.2764 23.395 28.533 23.5711C28.9846 23.8808 28.8755 24.9773 29.4978 25.0441C30.1286 25.103 30.5796 25.7806 30.5253 26.1492C30.4711 26.5171 31.2104 26.7017 31.1555 27.2536C31.1013 27.8062 32.8132 27.6805 33.0388 27.4965C33.2648 27.3125 33.7238 27.1868 34.0041 27.3708C34.2918 27.5554 34.8056 27.1868 35.0859 27.3125C35.3736 27.4382 36.5096 27.9233 36.2841 28.3587C36.0586 28.7855 35.2566 29.4637 35.4279 29.8317C35.5601 30.1249 36.1598 30.3004 36.4006 30.669C36.4243 30.669 36.4554 30.669 36.4785 30.669C36.9143 30.5682 37.1088 28.794 37.1088 28.2749C37.1088 27.7563 37.3037 26.3999 37.4433 25.8729C37.7158 24.8516 36.3932 24.1236 36.3932 23.0186C36.3932 21.9135 36.9143 22.5249 37.5061 22.0726C38.0973 21.6124 37.475 21.4199 37.1788 21.3531C36.8832 21.2857 36.6577 20.7168 36.751 20.3822C36.8521 20.0471 38.65 20.1897 39.226 20.1897C39.8014 20.1897 41.0465 19.6287 41.0623 19.5364C41.0781 19.4527 41.2104 19.0094 40.7667 18.6409C40.323 18.2729 40.4864 17.7453 40.8289 17.3184C41.1714 16.9001 40.6186 16.4732 40.1908 15.9626C39.7629 15.452 40.0896 13.6019 40.5796 12.7403C41.0702 11.8781 39.5838 12.0706 38.6653 12.1963C37.7469 12.3214 36.9612 11.9279 36.3695 11.1246C35.7783 10.3128 34.9768 10.8235 33.5684 10.8569C32.1593 10.8903 32.4397 9.18286 32.5018 8.53014C32.564 7.87685 31.7784 7.79306 31.7784 7.36622C31.7784 6.93937 31.3658 6.94787 31.008 6.98127C30.6497 7.01467 31.008 6.50461 31.2567 6.16947C31.498 5.8349 31.4828 5.56713 31.498 4.86402C31.5139 4.16092 32.4628 3.558 32.9376 2.87188C33.0546 2.70431 33.2338 2.59562 33.4361 2.52825C33.4904 2.36125 33.6068 2.23558 33.8329 2.1852C34.5563 2.02612 34.922 1.52398 34.2296 1.08864C33.5373 0.661793 33.1399 1.90894 32.3775 2.02612C31.615 2.1433 31.467 2.65394 30.9611 2.9217C30.4553 3.19797 29.5057 2.96358 29.4746 3.43232C29.4356 3.94295 29.1479 3.43234 28.7122 3.31515C28.2764 3.19797 27.1477 4.25262 27.1867 4.83854C27.2257 5.42447 27.4049 5.9685 26.6029 6.52103C25.8014 7.06506 25.3346 8.08631 24.9689 8.55505C24.8598 8.69714 24.7355 8.70563 24.6111 8.64732C24.5642 8.9066 24.4941 9.10757 24.385 9.19928C24.1827 9.35836 23.7006 9.88598 23.2801 10.3547C23.4824 10.5636 23.6769 10.7561 23.8018 10.9072C24.3076 11.4932 23.9804 11.9619 24.1284 12.2795C24.2765 12.5891 24.4161 13.0579 24.1284 13.2588C23.8408 13.4513 24.0894 15.6025 24.4161 15.996C24.7434 16.3894 24.4161 16.741 24.0504 17.5194C23.6848 18.2978 23.3581 18.6493 22.7041 18.6912C22.0508 18.7331 22.0898 19.8212 21.8716 19.8212C21.7004 19.8212 21.5681 20.2146 21.5449 20.5577C22.1519 21.1102 23.249 21.7799 23.5683 21.7799C23.9103 21.7799 24.1363 22.307 24.5874 22.5917L24.6264 22.5498Z" fill="#6B6B6B" stroke="#1C1D20" stroke-width="0.5" stroke-miterlimit="10"/>
<path d="M56.8749 55.1449C56.6342 54.3665 55.9101 54.2578 55.9101 53.429C55.9101 52.6002 55.6225 52.4915 54.5559 52.5419C53.49 52.5917 52.8129 52.3324 52.7665 51.6542C52.7196 50.9766 52.0894 50.4575 52.5715 50.1982C53.0542 49.9384 52.229 49.4696 52.3302 48.8418C52.424 48.2146 52.0425 47.9547 51.7 47.6451C51.3575 47.3354 49.91 47.8041 49.91 47.2267C49.91 46.6493 49.0385 46.5485 48.5564 46.5485C48.0737 46.5485 48.4083 45.8709 47.8792 45.9292C47.3497 45.9796 47.4435 45.5612 46.7195 45.6699C45.996 45.7701 45.5603 45.4101 44.782 44.4143C44.0037 43.4264 44.1049 41.5016 44.2524 40.974C44.4005 40.4555 43.3345 40.8738 42.7038 40.8738C42.0736 40.8738 41.4434 41.3929 40.7663 41.8113C40.0891 42.2296 39.7003 42.2296 39.3657 42.5897C39.0232 42.9577 38.4936 43.1586 37.9646 42.9577C37.8171 42.8994 37.6221 42.8575 37.4197 42.8241C37.708 43.594 38.3924 44.8496 38.5484 45.3014C38.7428 45.8709 38.3071 46.0299 38.1126 46.2388C37.9182 46.4483 38.2059 48.3232 38.2602 48.7416C38.3071 49.16 37.5831 49.9384 37.8713 50.1982C38.159 50.4575 37.4825 51.2444 37.4825 51.7131C37.4825 52.1818 38.1126 52.1819 38.1126 52.5419C38.1126 52.9014 37.5757 53.7386 37.2411 53.9481C37.062 54.0568 37.0619 54.3495 37.1009 54.6761C37.2021 54.6427 37.2722 55.1115 37.7701 55.5128C38.354 55.9816 37.6769 56.76 38.159 57.3878C38.6417 58.0156 39.1786 58.066 38.8361 58.3757C38.4936 58.6853 38.883 59.3131 38.4936 59.6228C38.1047 59.9409 38.6417 60.8784 39.0774 61.0794C39.5132 61.2883 39.2255 62.2258 39.6613 62.6945C40.097 63.1632 39.9026 64.2598 40.0501 64.6198C40.1982 64.9878 41.5055 64.1007 42.2759 63.2136C43.0542 62.3265 42.9999 63.0545 43.7313 63.1632C44.4547 63.2719 45.2799 63.2719 45.6224 64.0005C45.9649 64.7285 46.3459 63.2719 46.5872 62.9543C46.8286 62.6447 48.4784 63.0546 48.766 62.9543C49.0543 62.8536 49.2956 60.6106 49.2487 60.2421C49.2018 59.8741 49.9258 58.995 50.5097 58.5766C51.093 58.1583 52.0114 58.4759 52.4941 58.2081C52.9762 57.9488 53.7081 57.9992 54.3847 57.9992C55.0618 57.9992 55.5444 58.7272 55.9333 58.7272C56.3227 58.7272 56.8054 58.049 56.7116 57.4212C56.6183 56.7939 57.1474 55.9063 56.9066 55.1279L56.8749 55.1449Z" fill="#6B6B6B" stroke="#1C1D20" stroke-width="0.5" stroke-miterlimit="10"/>
<path d="M37.0134 54.7223C37.0134 54.7223 37.0524 54.6719 37.0683 54.6634C37.0214 54.3458 37.0293 54.0526 37.2084 53.9354C37.543 53.726 38.08 52.8977 38.08 52.5292C38.08 52.1612 37.4498 52.1692 37.4498 51.7004C37.4498 51.2317 38.1263 50.4453 37.8386 50.1855C37.5509 49.9262 38.2744 49.1393 38.2275 48.7295C38.1811 48.3106 37.8855 46.4356 38.08 46.2267C38.2744 46.0172 38.7102 45.8582 38.5157 45.2892C38.3597 44.8369 37.6753 43.5818 37.387 42.8114C36.8501 42.7281 36.1888 42.7446 35.8 42.8952C35.2704 43.1046 35.4105 41.28 35.4105 40.6018C35.4105 39.9236 34.8815 40.2922 34.6871 40.7609C34.4921 41.2297 33.7217 41.0202 32.9435 41.0202C32.1652 41.0202 32.5546 39.974 32.0719 40.0329C31.5898 40.0827 31.2004 39.8738 31.2473 39.3547C31.2936 38.8356 30.9048 38.4172 30.5702 37.8398C30.2277 37.2624 29.8462 36.6929 30.1344 36.3334C30.4221 35.9648 29.94 35.6552 30.3758 35.1864C30.8115 34.7177 31.2473 34.8768 31.0992 34.249C30.9517 33.6211 31.5819 33.2611 31.6282 32.5835C31.6752 31.9053 32.4065 32.1147 33.0836 31.5452C33.7607 30.9678 34.4848 31.2859 35.068 30.7668C35.6129 30.2817 35.9865 30.7 36.3912 30.6666C36.1498 30.2981 35.5507 30.1226 35.4185 29.8294C35.2472 29.4614 36.0487 28.7832 36.2742 28.3563C36.5002 27.9295 35.3636 27.4358 35.0759 27.3102C34.7882 27.1845 34.2745 27.553 33.9941 27.3685C33.7065 27.1845 33.2549 27.3102 33.0294 27.4942C32.8039 27.6781 31.0913 27.8038 31.1461 27.2513C31.2004 26.6993 30.4611 26.5148 30.5154 26.1468C30.5702 25.7783 30.1186 25.1006 29.4884 25.0418C28.8582 24.9835 28.9746 23.8784 28.5236 23.5687C28.2665 23.3927 27.6204 23.4935 27.1146 23.6191C27.6594 24.2804 27.8544 24.5566 27.4961 24.8742C27.0134 25.2931 27.4961 25.3599 26.5856 26.6654C25.675 27.9714 24.1264 28.298 23.3639 28.5403C22.6088 28.7832 22.3053 30.2902 21.8854 31.3527C21.4649 32.4074 21.1303 32.0474 20.7103 31.4365C20.2977 30.8257 19.9552 31.5622 19.4573 31.0686C18.9667 30.5828 19.1928 30.5828 19.4573 30.173C19.5975 29.955 19.4415 29.6035 19.138 29.2689C18.601 29.3861 18.0488 30.1894 17.7843 30.8087C17.4961 31.4699 18.2902 32.759 18.3987 33.2277C18.5078 33.6964 17.9629 33.2696 17.8928 33.6964C17.8227 34.1233 19.0916 34.7511 19.6749 35.2199C20.2587 35.6886 20.7646 37.0195 21.3094 37.6473C21.8543 38.2751 21.8933 38.8192 22.4687 40.3426C23.0525 41.866 24.2123 44.444 25.0138 45.54C25.8152 46.6366 26.173 47.4903 25.9944 47.8084C25.8152 48.1181 26.0334 48.9803 26.6087 49.4071C27.1926 49.8339 27.6594 50.5371 29.1849 51.3573C30.7104 52.1776 33.5041 53.7429 33.9088 54.4795C34.3056 55.2244 35.6129 55.9275 35.8695 56.0781C35.9396 56.12 35.9633 56.2457 35.9633 56.4048C36.1108 56.2706 36.2357 56.1704 36.3211 56.1285C36.8037 55.8692 36.8501 54.9816 36.9982 54.7223H37.0134Z" fill="#6B6B6B" stroke="#1C1D20" stroke-width="0.5" stroke-miterlimit="10"/>
<path d="M32.9588 2.84743C32.4846 3.53355 31.5351 4.13647 31.5193 4.83958C31.504 5.54268 31.5193 5.81045 31.2779 6.14502C31.0292 6.48016 30.6709 6.99079 31.0293 6.95739C31.387 6.92342 31.7996 6.92342 31.7996 7.34234C31.7996 7.76069 32.5858 7.85298 32.5231 8.50571C32.4609 9.15843 32.1811 10.8658 33.5896 10.8324C34.9981 10.799 35.7995 10.2884 36.3913 11.1002C36.9825 11.912 37.7686 12.2975 38.6865 12.1718C39.605 12.0461 41.0915 11.8537 40.6009 12.7158C40.1108 13.578 39.7841 15.4275 40.212 15.9382C40.6399 16.4488 41.1926 16.8671 40.8501 17.294C40.5076 17.7208 40.3443 18.2484 40.7879 18.617C41.2316 18.9849 41.0994 19.4288 41.0835 19.5126C41.0835 19.5375 40.9903 19.5879 40.8501 19.6631C41.504 20.3578 41.7296 21.1277 42.1031 21.4373C42.5932 21.8557 42.7412 22.0736 43.0838 21.8557C43.4263 21.6468 43.675 21.4877 43.9706 21.6972C44.2667 21.9061 44.6556 21.4877 45.0993 21.0609C45.5429 20.6425 46.033 21.0105 46.181 20.4834C46.3286 19.9558 46.5778 19.6377 47.1148 19.529C47.6517 19.4288 47.6517 18.7925 47.3092 18.7925C46.9667 18.7925 46.4766 19.2697 46.4766 18.583C46.4766 17.8969 46.033 18.056 46.033 17.47C46.033 16.8841 45.9861 16.5156 45.3949 16.1476C44.8037 15.7791 46.181 15.62 46.4766 15.9382C46.7722 16.2563 47.8071 15.9885 47.9009 16.4658C48.0021 16.9424 48.539 17.1015 48.539 16.5156C48.539 15.9297 49.1772 15.7208 49.6672 15.8294C50.1578 15.9381 51.239 15.1433 51.6827 14.9843C51.9161 14.9005 51.9941 14.6072 52.1264 14.3564C51.7997 13.8792 51.2859 13.1427 51.0525 12.9332C50.702 12.6151 51.2859 12.4311 51.2316 11.9878C51.1695 11.544 51.2316 11.2259 51.9941 11.1675C52.7565 11.1002 52.6401 10.4724 52.2275 10.2216C51.8149 9.97022 52.4067 9.2756 52.8193 9.01632C52.99 8.91556 53.216 8.59741 53.4184 8.17056C52.6322 7.85298 51.5114 7.87788 51.0446 7.91128C50.4302 7.95317 51.4413 7.17478 51.4803 6.46318C51.5193 5.76008 49.7373 5.64288 49.0449 5.48381C48.352 5.32473 48.539 4.54632 49.2625 4.50443C49.9865 4.46311 48.8657 3.91851 47.8851 4.06966C46.9045 4.22873 45.5271 4.81409 44.7257 5.28283C43.9242 5.75157 42.5468 3.91851 41.6363 4.30403C40.7258 4.69747 39.4569 4.69749 39.4959 3.91059C39.5349 3.13219 39.1302 2.46249 38.2276 2.54627C37.3171 2.62156 37.5352 1.56689 36.8502 1.56689C36.1652 1.56689 36.8502 2.46248 36.3754 2.69685C35.9007 2.93122 34.2667 3.35807 34.1576 4.06117C34.0485 4.76428 35.0291 5.93612 34.7025 6.63923C34.3752 7.34234 33.2861 6.75642 32.9588 6.01143C32.6322 5.26643 33.9004 4.13647 33.6828 3.70962C33.5348 3.40845 33.3403 2.85593 33.4647 2.48739C33.2623 2.55419 33.0837 2.66344 32.9667 2.83045L32.9588 2.84743Z" fill="#6B6B6B" stroke="#1C1D20" stroke-width="0.5" stroke-miterlimit="10"/>
<path d="M57.8162 13.6948C58.0496 14.2055 57.52 14.4568 57.0532 14.5151C56.5863 14.5825 56.7033 15.7204 56.4077 16.0385C56.1116 16.3567 57.5279 17.177 57.7614 17.8716C57.9015 18.282 58.3684 19.1855 58.7341 19.8473C59.0613 19.939 59.3722 20.0143 59.5593 19.9056C60.0029 19.6379 59.6056 18.7423 60.2516 18.7927C60.8897 18.851 61.824 18.4241 62.0727 18.851C62.1196 18.9263 62.1739 19.0016 62.236 19.0768C62.4384 18.7423 62.6645 18.3822 62.7187 18.2566C62.8357 18.0058 62.8357 16.6748 62.5395 15.9129C62.2439 15.1514 62.4853 14.1387 62.8357 13.8205C62.9131 13.7537 63.0222 13.4106 63.1545 12.9164C62.5706 12.6736 62.0105 12.4477 61.5126 12.5151C60.641 12.6323 59.7305 13.0591 59.4033 12.5564C59.0766 12.0463 58.6018 12.1296 58.1661 12.5151C58.1197 12.5564 58.0649 12.5734 58.0027 12.5649C57.8546 13.0251 57.7071 13.4356 57.8235 13.6948H57.8162Z" fill="#6B6B6B" stroke="#1C1D20" stroke-width="0.5" stroke-miterlimit="10"/>
<path d="M52.8128 9.00602C52.4002 9.25738 51.809 9.95199 52.2211 10.2113C52.6337 10.4626 52.7507 11.0989 51.9876 11.1572C51.2252 11.224 51.163 11.5337 51.2252 11.9775C51.2874 12.4214 50.6962 12.6054 51.046 12.9235C51.2795 13.1324 51.7932 13.8695 52.1199 14.3461C52.2369 14.1118 52.3844 13.9278 52.7117 13.9697C53.3961 14.0784 52.8592 15.1919 53.3961 15.4512C53.941 15.719 53.941 16.6145 53.5442 16.9327C53.1474 17.2508 52.9993 19.0001 53.8867 20.0548C54.7735 21.1094 55.4585 20.9504 55.6608 20.6911C55.8553 20.4312 56.5482 20.6911 56.7426 20.2722C56.9371 19.8538 57.1863 20.3225 57.5752 19.8538C57.8012 19.5775 58.2755 19.7281 58.7191 19.8538C58.3614 19.1841 57.8866 18.2885 57.7464 17.8787C57.513 17.184 56.0966 16.3637 56.3922 16.0456C56.6884 15.7274 56.5714 14.589 57.0382 14.5222C57.513 14.4548 58.042 14.204 57.8013 13.7019C57.6843 13.4506 57.8323 13.0322 57.9798 12.572C57.5288 12.5216 56.8596 11.1154 56.4702 11.1154C56.0344 11.1154 55.5286 10.7219 55.6377 10.0607C55.7468 9.39947 54.6181 9.31569 54.0031 8.57918C53.8556 8.40368 53.6454 8.26952 53.404 8.17725C53.1938 8.60466 52.9683 8.91431 52.8049 9.02301L52.8128 9.00602Z" fill="#6B6B6B" stroke="#1C1D20" stroke-width="0.5" stroke-miterlimit="10"/>
<path d="M62.5232 15.9121C62.8194 16.6736 62.8194 18.0045 62.7024 18.2558C62.6402 18.3815 62.4221 18.741 62.2197 19.0761C62.4848 19.4022 62.9206 19.6366 63.683 19.3773C64.6167 19.0591 65.0604 19.6954 65.4029 18.5819C65.6753 17.7118 66.6249 16.5315 67.3404 15.77C67.3331 15.77 67.3251 15.7616 67.3172 15.7531C66.6249 15.4434 65.5742 13.6437 64.5235 13.4094C64.0645 13.3092 63.5977 13.0997 63.1461 12.9072C63.0138 13.4009 62.9047 13.7439 62.8267 13.8113C62.4769 14.1295 62.2355 15.1422 62.5311 15.9036L62.5232 15.9121Z" fill="#6B6B6B" stroke="#1C1D20" stroke-width="0.5" stroke-miterlimit="10"/>
<path d="M27.0454 23.5295C26.4383 22.793 26.0257 22.3492 25.8703 22.5501C25.7149 22.7596 25.0768 22.8349 24.6173 22.5501C24.1662 22.2654 23.9328 21.7383 23.5982 21.7383C23.2789 21.7383 22.1892 21.0686 21.5748 20.5161C21.5748 20.5999 21.5669 20.6837 21.5748 20.759C21.6132 21.1105 21.069 21.3449 20.4461 21.3868C19.8312 21.4287 19.9013 22.1652 19.9013 22.6758C19.9013 23.1865 19.3954 23.1864 19.1778 23.7305C18.9597 24.2745 19.2479 24.3917 18.742 24.6679C18.2362 24.9442 18.0881 25.413 18.3764 25.8817C18.6641 26.3504 18.3374 26.7773 18.2673 27.0535C18.1972 27.3298 18.703 27.447 19.2089 27.9491C19.7147 28.4598 19.7928 27.7566 20.0104 28.1416C20.2285 28.535 19.8628 29.2381 19.2869 29.2381C19.24 29.2381 19.201 29.2546 19.1546 29.2631C19.4582 29.5976 19.6136 29.9492 19.4734 30.1671C19.2089 30.577 18.9834 30.577 19.4734 31.0627C19.964 31.5479 20.306 30.8199 20.7265 31.4307C21.1464 32.0421 21.481 32.4101 21.9015 31.3475C22.3214 30.2843 22.6249 28.7773 23.38 28.535C24.1351 28.2922 25.6911 27.9655 26.6017 26.6601C27.5122 25.3541 27.0301 25.2873 27.5122 24.8689C27.8937 24.5423 27.6682 24.2575 27.0612 23.5295H27.0454ZM1.20117 23.0274C0.477148 24.1992 1.91727 25.3456 2.22078 24.827C2.58646 24.1992 1.93253 21.8555 1.20117 23.0274Z" fill="#6B6B6B" stroke="#1C1D20" stroke-width="0.5" stroke-miterlimit="10"/>
</svg>
