<svg width="141" height="117" viewBox="0 0 141 117" fill="none" xmlns="http://www.w3.org/2000/svg">
<path d="M28.4963 101.745C28.0432 101.226 26.8703 101.337 26.6923 100.85C26.5214 100.362 25.4444 98.6112 24.8582 98.6512C24.2714 98.6912 23.5067 98.7231 22.8159 98.1635C22.1256 97.6038 21.6726 97.5638 21.1899 97.8996C20.7072 98.2354 21.7098 98.3078 21.6726 98.6831C21.6354 99.0589 21.9843 99.2827 22.4001 99.2027C22.8159 99.1308 23.0613 100.059 23.477 100.098C23.8928 100.138 24.0336 100.842 24.5163 100.842C24.9989 100.842 25.103 101.441 25.3479 101.777C25.5932 102.113 26.1428 101.817 26.1428 102.153C26.1428 102.457 26.6993 102.729 26.8331 103.105C27.7838 103.224 28.5928 103.32 29.3057 103.105C29.3057 102.873 29.3651 102.609 29.4691 102.409C29.714 101.921 28.9493 102.257 28.4963 101.737V101.745ZM27.3157 42.4488C28.5631 42.7446 28.6969 45.1351 29.536 45.1351C30.0931 45.1351 29.6773 44.3916 30.5758 44.3916C31.4742 44.3916 31.2661 43.872 32.0976 43.9439C32.9292 44.0158 33.6201 43.72 33.6201 42.6727C33.6201 41.6253 34.2435 41.2576 35.0756 41.0338C35.9072 40.8099 35.142 39.6907 36.323 39.3949C37.5035 39.0991 40.763 37.604 41.3126 37.1563C41.8696 36.7086 40.6223 36.1095 39.3749 35.2936C38.1275 34.4706 37.1546 34.2467 36.1893 34.9183C35.2164 35.5893 35.9811 34.1743 35.2164 34.5425C34.4517 34.9183 32.3727 33.9429 32.0976 33.5752C31.8231 33.1994 28.0734 34.3981 27.175 34.3981C26.276 34.3981 27.2413 35.4455 27.8653 35.9651C28.4892 36.4848 26.3429 38.1318 26.7586 38.4995C27.175 38.8753 26.3429 39.8426 25.3705 41.0338C24.3976 42.225 26.0608 42.1531 27.3082 42.4488H27.3157ZM61.9777 48.5648C62.3935 48.0452 64.1236 49.6122 64.198 48.4929C64.2649 47.3737 62.2598 46.854 61.4282 46.2544C60.5966 45.6547 60.2477 45.9586 58.9334 44.9112C57.6192 43.8639 59.2823 43.3443 58.3095 42.5207C57.3371 41.6972 56.9952 39.4592 57.686 38.7157C58.3763 37.9723 59.1411 36.853 57.8937 36.3252C56.6463 35.8056 54.6342 36.773 54.8418 37.0687C55.05 37.3645 56.78 38.4119 56.78 38.8596C56.78 39.3073 55.1837 37.5884 54.6342 37.9641C54.0771 38.3399 53.4531 37.2207 52.9705 37.9641C52.4883 38.7076 53.5944 41.322 54.0102 42.0655C54.426 42.8089 53.5944 42.8089 53.0373 42.9609C52.4808 43.1123 52.4139 40.8743 51.8568 40.0508C51.2997 39.2273 49.087 38.2599 48.9463 38.8596C48.805 39.4592 50.3349 39.4592 50.1268 40.2746C49.9186 41.0981 49.087 39.755 48.3223 40.4266C47.5576 41.0981 47.6989 40.6504 47.8396 39.9789C47.9809 39.3073 46.7335 38.5638 45.3449 38.7076C43.9562 38.8596 44.7209 39.8988 44.3051 40.2746C43.8893 40.6504 41.8103 40.0508 43.1246 39.755C44.4388 39.4592 43.8893 38.6357 43.3991 37.8122C42.9164 36.9887 41.5951 37.9641 39.4488 38.7795C37.3029 39.6031 36.33 40.4985 36.6051 40.5704C36.8796 40.6423 36.954 41.0181 36.1224 41.7616C35.2908 42.5051 36.1224 43.1766 36.8871 43.1766C37.6518 43.1766 36.9761 43.832 37.5111 44.0001C37.9937 44.1521 40.4961 42.9528 41.1864 43.4805C41.8772 44.0001 37.0953 44.304 37.0953 45.1989C37.0953 46.0943 39.7313 46.6139 41.669 46.2463C43.6072 45.8705 47.008 46.542 47.008 47.0698C47.008 47.5975 44.7209 47.4456 42.9908 47.3655C41.2608 47.2936 38.2758 47.8852 38.4171 48.4848C38.5729 49.1564 38.766 49.1564 40.5629 50.0518C42.3674 50.9472 44.2382 49.6041 44.1643 50.8753C44.0975 52.1465 45.1367 52.4423 47.5576 52.5142C49.9855 52.5861 51.0921 51.323 52.2726 51.3949C53.4531 51.4669 54.0027 51.243 54.5598 50.3476C55.1168 49.4522 55.5995 49.9718 55.7403 50.4195C55.8816 50.8672 57.4035 50.7953 57.7529 51.163C58.6363 52.1146 61.5619 51.8345 62.6756 51.2349C63.7822 50.6352 62.1929 48.9969 61.6364 49.7404C61.0793 50.4838 60.5966 50.0361 60.4553 49.6679C60.3146 49.2926 61.5619 49.0688 61.9777 48.5492V48.5648ZM35.6322 30.2092C36.8796 30.3611 38.1275 29.1619 38.0606 28.4904C37.9937 27.8188 35.0158 30.1373 35.6322 30.2092ZM29.8849 28.1146C30.3676 28.3385 29.8849 29.3858 30.442 29.082C30.9986 28.7862 31.1323 28.7062 31.5481 28.8581C32.2983 29.1299 32.4466 28.4104 32.796 28.0346C33.145 27.6589 33.0037 29.3778 33.9021 29.3778C34.6668 29.3778 34.5261 27.5869 35.2164 28.1066C35.9072 28.6262 36.1149 27.8828 36.2561 27.3631C36.3969 26.8434 36.3969 25.9481 37.1546 25.7961C37.9193 25.6443 37.2954 26.6196 37.6373 27.2912C38.142 28.2665 39.026 27.3631 39.0928 26.9154C39.1592 26.4677 40.4071 26.7635 40.3402 26.2439C40.2733 25.7242 40.6891 25.5723 40.3402 24.9727C39.9913 24.3731 40.8968 24.525 41.3126 24.0773C41.7284 23.6296 40.756 24.0054 40.0652 23.3338C39.3749 22.6623 39.0928 23.5576 39.0928 24.0054C39.0928 24.4531 37.778 24.0773 37.0133 23.7815C36.2486 23.4857 35.2833 24.7489 34.1696 25.3485C33.063 25.9481 32.9891 26.9873 31.9493 26.9154C30.9096 26.8434 29.3877 27.8828 29.8704 28.1066L29.8849 28.1146ZM40.6967 27.7469C39.7238 27.8188 39.7982 28.8661 40.9043 28.8661C42.0109 28.8661 42.3599 29.2418 40.763 29.1619C39.1667 29.09 38.4764 30.577 39.5825 30.2811C40.6891 29.9854 42.0109 29.9854 41.1794 30.2811C40.3472 30.577 38.0827 30.7848 38.4095 31.2485C38.6172 31.5443 39.5156 31.4723 40.4216 31.8481C41.3201 32.2239 41.8772 32.4478 42.5675 31.6243C43.2583 30.8008 44.1643 29.9854 43.8149 31.1046C43.466 32.2239 44.9215 31.4004 46.7929 31.3285C48.6642 31.2565 46.4439 32.5197 44.5057 32.6716C42.5675 32.8236 42.9094 33.8628 44.4388 34.2386C45.9613 34.6144 49.2208 33.1913 49.9855 32.3759C50.7507 31.5524 51.441 32.8236 52.2057 32.2239C52.9705 31.6243 54.426 32.2958 55.7403 32.0001C57.0545 31.7043 57.2627 29.018 56.2974 28.5703C55.3245 28.1226 55.3245 29.09 54.5673 29.2418C53.8026 29.3937 53.3868 28.3465 52.7628 27.6749C52.1389 27.0033 52.5547 25.7322 51.6562 25.8841C50.7653 26.036 48.8125 27.6029 49.993 27.7469C51.1735 27.8988 50.7577 28.5703 50.1343 28.8661C49.5104 29.1619 51.5893 29.6896 51.3148 30.1373C51.0403 30.585 47.8472 30.2092 47.7134 29.4657C47.5727 28.7222 45.0774 27.3791 44.0381 27.6749C42.9984 27.9707 43.4142 26.7795 42.3744 26.7076C41.3352 26.6356 41.6841 27.6749 40.7112 27.7548L40.6967 27.7469ZM44.2975 22.3664C44.647 21.4711 42.0034 21.623 42.2186 21.9187C42.7012 22.5903 43.9486 23.2619 44.2975 22.3664ZM50.0523 21.9987C50.9508 21.8468 50.535 21.1033 49.08 21.3271C47.6244 21.551 45.1297 21.551 45.1297 22.6703C45.1297 23.5656 45.6123 24.0134 47.2086 24.1652C48.805 24.3171 50.1936 22.6703 49.4289 22.6703C48.6642 22.6703 49.1539 22.1506 50.0523 21.9987ZM46.6591 20.5757C47.3494 20.8715 48.0478 19.9041 48.5305 20.3518C49.0131 20.7995 51.1665 21.1753 51.1665 19.9761C51.1665 18.7769 48.4636 18.633 47.7728 19.0806C47.0825 19.5283 43.8893 19.6802 44.7953 20.4238C45.3449 20.8794 45.9758 20.2719 46.6667 20.5757H46.6591ZM58.2356 18.2652C59.0672 17.6656 60.5891 18.6409 60.3146 19.3125C60.0395 19.9841 57.6413 19.1766 57.8198 19.7602C57.8861 19.9841 58.1687 20.8794 59.8319 20.3598C61.4951 19.8402 62.8838 20.2079 63.9898 21.1833C65.0965 22.1506 66.1362 22.5263 66.9009 21.559C67.6657 20.5917 65.9281 20.4397 66.277 19.6962C66.6259 18.9528 65.1709 18.505 64.4062 18.505C63.6409 18.505 63.3664 17.01 62.7425 17.3139C62.119 17.6096 61.7032 18.1373 61.7032 17.162C61.7032 16.1866 58.1018 16.1147 57.1958 16.4904C56.2974 16.8661 57.4035 18.8808 58.2356 18.2812V18.2652ZM58.7182 24.533C59.2748 23.7895 56.498 21.3991 56.3642 22.5183C56.2229 23.6376 58.1315 25.3245 58.7182 24.533ZM67.7325 14.7556C68.2152 13.8602 64.8069 13.1566 65.6536 13.9321C66.1362 14.3798 67.2499 15.6509 67.7325 14.7556ZM59.8988 31.6962C60.3814 31.0966 58.859 29.8334 58.4432 30.8727C58.0274 31.92 59.4085 32.304 59.8988 31.6962ZM67.7325 26.4757C67.6657 27.2192 66.0694 26.3238 64.822 25.8041C63.574 25.2845 64.3393 26.8515 65.3046 27.7469C66.277 28.6422 64.822 28.1945 63.5002 27.2272C62.1859 26.2599 62.3191 27.8988 62.9431 28.4184C63.567 28.9381 62.8018 29.6896 61.9702 28.4904C61.1386 27.2992 60.7228 26.028 59.4086 25.956C58.0943 25.8841 58.688 27.3311 59.2009 28.0426C59.8912 29.01 60.5891 29.2338 61.6957 29.9054C62.8018 30.577 64.6063 29.6096 65.4378 29.8334C66.2694 30.0573 64.5394 31.1766 65.0889 31.92C65.646 32.6635 67.1684 32.1439 68.3489 32.072C69.5295 32.0001 68.9724 31.2485 69.6632 30.7289C70.3535 30.2092 68.9724 30.2811 69.5219 29.01C70.079 27.7389 67.7919 25.7242 67.7174 26.4757H67.7325ZM70.6431 22.0707C71.6829 22.0707 72.5145 21.9187 73.4129 21.551C74.3114 21.1753 72.9303 21.1753 73.5542 20.2798C74.1776 19.3845 72.0318 19.3125 71.8905 19.6083C71.7497 19.9041 69.0468 17.8175 68.631 18.489C68.2152 19.1606 69.6039 22.0707 70.6431 22.0707ZM76.2571 22.4464C76.1159 21.9987 70.8658 22.6782 71.6829 23.3418C73.0715 24.4611 76.3979 22.8941 76.2571 22.4464ZM75.4994 33.3432C76.7468 33.2713 76.1234 31.6243 74.7347 30.505C73.346 29.3857 70.2349 31.6881 70.7844 32.1439C71.4084 32.6635 74.2521 33.4151 75.4994 33.3351V33.3432ZM66.6259 43.792C68.1483 44.9112 67.6657 42.8965 69.3957 42.9685C71.1258 43.0404 71.2002 39.9864 71.4747 38.8671C71.7497 37.7484 70.0866 37.8203 70.5023 38.6433C70.9181 39.4668 70.4355 40.2822 70.2942 39.3148C70.1534 38.3475 68.8392 39.2429 68.3565 38.4919C67.8738 37.7484 69.8784 37.6684 70.3686 36.701C70.8513 35.7337 68.7723 35.8775 69.262 35.1341C69.7446 34.3906 66.2101 35.206 67.2499 35.6537C68.2896 36.1014 67.3167 36.701 66.3514 35.9494C65.3785 35.206 62.6907 36.4529 63.6485 37.2926C64.4132 37.9641 66.7003 36.8449 65.3785 38.7877C64.0643 40.7299 63.5072 38.268 62.2598 38.4919C61.0124 38.7157 61.5695 40.3546 63.4408 40.9538C65.3116 41.5534 65.104 42.6727 66.6259 43.792ZM77.9203 31.8481C78.403 33.3432 78.9595 32.2958 79.7248 32.8955C80.4895 33.4951 81.6625 33.8628 82.2865 33.2713C82.9099 32.6716 83.1849 32.2239 83.3925 32.7517C83.7345 33.599 85.2639 33.719 88.5908 33.799C91.9172 33.8709 91.0856 32.304 92.0584 32.9036C93.0308 33.5033 95.2511 33.5033 96.2164 33.2794C97.1893 33.0555 97.672 31.4166 97.6051 30.5929C97.5382 29.7695 90.1202 29.098 88.7984 29.9214C87.4842 30.7449 85.4052 29.5457 84.3654 30.1453C83.3262 30.7449 83.6751 29.4017 81.8038 29.3218C79.9324 29.2498 81.9451 28.2025 82.2865 27.7548C82.6354 27.3072 79.4422 26.1159 78.128 26.4117C76.8137 26.7076 76.049 25.964 74.8016 25.3644C73.5542 24.7648 70.168 24.9088 70.8513 25.964C71.3339 26.7076 75.3587 28.2745 75.7745 27.531C76.1903 26.7875 77.2295 28.4264 77.8535 29.2498C78.4769 30.0733 77.4377 30.3691 77.9203 31.8644V31.8481ZM81.4549 23.046C80.2075 22.3744 78.6403 23.7975 79.9324 24.3171C81.0391 24.7648 82.7022 23.7175 81.4549 23.046ZM71.4747 14.6836C72.4999 15.2352 71.8905 15.9548 72.9971 16.4744C74.1038 16.9941 77.2964 15.8029 77.5714 16.6263C77.8459 17.4497 74.3114 17.5217 74.8016 18.0413C75.2843 18.561 77.2964 19.3845 77.0219 19.8322C76.7468 20.2798 80.3482 21.551 80.6972 20.9514C81.0461 20.3518 82.0114 20.5037 82.9174 20.8794C83.8159 21.2552 83.8903 18.569 84.5143 19.0167C85.1377 19.4644 85.0708 18.0493 86.1106 17.6017C87.1498 17.154 88.6501 17.146 88.7466 16.6343C88.8135 16.2585 88.4716 15.7389 87.2242 15.8908C85.9768 16.0427 85.1452 15.5151 85.7023 14.7715C86.2589 14.028 84.3137 13.8042 85.0115 13.2046C85.7023 12.605 83.6972 12.0134 83.9049 12.9088C84.113 13.8042 82.6575 12.9807 82.4499 12.1653C82.2417 11.3418 79.398 11.0461 77.5266 9.25527C75.6553 7.46442 73.7176 8.65567 74.8237 8.87947C75.9303 9.10333 75.8635 9.70292 74.965 9.62301C74.0665 9.55104 72.4697 9.69492 73.9252 10.2945C75.3808 10.8942 73.7845 11.118 72.611 11.118C71.438 11.118 71.3636 12.7569 72.886 12.9807C74.4079 13.2046 73.3018 14.1719 72.0539 13.8042C70.8065 13.4284 70.3907 14.1 71.4974 14.6996L71.4747 14.6836ZM79.8656 7.29653C80.8384 6.62502 81.5956 7.07273 80.764 7.52039C79.9324 7.9681 80.2075 8.26392 81.388 8.19195C82.5685 8.11998 80.9053 8.5677 80.9053 9.31123C80.9053 10.0547 82.294 9.607 82.3609 10.3585C82.4272 11.102 85.4127 11.4058 86.3112 10.5104C87.2097 9.615 86.8677 10.7342 86.7939 11.3338C86.727 11.9334 91.0187 12.4531 91.2269 11.7096C91.4345 10.9661 92.0584 11.2619 92.89 11.4858C93.7216 11.7096 97.8132 10.6623 97.8796 9.76689C97.9464 8.87152 99.1944 10.2146 97.8796 11.1819C96.5653 12.1493 93.9293 12.0054 92.7487 12.3731C91.5682 12.7409 93.5135 13.6443 94.687 14.6116C95.8675 15.579 93.1645 15.0593 92.0509 13.7882C90.9443 12.5171 88.4495 12.5171 87.1277 12.597C85.8134 12.669 86.2292 15.2832 87.1946 15.2832C88.1599 15.2832 89.1328 15.6589 90.1057 17.2978C91.078 18.9368 93.157 18.569 93.157 19.3125C93.157 20.056 90.4546 18.7129 88.9246 18.4171C87.4027 18.1213 84.9743 19.1606 84.9074 20.3598C84.8405 21.551 87.1277 21.4071 88.6501 20.4318C90.172 19.4644 89.0659 20.7275 88.3012 21.479C87.5359 22.2226 90.1057 22.8222 90.1057 23.7175C90.1057 24.6129 88.2343 24.3171 88.0261 23.4937C87.8185 22.6703 87.1277 21.8548 85.3232 21.9987C83.5193 22.1506 84.009 23.4937 85.1156 23.6376C86.2217 23.7895 86.2961 24.6849 85.0487 24.6849C83.8013 24.6849 80.9867 25.5243 81.8631 26.4037C82.836 27.3711 86.3705 26.4037 86.9939 27.0033C87.6179 27.6029 89.348 27.8268 89.7637 27.1552C90.1795 26.4837 91.5682 26.7795 92.9494 26.7795C94.3305 26.7795 94.6794 27.0033 95.3034 27.6029C95.9268 28.2025 97.0334 27.9787 97.7981 27.3791C98.3078 26.9794 98.8848 26.7795 99.5282 26.7795C100.501 26.7795 100.709 26.108 100.219 25.2845C99.7364 24.4611 98.489 25.8841 98.3477 25.2845C98.1767 24.549 97.0334 24.3171 95.0877 24.613C93.15 24.9088 93.9816 23.2699 95.1545 23.6456C96.3356 24.0214 97.9243 23.8695 99.2461 23.4937C100.56 23.1179 99.5206 22.4464 99.5206 21.8548C99.5206 21.2632 101.184 21.631 102.432 21.631C103.679 21.631 105.484 19.4644 105.55 18.2013C105.617 16.9301 102.781 17.2339 101.392 17.2339C100.003 17.2339 102.29 16.1147 104.927 16.2665C107.563 16.4184 106.382 15.1473 106.865 14.6996C107.347 14.2519 108.595 15.2192 109.917 14.9235C111.231 14.6276 110.332 13.4284 111.231 13.4284C111.869 13.4284 113.31 12.3811 116.154 10.6703C118.998 8.95144 121.21 9.25527 121.352 8.27987C121.493 7.31254 117.401 8.27987 116.704 7.9841C116.013 7.68828 119.547 6.86482 120.379 7.08868C121.21 7.31254 122.317 7.08868 125.161 5.59372C128.005 4.0987 126.758 3.73095 125.577 3.95481C124.396 4.17867 123.082 3.73095 123.149 2.9075C123.216 2.08405 121.411 2.83553 121.344 2.38782C121.277 1.94016 119.614 2.16402 117.81 2.9075C116.005 3.65098 117.668 2.16402 118.434 1.86019C119.198 1.56442 113.859 1.86019 112.953 1.18863C112.055 0.517113 111.016 2.3079 110.184 1.41248C109.352 0.517114 107.206 1.26059 107.481 1.93216C107.756 2.60367 107.132 2.60367 106.3 1.86019C105.469 1.11671 103.872 1.93216 102.417 1.70831C100.962 1.48445 101.585 2.97947 99.9887 2.22793C98.3924 1.48445 96.6618 1.85219 97.1445 2.07605C97.6272 2.2999 97.0038 2.74761 96.3129 2.52376C95.6226 2.2999 94.9987 2.59573 95.3406 3.34721C95.6895 4.09069 92.7784 3.12335 92.7784 3.94681C92.7784 4.77026 91.7392 5.21797 90.9076 4.46643C90.0755 3.72295 87.4394 3.4991 88.2047 4.17066C88.9694 4.84218 85.8506 4.46643 86.6822 5.138C87.5138 5.80957 85.6425 6.32919 85.6425 5.96145C85.6425 5.59371 83.9124 4.91415 83.2146 5.58571C82.5237 6.25722 82.3161 7.08068 81.9672 6.63302C81.6183 6.18531 80.0958 6.3372 78.6403 6.92879C77.1853 7.52839 78.8485 7.9761 79.8213 7.30453L79.8656 7.29653ZM97.3306 71.7015C97.8132 71.6295 98.7856 69.7587 97.5382 69.8387C96.2908 69.9106 96.5729 71.8215 97.3306 71.7015ZM91.2339 70.0626C92.3405 70.806 94.0037 68.7913 93.8699 68.1998C93.7292 67.6001 89.8975 69.1671 91.2339 70.0626ZM96.2239 65.9612C96.3652 65.2178 93.9368 64.9139 94.0781 64.0985C94.2188 63.275 91.791 62.6034 91.0262 62.1557C90.2615 61.708 89.088 61.4841 89.088 60.5887C89.088 59.6933 87.4248 60.3648 87.358 61.708C87.2911 63.0511 86.5932 62.7553 86.9422 64.0185C87.2911 65.2897 85.4197 65.5854 85.6279 66.257C85.8355 66.9286 86.734 66.1851 87.5661 66.1851C88.3977 66.1851 87.3429 67.4325 88.3977 67.5282C89.2293 67.6001 90.6843 66.5609 91.0338 65.9612C91.3827 65.3616 92.073 65.1377 93.0459 65.8893C94.0188 66.6328 96.0978 66.7128 96.2315 65.9612H96.2239ZM118.894 59.3894C119.725 59.4619 119.867 60.5887 121.181 61.7799C122.495 62.9711 122.636 62.1557 122.844 61.3322C123.052 60.5087 124.508 61.1802 124.441 60.3648C124.374 59.5413 125.621 58.574 126.453 58.1982C127.285 57.8229 125.762 56.9275 124.648 56.9994C123.542 57.0714 123.334 56.256 123.334 55.7282C123.334 55.2005 121.255 53.9374 120.564 54.1612C119.874 54.3851 118.694 53.1939 117.795 53.1139C116.897 53.042 115.575 52.2904 115.716 51.2511C115.857 50.2038 117.52 51.5469 117.861 50.7315C118.211 49.908 116.131 50.3557 116.058 49.7642C115.991 49.1645 116.54 49.3884 116.956 49.0207C117.372 48.6449 116.607 47.9014 116.124 47.6056C115.642 47.3098 115.5 48.2053 115.018 48.2053C114.535 48.2053 114.951 47.3818 115.292 46.8621C115.642 46.3425 113.696 45.7429 112.864 46.0386C112.033 46.3344 111.758 45.8148 111.758 45.2151C111.758 44.6155 110.303 45.2151 109.746 45.6628C109.189 46.1105 108.498 45.2151 109.189 45.1432C109.879 45.0713 110.711 44.4716 110.503 43.8001C110.295 43.1285 108.491 43.0566 108.149 43.872C107.8 44.6955 106.345 42.9766 106.345 42.305C106.345 41.6334 104.125 42.2331 104.407 41.1138C104.682 39.9945 101.845 39.6988 101.08 39.6988C100.316 39.6988 99.2089 40.3703 99.3502 41.1138C99.491 41.8573 98.5186 41.5615 98.3773 40.738C98.2361 39.9145 96.3652 41.6334 95.8157 41.6334C95.2662 41.6334 96.1646 39.4668 95.8826 38.7952C95.6075 38.1237 95.1917 37.8998 94.7759 36.7805C94.3601 35.6618 92.2812 36.1095 91.7241 36.7805C91.167 37.4521 89.3701 37.1563 88.3977 38.1961C87.4248 39.2429 88.4646 40.2822 88.8804 40.658C89.2962 41.0338 87.4248 41.6253 88.0488 42.225C88.6722 42.8246 89.6451 42.5207 89.712 43.4962C89.7789 44.4635 87.4248 43.2004 87.0759 42.3769C86.727 41.5534 87.2167 40.8099 86.727 40.2103C86.2443 39.6112 86.6601 38.8671 87.5586 37.8203C88.457 36.773 89.1549 36.9249 89.1549 36.3252C89.1549 35.7256 85.2714 35.7256 82.9843 37.9641C80.6972 40.2027 81.388 43.1923 81.5287 43.7839C81.67 44.3835 83.6751 44.0802 84.8556 44.4554C86.0362 44.8312 85.4127 45.3508 84.5067 45.1989C83.6083 45.0475 82.0783 44.7512 82.1527 45.4228C82.2196 46.0943 84.0909 47.3655 85.2046 47.0617C85.9423 46.8648 86.4746 46.9897 86.8009 47.4375C87.2835 48.109 88.6053 47.8852 89.9196 47.9571C91.2339 48.029 92.7638 48.5567 93.3873 48.6287C94.0112 48.7006 94.7759 48.2529 94.9841 47.8852C95.1917 47.5094 97.7534 48.4848 98.5186 48.4048C99.2834 48.3329 98.7931 47.5818 98.3105 47.358C97.8278 47.1341 98.036 46.1662 98.6594 46.5345C99.2833 46.9103 100.323 47.1341 100.531 47.8051C100.709 48.3729 101.295 48.1015 101.362 48.6287C101.429 49.1483 103.649 49.7479 103.716 50.3476C103.783 50.9472 101.571 51.243 102.194 51.7626C102.818 52.2823 103.79 51.0911 104.622 51.0191C105.454 50.9472 105.454 52.9619 106.077 52.658C106.924 52.2503 107.6 53.0338 108.431 54.297C109.263 55.5682 108.365 56.7594 108.431 57.2071C108.498 57.6548 110.095 57.5028 110.993 56.9832C111.892 56.4636 112.723 57.5829 113.421 58.2544C114.112 58.926 110.859 60.0453 111.134 59.4456C111.409 58.846 109.196 57.0551 107.184 57.8786C105.171 58.7022 106.56 59.9734 106.768 60.7169C106.976 61.4603 104.964 62.2119 103.092 61.5404C101.221 60.8688 101.778 61.9881 101.013 61.9881C100.249 61.9881 99.4171 63.2593 100.115 64.0823C100.805 64.9058 102.335 64.1547 103.583 64.2342C104.83 64.3142 104.971 64.6819 105.105 63.9384C105.246 63.1949 106.56 63.5626 107.459 63.7865C108.357 64.0103 108.149 65.3535 109.263 65.5054C110.37 65.6574 109.471 66.8485 110.161 67.6721C110.852 68.4956 113.073 68.0479 113.904 68.9433C114.736 69.8387 118.263 71.6214 118.76 70.958C119.317 70.2145 115.708 66.7766 114.669 66.4809C113.629 66.1851 115.708 65.8093 117.023 66.9286C118.337 68.0479 120.282 68.5675 121.248 67.2243C122.221 65.8812 120.416 66.257 120.416 65.2816C120.416 64.3061 119.792 62.9711 118.82 62.9711C117.847 62.9711 115.352 60.8845 116.258 60.4368C117.156 59.989 115.983 59.3894 116.673 58.574C117.364 57.7505 118.062 59.3175 118.894 59.3975V59.3894ZM104.266 55.8083C105.097 55.6563 104.942 54.2813 104.474 53.5697C104.125 53.0501 103.226 52.97 102.461 53.0501C101.697 53.122 100.382 54.3932 101.073 55.6639C101.764 56.9351 103.427 55.9602 104.258 55.8158L104.266 55.8083ZM95.6 36.4053C95.1842 37.3726 96.4984 37.3726 96.5729 38.4919C96.6397 39.6112 97.9615 39.9864 98.9269 39.3148C99.8998 38.6433 102.669 39.5149 102.669 38.6433C102.669 37.8203 99.7585 36.3334 98.7187 36.5572C97.6795 36.7805 96.0163 35.4379 95.6 36.4053ZM121.597 99.9224C121.738 100.522 125.755 102.313 125.896 101.489C126.037 100.666 121.478 99.4109 121.597 99.9224ZM139.18 104.376C138.905 104.919 138.489 103.976 139.091 103.48C139.693 102.984 138.995 102.784 138.445 103.08C137.888 103.376 138.029 101.737 138.534 101.441C139.039 101.145 137.287 100.546 137.287 101.09C137.287 101.633 136.039 101.289 135.898 100.794C135.757 100.298 134.881 100.146 135.207 99.8024C135.534 99.459 134.146 99.2589 134.005 99.8505C133.863 100.45 133.448 99.4509 134.146 98.6593C134.836 97.8601 134.606 97.1642 135.252 96.7646C135.898 96.3651 135.207 95.9173 134.509 96.2212C133.819 96.517 131.97 99.2589 131.97 100.002C131.97 100.746 131.926 101.641 131.28 101.593C130.634 101.546 129.891 102.193 130.403 102.592C130.908 102.993 129.059 104.119 129.943 104.631C130.545 104.975 131.517 104.48 132.349 104.583C133.181 104.679 133.871 104.735 134.569 104.184C135.26 103.632 135.26 104.679 136.002 104.583C136.745 104.488 135.586 105.231 135.631 105.775C135.675 106.326 136.418 105.479 136.975 105.175C137.532 104.879 138.222 105.175 137.947 105.671C137.673 106.167 139.47 106.662 139.886 105.87C140.301 105.071 139.47 103.832 139.195 104.376H139.18ZM13.883 90.6567C12.6356 91.3683 15.6357 94.7818 16.2591 94.3503C16.69 94.0546 15.5165 92.6314 15.5165 91.7522C15.5165 90.8725 15.1304 89.9452 13.883 90.6567ZM128.116 107.685C127.633 107.757 128.012 106.942 128.079 106.526C128.146 106.118 127.04 106.71 127.002 107.198C126.965 107.685 126.208 107.869 126.208 108.165C126.208 109.036 126.104 108.573 125.547 108.877C124.99 109.172 122.844 108.877 122.777 108.357C122.711 107.837 121.151 107.574 121.077 106.862C121.01 106.15 120.245 105.926 120.869 105.143C121.493 104.36 120.765 103.984 120.178 104.583C119.592 105.183 119.243 104.248 120.038 103.912C120.832 103.576 122.325 103.24 121.559 101.745C120.795 100.25 116.013 102.193 114.803 102.936C113.592 103.68 112.062 106.07 111.409 106.07C110.756 106.07 112.553 104.799 112.827 104.319C113.102 103.832 112.76 103.352 113.139 103.536C113.518 103.72 114.594 101.929 115.322 101.337C116.05 100.738 116.844 101.306 116.948 100.818C117.053 100.33 117.401 99.9943 118.092 99.3227C118.783 98.6512 127.069 98.7631 127.864 98.8031C128.658 98.8431 130.218 97.6839 130.671 96.9404C131.124 96.1969 131.71 96.1969 132.817 96.2688C133.923 96.3407 134.443 95.2614 135 94.8538C135.557 94.4461 135.349 94.2541 134.858 94.1422C134.376 94.0302 133.923 93.6945 134.405 93.6544C134.888 93.615 135.133 93.3187 135.341 92.6471C135.549 91.9761 135.171 92.2718 134.509 91.344C133.849 90.4091 133.507 91.6403 132.846 91.5678C132.186 91.4959 133.299 90.6005 132.742 90.2252C132.186 89.8494 131.146 90.1133 130.314 90.8568C129.483 91.6003 129.55 90.8168 128.822 91.5678C128.094 92.3119 128.094 91.1926 128.443 90.8963C128.792 90.6005 129.03 90.9287 129.341 90.4886C129.653 90.0409 129.965 90.4886 130.76 89.9289C131.554 89.3698 132.252 89.6332 132.49 89.2179C132.735 88.8102 132.111 88.2505 131.347 88.4344C130.581 88.6182 130.062 87.3151 129.579 87.6909C129.097 88.0662 129.2 87.1313 128.644 87.5071C128.086 87.8823 127.775 87.3951 127.537 86.6836C127.292 85.972 125.807 84.8208 124.901 84.5169C124.002 84.2212 124.589 83.6934 125.072 84.0692C125.554 84.445 126.112 83.6934 126.319 83.3257C126.527 82.9499 125.97 82.6142 125.696 82.5823C125.421 82.5422 125.421 82.0545 125.488 81.6868C125.554 81.311 124.515 80.8233 124.485 80.4556C124.448 80.0798 123.862 79.8241 123.899 79.4883C123.936 79.1525 123.312 78.6648 123.312 78.2171C123.312 77.7694 122.272 76.8739 122.235 76.3543C122.198 75.8347 121.649 75.4589 121.441 74.8273C121.233 74.1958 120.958 74.4915 120.75 75.387C120.542 76.2824 119.815 76.2505 120.022 76.5463C120.446 77.1616 120.126 77.1778 119.815 77.5536C119.503 77.9294 120.022 78.489 119.503 78.489C118.983 78.489 119.228 79.6483 118.946 79.1206C118.671 78.601 118.01 78.7448 118.01 79.2725C118.01 79.7997 116.904 80.2799 116.451 80.2399C115.998 80.1999 115.998 79.1925 115.619 79.4964C115.241 79.7922 115.307 78.641 114.721 78.6729C114.134 78.7129 113.718 78.6329 113.889 78.0732C114.06 77.5136 112.886 77.2497 113.266 76.9139C113.644 76.5782 113.162 75.9785 113.095 75.0112C113.028 74.0438 113.615 73.9638 113.615 73.5961C113.615 73.2284 113.199 73.2203 112.783 73.5242C112.367 73.82 112.367 73.1165 111.914 73.1484C111.461 73.1884 110.11 73.1084 110.043 72.4368C109.976 71.7653 109.523 72.1011 109.315 71.4695C109.107 70.8379 108.55 71.3176 108.55 70.8698C108.55 70.4221 108.305 70.2383 107.889 70.1983C107.474 70.1583 107.332 69.6786 106.783 69.5986C106.226 69.5267 105.535 70.0063 105.224 70.1583C104.912 70.3102 104.117 69.6386 103.805 69.8944C103.494 70.1583 103.427 69.7105 102.558 69.4467C101.689 69.1834 100.545 69.1109 100.479 69.4467C100.412 69.7825 99.7137 69.8944 99.8178 70.6779C99.9219 71.4614 100.649 71.3094 100.82 71.8372C100.991 72.3568 100.471 72.173 100.442 72.6607C100.405 73.1484 99.9591 73.1084 99.9591 73.4442C99.9591 73.78 100.271 73.7081 100.442 74.3796C100.612 75.0512 100.962 75.0112 101.065 75.9066C101.169 76.802 100.791 76.6182 100.442 76.7301C100.093 76.842 100.479 77.2897 99.9887 77.8894C99.5061 78.489 99.0903 79.1206 99.4689 79.4964C99.8475 79.8722 101.273 80.5037 101.823 81.5111C102.379 82.5179 102.343 84.0849 102.172 85.2042C102.001 86.3234 100.82 86.5873 99.9515 87.5547C99.0827 88.522 98.1843 88.3782 97.7685 88.4101C97.3527 88.4501 97.5975 89.3455 98.1843 90.049C98.771 90.7605 98.2884 90.9844 98.6001 91.7279C98.9118 92.4714 98.6001 93.071 99.0531 93.7426C99.5061 94.4142 99.224 94.678 98.7042 95.1576C98.1843 95.6454 98.9118 95.3815 98.949 96.013C98.9862 96.6446 98.7042 96.2769 98.2587 95.9411C97.8057 95.6053 97.3899 96.5727 97.3899 96.9885C97.3899 97.4043 96.3129 96.4288 96.0756 96.4689C95.8303 96.5089 96.1425 95.8373 95.5185 95.3096C94.8946 94.7899 94.4119 94.678 94.4119 94.1503C94.4119 93.6225 93.3355 93.2549 93.3355 92.6552C93.3355 92.0556 93.4768 90.5286 93.2314 90.0809C92.9866 89.6332 93.1942 89.146 93.4024 88.7377C93.61 88.33 93.157 87.6909 92.5336 87.6909C91.9096 87.6909 91.0408 87.4671 90.1796 87.539C89.3107 87.6109 88.8281 87.4671 88.5536 87.2032C88.2785 86.9393 87.4766 86.3797 86.4077 86.0839C85.3308 85.7881 84.8481 85.1885 84.744 84.8527C84.6405 84.5169 83.5635 84.2531 83.3262 83.9173C83.0808 83.5815 82.0416 83.3976 81.6253 83.4696C81.2095 83.5415 80.1703 82.5341 79.5463 82.5741C78.9229 82.6142 77.4673 83.2857 77.2225 83.3176C76.9771 83.3576 77.2592 82.758 77.4301 82.4941C77.6011 82.2302 76.9102 81.111 76.7398 80.3675C76.5689 79.624 76.324 78.8005 75.596 78.9124C74.8685 79.0244 74.0741 78.6167 73.8659 78.4647C73.6578 78.3128 73.6211 76.1861 73.799 75.2913C73.97 74.3958 74.876 73.0527 74.876 72.4931C74.876 71.9334 75.4622 71.6696 75.9821 71.5257C76.502 71.3738 76.0862 70.2945 76.6061 70.2226C77.1259 70.1507 77.1626 69.9268 77.2667 69.4791C77.3708 69.0314 77.9942 69.3272 77.6453 68.9595C77.2964 68.5837 77.5784 68.4718 78.3733 68.4718C79.1677 68.4718 80.3482 68.176 80.1778 67.3125C80.0069 66.4571 77.9279 67.0886 77.9279 66.377C77.9279 65.6655 75.2918 65.6336 75.4698 65.2178C75.6407 64.8101 78.1059 65.5135 79.0043 65.8893C79.9028 66.2651 80.1476 66.2251 80.8757 66.1851C81.6032 66.1451 81.1205 65.1377 81.2542 64.73C81.3955 64.3223 82.7767 65.3616 83.5786 65.1377C84.373 64.9139 85.1377 63.163 85.7989 62.6753C86.4595 62.1876 85.8652 61.7399 84.5882 61.8518C83.3036 61.9637 82.576 61.4441 81.8852 60.8845C81.1949 60.3248 81.2618 59.8771 81.9893 59.949C82.7168 60.0215 84.4474 61.556 85.108 61.5879C85.7687 61.628 86.9125 60.2053 87.4621 59.7576C88.0186 59.3099 86.9422 59.1261 86.5636 58.7903C86.185 58.4545 87.2242 58.2306 87.7738 58.2306C88.3233 58.2306 88.5681 58.7503 88.7763 59.0141C88.9839 59.2775 89.9568 58.8298 90.4395 58.8298C90.9221 58.8298 90.3726 57.9744 89.5707 57.6386C88.7763 57.3028 89.6079 56.6712 89.8457 57.1909C90.0906 57.711 90.6401 57.5991 90.9222 58.1982C91.3234 59.0698 91.5828 58.494 92.2736 58.2382C92.9645 57.9743 93.3134 57.5266 93.692 57.0789C94.0705 56.6318 94.145 57.1514 94.5904 56.4474C95.0434 55.7363 94.3823 55.0648 93.8257 54.6171C93.2686 54.1693 93.8629 53.7216 93.3058 53.4259C92.7487 53.122 92.6447 52.5623 93.343 52.7143C94.0333 52.8662 94.5904 52.6424 94.9021 52.1146C95.2138 51.595 93.8629 51.4831 94.4863 51.1073C95.1103 50.7315 94.5904 50.3638 93.9665 50.3638C93.343 50.3638 92.8232 50.028 92.7859 49.4684C92.7487 48.9087 91.6793 49.2845 91.0187 48.9487C90.3581 48.613 88.9025 48.6849 88.5611 48.7249C88.2117 48.7649 88.182 50.2919 88.7019 50.3319C89.2218 50.3719 89.6376 50.9635 89.1845 51.1554C88.7315 51.3392 89.2514 51.9389 88.91 51.8989C88.5611 51.8664 88.0116 51.675 87.9075 52.6424C87.8034 53.6097 87.7365 53.9855 87.1428 54.3213C86.556 54.6571 87.0015 53.242 86.452 53.2739C85.8954 53.3139 85.8285 54.4651 86.2443 54.577C86.6601 54.689 86.727 55.0648 86.8305 55.6244C86.9346 56.184 86.0658 55.7758 85.7244 56.4474C85.3755 57.1189 85.3459 56.1516 84.8556 55.7039C84.373 55.2562 83.7787 54.5051 83.8159 53.9531C83.8455 53.4659 84.0909 53.2815 84.4771 53.2096C84.8556 53.1377 84.4771 52.7619 84.4398 52.0903C84.4026 51.4187 83.9572 51.6426 83.4001 50.9316C82.8435 50.22 82.2568 50.22 81.9451 50.5558C81.6328 50.8915 81.841 51.5231 81.3583 51.7469C80.8757 51.9708 81.0833 53.0182 80.6675 53.0901C80.2517 53.162 80.4971 51.2592 80.1476 51.0754C79.7987 50.8915 79.8359 50.4438 80.3558 50.3638C80.8757 50.2919 81.1874 49.6922 80.7344 49.6922C80.2814 49.6922 79.487 49.1726 79.1753 49.0207C78.863 48.8687 78.3437 49.6522 77.9942 49.3565C77.6453 49.0607 78.0314 48.3091 78.0611 47.9014C78.0983 47.4937 78.6182 48.0852 78.9595 47.5656C79.309 47.046 77.9872 47.046 77.9872 46.4863C77.9872 45.9267 76.9474 45.7748 76.5985 45.5909C76.2496 45.4071 76.8434 44.4716 76.6654 44.0958C76.4944 43.7201 75.2098 42.4888 74.6533 42.6008C74.0962 42.7127 73.9624 41.8173 74.2742 41.8573C74.5864 41.8973 74.8313 41.6734 75.418 40.9619C76.0042 40.2503 76.0786 40.0264 75.6628 39.8826C75.2471 39.7307 75.0389 39.2829 75.7669 39.323C76.4944 39.363 77.779 39.8826 78.1948 39.5468C78.6106 39.211 79.9249 37.0125 80.4448 36.229C80.9646 35.4455 80.0662 35.3736 78.8188 35.4855C77.5714 35.5974 77.2964 34.9659 76.2571 34.8859C75.2174 34.8139 73.2792 35.1097 72.9971 35.4455C72.7226 35.7813 73.517 36.0771 73.4129 36.4529C73.3088 36.8286 72.6854 36.189 72.4104 36.3409C72.1359 36.4929 72.5145 36.9725 72.4104 38.2837C72.3068 39.5868 72.6557 39.6669 72.9971 40.1465C73.346 40.6342 73.2722 41.2658 73.2722 42.0893C73.2722 42.9128 72.5441 42.8727 72.2993 43.0566C72.0539 43.2404 72.9227 43.5443 72.7819 44.0639C72.6406 44.5836 71.9131 43.7682 71.4974 43.912C71.0816 44.0639 70.7326 45.327 71.1851 45.7429C71.6381 46.1506 71.8091 46.0786 71.4601 46.5664C71.1112 47.0541 70.7326 47.7576 71.5642 48.4691C72.3958 49.1807 73.9177 49.1007 74.7196 49.6603C75.5216 50.22 74.3707 49.8842 74.683 50.5157C74.9947 51.1473 74.1631 51.3712 74.2003 51.8589C74.237 52.3466 74.5492 52.0827 74.965 51.2592C75.3808 50.4357 75.6925 51.4831 75.6553 52.1947C75.6181 52.9062 75.0319 52.4904 74.5789 53.202C74.1259 53.9131 73.7101 54.025 73.0564 53.8736C72.3958 53.7216 72.7819 54.8809 73.0564 55.5125C73.3315 56.144 72.9896 56.3679 72.2249 56.144C71.4601 55.9202 71.0147 55.4006 71.3933 54.7609C71.7718 54.1293 72.0539 53.3777 71.6014 53.4578C71.1484 53.5297 70.1087 53.4259 69.797 52.8981C69.4847 52.3785 70.0046 52.6024 70.9403 52.7143C71.8759 52.8262 71.0816 52.0427 71.7718 52.0427C72.4627 52.0427 72.9826 52.4504 73.5763 51.8908C74.1631 51.3311 73.1977 50.2519 72.7075 50.4357C72.2248 50.6196 71.4601 50.8434 71.4601 50.3238C71.4601 49.8042 72.2917 50.1718 72.7447 50.0599C73.1977 49.948 72.4999 49.2764 71.8091 49.4603C71.1188 49.6441 70.6285 49.6841 70.079 49.0526C69.5219 48.421 68.5194 48.0452 68.2745 49.5003C68.0297 50.9553 67.0644 50.1718 66.6782 50.6596C66.2996 51.1473 67.1312 51.4831 68.0669 51.515C69.002 51.555 69.6929 52.4823 69.2474 52.4823C68.802 52.4823 69.002 53.1939 68.5194 52.93C68.0367 52.6662 67.547 52.93 67.8959 53.3777C68.2449 53.8255 67.7547 54.0093 67.7919 54.4651C67.8291 54.9128 67.0644 54.497 66.3363 54.4251C65.6088 54.3532 64.2573 54.6089 63.2844 54.8328C62.3121 55.0567 61.2427 54.6809 60.8269 54.2012C60.4111 53.7135 59.854 53.7935 59.1637 53.7935C58.4729 53.7935 58.681 53.082 57.775 53.0501C56.8766 53.0101 57.0842 52.1947 56.9806 51.7069C56.8766 51.2192 55.0721 51.3712 54.4185 51.8189C53.7578 52.2666 52.4808 52.0827 52.1319 52.8981C51.7824 53.7216 52.4436 53.6097 52.8222 53.6097C53.3496 53.6097 53.3048 52.9381 54.2777 53.0901C55.2506 53.242 55.9409 52.0108 56.3567 52.4585C56.7725 52.9062 54.6935 53.7617 53.795 53.9131C52.8966 54.065 53.1042 54.8485 53.966 56.2235C54.8343 57.6067 53.5869 56.8232 53.5869 57.4947C53.5869 58.1663 51.9609 57.2709 52.6145 57.047C53.2752 56.8232 52.9635 56.1116 52.4436 55.6639C51.9237 55.2167 51.5748 55.6639 51.6492 55.1767C51.7161 54.689 51.0921 55.2162 50.6094 54.8009C50.1268 54.3932 49.8819 54.0574 49.2208 54.4251C48.5601 54.8009 47.8024 54.689 46.3474 54.9447C44.8918 55.2086 42.2261 55.1286 41.7359 54.6089C41.2532 54.0893 42.9833 53.1539 43.5032 53.3058C44.0079 53.4497 43.7113 52.7062 42.9164 52.0346C42.122 51.363 40.3472 50.9553 40.3844 51.363C40.4216 51.7707 39.3819 51.4031 38.0973 51.1392C36.8127 50.8753 36.6423 50.3876 35.8107 50.3557C35.0088 50.3157 33.7312 50.0518 32.7588 49.2364C31.7859 48.4129 29.4988 48.6368 29.2243 49.3884C28.9493 50.1318 28.1845 50.0999 27.4198 50.0999C26.6551 50.0999 27.7612 49.1807 27.4867 49.0207C27.1227 48.8125 27.5239 47.7895 26.9668 47.7175C26.4097 47.6456 25.8898 50.18 24.8506 50.108C23.8109 50.0361 23.3579 47.4218 22.4966 46.7502C21.6278 46.0786 20.8334 46.0386 21.5609 47.046C22.289 48.0533 20.9375 47.3418 21.0044 48.0133C21.0713 48.6849 19.8233 49.4684 19.8605 49.0926C19.8978 48.7168 19.1702 48.3091 18.3387 49.3565C17.5065 50.4038 16.9203 50.2519 16.8459 49.8761C16.779 49.5003 14.3139 50.8434 14.418 51.2911C14.5215 51.7388 14.0389 52.0746 13.3782 52.0346C12.7176 51.9946 13.2369 51.4031 13.7568 51.0992C14.3436 50.7634 15.9399 49.3802 16.7715 49.2364C17.6031 49.0845 19.1999 48.381 19.2296 47.9652C19.2668 47.5575 18.4352 47.8933 17.8781 47.7813C17.321 47.6694 16.3557 48.341 15.42 48.7887C14.4849 49.2364 13.4079 49.0845 13.6899 49.6841C13.965 50.2838 12.8212 49.6122 12.5839 50.0199C12.3385 50.4276 11.8931 49.9799 12.2349 49.756C12.5839 49.5322 11.4031 49.1245 11.4031 49.3802C11.4031 49.636 11.1951 49.9799 10.3635 49.9799C9.53184 49.9799 8.70019 50.6114 9.25712 51.0592C9.814 51.5069 10.1556 51.7307 9.88087 52.0265C9.6061 52.3223 8.73735 51.243 7.52696 51.3549C6.31663 51.4669 3.88851 49.8999 3.88851 49.5241C3.88851 49.2202 2.18067 49.4121 1 49.2764V75.0674C1 75.0674 1.60147 75.547 1.83164 75.2513C2.06187 74.9555 2.47766 75.3469 3.26476 74.9555C4.05186 74.5553 4.32663 75.4032 4.32663 75.8028C4.32663 76.2024 5.43299 76.8501 5.90083 77.4974C6.36117 78.1451 6.59139 78.6886 7.10372 78.3452C7.60866 78.0013 8.53684 77.8013 8.53684 77.1459C8.53684 76.49 10.6605 76.4024 10.6605 77.2497C10.6605 78.097 12.8363 79.0887 14.0319 81.3748C15.2345 83.6615 15.049 84.1649 16.8011 84.9084C18.5614 85.6519 18.5091 86.052 18.2788 86.6992C18.0491 87.347 19.3407 87.6909 18.6056 88.2424C18.3236 88.4501 17.9229 88.754 17.5367 89.0578C17.5734 89.3855 17.8484 89.5931 18.1974 89.9132C18.6132 90.289 17.4326 90.289 17.7816 90.6248C18.1305 90.9606 17.7147 91.4802 18.0561 91.896C18.398 92.3119 19.029 92.1599 19.4075 91.8241C19.7861 91.4883 20.0687 92.2318 19.7565 92.7915C19.4447 93.3511 20.1059 93.7588 20.4176 93.3511C20.7293 92.9434 21.3905 94.0227 21.7022 94.2065C22.0139 94.3904 22.3257 94.95 21.8063 94.95C21.2864 94.95 21.3533 95.9173 21.7394 95.9573C22.118 95.9974 22.0884 96.517 22.0884 96.8528C22.0884 97.1886 23.2985 97.6757 23.7515 97.5243C24.2046 97.3724 24.6203 97.8201 24.8285 98.2354C25.0361 98.6436 25.8677 98.947 26.1794 98.6831C26.4917 98.4198 26.6993 99.1708 26.7662 99.6904C26.8331 100.21 27.5309 99.9143 27.9467 99.8743C28.363 99.8348 28.6079 100.474 28.8824 100.362C29.4912 100.114 29.6773 101.266 30.078 101.937L73.1605 101.689C73.1605 101.689 73.1902 100.538 73.695 100.938C74.2003 101.337 73.7397 101.985 74.341 102.233C74.9424 102.481 75.3587 102.881 75.685 102.729C76.0118 102.577 76.5613 102.081 77.1184 102.777C77.6749 103.472 78.0913 102.873 78.4105 103.32C78.7368 103.768 79.3311 104.119 79.7469 103.568C80.0813 103.12 81.3659 103.664 81.9818 103.904C82.7395 103.248 83.3408 101.849 84.0241 101.849C84.9225 101.849 87.2097 102.073 87.3504 103.344C87.4917 104.615 88.8728 103.416 89.0136 104.615C89.1328 105.631 90.0458 106.43 89.8975 106.966C90.165 107.141 90.4913 107.382 90.7884 107.629C91.2269 107.47 92.3998 107.669 93.1796 107.973C94.1525 108.349 95.6075 107.525 96.0902 108.797C96.5729 110.068 97.7016 111.019 96.6473 111.107C95.7488 111.179 94.5683 109.836 94.6347 110.587C94.7015 111.331 94.1525 110.963 94.1525 112.083C94.1525 113.202 93.4617 114.769 93.0459 114.696C93.0308 114.696 93.0162 114.689 93.0087 114.681C92.9342 115.105 92.9342 115.656 93.2611 116C93.7885 115.584 94.5457 114.873 95.1993 114.92C96.239 114.993 96.5135 115.664 97.2114 115.144C97.9022 114.624 98.043 114.401 98.1843 114.769C98.1994 114.816 98.1843 114.873 98.1622 114.936C98.4291 114.784 98.6152 114.641 98.6222 114.521C98.6448 114.337 98.5925 114.081 98.5332 113.857C97.8354 113.969 97.6126 114.025 97.4196 113.505C97.1445 112.762 99.4985 112.011 100.605 112.163C101.659 112.306 102.395 111.507 102.766 111.994C103.434 111.347 104.57 110.292 104.86 110.292C105.275 110.292 110.221 110.244 110.221 110.244C110.221 110.244 111.929 109.1 112.159 108.053C112.389 107.006 113.495 104.52 114.149 105.071C114.795 105.615 116.184 105.223 116.228 105.719C116.273 106.182 115.768 107.869 117.542 110.395C118.166 109.972 118.812 109.636 119.183 109.66C119.807 109.7 120.743 108.805 121.017 108.245C121.292 107.685 121.679 108.765 121.121 108.957C120.564 109.14 121.575 109.588 122.54 109.556C123.513 109.516 122.087 109.932 121.359 109.892C120.631 109.852 120.32 109.964 119.347 111.011C118.374 112.058 118.619 112.354 119.176 112.874C119.733 113.401 120.461 113.177 121.218 112.466C121.983 111.754 121.946 111.051 122.711 111.083C123.476 111.123 125.45 110.339 126.312 110.036C127.18 109.74 126.624 109.588 126.624 109.172C126.624 108.757 128.146 108.765 128.703 108.349C129.26 107.941 128.599 107.605 128.116 107.677V107.685ZM37.8972 59.3099C36.9837 60.5249 36.6865 60.7087 35.7438 60.5249C34.8081 60.3492 34.2289 60.8526 34.6965 61.2127C35.1646 61.5723 35.1943 61.868 34.2289 62.1C33.2636 62.3395 32.6326 63.1393 32.2465 63.0511C31.8604 62.9635 33.9021 61.3884 33.3747 60.9726C32.8554 60.5568 31.5557 61.6842 31.526 62.1876C31.4963 62.6915 30.6426 62.7234 30.1228 62.6915C29.5953 62.6596 28.912 62.1238 29.4319 62.0681C29.9594 62.0119 29.5953 61.3884 30.3158 61.0927C31.0288 60.7969 30.1745 60.3492 30.3973 60.021C30.62 59.6933 32.0755 60.3492 32.1052 59.7576C32.1349 59.1655 30.6426 58.6621 30.1449 59.0141C29.6476 59.3656 28.4892 60.1972 27.1151 59.5495C26.6848 59.3418 30.5903 58.9022 31.2515 58.2463C31.9121 57.591 34.8896 56.8475 35.1123 57.4472C35.335 58.0387 33.516 58.4302 34.3923 58.9579C35.2687 59.4856 36.7092 59.1336 37.036 58.574C37.3698 58.0144 38.8032 58.1025 37.8897 59.3175L37.8972 59.3099ZM46.6591 71.3019C45.5821 72.3092 45.6641 72.0454 44.7284 72.2211C43.7928 72.3968 44.5354 73.4123 43.4066 73.5004C42.2779 73.588 39.5453 73.708 39.1592 73.0284C39.033 72.7964 40.6444 72.9646 40.756 72.4687C40.8671 71.9653 41.3055 71.1656 41.9958 71.1656C42.6867 71.1656 42.6268 70.1902 41.4986 69.591C40.3699 68.999 43.1246 68.6075 43.7556 69.5586C44.3871 70.5103 45.5228 71.1899 46.1543 70.5103C46.7853 69.8306 50.4013 67.9278 50.4013 68.8151C50.4013 69.703 47.7285 70.3021 46.6516 71.3094L46.6591 71.3019ZM70.7844 98.4273C70.0272 98.5155 70.8513 96.2607 69.4701 95.4453C67.8436 94.478 67.1161 92.6871 67.1161 91.7122C67.1161 90.7368 68.5048 90.2971 69.0543 91.0406C69.6109 91.7841 70.443 94.8456 70.9257 95.813C71.4084 96.7809 71.4084 98.3473 70.7844 98.4273Z" fill="#6B6B6B" stroke="#1A1B1D" stroke-width="0.5" stroke-miterlimit="10"/>
</svg>
