<svg width="167" height="124" viewBox="0 0 167 124" fill="none" xmlns="http://www.w3.org/2000/svg">
<path d="M165.635 22.7551C165.713 21.177 163.999 21.6982 163.436 22.1347C162.86 22.5721 161.237 22.1347 160.753 23.1915C160.268 24.2484 159.444 23.6289 158.306 23.8119C157.167 23.9806 155.531 23.4593 155.622 22.6703C155.701 21.8812 154.969 21.0921 155.047 20.1344C155.125 19.1624 153.909 19.5988 153.097 18.725C152.285 17.852 150.65 17.2317 150.323 17.4146C149.996 17.5843 149.014 16.4569 147.627 16.3578C146.239 16.2739 146.409 15.3009 146.566 14.6958C146.724 14.0897 145.429 12.159 145.18 11.1022C144.93 10.0463 143.962 9.87664 143.557 7.59428C143.151 5.31192 142.013 5.93134 142.248 4.8745C142.496 3.81766 140.861 3.29638 140.455 2.67695C140.05 2.05657 138.335 2.32434 137.118 1.6201C135.901 0.915854 135.168 1.45047 134.029 1.09883C132.891 0.746228 130.286 1.45048 129.959 1.45048C129.632 1.45048 127.591 1.01402 126.452 2.67695C125.313 4.33893 126.203 4.25506 126.7 4.25506C127.198 4.25506 127.433 5.83318 127.512 6.35446C127.591 6.87573 126.7 7.66479 126.295 7.84776C125.89 8.03073 124.751 9.94715 124.581 10.6514C124.424 11.3566 123.115 13.1034 123.272 13.7228C123.429 14.3432 122.617 14.9493 122.054 15.0341C121.479 15.118 119.935 16.3444 119.45 16.5274C118.966 16.6961 117.003 16.3578 116.768 15.7383C116.689 15.5411 116.453 15.3715 116.153 15.2447L113.953 19.9934L113.771 21.5153C113.771 21.5153 112.357 21.8955 113.417 23.0505C114.477 24.1922 114.66 23.2344 116.257 23.2344C117.854 23.2344 118.56 24.5724 118.914 23.6146C119.268 22.656 120.681 22.0928 121.571 23.2344C122.46 24.3751 125.3 26.2915 125.117 27.2493C124.934 28.208 123.337 28.0107 122.277 27.6305C121.217 27.2493 119.79 28.3909 118.73 28.3909C117.671 28.3909 116.427 28.7712 115.354 29.9128C114.294 31.0535 114.464 32.2095 112.868 32.3924C111.271 32.5897 110.564 32.3925 108.785 33.7314C107.004 35.0694 105.055 34.4918 104.348 34.1116C103.642 33.7314 102.398 33.5341 101.678 34.8721C100.972 36.211 102.568 36.7885 102.385 38.3104C102.202 39.8323 100.435 39.4521 99.0079 41.1703C97.5946 42.8894 95.2782 43.6508 94.035 43.4669C92.7918 43.2696 90.1352 42.5092 87.8189 43.6508C85.5159 44.7915 83.9191 46.525 83.0294 46.3277C82.1388 46.1305 82.1388 44.9888 80.8956 45.1861C79.6524 45.3834 78.9462 44.9888 78.0556 44.4256C77.1659 43.8481 76.4597 44.8058 75.033 43.6642C73.6196 42.5235 71.1332 42.7065 70.0601 42.5235C68.9993 42.3262 64.917 42.5235 63.4903 42.3262C62.077 42.129 60.1133 42.7065 59.9432 41.946C59.773 41.1846 58.6999 40.6071 58.3473 38.8879C57.9937 37.1687 57.1041 36.5912 56.2135 36.4083C55.3238 36.211 55.2192 35.2104 54.4341 35.0693C54.054 34.9988 53.6092 33.7314 52.3659 33.7314C51.1227 33.7314 46.7914 33.1815 46.1631 32.097C45.5348 31.0116 46.778 30.7581 46.778 29.6736C46.778 28.5882 47.4586 27.1225 46.9482 26.7004C46.4378 26.2773 45.6004 25.3052 45.4825 24.4599C45.3647 23.6004 44.0169 22.4587 43.1139 22.4025C42.211 22.3463 41.4781 21.7402 40.6398 20.9511C39.7891 20.162 39.004 20.2192 38.6638 18.218C38.6381 18.0912 38.6115 17.9788 38.5725 17.8654C38.2322 17.8235 37.8007 17.6824 37.5251 17.6824C37.3027 17.6824 37.0413 17.4851 36.8056 17.2174C36.5831 18.0493 35.8503 18.4715 35.8503 19.1338C35.8503 19.8666 35.5757 20.7681 34.6727 20.7681C33.7698 20.7681 32.9324 21.501 32.8668 23.0086C32.8145 24.5304 33.6519 24.7134 33.2594 25.3757C32.8668 26.0381 31.231 26.7147 30.6683 26.404C30.1047 26.0943 29.0316 26.2773 28.1286 26.1648C27.2257 26.0381 26.5451 24.8259 26.2704 26.1648C25.9824 27.5037 24.1242 31.4481 24.5824 31.8712C25.0272 32.2943 25.3675 33.2663 24.5824 33.2663C23.7973 33.2663 22.9989 33.1396 22.6063 32.7165C22.2138 32.2943 20.9183 33.3083 20.0153 33.2663C19.5962 33.2377 17.8159 34.0973 18.4318 34.4213C19.0468 34.7453 19.0468 36.3235 19.0468 36.9858C19.0468 37.6481 20.3946 39.6207 20.1456 40.2687C19.8975 40.9311 18.6799 41.6496 18.6799 42.5092C18.6799 43.3688 18.9289 44.1578 18.4974 44.3551C18.0649 44.5524 16.7305 45.1441 16.0499 45.6654C15.3827 46.1867 14.283 46.1867 13.9161 46.9758C13.5502 47.7648 13.0008 48.4414 11.7176 48.2861C10.6189 48.1593 10.0685 47.9621 9.20551 49.0752C8.35482 50.1882 8.17139 49.7375 7.55643 50.2587C6.94147 50.78 6.33885 49.8642 5.84175 49.6669C5.35795 49.4697 4.67742 50.2587 4.19268 50.2587C3.70888 50.2587 3.27639 51.1183 2.66143 51.3156C2.04647 51.5128 1.44478 51.3156 1.44478 52.1046C1.44478 52.5973 1.32697 53.1615 1 53.5694L1.4315 56.1481C1.4315 56.1481 4.04914 57.0782 4.15369 58.0226C4.25824 58.966 4.70307 62.0098 4.70307 62.0098C4.70307 62.0098 4.6641 62.0098 4.62418 62.0098C5.68491 62.897 7.13723 63.8557 7.13723 64.2074C7.13723 64.6019 7.25511 65.7855 8.53731 66.4478C9.34902 66.8709 10.1864 67.3074 10.6835 67.6743C10.7491 67.5046 10.789 67.3922 10.789 67.3922L11.8744 67.2797C11.8744 67.2797 12.2024 67.5046 12.5027 67.8572C12.7651 66.9128 14.6489 65.8703 15.6308 65.9265C16.6649 65.997 19.0468 68.0259 18.811 68.7588C18.562 69.4773 16.8607 72.1122 16.0623 72.3095C15.7619 72.38 15.3171 72.422 14.8846 72.4363C14.8067 72.8727 14.7145 73.2672 14.7145 73.4931C14.7145 74.0849 15.6964 75.015 16.2324 76.0718C16.7828 77.1287 15.3561 77.8329 14.5966 77.1287C13.8382 76.4235 13.5112 77.8329 13.9427 78.4104C14.3742 79.0022 14.1651 80.6366 14.9245 80.749C15.683 80.8624 16.3379 82.5111 17.2142 82.5111C18.0915 82.5111 18.85 84.032 18.85 84.032C18.85 84.032 20.041 84.8496 20.041 85.329C20.041 85.3852 20.0277 85.4414 19.9887 85.5119C20.9439 85.4128 21.5722 85.3709 21.6768 84.9478C21.7946 84.4828 23.0255 84.4837 23.8752 85.4128C24.7259 86.3286 28.2075 88.6958 29.4897 89.8232C30.7729 90.9363 33.7697 92.1904 34.8029 92.1199C35.8503 92.0493 36.8189 92.9089 38.4024 92.8384C38.6381 92.8384 38.8472 92.8384 39.0306 92.8527C39.2531 92.5992 39.6323 92.5849 39.9336 92.1199C40.3651 91.4156 41.02 92.7116 40.7976 93.6417C40.6921 94.0782 40.7976 94.5575 40.9545 94.9521C41.1769 94.6138 41.3993 94.1773 41.5694 93.698C42.1188 92.2466 42.9695 92.3171 43.5321 91.8521C44.0825 91.387 44.6319 91.5843 45.7962 92.2466C46.8959 92.867 47.3407 91.5566 48.9765 93.1767C49.3167 93.008 49.7483 92.8241 49.9451 92.8241C50.272 92.8241 50.7045 92.1199 51.2539 91.5281C51.8033 90.9506 51.6853 90.2463 52.3402 90.3587C52.9942 90.4712 53.3212 89.5411 54.7345 88.7244C56.1479 87.9068 57.3388 89.1895 57.9937 88.612C58.6476 88.0202 59.4071 87.7943 59.4071 88.3718C59.4071 88.9493 60.2834 89.6545 60.4935 90.3587C60.6893 90.9925 61.828 91.246 62.077 91.2889C62.2861 91.1764 62.4429 91.063 62.5475 90.9925C63.2157 90.4712 64.38 91.063 64.38 91.8521C64.38 92.6411 64.4456 93.5007 64.995 93.5007C65.5443 93.5007 66.0947 93.5007 66.0947 94.9521C66.0947 96.4034 66.5785 98.0378 65.4275 99.2919C64.2622 100.546 62.9277 102.772 63.1634 103.434C63.4115 104.097 62.7965 105.337 63.6472 104.886C64.4979 104.421 66.4606 104.886 66.1469 105.407C65.8456 105.928 66.2125 107.774 66.9976 107.845C67.796 107.915 68.2798 108.379 68.0318 109.155C67.7827 109.944 67.3636 111.128 68.0318 111.128C68.699 111.128 69.6799 111.128 69.563 111.917C69.4452 112.706 70.0468 113.424 71.2767 112.903C71.9972 112.592 72.3498 112.311 72.5199 112.621C73.0047 112.607 73.0436 113.79 73.881 114.016C74.7583 114.255 74.3135 112.029 73.9856 111.677C73.6586 111.325 74.0911 109.803 74.418 110.155C74.745 110.507 75.7268 110.155 76.2629 109.451C76.8123 108.746 77.8987 110.042 78.3312 109.211C78.7627 108.394 79.7445 109.803 80.7254 109.211C81.7073 108.62 82.1388 109.676 82.5713 108.859C83.0028 108.042 84.4161 106.985 84.7431 107.337C85.071 107.689 85.2934 108.394 87.0205 108.62C88.7608 108.859 87.7799 109.789 87.7799 110.381C87.7799 110.972 89.7427 112.494 90.5021 112.607C90.6456 112.635 90.8423 112.818 91.0648 113.1C91.5875 112.818 92.5437 113.283 92.7528 112.621C93.0018 111.832 93.8915 112.044 94.2574 112.706C94.6243 113.367 95.0302 113.495 95.841 112.706C96.6527 111.917 97.0585 113.495 96.5738 113.931C96.09 114.368 96.417 115.721 97.1897 116.51C97.9615 117.299 98.0793 116.031 97.9225 115.242C97.7647 114.453 99.2304 113.664 101.796 112.748C104.361 111.832 107.136 109.803 107.175 109.366C107.213 108.929 109.007 110.155 109.858 109.451C110.708 108.746 113.81 108.662 114.621 108.62C115.432 108.577 115.393 107.831 116.257 107.083C117.108 106.337 116.911 105.985 117.893 105.675C118.875 105.364 119.477 104.406 119.477 103.871C119.477 103.335 121.309 103.167 121.348 102.603C121.387 102.039 122.735 101.856 122.735 101.152C122.735 100.447 123.547 100.588 123.913 100.052C124.279 99.5311 123.625 97.9959 124.279 97.77C124.933 97.5451 124.03 96.7132 123.913 96.3186C123.796 95.9241 125.13 95.8393 125.824 95.3609C126.518 94.8816 126.963 94.1344 127.093 93.3034C127.211 92.4724 128.349 91.7253 128.886 91.5004C129.422 91.2888 129.619 90.1053 129.462 89.0904C129.305 88.0764 130.404 88.3442 129.907 87.9497C129.422 87.5551 130.103 86.4554 131.085 86.16C132.067 85.8503 130.47 85.3709 129.946 85.8074C129.422 86.2448 128.846 84.5399 128.363 85.1879C127.878 85.8503 126.491 84.7934 127.381 84.5819C128.271 84.356 129.658 83.2715 130.273 83.0457C130.888 82.8208 129.37 81.3837 128.598 81.4256C127.826 81.4675 126.975 79.4949 126.151 79.4949C125.327 79.4949 126.766 78.8755 127.695 79.4111C128.637 79.9323 129.724 80.3831 130.143 79.9323C130.548 79.4949 128.559 77.7481 127.826 77.1287C127.093 76.5083 127.787 75.6773 127.342 75.3247C126.897 74.9721 125.915 72.746 125.588 71.732C125.261 70.7171 123.547 70.5484 123.141 69.8861C122.735 69.2238 123.18 67.6876 124.45 67.1244C125.706 66.5612 125.182 65.4195 125.758 65.5463C126.334 65.673 126.818 65.4195 127.263 64.4046C127.709 63.405 128.481 64.0101 128.939 63.4888C129.383 62.9676 131.386 63.0104 132.079 62.4891C132.773 61.9679 131.425 60.3326 130.496 60.6004C129.567 60.8681 128.467 60.4736 127.813 59.4168C127.158 58.3599 125.457 61.3475 124.148 62.0098C122.84 62.6721 121.99 60.8262 122.434 59.6426C122.879 58.459 121.414 58.501 119.581 58.5858C117.749 58.6706 118.442 55.077 119.542 54.9083C120.641 54.7396 122.264 56.007 122.957 53.8095C123.651 51.611 124.62 53.3302 126.177 51.4004C127.721 49.4697 129.515 48.2861 130.862 49.4277C132.21 50.5685 129.436 52.3724 128.991 53.4569C128.546 54.5557 129.397 54.9083 128.585 55.7393C127.773 56.5712 128.912 56.7961 130.496 55.6973C132.079 54.5986 134.043 53.2882 135.586 52.6259C135.992 52.4563 136.45 52.4001 136.908 52.4429C137.131 51.8083 137.38 51.3013 137.68 51.1326C138.741 50.5542 142.287 48.8359 142.824 48.0745C143.36 47.314 143.884 45.9752 144.604 45.9752C145.323 45.9752 145.311 46.7366 146.384 46.7366C147.457 46.7366 148.687 47.1168 148.163 46.1581C147.627 45.2004 147.993 45.2004 149.223 45.0031C150.467 44.8201 150.284 43.4812 151.173 43.4812C152.063 43.4812 151.88 41.1846 152.77 41.1846C153.66 41.1846 154.013 42.5235 155.073 42.1432C155.27 42.0727 155.545 42.1289 155.833 42.2557C156.055 42.0727 156.277 41.8888 156.5 41.7058C156.395 40.5079 156.526 39.4378 156.303 38.8736C155.898 37.8168 156.303 37.0277 156.133 36.4226C155.976 35.8022 155.885 34.3232 156.539 34.3232C157.194 34.3232 158.004 32.5611 158.816 33.1815C159.628 33.8019 161.264 33.9706 161.264 33.1815C161.264 32.3925 162.402 32.3076 162.572 31.2508C162.729 30.1949 163.959 29.9405 164.208 28.9684C164.456 28.0107 164.862 25.7283 165.674 25.1928C166.486 24.6572 165.517 24.3189 165.595 22.7408L165.635 22.7551ZM125.719 105.802C124.829 109.31 126.91 111.099 127.185 110.888C127.996 110.268 131.333 102.73 130.6 101.673C129.867 100.617 126.609 102.278 125.719 105.787V105.802ZM96.6394 117.736C95.5796 117.736 92.8964 119.399 93.9571 121.766C95.0169 124.132 98.5242 122.555 98.6031 121.498C98.681 120.441 100.278 118.793 100.069 117.989C99.9109 117.369 97.7125 117.721 96.6527 117.721L96.6394 117.736Z" fill="#6B6B6B" stroke="#1C1D20" stroke-width="0.5" stroke-miterlimit="10"/>
</svg>
