<svg width="125" height="148" viewBox="0 0 125 148" fill="none" xmlns="http://www.w3.org/2000/svg">
<path d="M75.3986 98.4635C75.5264 98.8283 75.6549 100.12 75.3526 100.623C75.0497 101.126 75.1782 101.264 75.4805 101.451C75.7834 101.639 75.9119 102.092 75.9119 102.467C75.9119 102.842 76.1224 102.792 76.1683 103.571C76.2142 104.35 76.3794 104.903 76.6357 105.228C76.8374 105.485 76.8008 105.869 76.691 106.155C77.0485 106.441 77.452 106.717 77.8096 106.855C78.6985 107.2 79.0194 107.476 79.084 107.812C79.1479 108.156 79.9183 108.768 80.1014 108.294C80.2938 107.812 80.7979 108.088 81.1834 108.088C81.5683 108.088 81.6322 108.571 81.6875 108.837C81.7514 109.113 82.6409 108.975 82.9619 109.182C83.2828 109.39 83.4113 110.138 83.8507 110.415C84.3002 110.691 84.6764 110.07 84.9973 110.277C85.3176 110.484 86.1432 110.691 86.6566 110.484C87.1606 110.277 87.4816 110.691 88.1234 110.622C88.756 110.553 89.5903 110.829 89.7827 111.036C89.8833 111.144 90.4246 111.253 90.91 111.332C91.0385 111.045 90.7908 110.178 90.8281 109.971C90.8734 109.744 92.3682 108.314 92.6245 107.989C92.8815 107.664 93.2664 107.664 93.4775 107.249C93.6879 106.835 92.8816 105.504 92.7071 105.228C92.5333 104.952 92.4508 103.847 92.5786 103.384C92.7071 102.92 91.9374 102.644 91.9374 102.329C91.9374 102.013 92.6612 101.451 93.0467 101.274C93.4315 101.086 93.303 99.7946 92.9641 99.4792C92.6245 99.1537 92.4507 98.5622 92.6611 97.9113C92.8722 97.2703 91.3781 96.7582 91.167 96.7582C91.1304 96.7582 91.1117 96.7181 91.0938 96.6595C89.7554 96.9256 86.3357 96.5407 86.0787 96.4327C85.9135 96.3633 85.4734 96.196 85.1072 96.0479C84.9328 96.3533 84.5845 96.6294 84.0525 96.6294C83.2275 96.6294 83.1729 95.7424 83.1357 95.3376C83.1084 94.9435 79.7991 95.6731 78.9096 96.6294C78.0293 97.5765 75.9665 97.2117 75.9119 97.7339C75.866 98.1087 75.563 98.3061 75.3613 98.2074C75.3433 98.2961 75.3433 98.3848 75.3613 98.4635H75.3986Z" fill="#6B6B6B" stroke="#1C1D20" stroke-width="0.5" stroke-miterlimit="10"/>
<path d="M82.9609 128.078C82.8876 127.664 84.1161 125.771 84.4184 125.771C84.6754 125.771 84.7666 123.947 84.6568 123C83.7033 122.29 82.915 122.053 82.915 122.053C82.915 122.053 80.3574 121.915 79.9353 121.738C79.5138 121.551 79.083 122.33 78.6975 122.014C78.3126 121.699 77.7627 122.103 77.8452 122.566C77.9278 123.02 78.7435 123.296 78.7435 123.986C78.7435 124.676 80.3661 125.682 80.3208 126.047C80.2929 126.304 81.2923 127.003 81.8882 127.94C82.2091 128.157 82.548 128.433 82.8783 128.729C82.9422 128.424 82.9795 128.187 82.9609 128.088V128.078Z" fill="#6B6B6B" stroke="#1C1D20" stroke-width="0.5" stroke-miterlimit="10"/>
<path d="M80.3221 126.034C80.368 125.669 78.7454 124.663 78.7454 123.973C78.7454 123.283 77.9384 123.007 77.8465 122.553C77.7639 122.09 78.3146 121.686 78.6994 122.001C79.0843 122.327 79.5064 121.548 79.9372 121.725C80.3587 121.912 82.9169 122.04 82.9169 122.04C82.9169 122.04 83.7052 122.277 84.6587 122.987C84.64 122.799 84.6127 122.642 84.5668 122.543C84.3378 121.962 84.5668 121.311 83.9522 121.054C83.6406 120.926 83.5035 120.344 83.4482 119.802C83.1552 119.9 82.9169 119.97 82.779 120.009C82.2657 120.147 81.1837 120.078 80.7988 119.526C80.5145 119.121 79.6256 118.52 79.1942 118.244C79.0204 118.412 78.3326 119.033 78.0396 119.072C77.7 119.121 77.9111 120.088 77.5715 120.088C77.2326 120.088 76.9756 120.729 76.8844 121.005C76.8018 121.281 76.0314 120.817 75.6832 120.955C75.4355 121.054 74.7203 121.173 74.3262 121.241C74.3908 121.666 74.3628 122.129 74.6744 122.129C75.1878 122.129 76.1326 122.07 76.1599 122.809C76.1872 123.549 77.4157 125.176 77.8745 125.728C78.3326 126.281 79.3593 126.162 79.4145 126.615C79.4691 127.079 80.2122 127.503 81.0738 127.562C81.3029 127.582 81.5872 127.72 81.8808 127.927C81.2849 126.98 80.2855 126.29 80.3128 126.034H80.3221Z" fill="#6B6B6B" stroke="#1C1D20" stroke-width="0.5" stroke-miterlimit="10"/>
<path d="M86.6581 134.869C87.0889 134.78 86.8319 134.406 87.1255 134.09C87.4278 133.764 87.7674 133.123 87.8134 132.897C87.8134 132.867 87.8313 132.857 87.85 132.838C87.272 132.364 86.8599 132.029 86.7314 131.546C86.6029 131.053 86.7313 130.096 86.9424 129.397C86.6122 129.14 85.5941 128.381 85.2738 128.381C84.9529 128.381 84.4668 129.14 84.3477 129.869C85.0994 130.304 85.393 130.609 84.8703 131.161C84.329 131.743 84.2192 133.706 84.8151 134.228C85.3837 134.721 85.5488 135.707 86.0988 135.993C86.2546 135.5 86.3738 134.938 86.6581 134.869Z" fill="#6B6B6B" stroke="#1C1D20" stroke-width="0.5" stroke-miterlimit="10"/>
<path d="M78.5135 112.212C78.0002 111.591 76.7257 111.591 76.7257 111.591C76.7257 111.591 76.5972 112.212 76.4048 112.547C76.249 112.833 75.3228 112.833 74.7269 112.656C74.5618 112.893 73.7921 113.08 73.6822 113.425C73.5537 113.839 72.6095 113.612 72.9118 114.717C73.2141 115.821 72.4444 115.456 72.1414 115.318C71.8391 115.18 70.5188 115.368 70.1705 115.732C69.8223 116.097 69.3549 116.008 69.0613 115.821C68.759 115.634 68.163 115.545 67.906 116.008C67.6496 116.472 67.1816 115.644 66.7967 115.683C66.4119 115.732 66.5863 116.6 66.5863 116.787C66.5863 116.975 67.1816 117.527 67.5671 117.34C67.952 117.152 68.4194 117.389 68.7676 117.616C69.1072 117.842 69.7491 117.428 69.9688 117.202C70.1799 116.975 71.381 116.975 71.5089 116.975C71.6374 116.975 71.6833 117.714 71.8944 117.852C72.1048 117.991 72.9211 118.079 73.6449 118.129C74.3693 118.178 75.442 118.543 75.7816 118.543C76.1205 118.543 76.6798 117.902 77.4502 117.902C78.2199 117.902 78.6507 117.399 78.7792 117.438C78.8344 117.182 78.9257 116.975 79.0908 116.945C79.4024 116.896 79.1827 116.324 79.4024 116.038C79.6228 115.752 79.2193 115.17 79.6228 115.22C80.0263 115.269 80.4664 115.318 80.4664 114.697C80.4664 114.49 80.5763 114.302 80.7228 114.144C80.2827 113.484 79.9617 112.419 79.9617 112.419C79.9617 112.419 79.0082 112.833 78.4949 112.212H78.5135Z" fill="#6B6B6B" stroke="#1C1D20" stroke-width="0.5" stroke-miterlimit="10"/>
<path d="M90.8916 113.935C90.7451 113.886 90.58 113.778 90.4422 113.639C89.9015 113.511 89.3881 113.343 89.2323 113.176C88.9114 112.83 87.637 112.624 87.4445 112.554C87.2521 112.486 86.0416 113.787 85.6567 113.787C85.2719 113.787 83.6213 113.994 83.6213 114.468C83.6213 114.941 81.5858 115.02 81.0085 114.468C80.9166 114.379 80.8341 114.26 80.7522 114.142C80.5957 114.3 80.4951 114.487 80.4951 114.695C80.4951 115.315 80.0457 115.266 79.6515 115.217C79.248 115.167 79.6515 115.75 79.4318 116.036C79.2114 116.321 79.4318 116.903 79.1202 116.943C78.955 116.972 78.8632 117.179 78.8086 117.436C78.9458 117.505 79.2667 118.214 79.2667 118.214C79.2667 118.214 79.248 118.234 79.2207 118.254C79.6515 118.53 80.5411 119.132 80.8254 119.536C81.2103 120.088 82.2923 120.157 82.8056 120.019C83.319 119.881 85.4823 119.132 85.4823 119.132C85.4823 119.132 85.9957 119.339 86.3073 119.408C86.3812 119.428 86.5822 119.457 86.8486 119.506C87.0044 119.329 87.4811 119.181 87.9945 118.639C88.5904 117.998 89.4887 115.69 89.7457 115.513C90.002 115.325 90.6898 114.911 91.0287 114.635C91.3683 114.359 91.2858 114.083 90.9009 113.945L90.8916 113.935Z" fill="#6B6B6B" stroke="#1C1D20" stroke-width="0.5" stroke-miterlimit="10"/>
<path d="M82.9803 109.192C82.6594 108.985 81.7698 109.123 81.7059 108.847C81.642 108.571 81.5774 108.097 81.2019 108.097C80.8257 108.097 80.3123 107.821 80.1199 108.305C79.9275 108.788 79.1664 108.167 79.1025 107.821C79.0379 107.476 78.717 107.21 77.8281 106.865C77.4705 106.727 77.067 106.451 76.7095 106.165C76.6822 106.243 76.6455 106.323 76.6082 106.381C76.4344 106.657 75.8385 106.155 75.5815 106.431C75.3252 106.707 74.4722 106.756 73.9955 107.21C73.5281 107.673 72.538 107.9 71.988 108.038C71.4287 108.176 71.9054 108.728 72.1165 109.142C72.3269 109.556 72.3269 110.572 72.7577 110.888C73.1892 111.213 74.6007 112.179 74.7659 112.495C74.7932 112.554 74.7752 112.604 74.7386 112.653C75.3345 112.82 76.26 112.83 76.4158 112.544C76.6082 112.199 76.7368 111.588 76.7368 111.588C76.7368 111.588 78.0112 111.588 78.5245 112.209C79.0379 112.82 79.9914 112.416 79.9914 112.416C79.9914 112.416 80.0466 112.594 80.1292 112.83C80.2664 112.495 80.4501 112.189 80.6605 112.16C81.2019 112.081 81.9622 111.992 82.5036 111.174C82.7786 110.75 83.2367 110.415 83.6222 110.188C83.3652 109.853 83.228 109.36 82.9803 109.202V109.192Z" fill="#6B6B6B" stroke="#1C1D20" stroke-width="0.5" stroke-miterlimit="10"/>
<path d="M88.1422 110.632C87.5003 110.7 87.1887 110.286 86.6753 110.494C86.162 110.7 85.337 110.494 85.0161 110.286C84.6951 110.08 84.3189 110.7 83.8701 110.424C83.7689 110.366 83.6864 110.277 83.6131 110.178C83.2283 110.405 82.7695 110.74 82.4945 111.164C81.9539 111.992 81.1928 112.072 80.6521 112.15C80.4317 112.19 80.2579 112.486 80.1201 112.821C80.2946 113.304 80.6155 114.092 81.0004 114.458C81.5783 115.01 83.6131 114.941 83.6131 114.458C83.6131 113.974 85.2724 113.777 85.6486 113.777C86.0242 113.777 87.244 112.476 87.4364 112.544C87.6288 112.614 88.9032 112.821 89.2242 113.166C89.38 113.333 89.9027 113.501 90.434 113.63C90.205 113.412 90.0305 113.136 90.0305 112.909C90.0305 112.544 90.6724 111.578 90.8835 111.391C90.9014 111.371 90.9108 111.351 90.9201 111.322C90.4247 111.243 89.8933 111.135 89.7921 111.026C89.5997 110.819 88.7747 110.543 88.1328 110.612L88.1422 110.632Z" fill="#6B6B6B" stroke="#1C1D20" stroke-width="0.5" stroke-miterlimit="10"/>
<path d="M56.5313 105.123C56.8795 104.748 57.4941 104.935 57.8423 105.309C58.1906 105.684 58.7133 105.773 59.2359 106.345C59.3731 106.493 59.5109 106.621 59.6574 106.739C59.7034 106.345 59.7127 105.556 59.8771 105.152C60.0516 104.728 59.7034 104.165 59.9877 104.165C60.272 104.165 61.069 104.165 61.069 103.613C61.069 103.061 61.2987 103.248 61.4725 102.933C61.6469 102.628 60.9591 102.016 60.84 101.829C60.7301 101.641 61.3533 101.583 61.8121 100.852C61.9772 100.586 61.9033 100.034 61.7568 99.4424C61.6836 99.6591 61.5278 99.8172 61.2708 99.6498C60.84 99.3737 60.1894 99.5311 59.3272 99.7085C58.4749 99.8959 58.2179 100.784 58.5295 101.148C58.8418 101.523 57.7045 101.701 57.6219 101.208C57.5394 100.714 56.6778 101.05 56.7331 101.701C56.7877 102.341 55.7889 102.588 55.8528 103.387C55.9081 104.185 54.9359 104.925 54.3127 105.319C54.2115 105.379 54.111 105.447 54.0098 105.507C54.322 105.665 54.5784 105.763 54.6976 105.763C55.2203 105.763 56.1831 105.487 56.5313 105.102V105.123Z" fill="#6B6B6B" stroke="#1C1D20" stroke-width="0.5" stroke-miterlimit="10"/>
<path d="M52.9765 106.384C53.0225 106.709 53.4899 107.488 53.6643 107.162C53.8388 106.837 54.2603 107.577 54.6451 107.803C55.0306 108.03 55.8003 108.306 55.8463 108.582C55.8922 108.858 56.0207 109.46 56.4056 109.273C56.7905 109.085 57.2579 108.444 57.2579 108.809C57.2579 109.175 57.3864 109.864 57.8172 109.775C58.2487 109.687 58.3765 110.554 58.7986 110.466C58.8719 110.456 58.9817 110.436 59.1102 110.436C59.055 109.391 59.4032 108.908 59.7887 108.671C59.88 108.484 60.137 108.297 60.1736 108.07C60.2289 107.764 59.605 107.153 59.6602 106.778C59.6602 106.758 59.6602 106.729 59.6602 106.709C59.5224 106.591 59.3759 106.463 59.2387 106.315C58.7161 105.753 58.1934 105.664 57.8452 105.279C57.4963 104.904 56.8824 104.718 56.5341 105.092C56.1859 105.467 55.2231 105.753 54.7004 105.753C54.5812 105.753 54.3242 105.644 54.0126 105.497C53.6004 105.753 53.1603 105.999 52.7295 106.088C52.8121 106.216 52.9492 106.147 52.9765 106.364V106.384Z" fill="#6B6B6B" stroke="#1C1D20" stroke-width="0.5" stroke-miterlimit="10"/>
<path d="M103.19 115.019C102.961 114.221 102.219 113.915 101.825 113.915C101.431 113.915 100.743 112.938 100.285 112.998C100.037 113.028 99.4232 113.195 98.8818 113.383C99.3772 114.388 99.9086 115.414 100.156 115.719C100.679 116.38 101.816 118.155 101.375 118.628C101.037 118.993 101.174 120.502 101.706 120.965C101.953 120.62 102.796 119.476 102.796 119.131C102.796 118.767 102.852 118.027 103.539 118.214C104.227 118.402 104.85 118.707 104.85 118.46C104.85 118.214 104.676 117.415 104.392 117.11C104.107 116.804 103.42 115.818 103.19 115.019Z" fill="#6B6B6B" stroke="#1C1D20" stroke-width="0.5" stroke-miterlimit="10"/>
<path d="M99.4852 124.477C99.0265 124.418 97.6056 124.477 97.2021 124.911C96.7993 125.345 96.2859 125.582 95.8364 125.522C95.3777 125.464 94.0667 125.404 93.783 125.464C93.4987 125.522 91.9586 125.158 91.7289 125.217C91.5278 125.266 91.1516 124.517 90.6289 124.418C90.6016 124.487 90.5557 124.556 90.4731 124.615C90.0882 124.891 90.0423 125.631 90.4731 126.045C90.9039 126.459 91.4539 127.376 91.069 127.376C90.6842 127.376 90.3812 127.929 90.4272 128.205C90.4731 128.481 90.2993 129.082 90.4272 129.22C90.5557 129.358 91.4539 130.275 91.4998 130.552C91.5364 130.798 91.9033 130.916 91.876 131.133C92.5911 131.074 94.1219 130.985 94.4615 131.162C94.9196 131.409 96.5149 131.528 96.5149 131.528C96.973 131.528 97.3672 131.341 97.2574 131.034C97.1568 130.778 97.7528 130.601 98.1835 130.552C98.1103 130.265 98.055 130.039 98.1649 129.989C98.376 129.901 99.6224 129.713 100.136 129.989C100.393 130.127 100.686 129.989 100.915 129.831C100.851 129.575 100.778 129.368 100.65 129.338C100.338 129.279 99.8521 127.869 100.246 127.771C100.65 127.682 101.163 126.203 101.786 125.996C102.034 125.907 102.144 125.749 102.19 125.552C101.649 125.355 101.108 125.118 101.016 124.951C100.842 124.645 99.9347 124.517 99.4759 124.457L99.4852 124.477Z" fill="#6B6B6B" stroke="#1C1D20" stroke-width="0.5" stroke-miterlimit="10"/>
<path d="M102.142 121.098C101.717 121.035 101.176 120.835 101.359 120.573C101.369 120.552 101.399 120.521 101.418 120.499C100.857 120.005 100.703 118.398 101.07 118.01C101.524 117.506 100.336 115.615 99.7853 114.911C99.5243 114.585 98.9645 113.493 98.4426 112.421C97.9697 112.589 97.5446 112.778 97.4576 112.925C97.2738 113.251 96.6754 113.577 96.3177 113.577C95.9606 113.577 95.593 113.377 95.2941 113.703C94.9946 114.029 94.5695 114.165 94.3955 113.966C94.2124 113.766 93.6133 113.577 93.1882 113.577C92.7631 113.577 91.4498 113.178 91.1503 113.178C90.9763 113.178 90.6866 113.209 90.3681 113.251C90.4355 113.388 90.3871 113.566 90.1745 113.735C89.8174 114.029 89.0927 114.47 88.8219 114.669C88.5519 114.869 87.6055 117.316 86.9777 117.999C86.3498 118.682 85.7605 118.787 85.7121 119.029C85.6637 119.27 86.4368 119.911 86.4368 120.3C86.4368 120.688 86.6199 121.088 87.1124 121.088C87.6056 121.088 87.0647 122.359 87.3832 122.464C87.7017 122.558 89.6336 122.705 89.6336 123.199C89.6336 123.577 89.8462 123.903 89.7494 124.165C90.2902 124.261 90.6964 125.069 90.909 125.017C91.1503 124.953 92.7729 125.342 93.0724 125.279C93.372 125.216 94.7533 125.279 95.2359 125.342C95.7185 125.405 96.2601 125.142 96.6754 124.691C97.0998 124.229 98.5976 124.165 99.0802 124.229C99.5629 124.292 100.52 124.428 100.703 124.754C100.8 124.922 101.359 125.185 101.94 125.395C102.007 125.069 101.92 124.649 101.94 124.229C101.968 123.546 102.325 122.496 102.963 122.433C103.591 122.369 104.103 122.369 104.016 121.225C104.016 121.182 104.016 121.151 104.016 121.12C103.698 120.825 103.398 120.573 103.301 120.573C103.06 120.573 102.335 121.12 102.161 121.098H102.142Z" fill="#6B6B6B" stroke="#1C1D20" stroke-width="0.5" stroke-miterlimit="10"/>
<path d="M87.8495 132.84C87.8495 132.84 87.8955 132.811 87.9235 132.801C87.9235 132.801 87.9234 132.801 87.9414 132.801C87.9687 132.801 88.0053 132.791 88.0513 132.781C88.0513 132.781 88.0606 132.781 88.0699 132.781C88.2351 132.761 88.4548 132.781 88.6838 132.771C88.6932 132.771 88.7118 132.771 88.7298 132.771C88.7851 132.771 88.831 132.771 88.8856 132.761C88.9043 132.761 88.9222 132.761 88.9502 132.761C89.0141 132.761 89.078 132.741 89.1426 132.722C89.656 132.584 89.7845 131.982 90.0408 132.12C90.2978 132.258 91.6635 131.509 91.8379 131.233C91.8559 131.203 91.8745 131.173 91.8745 131.134C91.9018 130.917 91.535 130.799 91.4983 130.552C91.4531 130.276 90.5542 129.359 90.4257 129.221C90.3984 129.192 90.3891 129.143 90.3804 129.083C90.3804 129.083 90.3804 129.073 90.3804 129.063C90.3804 128.994 90.3804 128.925 90.3804 128.836C89.0414 129.044 87.0525 129.487 87.0525 129.487C87.0525 129.487 87.0066 129.448 86.942 129.399C86.7403 130.099 86.6031 131.065 86.7316 131.548C86.8594 132.032 87.2629 132.366 87.8495 132.84Z" fill="#6B6B6B" stroke="#1C1D20" stroke-width="0.5" stroke-miterlimit="10"/>
<path d="M120.635 115.682C120.938 115.643 121.836 114.577 122.13 114.577C122.422 114.577 123.716 114.854 123.716 114.627C123.716 114.4 124.146 113.611 124.054 113.384C123.972 113.158 123.541 112.832 123.624 112.605C123.706 112.379 124.311 112.379 124.311 112.103C124.311 111.826 123.843 111.688 123.843 111.501C123.843 111.314 124.439 110.998 124.403 110.623C124.357 110.259 123.843 110.209 123.293 109.884C122.734 109.558 122.184 109.696 121.661 109.42C121.148 109.144 120.075 109.332 120.075 109.144C120.075 108.957 119.388 108.365 119.223 108.04C119.049 107.714 118.499 107.902 118.15 108.128C117.812 108.355 117.509 108.454 117.17 108.217C116.83 107.99 116.528 107.616 116.225 107.754C115.923 107.892 115.373 107.803 115.501 107.339C115.63 106.877 114.942 105.87 114.648 105.732C114.346 105.594 113.448 105.821 113.237 105.367C113.025 104.904 112.641 104.539 112.806 104.214C112.98 103.889 112.76 103.02 112.549 102.646C112.338 102.282 111.266 102.321 110.963 102.459C110.66 102.597 109.973 102.321 109.68 102.508C109.377 102.696 109.212 103.011 108.781 103.011C108.542 103.011 108.387 102.981 108.249 102.774C107.791 103.001 107.012 103.04 107.012 103.04C107.012 103.04 105.866 104.027 105.866 104.392C105.866 104.756 105.81 105.377 105.526 105.072C105.242 104.766 104.041 104.766 103.757 104.953C103.473 105.141 103.015 104.214 102.501 104.52C101.988 104.825 101.3 104.086 101.245 104.401C101.19 104.707 100.447 104.46 99.9337 104.214C99.4203 103.968 98.5035 104.332 98.1646 103.908C97.825 103.475 95.5977 103.475 94.8547 103.475C94.1123 103.475 93.9378 103.908 93.5989 104.273C93.2873 104.608 92.9297 104.539 92.5628 104.52C92.5995 104.825 92.6547 105.101 92.728 105.22C92.9024 105.496 93.7088 106.827 93.4984 107.241C93.2873 107.656 92.9024 107.656 92.6454 107.98C92.3891 108.306 90.8943 109.726 90.8483 109.962C90.803 110.189 91.1053 111.205 90.8942 111.392C90.6838 111.58 90.042 112.546 90.042 112.911C90.042 113.276 90.5094 113.789 90.8942 113.927C91.0594 113.986 91.1606 114.065 91.2059 114.163C91.5088 114.124 91.7838 114.094 91.9489 114.094C92.2326 114.094 93.489 114.469 93.8832 114.469C94.2774 114.469 94.8547 114.656 95.0291 114.834C95.2036 115.021 95.5977 114.893 95.8814 114.587C96.1657 114.281 96.5146 114.469 96.8535 114.469C97.1924 114.469 97.7704 114.163 97.9355 113.858C98.1093 113.552 99.8145 113.059 100.273 113C100.731 112.941 101.419 113.917 101.813 113.917C102.208 113.917 102.95 114.223 103.179 115.021C103.409 115.82 104.096 116.806 104.38 117.112C104.665 117.417 104.839 118.216 104.839 118.462C104.839 118.709 104.215 118.404 103.528 118.216C102.84 118.029 102.785 118.768 102.785 119.133C102.785 119.498 101.813 120.79 101.648 121.036C101.474 121.283 101.988 121.47 102.391 121.529C102.565 121.559 103.244 121.036 103.473 121.036C103.565 121.036 103.849 121.273 104.151 121.549C104.087 120.592 104.27 120.642 105.068 119.991C105.893 119.321 105.985 118.058 106.718 117.901C107.461 117.743 107.773 117.378 108.854 117.565C109.936 117.753 108.313 118.482 109.056 118.916C109.799 119.35 112.081 118.798 112.2 119.409C112.31 120.02 109.578 120.642 109.634 120.947C109.688 121.253 111.091 121.559 111.577 121.894C112.063 122.229 111.43 123.185 111.66 123.491C111.889 123.797 112.631 123.551 113.227 123.087C113.823 122.624 114.309 122.781 115.079 122.229C115.849 121.677 117.445 122.17 117.646 121.835C117.848 121.499 117.188 121.164 115.703 121.283C114.217 121.401 114.135 119.902 114.135 119.597C114.135 119.291 115.675 118.029 116.555 117.94C117.445 117.851 118.15 117.565 119.012 117.141C119.36 116.964 119.966 116.796 120.58 116.668C120.488 116.234 120.369 115.721 120.626 115.682H120.635Z" fill="#6B6B6B" stroke="#1C1D20" stroke-width="0.5" stroke-miterlimit="10"/>
<path d="M92.2039 90.763C92.7266 90.763 93.9458 91.0491 94.6429 90.763C95.3394 90.4769 95.3394 91.3252 95.7795 91.2265C96.2103 91.1378 97.0906 91.788 97.6133 92.2615C97.8882 92.5083 98.2272 92.715 98.5941 92.9418C98.6766 92.7844 98.7865 92.6363 98.9703 92.4883C99.4284 92.1235 99.8864 92.3009 100.281 92.3009C100.675 92.3009 100.739 91.808 101.024 91.5613C101.18 91.4232 101.436 91.3445 101.62 91.3052C101.464 90.9697 101.455 90.2995 101.207 90.0334C100.905 89.7079 100.482 89.1557 100.611 88.8403C100.739 88.5148 100.739 88.0613 100.4 87.6865C100.253 87.5284 100.134 87.341 100.07 87.1536C99.3731 87.0556 98.4382 86.9469 98.2272 87.0256C97.8882 87.1443 96.5133 85.9805 96.2836 85.7931C96.1371 85.6751 95.1197 85.7338 94.2028 85.8325C93.6801 86.4634 94.0557 86.9175 94.0284 87.8832C94.0011 88.8696 93.0017 88.6822 92.461 88.6822C91.9197 88.6822 91.0308 86.9369 90.7464 86.5327C90.4621 86.1379 89.5453 87.0256 88.8947 87.4497C88.2342 87.8832 88.5825 88.7115 88.1244 89.1064C87.6663 89.5005 87.382 90.1808 87.8401 91.0684C87.8587 91.1078 87.868 91.1471 87.886 91.1771C88.4546 91.1278 89.0685 91.0191 89.4168 90.743C90.0313 90.2701 91.6813 90.743 92.2039 90.743V90.763Z" fill="#6B6B6B" stroke="#1C1D20" stroke-width="0.5" stroke-miterlimit="10"/>
<path d="M88.9673 94.1404C89.1777 94.4659 89.8655 94.742 90.1225 94.6039C90.3789 94.4659 91.1952 94.9294 91.1952 95.2942C91.1952 95.659 90.9842 96.7727 91.1952 96.7727C91.3877 96.7727 92.6254 97.1869 92.7073 97.7391C93.258 97.7491 93.8905 97.7791 94.1196 97.8478C94.5777 97.9658 94.862 97.6604 95.0911 97.355C95.3208 97.0488 96.1178 96.9208 96.3475 96.9208C96.5765 96.9208 96.5765 96.2505 96.6318 95.9351C96.6864 95.629 97.2643 95.0768 97.6032 94.9587C97.9422 94.8407 97.8876 94.4065 98.2265 94.4065C98.5661 94.4065 98.5108 93.9137 98.4562 93.6076C98.4189 93.4201 98.4562 93.1934 98.5934 92.9573C98.2265 92.7299 97.8969 92.5331 97.6126 92.2764C97.0899 91.8035 96.219 91.1526 95.7789 91.2413C95.3387 91.34 95.3388 90.4917 94.6423 90.7778C93.9451 91.0639 92.726 90.7778 92.2033 90.7778C91.6806 90.7778 90.0213 90.3043 89.4161 90.7778C89.0679 91.0439 88.4626 91.1626 87.8853 91.212C88.2702 92.0696 88.133 92.9373 87.6929 93.4695C87.3813 93.8443 87.5644 93.8937 87.7934 94.0417C88.2615 93.9924 88.7929 93.8937 88.9673 94.1598V94.1404Z" fill="#6B6B6B" stroke="#1C1D20" stroke-width="0.5" stroke-miterlimit="10"/>
<path d="M67.5698 117.341C67.1842 117.528 66.5883 116.966 66.5883 116.788C66.5883 116.66 66.5057 116.207 66.5883 115.921C66.2674 115.743 65.8186 115.507 65.4704 115.399C64.9017 115.211 64.6174 115.211 64.1593 115.457C63.8657 115.615 63.068 115.566 62.518 115.517C62.4721 115.704 62.3895 115.822 62.261 115.822C61.8761 115.822 61.3628 116.236 61.2802 116.7C61.1977 117.163 60.2995 117.528 60.0424 118.356C59.7861 119.185 59.9146 119.549 60.2994 119.047C60.6843 118.544 61.1517 118.721 61.1517 119.135C61.1517 119.549 61.6651 119.599 61.4913 120.151C61.4913 120.161 61.4913 120.171 61.4913 120.18C62.0779 120.122 62.8942 120.052 63.1413 120.052C63.5448 120.052 63.9389 118.702 64.1134 118.583C64.2872 118.465 64.7459 119.57 65.1947 119.994C65.6535 120.427 65.7087 119.619 65.7087 119.254C65.7087 118.889 66.1116 118.761 66.3959 118.82C66.6802 118.879 67.3128 119.007 67.3128 118.573C67.3128 118.14 67.6523 118.327 67.8814 118.327C68.1104 118.327 68.1657 117.834 68.1657 117.834L68.5412 117.459C68.2389 117.291 67.8814 117.183 67.5784 117.331L67.5698 117.341Z" fill="#6B6B6B" stroke="#1C1D20" stroke-width="0.5" stroke-miterlimit="10"/>
<path d="M61.8226 100.85C61.3639 101.589 60.7407 101.648 60.8505 101.826C60.9697 102.013 61.6482 102.624 61.4831 102.93C61.3093 103.236 61.0796 103.058 61.0796 103.611C61.0796 104.163 60.2819 104.163 59.9983 104.163C59.7139 104.163 60.0528 104.715 59.8877 105.149C59.7139 105.583 59.7139 106.44 59.6587 106.805C59.6041 107.17 60.2273 107.792 60.172 108.097C60.1174 108.402 59.6587 108.649 59.7778 108.896C59.8877 109.132 60.3005 109.477 60.3924 110.611C60.5848 110.671 60.75 110.749 60.8232 110.858C61.0796 111.223 61.5103 111.499 62.061 111.499C62.611 111.499 62.8307 111.913 63.0878 111.864C63.3441 111.814 64.0319 112.051 63.4726 112.554C62.9133 113.057 62.8307 113.658 62.7022 114.26C62.6196 114.644 62.6196 115.187 62.5377 115.522C63.0784 115.571 63.8854 115.62 64.1784 115.463C64.6372 115.216 64.9208 115.216 65.4894 115.404C65.829 115.512 66.2871 115.749 66.6081 115.927C66.6447 115.808 66.6999 115.709 66.8191 115.69C67.2039 115.65 67.6714 116.469 67.9284 116.015C68.1847 115.552 68.7807 115.65 69.0836 115.828C69.3859 116.015 69.8533 116.104 70.1929 115.739C70.5318 115.374 71.8609 115.187 72.1638 115.325C72.4661 115.463 73.2365 115.828 72.9335 114.723C72.6312 113.619 73.5754 113.846 73.7039 113.432C73.8324 113.017 74.9417 112.83 74.7766 112.515C74.6021 112.189 73.1905 111.223 72.7691 110.907C72.3376 110.582 72.3376 109.566 72.1272 109.162C71.9161 108.748 71.4394 108.196 71.9987 108.058C72.558 107.92 73.5388 107.693 74.0062 107.229C74.4743 106.766 75.3359 106.726 75.5922 106.45C75.8492 106.174 76.4452 106.677 76.6196 106.401C76.7934 106.125 76.9219 105.573 76.6649 105.247C76.4086 104.922 76.2341 104.37 76.1975 103.591C76.1515 102.812 75.9411 102.851 75.9411 102.486C75.9411 102.121 75.8126 101.658 75.5096 101.471C75.2074 101.283 75.0789 101.145 75.3818 100.642C75.6841 100.139 75.5556 98.8475 75.4278 98.4827C75.3998 98.414 75.4091 98.3253 75.4278 98.2266C75.3538 98.1873 75.2899 98.1079 75.2626 97.9699C75.1801 97.477 74.8685 97.2996 74.1254 97.2996C73.383 97.2996 74.5842 96.5006 74.2998 96.1065C74.0155 95.7124 73.2731 96.8461 72.5853 96.5994C71.8981 96.3533 71.0179 97.4577 70.4127 97.9505C69.8167 98.4434 68.9551 97.8618 69.4132 97.1516C69.872 96.452 69.4132 96.5107 68.7261 96.7868C68.0383 97.0629 67.2133 96.7281 67.2958 96.0472C67.3138 95.8798 67.2679 95.7217 67.1853 95.5743C66.8557 95.6237 66.5987 95.633 66.4702 95.5936C66.1679 95.4856 65.4714 95.4263 64.7104 95.4062C64.9394 95.7617 65.1871 96.1165 65.04 96.3926C64.7836 96.9148 65.1871 97.4083 65.554 98.1673C65.9202 98.9362 64.7564 98.5027 64.7284 98.9956C64.7011 99.4884 63.6471 98.9662 63.2982 98.7788C62.9592 98.5914 61.8133 98.7195 61.8406 99.0256C61.8499 99.1436 61.8406 99.311 61.786 99.4591C61.9418 100.051 62.0057 100.593 61.8406 100.869L61.8226 100.85Z" fill="#6B6B6B" stroke="#1C1D20" stroke-width="0.5" stroke-miterlimit="10"/>
<path d="M105.01 74.1501C105.468 73.0457 107.522 72.188 107.861 71.2016C108.036 70.7088 108.091 70.462 107.348 69.545C106.606 68.628 104.955 68.0071 104.891 67.5236C104.836 67.0307 106.147 66.9714 106.092 66.3605C106.037 65.7489 105.349 65.7489 105.065 65.2561C104.781 64.7632 105.405 64.4571 105.349 64.211C105.295 63.9643 104.432 63.8462 104.378 63.5301C104.323 63.2247 104.946 63.284 104.836 62.9192C104.726 62.5544 104.149 61.8735 104.552 61.3213C104.955 60.7698 105.808 61.3213 105.175 60.0988C104.552 58.8664 103.58 57.3378 103.351 56.963C103.121 56.5982 103.58 55.9773 103.919 55.7405C104.259 55.4938 105.12 54.5768 105.12 54.202C105.12 53.8278 104.038 52.8515 103.754 52.6641C103.47 52.4767 102.838 52.546 102.553 51.9244C102.269 51.3129 101.985 51.1255 102.269 50.7607C102.553 50.3959 102.553 50.0211 102.553 49.6563C102.553 49.2915 103.177 49.5976 103.296 49.0454C103.351 48.7986 103.516 48.5225 103.727 48.2858C103.727 47.8716 103.773 47.4181 103.727 47.132C103.635 46.5404 102.077 46.3437 101.71 45.6534C101.343 44.9632 100.426 45.2586 100.151 45.6534C99.8761 46.0476 98.2261 45.5547 98.2261 46.1463C98.2261 46.7378 97.0342 46.8366 97.0342 47.5268C97.0342 48.2171 97.5843 49.4002 96.6674 49.3015C95.7505 49.2028 96.3924 49.6963 95.8424 50.4846C95.2924 51.2735 95.2924 49.9917 94.7424 50.1891C94.1924 50.3865 93.5506 49.5976 93.2756 50.0904C93.0006 50.5833 92.0837 50.1891 91.1669 49.9917C90.25 49.7943 89.7919 48.4138 89.0581 48.3158C88.5721 48.2464 88.0494 48.6706 87.7744 49.3308C88.4809 49.8243 88.9483 50.5246 89.8738 50.9781C90.8826 51.471 92.7163 52.0625 92.6244 52.7528C92.5325 53.443 92.2575 54.4294 92.7163 54.7248C93.1744 55.0209 92.6244 56.3028 93.1744 56.5982C93.7244 56.8943 93.5412 58.3735 93.0831 58.3735C92.6244 58.3735 93.1744 59.1618 93.4494 59.4579C93.5779 59.596 93.6784 59.9901 93.7243 60.4836C94.2837 60.6317 94.7884 60.9371 95.2738 61.1739C96.0442 61.5387 95.925 62.1203 95.9616 62.7712C95.9889 63.4121 96.0168 63.7869 95.6227 63.5108C95.2192 63.2347 94.797 63.5108 94.568 64.4278C94.3389 65.3448 93.2569 66.4492 92.5971 66.5179C91.9366 66.5772 92.0012 67.3169 91.4512 67.4649C90.9098 67.6223 90.3965 67.9578 90.4244 68.5987C90.4517 69.2396 89.6268 69.3089 89.0855 69.3089C88.5448 69.3089 88.6546 70.354 88.2332 70.6301C87.8024 70.9062 87.8936 71.271 88.2878 71.8232C88.6913 72.3754 88.343 72.8683 88.4895 73.2631C88.6367 73.6572 89.2599 74.5842 88.8291 75.5899C88.3983 76.6057 87.9489 77.8581 88.3157 77.7394C88.6819 77.6214 89.5442 78.5677 90.1122 78.5084C90.6808 78.4497 90.7454 79.3667 91.286 79.1793C91.8267 78.9919 91.8267 79.7315 93.3948 79.6721C94.9621 79.6128 98.1249 78.2029 99.3907 78.2029C100.105 78.2029 100.674 78.1142 101.123 77.9962C101.389 77.562 101.719 77.0885 102.049 76.7337C102.846 75.876 104.561 75.2645 105.02 74.1601L105.01 74.1501Z" fill="#6B6B6B" stroke="#1C1D20" stroke-width="0.5" stroke-miterlimit="10"/>
<path d="M63.0756 111.865C62.8192 111.915 62.6081 111.5 62.0488 111.5C61.4895 111.5 61.0681 111.224 60.8111 110.859C60.5547 110.485 59.225 110.396 58.8035 110.485C58.3727 110.573 58.2442 109.706 57.8228 109.794C57.392 109.883 57.2635 109.193 57.2635 108.828C57.2635 108.463 56.796 109.104 56.4105 109.292C56.0256 109.479 55.8971 108.877 55.8512 108.601C55.8059 108.325 55.0355 108.049 54.6507 107.822C54.2652 107.596 53.8344 106.856 53.6692 107.182C53.4955 107.506 53.028 106.718 52.9821 106.402C52.9548 106.185 52.817 106.255 52.7344 106.126C52.5879 106.156 52.4408 106.175 52.2943 106.175C51.6065 106.146 51.0112 106.727 51.1304 107.96C51.2403 109.183 50.3047 109.311 49.1315 109.4C47.9583 109.488 48.3612 110.475 47.8758 110.869C47.3897 111.273 45.6752 110.652 45.4461 109.982C45.2171 109.311 43.6763 109.982 44.3368 110.78C44.9967 111.579 44.9601 112.684 44.5932 112.989C44.227 113.294 43.42 112.496 42.9066 112.9C42.3932 113.304 42.3659 112.536 41.742 112.289C41.1188 112.043 40.8531 112.595 39.863 112.506C38.8636 112.417 38.295 113.028 38.6619 113.492C39.0287 113.955 38.6066 114.38 38.8909 114.784C39.1752 115.178 40.4863 115.119 41.4577 115.671C42.4299 116.224 42.6589 115.76 43.145 116.164C43.631 116.558 43.7409 116.312 43.7682 117.081C43.7955 117.85 44.3368 118.58 45.281 118.856C46.2251 119.132 45.51 119.803 45.7943 120.483C46.0787 121.153 45.3635 122.14 45.51 122.968C45.6572 123.796 45.0519 126.469 44.5932 126.715C44.5659 126.735 44.5199 126.735 44.4833 126.735C44.9141 126.962 45.3636 127.168 45.5833 127.316C46.0054 127.612 46.9036 127.918 47.4536 128.283C48.0036 128.658 48.985 128.579 48.985 128.135C48.985 127.691 49.535 127.987 49.8833 128.361C50.2315 128.736 51.5519 128.816 52.1751 128.963C52.6978 129.092 53.4682 129.012 54.1553 129.022C54.128 128.855 54.0914 128.678 54.0361 128.49C53.6972 127.297 54.6873 126.587 55.6315 126.429C56.5756 126.281 58.6291 126.892 59.1704 127.258C59.7111 127.622 60.4535 127.533 61.3983 126.459C61.8751 125.917 62.2599 125.719 62.6082 125.61C62.6355 125.374 62.746 125.128 62.8285 124.911C62.9564 124.536 62.3605 124.635 61.9297 124.585C61.4989 124.536 61.2052 124.082 61.4989 123.57C61.8011 123.067 61.2425 123.017 60.9396 122.515C60.6373 122.012 61.0681 122.15 61.3244 122.012C61.5814 121.874 61.9203 121.321 61.7099 121.183C61.4989 121.045 61.3244 120.72 61.4989 120.168C61.6733 119.615 61.1599 119.566 61.1599 119.152C61.1599 118.738 60.6919 118.55 60.307 119.063C59.9221 119.566 59.7936 119.201 60.0507 118.373C60.307 117.545 61.2059 117.18 61.2878 116.716C61.3704 116.253 61.8837 115.839 62.2692 115.839C62.6541 115.839 62.5715 114.872 62.7 114.271C62.8286 113.669 62.9105 113.078 63.4698 112.565C64.0291 112.062 63.3419 111.825 63.0849 111.875L63.0756 111.865ZM66.1284 127.484C65.8168 127.454 65.7256 128.066 64.928 128.589C64.1303 129.111 64.9279 131.468 65.7256 131.349C66.5506 131.231 66.4407 127.514 66.1284 127.484Z" fill="#6B6B6B" stroke="#1C1D20" stroke-width="0.5" stroke-miterlimit="10"/>
<path d="M54.1469 128.997C53.4597 128.977 52.6893 129.056 52.1667 128.937C51.5434 128.789 50.2231 128.711 49.8748 128.336C49.5266 127.961 48.9766 127.666 48.9766 128.109C48.9766 128.553 48.0045 128.632 47.4452 128.257C46.8859 127.882 45.9877 127.586 45.5755 127.291C45.3551 127.133 44.9057 126.936 44.4749 126.709C43.8976 126.827 42.229 126.176 41.1377 126.315C39.9645 126.473 36.2331 126.127 34.7756 126.255C33.318 126.374 33.2355 125.614 32.4378 125.614C31.6401 125.614 31.979 126.66 30.8424 126.689C29.6965 126.719 29.5867 127.488 30.4116 128.198C30.8791 128.602 30.8238 129.45 30.7599 130.229C30.9983 130.2 31.1727 130.131 31.2732 129.993C31.6215 129.549 31.9704 129.618 31.9704 130.071C31.9704 130.525 32.7308 130.367 33.1529 130.367C33.5744 130.367 33.4279 130.742 33.914 130.367C34.3994 129.993 35.0965 130.141 35.0965 130.594C35.0965 131.048 36.1326 130.821 35.5819 131.412C35.0233 132.014 34.3354 132.162 34.3354 132.606C34.3354 133.05 34.9587 134.025 34.4726 134.548C33.9872 135.071 34.6104 135.968 34.1244 135.968C33.6383 135.968 33.0797 136.195 33.6383 136.786C34.1976 137.388 34.6104 137.911 34.1976 137.911C33.7855 137.911 33.5011 138.808 33.7122 139.035C33.9226 139.261 34.8947 139.932 34.1337 140.08C33.3726 140.228 33.3727 140.899 33.3727 141.352C33.3727 141.52 33.5012 141.766 33.657 142.022C34.0145 141.954 34.3628 141.944 34.6837 142.101C35.4814 142.496 35.9488 144.635 37.0214 144.497C37.4802 144.439 37.2505 144.064 37.4802 143.817C37.7093 143.57 38.1307 143.758 38.5895 143.758C39.0476 143.758 39.2766 143.048 40.3586 143.018C41.4406 142.989 42.1278 142.89 42.8156 142.929C43.5034 142.959 44.0441 142.713 44.2092 142.19C44.3837 141.668 44.9516 141.204 45.722 141.086C46.4917 140.967 46.3818 140.1 46.4371 139.617C46.4917 139.123 47.7754 138.384 47.8673 138.019C47.9499 137.654 47.1243 136.244 47.8946 134.982C48.665 133.72 49.49 133.661 49.49 132.96C49.49 132.31 50.2876 132.073 51.2591 131.945C52.2312 131.827 52.5429 131.117 53.3678 130.752C54.0643 130.446 54.312 129.894 54.1655 129.016L54.1469 128.997ZM54.3213 135.712C54.1748 134.666 52.2219 136.027 52.6347 136.323C53.487 136.934 54.4591 136.757 54.3213 135.712Z" fill="#6B6B6B" stroke="#1C1D20" stroke-width="0.5" stroke-miterlimit="10"/>
<path d="M72.7774 120.808C73.2355 120.612 73.7582 120.532 74.0059 120.641C74.2256 120.74 74.2989 120.986 74.3448 121.262C74.739 121.203 75.4634 121.084 75.7018 120.976C76.0414 120.838 76.8111 121.301 76.903 121.025C76.9855 120.75 77.2419 120.108 77.5901 120.108C77.939 120.108 77.7186 119.142 78.0582 119.093C78.3971 119.044 79.2587 118.215 79.2587 118.215C79.2587 118.215 78.9198 117.476 78.7913 117.436C78.6628 117.387 78.232 117.9 77.4623 117.9C76.6919 117.9 76.1326 118.541 75.7937 118.541C75.4541 118.541 74.3814 118.176 73.6577 118.127C73.4006 118.107 73.135 118.087 72.8873 118.057C72.8141 118.758 72.7408 119.823 72.7868 120.808H72.7774Z" fill="#6B6B6B" stroke="#1C1D20" stroke-width="0.5" stroke-miterlimit="10"/>
<path d="M98.1806 130.562C97.7498 130.611 97.1539 130.779 97.2551 131.045C97.365 131.35 96.9708 131.538 96.5121 131.538C96.5121 131.538 94.9167 131.42 94.4586 131.173C94.1103 130.986 92.5882 131.084 91.8731 131.144C91.8731 131.173 91.8638 131.202 91.8365 131.242C91.6627 131.518 90.2964 132.267 90.0394 132.129C89.7831 131.991 89.6546 132.593 89.1412 132.731C88.6278 132.869 87.8574 132.682 87.8122 132.918C87.7662 133.145 87.4267 133.796 87.1244 134.112C86.8221 134.437 87.0784 134.802 86.6569 134.89C86.3726 134.95 86.2535 135.511 86.0977 136.015C86.125 136.034 86.1522 136.054 86.1802 136.064C86.8034 136.281 87.2895 137.079 87.2069 137.839C87.1244 138.608 88.1238 138.884 88.5726 138.332C89.0313 137.78 90.3144 138.637 90.3144 139.012C90.3144 139.387 89.004 138.618 88.2609 139.199C87.5185 139.782 88.8296 140.333 88.6645 140.945C88.49 141.556 89.004 142.414 89.6639 142.385C90.3237 142.355 91.0575 143.518 91.461 143.302C91.8638 143.085 90.9749 141.458 91.1214 141.211C91.2679 140.965 92.0656 141.645 92.4598 141.152C92.8633 140.659 92.1761 140.294 91.5802 140.324C90.9842 140.353 91.5522 139.466 92.2673 139.929C92.9824 140.393 93.322 139.811 93.6609 139.742C94.0005 139.683 94.0917 138.361 93.0377 138.056C91.983 137.75 92.1208 138.884 91.4423 138.115C90.7545 137.346 92.0749 137.651 92.0749 137.011C92.0749 136.37 91.0209 135.443 90.5075 134.674C89.9941 133.904 91.2226 133.539 91.5063 134.092C91.7906 134.644 92.5609 134.555 93.047 134.338C93.5324 134.122 92.5337 133.145 93.4132 132.77C94.3028 132.406 94.3028 133.046 94.5871 133.174C94.8714 133.293 95.1278 132.406 96.0446 132.406C96.5214 132.406 96.9429 132.741 97.3464 133.076C97.594 132.78 97.7958 132.613 97.7958 132.366C97.7958 132.041 98.3551 131.903 98.3551 131.4C98.3551 131.153 98.2632 130.848 98.1993 130.582L98.1806 130.562ZM96.5673 146.043C96.1086 145.767 94.0551 146.23 93.5144 145.678C92.9731 145.126 91.8638 146.112 92.3406 146.201C93.0284 146.319 94.0551 146.97 95.1644 146.999C96.2737 147.029 97.7865 146.447 97.7592 146.141C97.7319 145.836 97.0167 146.329 96.558 146.053L96.5673 146.043Z" fill="#6B6B6B" stroke="#1C1D20" stroke-width="0.5" stroke-miterlimit="10"/>
<path d="M18.3386 66.1124C19.4479 66.0531 19.4206 64.7319 19.8787 64.7906C20.3374 64.8499 21.0798 63.8736 21.3642 63.2527C21.6485 62.6411 21.0526 61.5367 20.3647 61.5367C19.6769 61.5367 19.1636 60.9552 19.3107 60.521C19.4572 60.0875 18.9345 59.5353 18.9711 59.2292C18.9991 58.9237 18.1189 59.1998 17.6601 59.3186C17.202 59.4366 16.2299 58.1254 15.8084 58.3615C15.3776 58.6083 15.6892 59.2492 15.5793 59.624C15.4695 59.9888 14.4421 59.2885 14.4421 59.7127C14.4421 60.1368 14.0113 60.2055 13.6724 59.742C13.3328 59.2785 12.5265 59.5546 12.5631 59.9294C12.5904 60.2942 12.2235 59.9888 11.5636 59.5646C10.9038 59.1405 10.2253 60.0575 10.2799 60.521C10.3352 60.9845 10.0509 61.1032 9.51021 60.0875C8.96888 59.0718 8.33632 60.1762 8.62995 60.7284C8.91427 61.2806 8.80442 61.9509 8.37362 61.6748C7.94215 61.3987 7.37418 61.8622 7.11716 62.2863C6.86081 62.7198 5.94395 61.0238 6.6038 60.6297C7.26365 60.2356 4.52306 58.5396 3.6608 58.5396C2.7992 58.5396 3.37648 59.2198 3.94511 59.7027C4.51374 60.1955 3.54161 60.0675 3.23 59.6433C2.91838 59.2198 2.31312 59.5546 1.97421 60.1662C1.63463 60.7778 1.05735 61.1225 1.00209 61.5467C0.947489 61.9809 1.97422 62.4344 2.85446 62.0396C3.73404 61.6454 4.73346 61.5761 5.19222 62.0396C5.65032 62.5031 4.36724 62.6805 4.81602 63.0553C5.27478 63.4201 4.8986 63.7355 3.81661 63.6375C2.73528 63.5481 1.42423 63.8836 1.61666 64.2784C1.81841 64.6725 4.38523 63.9429 4.41253 64.3371C4.44049 64.7412 4.41252 65.4121 5.10034 65.1067C5.78815 64.8006 5.32939 65.6589 5.66897 65.8063C6.00788 65.9644 5.92532 66.694 5.01778 66.7627C4.10091 66.822 3.66078 67.0194 4.0463 67.4336C4.5317 67.9564 5.53113 67.591 6.50326 67.3449C7.47472 67.0981 8.86833 68.3606 10.0142 68.8434C11.1602 69.3363 13.1224 68.656 13.3514 68.0151C13.5805 67.3742 15.1206 67.621 15.7445 67.1575C16.3677 66.694 17.2293 66.1418 18.3386 66.0824V66.1124Z" fill="#6B6B6B" stroke="#1C1D20" stroke-width="0.5" stroke-miterlimit="10"/>
<path d="M35.3435 97.7651C35.1051 97.5683 34.8761 97.3609 34.7016 97.1442C33.9685 96.2172 33.6655 96.9568 33.583 97.519C33.4918 98.0712 32.804 97.3316 32.3732 97.2429C31.9424 97.1442 32.5017 96.2665 32.804 96.0398C33.0057 95.8817 33.2075 95.4582 33.3266 94.8567C33.2441 94.8567 33.1615 94.8467 33.0883 94.8173C32.2906 94.4819 31.172 94.4818 31.1447 95.2508C31.1174 96.0198 32.0249 95.7437 32.0615 96.2372C32.0888 96.73 31.1447 96.602 30.4935 97.0948C29.843 97.5877 29.1278 96.7594 28.44 97.1242C27.7522 97.489 29.1824 97.9231 28.6691 98.6921C28.1557 99.461 28.6971 99.4317 29.5493 100.161C30.4023 100.901 29.036 101.078 29.036 101.907C29.036 102.735 27.9819 102.706 27.7522 103.258C27.5232 103.81 28.6691 104.914 29.6685 104.914C30.3836 104.914 32.0336 104.421 33.0057 103.445C33.9772 102.459 34.4905 103.415 35.3708 102.922C36.2603 102.429 35.7103 98.8401 35.3708 98.1005C35.3068 97.9725 35.3162 97.8738 35.3341 97.7851L35.3435 97.7651Z" fill="#6B6B6B" stroke="#1C1D20" stroke-width="0.5" stroke-miterlimit="10"/>
<path d="M35.7473 94.432C35.0229 93.6824 34.0967 94.8562 33.3363 94.8462C33.2078 95.4477 33.0154 95.8719 32.8136 96.0293C32.5107 96.266 31.952 97.1437 32.3828 97.2324C32.8136 97.3211 33.5008 98.0707 33.5927 97.5085C33.6752 96.9563 33.9775 96.2067 34.7113 97.1337C34.8857 97.3504 35.1055 97.5679 35.3532 97.7553C35.4723 97.3311 36.3705 97.2617 36.838 96.7589C37.4066 96.148 36.5543 95.2503 35.7566 94.422L35.7473 94.432ZM51.3506 102.044C51.4059 101.127 49.5262 100.476 49.3251 100.97C49.1234 101.463 48.7013 101.403 48.3803 100.851C48.0687 100.299 48.6646 99.7767 48.353 99.7173C48.0414 99.658 47.6379 98.889 47.7298 98.5829C47.8124 98.2775 47.2437 96.3154 46.2723 96.0686C45.3001 95.8225 45.1623 94.3533 44.9885 93.5544C44.8141 92.7554 44.1909 93.1796 43.7048 92.5093C43.2187 91.8384 42.3938 92.1739 41.963 92.2032C41.5322 92.2332 41.9629 91.3455 42.6508 90.8527C43.3379 90.3598 44.1356 87.7562 44.1356 87.234C44.1356 86.7111 41.138 86.7405 40.5693 87.0466C40.0014 87.352 39.4327 86.5831 39.9095 86.3657C40.3956 86.1489 41.4223 85.0745 41.367 84.6504C41.3124 84.2162 42.0821 83.8221 41.6513 83.4179C41.2205 83.0231 41.1653 83.9401 40.7984 84.2462C40.4322 84.5517 39.5979 84.463 38.7176 84.2756C37.8374 84.0882 37.4892 85.4393 37.5165 86.0209C37.5444 86.6024 36.4897 86.9379 36.6642 87.4307C36.838 87.9243 36.4624 88.2891 36.1781 88.013C35.8938 87.7369 35.5822 87.0659 35.0049 87.5495C34.4363 88.0423 35.6648 88.6832 36.3979 88.7819C37.1409 88.8706 35.8299 89.4522 35.6827 90.3105C35.5363 91.1681 36.6549 90.8033 36.7101 91.4149C36.7647 92.0258 35.1148 92.1245 35.1148 92.706C35.1148 93.2883 36.0589 92.4299 36.4804 92.1838C36.9112 91.9371 36.2514 93.6231 37.2781 93.4457C38.3048 93.2582 38.0212 91.7597 38.3874 91.819C38.7636 91.8777 38.2136 92.6173 38.5345 93.2583C38.8461 93.8992 37.7915 94.8855 37.8467 95.349C37.902 95.8125 39.9554 95.8125 40.6153 95.0729C41.2751 94.3333 41.5874 95.1323 41.1286 95.6845C40.6705 96.2367 40.8723 96.7589 41.4403 96.9756C42.0089 97.193 42.2106 97.2517 41.9536 97.7453C41.6973 98.2381 41.9263 99.1551 41.7798 99.6186C41.6327 100.082 39.8729 100.023 39.8083 99.7073C39.7537 99.4019 39.0113 99.6186 39.2124 100.043C39.4141 100.476 38.5798 100.93 38.6444 101.335C38.699 101.739 39.7537 101.64 39.781 102.133C39.8083 102.626 39.0113 103.208 37.9293 103.543C36.8473 103.878 38.1583 104.805 38.6717 104.401C39.1851 104.006 39.0752 104.677 39.8176 104.677C40.56 104.677 41.0188 105.318 41.8438 104.983C42.6687 104.647 42.6414 104.983 42.0182 105.505C41.3857 106.028 40.4502 105.475 39.8822 105.811C39.3136 106.146 36.9938 108.493 37.4252 109.065C37.6816 109.4 38.0212 108.572 38.8462 108.207C39.6711 107.842 39.8176 108.454 40.2764 108.513C40.7345 108.572 40.7618 107.497 41.1286 107.596C41.4955 107.684 41.8438 107.261 42.5223 107.379C43.2101 107.497 43.6955 107.221 44.035 106.915C44.374 106.61 45.2908 107.527 45.5751 107.31C45.8594 107.093 47.1152 106.847 47.7391 106.876C48.3623 106.905 49.9943 106.107 50.4158 105.683C50.8466 105.249 50.1588 105.16 49.5908 105.249C49.0222 105.337 49.1321 104.638 49.7373 104.026C50.3332 103.415 51.2774 102.951 51.3327 102.034L51.3506 102.044ZM34.2072 86.6418C34.9769 86.6124 35.8572 85.2026 35.4903 84.7984C35.1241 84.4036 33.6293 86.6618 34.2072 86.6418ZM45.2449 79.9766C45.7309 79.4538 46.2996 77.4617 45.5571 77.6791C44.8141 77.8959 45.0345 80.2034 45.2449 79.9766Z" fill="#6B6B6B" stroke="#1C1D20" stroke-width="0.5" stroke-miterlimit="10"/>
<path d="M68.0367 90.2338C67.7524 90.0858 67.6332 89.0994 67.9821 88.794C68.321 88.4885 68.4676 87.3148 68.1839 87.0093C67.8996 86.7032 66.8729 87.0093 66.781 87.8376C66.6984 88.6659 65.8641 88.3011 65.6444 88.4785C65.4147 88.6659 66.1025 89.0307 65.7269 89.3955C65.3601 89.7603 65.2129 88.8433 64.617 88.784C64.0211 88.7246 63.9571 89.7603 63.6455 90.2832C63.3339 90.8054 63.5263 91.9098 63.6455 92.6494C63.7554 93.389 64.5897 93.8425 64.388 94.4634C64.2967 94.7495 64.4798 95.065 64.6816 95.3811C65.4426 95.4004 66.1391 95.4598 66.442 95.5678C66.5606 95.6172 66.8176 95.5978 67.1565 95.5485C66.9095 95.105 66.3408 94.7495 66.3868 94.4341C66.442 94.0099 66.9827 94.2767 67.3862 94.6508C67.7804 95.0156 68.6693 95.085 68.7518 94.6215C68.8071 94.3354 68.6054 93.0242 68.0647 93.3297C67.5234 93.6358 67.3769 93.5171 67.1751 93.2116C66.9734 92.9055 67.5787 92.4126 67.7158 91.9198C67.8536 91.4269 68.7978 91.6144 68.9443 91.2095C69.0914 90.8154 68.3118 90.3812 68.0274 90.2238L68.0367 90.2338ZM72.3461 92.1072C72.1163 91.9491 71.9426 92.5407 71.6855 92.6001C71.4292 92.6594 71.1449 91.4363 71.0257 92.1072C70.9158 92.7775 70.3379 91.8311 69.7699 92.6888C69.2013 93.5464 70.1089 94.316 70.5124 94.5921C70.9159 94.8682 70.485 95.2624 69.9717 95.1443C69.4577 95.0256 69.7699 95.9426 70.485 96.0613C71.2002 96.1794 71.9699 94.7102 71.8873 94.3454C71.8048 93.9806 72.6117 92.2846 72.3461 92.1072Z" fill="#6B6B6B" stroke="#1C1D20" stroke-width="0.5" stroke-miterlimit="10"/>
<path d="M93.458 59.4548C93.183 59.1594 92.633 58.3704 93.0918 58.3704C93.5499 58.3704 93.733 56.8912 93.183 56.5957C92.633 56.2996 93.183 55.0178 92.7249 54.7217C92.2662 54.4263 92.5412 53.4399 92.633 52.7496C92.7249 52.0594 90.8912 51.4678 89.8825 50.975C88.8744 50.4821 88.4156 49.6932 87.5906 49.2003C86.7657 48.7068 86.4907 49.9886 86.4907 50.7776C86.4907 51.5665 85.7576 51.6652 85.2069 51.1724C84.6569 50.6789 84.0151 51.1724 83.1901 50.7776C82.3651 50.3834 82.732 51.6652 82.732 52.2568C82.732 52.8483 81.8151 52.8483 81.2651 52.8483C80.7152 52.8483 79.7983 53.3419 79.7983 54.0314C79.7983 54.7217 78.9733 55.1165 79.2483 55.5107C79.5233 55.9055 79.1564 56.2996 78.7895 56.5957C78.4227 56.8912 78.0565 57.8776 77.7815 58.173C77.5065 58.4691 77.9646 58.962 77.4146 59.3568C76.8646 59.7509 76.2227 59.4548 75.9477 59.7509C75.6727 60.047 75.9477 60.7373 75.8558 61.6243C75.764 62.5119 75.1227 63.4976 74.5728 64.2866C74.0221 65.0756 74.7559 65.273 75.0309 65.3717C75.3058 65.4697 75.3058 65.9632 75.0309 66.5548C74.7559 67.1463 74.114 66.7522 73.7471 66.6535C73.3809 66.5548 72.3722 67.0476 71.8222 68.034C71.2722 69.0197 71.4553 69.6113 71.6384 70.1048C71.8222 70.5976 71.1803 71.1892 71.6384 72.1756C72.0972 73.1613 71.4553 73.3587 71.5472 74.1476C71.6384 74.9359 72.739 74.8379 72.8303 75.6262C72.9221 76.4151 72.4641 76.7112 72.0972 76.7112C71.7303 76.7112 71.8222 77.5002 72.1891 77.6969C72.5553 77.8943 72.4641 79.2749 72.2803 79.669C72.0972 80.0638 70.9053 79.669 70.9972 80.1625C71.0884 80.6554 70.7222 81.4443 70.7222 81.8385C70.7222 82.2333 70.6303 83.5151 70.2635 83.219C70.117 83.101 69.8879 83.091 69.6582 83.1303C69.6582 83.1897 69.6582 83.2483 69.6582 83.3277C69.6309 84.0967 69.8879 84.8656 70.5112 85.4178C71.1344 85.97 70.6577 86.7983 71.199 87.5673C71.7396 88.3369 71.5652 88.8891 72.1704 89.4413C72.7664 89.9935 72.8303 90.299 72.5739 91.0092C72.3169 91.7188 73.0873 91.5314 73.1146 91.9556C73.1425 92.3891 72.9494 93.2767 73.1425 93.7009C73.3443 94.1344 73.7385 93.7009 74.6547 93.6716C75.5716 93.6416 75.3425 93.0307 75.3698 92.4384C75.3978 91.8569 75.8559 92.133 75.9657 91.7682C76.0763 91.4034 76.9106 91.3047 77.5611 91.6101C78.2123 91.9162 78.5605 91.3934 78.6703 90.6638C78.7802 89.9242 79.1564 90.8218 79.3582 90.9692C79.5599 91.1273 80.1558 89.8355 80.4402 89.0072C80.7238 88.1788 80.4122 88.3369 79.7523 89.1259C79.0925 89.9242 79.468 88.3269 79.7251 87.686C79.9814 87.0451 79.9541 85.1717 80.0366 84.7376C80.1192 84.3041 80.293 83.6625 81.118 83.4758C81.9436 83.2884 83.025 82.1839 82.8605 81.7304C82.686 81.2669 83.9971 80.5073 83.9971 80.0438C83.9971 79.5803 82.6308 78.1704 82.1727 77.865C81.7139 77.5589 80.7151 77.8056 80.8064 77.4702C80.8889 77.1354 80.6872 75.8136 80.5773 75.1333C80.4675 74.4531 81.2925 73.7528 81.2925 73.1119C81.2925 72.471 81.2652 71.7314 81.8058 71.5146C82.3471 71.2979 82.0075 70.7457 82.7226 70.5683C83.4378 70.3809 83.2913 69.2765 84.061 68.941C84.8314 68.6056 84.886 68.3294 85.8854 67.8073C86.8848 67.2844 88.5627 66.0619 88.8557 65.411C89.14 64.7701 87.829 64.0899 88.654 63.419C89.4796 62.7487 88.8011 61.9791 89.3971 61.733C89.993 61.4862 90.222 61.1514 90.6528 60.6579C91.0836 60.1651 91.6522 60.6286 92.679 60.4412C93.0552 60.3718 93.4034 60.4018 93.7243 60.4905C93.6784 60.007 93.5772 59.6029 93.4494 59.4648L93.458 59.4548ZM83.814 86.4535C82.732 86.4829 82.2186 88.7804 82.5029 89.1552C82.732 89.4607 84.8953 86.4235 83.814 86.4535Z" fill="#6B6B6B" stroke="#1C1D20" stroke-width="0.5" stroke-miterlimit="10"/>
<path d="M100.74 82.5399C100.978 81.9876 101.592 81.8989 101.134 81.1787C101.051 81.258 100.923 81.3267 100.712 81.3961C99.8866 81.6422 98.0902 80.7845 97.0628 81.0013C96.0361 81.218 93.9553 81.218 93.4692 81.7702C92.9832 82.3224 91.7547 82.4805 92.296 82.9633C92.8367 83.4569 92.296 83.703 92.6989 84.2852C93.1024 84.8667 93.2948 85.1135 93.8455 84.9848C94.3861 84.8667 94.8169 85.1722 94.2396 85.8131C94.2396 85.8231 94.2303 85.8331 94.2117 85.8531C95.1285 85.7644 96.1373 85.695 96.2931 85.8131C96.5221 86.0005 97.8884 87.1642 98.2366 87.0462C98.4477 86.9668 99.3826 87.0755 100.079 87.1743C99.9972 86.9475 100.006 86.7301 100.153 86.602C100.409 86.3753 100.969 86.3753 100.666 85.9118C100.363 85.4483 100.281 85.3596 100.235 84.8074C100.19 84.2552 100.061 83.9791 100.107 83.6143C100.153 83.2495 100.492 83.1508 100.749 82.5592L100.74 82.5399ZM90.6361 84.0284C89.6094 84.3345 89.4536 85.8624 89.8664 85.8431C90.3797 85.8131 91.553 84.768 91.8652 84.4326C92.1769 84.0978 91.6635 83.733 90.6361 84.0384V84.0284ZM91.489 83.1414C91.7181 82.6779 89.8391 82.8847 90.2606 83.2988C90.5722 83.6049 91.26 83.6049 91.489 83.1414Z" fill="#6B6B6B" stroke="#1C1D20" stroke-width="0.5" stroke-miterlimit="10"/>
<path d="M105.754 46.3504C105.644 46.8139 104.874 46.7159 104.901 46.2617C104.929 45.7982 103.7 45.4334 103.646 45.2167C103.59 44.9999 104.159 45.0293 104.617 45.3054C105.076 45.5815 105.388 45.3941 105.901 44.8812C106.414 44.359 107.129 44.7925 107.212 44.329C107.295 43.8662 106.387 43.5601 106.213 43.284C106.038 43.0079 105.388 42.6431 104.755 42.7618C104.131 42.8798 104.094 42.6037 103.728 42.2389C103.361 41.8741 102.215 42.4857 102.215 43.3433C102.215 44.201 101.5 43.9842 101.757 43.5307C102.014 43.0672 101.418 42.515 101.986 42.367C102.554 42.2189 102.243 41.2925 101.189 41.2038C100.134 41.1145 99.7306 42.0615 99.9876 42.367C100.244 42.6731 99.2724 43.9942 98.8416 43.9942C98.4109 43.9942 98.8963 42.8598 98.869 42.2489C98.8417 41.6373 98.4382 41.9728 97.6405 42.9585C96.8428 43.9449 96.2469 44.8325 95.7888 44.9212C95.33 45.0099 95.3853 44.0336 96.1277 43.5994C96.8708 43.1659 96.8981 42.0022 97.3841 42.0022C97.8695 42.0022 97.8695 41.3906 97.1544 41.2038C96.4393 41.0164 96.3294 41.8741 96.1004 42.1209C95.8713 42.3669 94.7068 41.6867 94.7341 41.9335C94.762 42.1795 94.1109 42.2682 94.3952 42.7318C94.6795 43.1953 94.2574 43.5901 93.9644 43.0379C93.6801 42.4857 92.965 42.9092 92.6261 43.5307C92.2865 44.1423 91.8284 44.1123 92.1673 44.329C92.5069 44.5464 92.4789 45.3747 91.9655 45.5228C91.4522 45.6802 91.6539 44.0136 91.2504 44.1716C90.8469 44.329 91.1039 43.3727 91.6446 43.3727C92.1859 43.3727 92.7266 42.515 92.6713 42.2983C92.5801 41.9428 91.9842 42.0222 91.9842 42.4857C91.9842 42.9492 91.1312 42.8505 90.4161 42.8205C89.701 42.7911 89.729 43.7081 90.526 44.201C91.3237 44.6945 90.3795 44.9999 89.9853 44.6351C89.5818 44.2703 88.9586 44.4477 88.5278 44.6645C88.097 44.8812 89.5545 45.4334 89.6098 45.7095C89.6644 45.9856 88.8667 45.3747 88.6929 45.5915C88.5185 45.8082 87.7208 45.4334 87.6662 44.9112C87.6109 44.3884 86.3272 45.128 87.0423 45.3054C87.7574 45.4928 87.5011 45.9856 87.5011 46.6566C87.5011 47.3268 86.6761 46.8139 86.8405 46.2224C87.015 45.6408 86.3272 45.7589 85.7592 46.1337C85.1906 46.4985 85.8418 45.4634 85.6121 44.9406C85.383 44.4184 84.8697 44.9406 84.2737 45.0686C83.6778 45.1873 83.3662 45.2167 83.7331 45.6508C84.0993 46.0843 84.0447 46.6959 83.5586 46.5972C83.0725 46.5085 82.8708 46.5972 82.9354 47.09C82.99 47.5836 82.3122 47.6129 82.2476 47.1787C82.193 46.7452 81.2209 46.8733 80.9365 47.3661C80.6522 47.8597 79.8552 48.2245 79.9371 48.7767C80.0197 49.3289 80.6522 48.5006 81.1656 48.688C81.6796 48.8754 81.1383 49.1515 81.4226 49.4276C81.7069 49.703 81.6517 50.3839 81.2482 49.9791C80.8453 49.585 80.332 49.4569 80.2494 50.0978C80.1668 50.7387 79.736 50.0091 79.3965 49.5456C79.0575 49.0821 78.7086 50.4033 78.3424 50.0978C77.9755 49.7924 79.0848 48.8454 78.8005 48.3819C78.5162 47.9184 78.3145 48.658 77.6639 49.3682C77.0034 50.0685 76.1238 50.0485 76.4354 50.3839C76.7471 50.7187 75.775 50.9061 75.6105 51.4884C75.4361 52.0699 74.0977 52.2867 73.2447 52.8982C72.3925 53.5098 73.4192 53.5391 73.9053 52.9576C74.3907 52.3754 74.5651 52.7108 75.3348 52.1879C76.1052 51.6658 76.9302 51.2416 77.2145 51.449C77.4988 51.6657 77.9849 51.8231 78.3511 51.2616C78.718 50.7094 79.1767 50.8274 79.5523 51.1729C79.9285 51.5077 78.9291 51.7838 79.3785 52.2766C79.8366 52.7702 78.8371 53.0463 78.8371 52.6121C78.8371 52.1786 78.2692 51.8138 78.0675 52.208C77.8657 52.6121 77.5261 53.0363 77.1506 53.0656C76.7837 53.0956 76.3802 53.8352 76.3802 54.5742C76.3802 55.3138 75.7203 54.5742 75.6651 55.2157C75.6105 55.8567 74.6936 56.9904 73.896 57.8187C73.0983 58.647 73.8407 58.8344 73.5843 59.3566C73.3273 59.8795 72.3832 59.416 72.0716 59.6327C71.7599 59.8501 72.2453 61.1413 71.8145 61.5361C71.3837 61.9302 71.8145 62.4824 71.8145 62.946C71.8145 63.4095 70.7052 62.6699 70.614 63.1334C70.5315 63.5969 69.5593 63.4688 69.275 63.5969C68.9907 63.7149 69.8437 64.4545 70.357 64.8887C70.8704 65.3222 69.8709 65.6576 69.7611 65.1648C69.6512 64.6719 68.9361 65.4702 68.0465 65.9044C67.1576 66.3379 67.5332 67.1962 66.846 67.2256C66.1582 67.2549 66.36 68.4187 65.9012 68.7935C65.4431 69.1683 65.5623 67.9358 64.8472 67.9058C64.1321 67.8765 64.1873 68.4287 64.6181 69.0696C65.0489 69.7105 63.9669 69.227 63.5634 69.7792C63.1599 70.3314 62.0233 70.0553 61.7117 70.5188C61.4001 70.9823 62.564 70.9823 62.7385 71.3471C62.9129 71.7219 61.7117 71.5345 61.0885 71.3771C60.4646 71.229 60.6297 72.2348 60.0618 72.1167C59.4932 71.998 58.778 72.6389 59.1815 73.0731C59.585 73.5066 58.8699 73.5659 58.4664 73.2898C58.0629 73.0137 57.724 73.684 57.5862 74.2068C57.4397 74.7297 58.3566 75.0058 58.3286 75.2519C58.3013 75.4986 57.5862 75.8928 58.0995 76.0215C58.6129 76.1395 58.246 76.6324 57.8978 76.7905C57.5589 76.9478 57.5589 77.3126 57.8978 77.7762C58.2374 78.2397 57.3019 78.3284 57.7513 79.0386C58.2094 79.7389 58.549 78.8512 58.7507 79.3741C58.9525 79.8963 59.4932 79.4328 60.1164 78.8219C60.7396 78.2103 60.9693 79.4921 60.4559 79.4628C59.9426 79.4328 59.3467 79.7682 59.4565 80.3204C59.5664 80.8726 58.6589 80.7839 58.6862 80.1037C58.7141 79.4328 57.6321 80.2217 58.0263 80.7146C58.4298 81.2081 57.8885 81.4842 57.8885 81.9377C57.8885 82.3912 58.6589 82.3025 58.9705 81.7796C59.2821 81.2575 59.7954 81.3855 59.9972 81.9077C60.1989 82.4306 59.5111 82.0264 59.5111 82.736C59.5111 83.4463 59.0803 82.8247 58.7141 83.3769C58.3472 83.9291 60.1717 84.9448 60.7396 85.0929C61.3082 85.2509 61.8489 85.9212 62.9955 85.7338C64.1414 85.5464 66.3047 83.2789 66.589 82.8841C66.8733 82.4799 67.5059 82.9434 67.9274 82.5786C68.3582 82.2138 68.1018 81.2575 68.4134 81.0794C68.725 80.8927 68.8995 82.0951 69.1838 82.2138C69.4401 82.3219 69.6326 82.5393 69.6419 83.1502C69.8709 83.1208 70.1 83.1308 70.2471 83.2389C70.614 83.535 70.7053 82.2532 70.7053 81.859C70.7053 81.4642 71.0721 80.6752 70.9802 80.1824C70.889 79.6895 72.0809 80.0837 72.264 79.6895C72.4471 79.2947 72.539 77.9142 72.1721 77.7175C71.8052 77.5201 71.714 76.7311 72.0809 76.7311C72.4471 76.7311 72.9059 76.4357 72.814 75.6467C72.7221 74.8577 71.6221 74.9564 71.5302 74.1675C71.439 73.3785 72.0809 73.1811 71.6221 72.1954C71.164 71.209 71.8052 70.6175 71.6221 70.1246C71.439 69.6318 71.2552 69.0402 71.8052 68.0539C72.3559 67.0675 73.364 66.5746 73.7308 66.6733C74.0977 66.7721 74.7396 67.1662 75.0146 66.5746C75.2896 65.9831 75.2896 65.4902 75.0146 65.3915C74.7396 65.2928 74.0058 65.0954 74.5558 64.3071C75.1058 63.5182 75.7477 62.5318 75.8396 61.6448C75.9308 60.7571 75.6558 60.0669 75.9307 59.7708C76.2064 59.4753 76.8476 59.7708 77.3976 59.3766C77.9482 58.9825 77.4895 58.489 77.7645 58.1935C78.0395 57.8974 78.4064 56.9117 78.7732 56.6156C79.1401 56.3195 79.5063 55.9253 79.2313 55.5312C78.9563 55.1364 79.7813 54.7422 79.7813 54.052C79.7813 53.3617 80.6982 52.8689 81.2482 52.8689C81.7988 52.8689 82.715 52.8689 82.715 52.2766C82.715 51.6851 82.3488 50.4033 83.1738 50.7981C83.9987 51.1922 84.6406 50.6994 85.1906 51.1922C85.7406 51.6851 86.4743 51.5864 86.4743 50.7981C86.4743 50.0091 86.7493 48.7273 87.5743 49.2202C87.6382 49.2595 87.7028 49.2989 87.7574 49.3482C88.0324 48.688 88.5458 48.2738 89.0411 48.3325C89.7742 48.4312 90.233 49.8117 91.1499 50.0091C92.0667 50.2065 92.9836 50.6007 93.2586 50.1078C93.5336 49.6143 94.1748 50.4033 94.7254 50.2065C95.2754 50.0091 95.2754 51.2909 95.8254 50.502C96.3754 49.713 95.7335 49.2202 96.6504 49.3189C97.5673 49.4176 97.0173 48.2338 97.0173 47.5435C97.0173 46.854 98.2091 46.7552 98.2091 46.1637C98.2091 45.5715 99.8591 46.065 100.134 45.6702C100.409 45.276 101.326 44.9799 101.693 45.6702C102.06 46.3604 103.618 46.5578 103.71 47.1494C103.756 47.4355 103.71 47.889 103.71 48.3032C103.967 48.0371 104.287 47.8297 104.599 47.8297C105.167 47.8297 105.68 46.9126 106.194 47.0314C106.625 47.1301 107.047 47.0607 107.175 46.2917C106.717 45.9856 105.846 45.9463 105.736 46.3604L105.754 46.3504ZM71.2552 7.00703C72.0716 7.19443 70.4029 8.16073 70.1459 9.02845C69.8896 9.90604 71.4297 10.6851 72.0716 11.326C72.7134 11.9669 74.2535 11.8782 74.8128 11.5133C75.3721 11.1485 75.1977 9.85676 75.9221 9.90604C76.6459 9.95539 76.261 9.21585 76.8663 8.98903C77.4622 8.76222 77.5541 9.59052 77.04 10.2315C76.5267 10.8724 77.9389 10.833 78.7086 10.0441C79.479 9.26514 79.6535 9.99481 79.479 10.7344C79.3046 11.4739 77.7279 11.0597 77.1685 11.888C76.6092 12.7164 74.904 12.0754 74.1343 12.9924C73.3639 13.9095 74.8215 13.9588 75.8855 13.7319C76.9581 13.5052 78.9657 13.3671 79.736 13.5446C80.5058 13.7319 79.268 14.008 77.9849 14.008C76.7011 14.008 76.2704 14.4222 76.3163 14.7871C76.3622 15.1519 74.5192 14.3729 74.4366 15.2012C74.3541 16.0295 76.1511 16.3549 76.3622 16.8578C76.5726 17.3607 77.7738 16.9071 78.2412 17.0846C78.7087 17.2719 77.4715 17.6367 77.2971 17.8635C77.1226 18.0904 78.6261 18.4158 78.8831 18.8792C79.1401 19.3426 80.2128 19.106 80.1668 18.465C80.1116 17.6663 81.111 15.2406 82.3941 14.7378C83.6778 14.2349 82.9534 13.7714 83.1185 12.9924C83.293 12.2134 84.3197 12.8544 84.0174 12.2134C83.7144 11.5725 83.8889 11.2964 84.7045 10.4681C85.5208 9.63981 86.0342 10.2413 87.015 9.72858C87.9958 9.22566 88.4725 10.0934 87.3999 10.192C86.465 10.2709 86.9324 11.4345 87.7028 11.7599C88.4725 12.0853 87.7854 12.3614 88.39 12.4994C88.9859 12.6375 88.8208 13.6038 88.051 14.4814C87.2807 15.3589 88.2621 15.5365 89.8934 14.8955C91.5161 14.2546 90.4893 15.4477 90.9661 15.9506C91.4342 16.4535 92.7173 15.5858 93.4051 14.7082C94.0929 13.8306 95.1103 13.9785 95.0737 13.5151C95.0277 13.0121 94.3033 12.8741 93.7074 13.1502C93.1114 13.4263 91.608 13.239 92.1213 12.736C92.6347 12.2332 92.5521 11.819 91.7824 11.9078C91.012 11.9965 89.6464 11.5823 90.2876 11.3063C90.9295 11.0302 89.8202 10.1131 89.2156 10.1526C88.6104 10.192 88.7841 9.46235 88.8301 8.95943C88.876 8.45657 87.1155 8.21988 87.4644 8.04242C87.8034 7.85508 86.74 7.44092 86.483 7.8156C86.2267 8.18047 85.7133 8.0917 85.7133 7.53956C85.7133 6.98735 84.4296 7.12541 83.9162 7.17469C83.4028 7.22398 83.6598 5.98158 83.1465 5.56742C82.6325 5.15327 81.9453 6.39573 81.5604 6.30697C81.1749 6.2182 81.8627 5.38989 82.0738 4.83775C82.2842 4.28554 80.2767 3.54601 80.0656 4.09821C79.8552 4.65035 79.4697 3.2699 79.0389 3.13185C78.6081 2.9938 78.9563 4.04886 78.5715 4.1475C78.1866 4.23626 77.6733 4.65035 78.3145 5.11385C78.9563 5.57729 79.5982 7.87482 79.5157 8.23962C79.4331 8.60449 77.4622 6.58307 77.3796 5.61671C77.2971 4.65035 76.307 3.87139 76.0499 4.56165C75.7936 5.25191 75.0692 5.52794 75.2802 6.2182C75.4913 6.90846 74.7669 7.13528 74.7669 6.58307C74.7669 6.03087 73.6942 5.38989 73.3093 5.34061C72.9238 5.29132 74.2994 5.01522 74.9406 4.6997C75.5825 4.37432 74.382 3.92068 73.8314 4.28555C73.2721 4.65035 72.5483 4.05873 72.2087 4.56165C71.8698 5.06451 71.439 4.56165 70.8431 4.4236C70.2471 4.28555 69.7338 5.3406 69.303 5.16314C68.8715 4.9758 68.6152 6.08015 69.303 7.23385C69.9901 8.38754 70.5035 6.86898 71.3105 7.04651L71.2552 7.00703ZM69.4954 10.7344C70.0088 10.8724 70.3936 11.7894 70.861 11.75C71.0721 11.7303 70.1373 10.5963 69.578 9.9554C69.0187 9.31442 69.0646 8.66365 68.2942 8.90027C67.5238 9.12709 68.982 10.6062 69.4954 10.7442V10.7344ZM83.1005 3.27977C83.4854 3.60516 82.468 3.61503 82.8894 4.05873C84.1732 5.43924 89.2242 3.87139 89.9121 4.28555C90.5999 4.6997 85.6767 5.20255 85.8871 5.75476C86.0981 6.30696 90.1232 6.77041 90.4255 6.39574C90.7277 6.03087 91.4062 7.13528 92.7359 7.22398C94.0649 7.31274 93.9364 6.67177 94.9178 6.62248C95.8986 6.5732 97.3562 6.07028 97.4021 5.46879C97.4481 4.8673 100.309 4.13763 100.051 3.12198C99.7951 2.10634 97.0172 2.79659 96.2375 2.38244C95.4678 1.96828 93.6707 1.41608 93.3685 2.05705C93.0655 2.69796 92.5521 2.88536 92.2958 2.60925C92.0388 2.33315 92.4243 0.863939 91.1865 1.27809C89.9487 1.69218 91.1039 3.12198 90.8469 3.29951C90.5906 3.48685 89.3894 3.02341 89.3068 2.38244C89.2242 1.74153 87.8953 3.07269 87.7208 2.29367C87.547 1.51471 85.9696 0.962508 85.6214 1.00199C85.2825 1.05127 85.961 1.55413 85.7499 1.919C85.5388 2.28387 84.6773 1.55413 84.3377 1.50484C83.9988 1.45556 84.5487 2.28387 84.3836 2.65854C84.2098 3.02341 83.5313 1.55413 82.9261 1.55413C82.3208 1.55413 82.5412 2.29367 82.1104 2.33315C81.6796 2.38244 82.7064 2.93465 83.0912 3.25016L83.1005 3.27977Z" fill="#6B6B6B" stroke="#1C1D20" stroke-width="0.5" stroke-miterlimit="10"/>
<path d="M76.0836 139.543C74.9104 139.819 74.4337 139.908 73.7459 139.543C73.0587 139.178 71.9494 139.878 72.1232 140.371C72.2338 140.707 72.6919 141.14 74.1221 141.535C75.5523 141.929 75.7174 142.974 76.322 143.004C76.9179 143.033 76.9825 142.422 76.8361 141.594C76.6889 140.765 77.5505 139.819 77.6331 139.661C77.7156 139.513 77.2575 139.267 76.093 139.543H76.0836ZM65.046 132.572C64.4221 133.153 63.9001 132.473 63.6524 132.936C63.3408 133.518 64.6239 134.406 64.3675 135.609C64.1105 136.802 64.514 138.31 65.1652 137.6C65.825 136.9 66.1367 137.235 66.5035 136.713C66.8704 136.19 66.5588 134.258 66.8152 133.341C67.0722 132.424 65.6692 131.989 65.046 132.572ZM79.018 131.595C78.2749 131.102 78.761 130.303 77.5878 130.363C76.4139 130.422 75.0203 128.864 74.5895 127.049C74.1587 125.245 72.3343 125.146 71.8762 124.072C71.4174 122.997 72.307 122.879 71.9035 121.981C71.6831 121.488 72.1692 121.045 72.7558 120.798C72.7105 119.812 72.7837 118.737 72.857 118.047C72.4075 117.997 72.0133 117.929 71.8762 117.839C71.6651 117.701 71.6192 116.962 71.4907 116.962C71.3628 116.962 70.1617 116.962 69.9506 117.189C69.7395 117.416 69.0983 117.83 68.7494 117.603C68.6762 117.554 68.5936 117.505 68.5111 117.465L68.1355 117.839C68.1355 117.839 68.0802 118.333 67.8512 118.333C67.6221 118.333 67.2826 118.146 67.2826 118.579C67.2826 119.013 66.6593 118.885 66.3657 118.826C66.082 118.766 65.6785 118.885 65.6785 119.26C65.6785 119.634 65.6233 120.423 65.1652 119.999C64.7064 119.565 64.2483 118.461 64.0832 118.589C63.9087 118.708 63.5146 120.058 63.1117 120.058C62.8641 120.058 62.0477 120.128 61.4611 120.186C61.3053 120.719 61.4704 121.035 61.6815 121.163C61.8919 121.301 61.553 121.853 61.296 121.991C61.0396 122.129 60.6089 121.991 60.9111 122.494C61.2134 122.997 61.7641 123.046 61.4705 123.549C61.1682 124.052 61.4705 124.515 61.9013 124.565C62.3321 124.614 62.928 124.515 62.7995 124.89C62.7262 125.107 62.607 125.354 62.5797 125.59C62.9186 125.482 63.2123 125.472 63.5146 125.304C64.1105 124.969 63.8541 124.387 64.8536 124.082C65.8523 123.776 67.1634 124.663 67.5669 125.304C67.9704 125.945 68.0802 126.014 68.1628 126.537C68.2454 127.059 68.6216 128.105 69.9872 129.051C71.3535 130.008 71.9035 131.072 72.6093 131.477C73.3244 131.881 74.0395 131.783 74.461 132.335C74.8925 132.887 75.4604 133.192 76.1482 133.528C76.836 133.863 76.8634 134.662 77.5139 134.76C78.1651 134.849 77.7436 135.471 78.1378 135.983C78.532 136.506 78.6511 137.61 78.2203 138.222C77.7895 138.833 78.0186 139.878 78.3029 139.878C78.5865 139.878 79.1825 138.774 79.2743 138.162C79.3569 137.551 79.9342 137.581 80.3836 136.93C80.8424 136.289 79.6958 136.131 79.5034 135.303C79.3016 134.474 80.3563 133.735 81.3558 134.416C82.3545 135.096 82.758 135.549 82.8133 134.504C82.8679 133.459 79.7324 132.079 78.99 131.585L79.018 131.595Z" fill="#6B6B6B" stroke="#1C1D20" stroke-width="0.5" stroke-miterlimit="10"/>
<path d="M83.6971 126.539C83.3029 127.112 82.918 127.841 82.9547 128.078C82.9733 128.186 82.9453 128.423 82.8721 128.719C83.3761 129.162 83.8715 129.606 84.2384 129.803C84.275 129.823 84.3023 129.843 84.3389 129.863C84.4488 129.182 84.8889 128.472 85.2098 128.393C84.7697 127.811 84.1192 126.983 83.6971 126.529V126.539Z" fill="#6B6B6B" stroke="#1C1D20" stroke-width="0.5" stroke-miterlimit="10"/>
<path d="M90.4595 126.035C90.0287 125.621 90.0746 124.882 90.4595 124.606C90.845 124.33 90.5054 123.965 90.5054 123.502C90.5054 123.038 88.663 122.9 88.3694 122.812C88.0671 122.723 88.5805 121.52 88.113 121.52C87.645 121.52 87.4712 121.155 87.4712 120.78C87.4712 120.405 86.7467 119.814 86.7834 119.587C86.7834 119.557 86.8107 119.528 86.8386 119.498C86.5723 119.459 86.3706 119.419 86.2973 119.4C85.9764 119.33 85.4723 119.124 85.4723 119.124C85.4723 119.124 84.2898 119.538 83.4648 119.804C83.5194 120.346 83.6479 120.928 83.9689 121.056C84.5834 121.302 84.3537 121.963 84.5835 122.545C84.8125 123.127 84.7392 125.759 84.4269 125.759C84.2991 125.759 83.9962 126.105 83.7125 126.529C84.134 126.982 84.7845 127.811 85.2247 128.392C85.2433 128.392 85.2612 128.373 85.2799 128.373C85.6647 128.373 87.0677 129.467 87.0677 129.467C87.0677 129.467 89.0572 129.023 90.3956 128.816C90.4142 128.6 90.4595 128.343 90.4322 128.186C90.3862 127.909 90.6892 127.357 91.0741 127.357C91.4589 127.357 90.8996 126.44 90.4781 126.026L90.4595 126.035Z" fill="#6B6B6B" stroke="#1C1D20" stroke-width="0.5" stroke-miterlimit="10"/>
<path d="M34.1155 140.056C34.8765 139.909 33.905 139.238 33.694 139.011C33.4829 138.785 33.7672 137.888 34.18 137.888C34.5922 137.888 34.18 137.365 33.6207 136.763C33.0614 136.162 33.6208 135.945 34.1068 135.945C34.5922 135.945 33.969 135.047 34.455 134.525C34.9411 134.002 34.3172 133.036 34.3172 132.582C34.3172 132.129 35.0144 131.981 35.5643 131.389C36.1143 130.788 35.0783 131.014 35.0783 130.571C35.0783 130.127 34.3818 129.969 33.8957 130.344C33.4097 130.719 33.5475 130.344 33.1347 130.344C32.7219 130.344 31.9521 130.492 31.9521 130.048C31.9521 129.604 31.6039 129.526 31.255 129.969C31.1545 130.097 30.98 130.176 30.7416 130.206C30.687 130.788 30.6318 131.34 30.7969 131.616C31.1638 132.257 30.3388 135.669 29.5957 136.586C28.8533 137.503 29.5684 137.749 30.3388 138.4C31.1085 139.041 30.5952 141.378 30.5952 141.93C30.5952 142.483 31.283 142.334 32.0807 142.334C32.5574 142.334 33.0887 142.108 33.6207 142.009C33.4649 141.752 33.3364 141.496 33.3364 141.338C33.3364 140.885 33.3364 140.214 34.0975 140.066L34.1155 140.056Z" fill="#6B6B6B" stroke="#1C1D20" stroke-width="0.5" stroke-miterlimit="10"/>
</svg>
