<svg width="108" height="121" viewBox="0 0 108 121" fill="none" xmlns="http://www.w3.org/2000/svg">
<path d="M76.8693 54.897C76.1807 53.1959 75.7278 50.0289 75.9634 48.8112C76.1991 47.5948 77.5592 48.5603 78.0122 47.1114C78.4651 45.6429 74.1319 45.6429 75.492 43.6922C76.8693 41.7416 76.8693 43.6922 78.7008 43.6922C80.5323 43.6922 81.2209 44.6773 81.2209 45.895C81.2209 47.1114 83.0524 47.8456 83.0524 47.8456C83.0524 47.8456 86.0254 47.6144 87.4027 47.6144C88.7812 47.6144 90.14 47.6144 90.14 48.5799C90.14 49.5455 88.5455 52.7138 87.167 52.7138C85.7897 52.7138 85.7898 56.8477 86.9498 57.0985C88.0913 57.3494 88.9985 53.9302 89.6871 53.9302C90.1769 53.9302 90.5574 57.7936 91.2276 61.7733C91.4093 61.542 91.591 61.3866 91.7898 61.3866C92.697 61.3866 92.2427 58.0066 92.8418 57.0606C93.4396 56.0938 93.1499 53.0418 93.6029 53.0418C94.0558 53.0418 96.7761 54.0073 96.6128 53.1959C96.468 52.3845 98.2626 49.6617 97.9716 48.2128C97.6635 46.7639 99.0236 45.0053 99.0236 43.2284C99.0236 41.4515 100.529 40.9877 101.579 40.0221C102.631 39.0566 104.444 37.7815 104.752 38.5732C105.061 39.3846 107.308 40.0222 106.402 38.5732C105.495 37.1243 105.495 36.1588 106.094 35.8491C106.692 35.5212 107 33.918 107 33.918C107 33.918 105.042 33.5888 104.734 32.6233C104.426 31.6577 103.229 30.6922 103.229 29.8991C103.229 29.1074 102.178 29.4171 101.271 30.2284C100.365 31.0398 98.7155 29.2616 96.7576 30.3826C94.7997 31.5036 94.3468 32.7774 93.4397 32.6233C92.5338 32.4691 92.6786 33.4346 91.9347 34.2264C91.1921 35.0378 90.5758 36.0046 90.1229 36.0046C89.6686 36.0046 88.1637 36.8159 88.1637 36.8159C88.1637 36.8159 89.2157 39.2304 88.6179 40.3501C88.0189 41.4711 86.514 40.3501 84.8471 40.8335C83.1973 41.3156 82.4349 40.1959 81.2209 40.5043C80.024 40.8335 79.263 39.6942 78.6653 39.868C78.0662 40.0222 77.1603 38.4191 77.4499 37.1439C77.758 35.8687 76.8522 34.0918 76.2531 35.0573C75.6553 36.0229 74.7481 35.5408 74.7481 36.9897C74.7481 38.4373 75.4921 40.1959 74.6033 41.1614C73.6974 42.127 68.8745 42.6104 67.9686 41.799C67.0614 40.9877 63.1456 40.5056 63.0008 39.7125C62.8559 38.9207 61.642 37.4718 60.8981 37.4718C60.1555 37.4718 57.8882 38.5928 57.2904 38.1094C56.6926 37.626 55.1692 36.3521 54.1185 36.1783C53.0665 36.0229 51.3983 35.2115 51.2534 34.5739C51.1086 33.9363 48.6977 33.6084 48.2435 32.9708C47.7906 32.3332 46.2856 32.179 46.2856 31.3677C46.2856 30.5563 46.8847 29.2812 46.8847 28.3156C46.8847 27.3501 48.6978 26.3833 48.6978 25.7457C48.6978 25.1094 47.048 23.9688 47.048 23.9688C47.048 23.9688 45.996 21.8823 44.782 21.8823C43.5667 21.8823 42.6779 19.6416 41.6088 19.4678C40.5568 19.3136 40.8478 17.0533 40.2487 16.2616C39.6509 15.4502 40.1038 13.5375 41.1559 14.503C42.2066 15.4698 44.1645 14.503 43.4219 13.0554C42.6608 11.6064 41.3192 10.3312 41.3192 9.51989C41.3192 8.70853 42.225 6.31235 41.1743 5.65647C40.1223 5.01888 39.2164 4.05337 38.9083 2.93236C38.5989 1.81136 37.4034 1 37.4034 1L35.8984 1.15546C35.8984 1.15546 34.9912 3.72409 34.3934 4.05333C33.7957 4.38127 31.6745 4.86471 30.6225 5.65647C29.5718 6.46783 26.5619 4.53547 24.8937 4.53547C23.2255 4.53547 22.1748 6.29405 22.9358 6.77616C23.6968 7.25958 23.5335 10.6213 23.5335 10.6213C23.5335 10.6213 24.4407 14.793 25.8008 14.4847C27.1596 14.175 28.8094 15.9336 27.6125 16.242C26.417 16.5699 25.8008 18.0006 25.6547 19.294C25.5098 20.5692 25.8009 22.1723 24.9121 22.3461C24.0049 22.5016 23.099 22.8295 23.099 24.5868C23.099 26.3454 21.1411 25.8816 20.833 26.5191C20.5249 27.1567 19.781 30.3826 19.3281 30.866C18.8751 31.3481 16.3195 31.5036 16.1562 32.9512C16.01 34.4001 14.7961 36.1587 14.0522 36.0046C13.2912 35.8491 11.9494 35.1932 11.4965 36.1588C11.0436 37.1243 9.08571 35.3474 8.63146 35.8295C8.17852 36.3129 5.76771 38.3994 5.76771 39.6746C5.76771 40.9498 8.32337 40.9681 8.17853 42.5725C8.0337 44.1756 9.08571 45.9329 9.82831 46.7443C10.5722 47.5556 11.7861 49.4684 11.1884 50.4339C10.5906 51.3994 9.68347 51.5549 8.32335 51.2257C6.96454 50.8977 7.10939 51.8632 4.69856 51.3811C2.28642 50.8977 2.14158 52.8301 1.23571 53.9498C1.18172 54.0268 1.09085 54.1236 1 54.2398C2.14155 55.2054 2.61295 56.9051 4.51686 57.6786C6.71043 58.5866 8.68675 56.1709 8.68675 57.9099C8.68675 59.6489 3.5017 59.3013 3.39242 59.8422C3.28445 60.3831 8.74075 67.4136 11.515 66.874C14.2708 66.3331 16.3195 63.1451 15.5216 62.6617C14.7237 62.1796 15.9745 60.1898 16.7 60.5569C17.4242 60.924 16.808 64.0336 17.6599 64.7678C18.5131 65.4825 18.2221 66.8152 17.6599 68.4954C17.099 70.1769 18.222 73.4798 18.3853 75.3534C18.5486 77.2087 19.7454 79.9132 20.1444 82.6752C20.5433 85.4372 22.1747 90.4987 23.6968 93.5507C25.2202 96.6224 26.3986 102.63 27.4137 104.079C28.4289 105.528 31.0215 109.912 31.0215 112.617C31.0215 115.321 33.7957 119.108 34.7384 119.822C35.6983 120.537 37.7839 118.973 38.2908 117.292C38.7991 115.612 41.6812 114.954 41.8445 113.505C42.0078 112.056 42.2974 110.917 43.3126 110.743C44.3277 110.57 44.3277 109.43 44.3277 107.865C44.3277 106.3 44.437 104.079 45.4522 102.689C46.4673 101.297 46.6306 97.5683 46.0144 96.0815C45.3982 94.5751 45.7248 92.4689 46.3041 90.9625C46.8663 89.4561 46.649 87.7171 47.7182 87.6008C48.7886 87.4845 50.3647 86.4615 51.4891 84.8388C52.6136 83.2161 56.058 80.995 57.3088 79.9132C58.5412 78.8314 62.3306 75.2763 63.4551 73.306C64.5782 71.3162 67.7869 70.659 69.2734 69.0363C70.7429 67.4136 70.1806 66.5839 70.4518 64.8253C70.7428 63.0876 75.4737 62.3534 77.2867 62.3534C77.6501 62.3534 77.9582 62.3142 78.2295 62.2567C78.1939 59.4555 77.4131 56.133 76.8877 54.8186L76.8693 54.897Z" fill="#6B6B6B" stroke="#1C1D20" stroke-width="0.5" stroke-miterlimit="10"/>
</svg>
