<svg width="196" height="76" viewBox="0 0 196 76" fill="none" xmlns="http://www.w3.org/2000/svg">
<path d="M14.5715 32.1407C14.3306 32.8128 15.6974 35.5026 16.5823 34.6999C17.4672 33.8972 15.3761 29.9923 14.5715 32.1407ZM55.4871 40.3848C55.4871 39.1698 52.2498 39.7553 53.234 41.4692C54.2401 43.2272 55.4871 41.5999 55.4871 40.3848ZM8.43866 20.5317C8.19772 21.8773 9.56589 25.7822 11.0728 24.1768C12.5813 22.5494 8.70004 19.208 8.43866 20.5317ZM102.915 43.6176C104.786 43.7482 104.545 46.7198 104.162 48.4778C103.78 50.2358 103.036 54.4004 104.665 53.7503C106.675 52.9476 107.922 50.2358 106.797 49.3025C105.671 48.3472 105.79 42.4026 106.293 40.9278C106.797 39.4295 110.174 40.5154 109.048 42.8149C107.922 45.1144 111.179 44.8326 111.179 47.4139C111.179 49.9966 113.049 48.6289 115.06 47.9568C117.071 47.2847 116.688 46.0697 115.301 44.4423C113.934 42.8149 116.306 40.5374 114.436 39.1698C112.566 37.8241 111.3 35.7858 113.049 35.394C114.799 34.9817 120.066 31.7488 119.422 30.4047C118.8 29.059 111.421 30.6644 110.798 33.0945C110.174 35.5246 104.926 32.8348 105.549 28.6467C106.173 24.46 116.567 23.7865 119.563 25.2627C122.558 26.7595 125.816 22.8326 126.942 20.5317C128.068 18.2322 124.569 20.944 122.438 22.4203C120.307 23.9171 114.677 22.2897 111.802 21.2052C108.927 20.1193 109.048 23.0924 106.675 23.5047C104.302 23.9171 104.806 29.5799 103.68 30.252C102.553 30.9256 102.553 35.1122 100.301 39.0391C98.0498 42.9455 101.046 43.487 102.936 43.6396L102.915 43.6176ZM45.7357 47.1321C45.6145 45.245 46.3593 43.3579 46.3593 42.4026C46.3593 41.4473 46.9813 41.0569 48.1071 41.3181C49.2329 41.5778 49.1132 38.7574 48.2283 38.4756C47.3434 38.2144 46.8615 34.8305 44.7296 34.8305C42.5991 34.8305 42.9803 36.7177 44.2273 36.8483C45.4743 36.9789 46.2176 38.0633 45.8554 39.0186C45.4743 39.9725 44.991 38.0633 43.2227 38.2145C41.4733 38.3451 42.5991 35.915 40.5884 35.7844C38.5777 35.6552 38.9602 31.7283 36.8283 31.7283C34.6978 31.7283 34.5767 29.8397 35.9639 28.4955C37.3307 27.1499 33.8319 25.9348 33.8319 24.3074C33.8319 22.68 31.5803 23.6353 31.5803 22.2897C31.5803 20.944 30.5757 21.6176 29.4498 19.9902C28.324 18.3628 27.8216 19.8596 26.8155 18.6445C25.8109 17.4295 24.4427 16.7574 23.5593 17.1698C22.6744 17.5821 20.6841 15.4118 19.919 13.2429C19.3159 11.5274 13.5465 8.64239 12.7828 6.36491C12.0381 4.06395 10.0273 3.11012 6.64983 3.26127C3.27232 3.39187 1.94496 -0.317877 1.14038 1.5047C0.135744 3.80419 4.78071 8.92413 6.89073 10.2918C9.02266 11.636 10.1486 16.4962 12.6412 16.7794C15.1542 17.0391 15.3951 25.5445 17.2657 25.9569C19.1348 26.3692 23.1562 32.9859 23.7798 36.4799C24.4033 39.9945 28.5255 41.751 29.9127 44.3117C31.2795 46.8724 36.7889 50.3869 37.5526 51.4714C38.2959 52.5573 39.0596 54.9874 39.6831 53.7723C40.3066 52.5573 42.9408 53.7724 44.1864 53.9015C45.4334 54.0321 45.816 49.0413 45.6948 47.1541L45.7357 47.1321ZM141.338 25.5225C144.092 25.7822 142.845 24.0257 142.845 22.1385C142.845 20.2499 140.352 21.8773 140.352 20.9235C140.352 19.9682 139.468 16.1924 137.477 19.1655C135.467 22.1385 138.121 29.4714 139.729 29.1676C141.116 28.9079 138.603 25.2407 141.357 25.5225H141.338ZM131.064 42.4026C131.566 44.5729 135.185 45.788 136.191 43.8993C137.196 42.0122 130.48 39.9079 131.064 42.4026ZM121.191 65.2273C117.814 64.6858 115.562 67.3976 112.185 66.03C108.807 64.6858 103.761 66.052 104.302 67.245C104.806 68.3309 107.801 68.46 111.179 68.5906C114.556 68.7212 117.553 66.7035 119.804 66.5729C122.056 66.4423 124.569 65.7702 121.191 65.2273ZM147.972 40.5154C144.716 39.4295 139.167 40.3628 139.709 42.1428C140.212 43.7702 142.845 43.0967 145.459 43.0967C148.073 43.0967 149.46 45.1144 150.847 45.1144C152.234 45.1144 151.23 41.5999 147.972 40.5154ZM82.0253 63.7305C81.9055 62.1031 77.0195 63.5999 74.6467 62.5154C72.2753 61.431 77.2809 60.4977 78.9091 59.4132C80.5387 58.3273 77.9045 57.937 73.9035 59.2826C69.9025 60.6283 65.2779 56.3096 65.1377 58.1982C65.0165 60.0853 57.879 57.3955 56.1296 56.0278C54.3802 54.6836 47.6253 52.9256 46.2381 55.4863C44.8713 58.0456 43.6651 55.7461 44.2477 58.1982C44.6288 59.8256 46.238 58.8703 47.3639 58.8703C48.4897 58.8703 47.9874 61.1698 49.6155 61.431C51.2437 61.7127 56.632 63.3181 57.1357 62.1031C57.6381 60.888 62.6437 62.1031 65.1377 64.2734C67.6508 66.4203 73.4011 66.5729 75.6528 66.1605C77.9045 65.7482 80.3971 67.7879 81.282 66.4203C82.1669 65.0761 83.7951 68.5907 86.2877 66.5509C88.7817 64.5332 82.1669 65.3358 82.0253 63.7084V63.7305ZM180.503 34.2875C178.634 34.4181 178.372 37.9327 176.743 37.9327C175.115 37.9327 172.863 41.5778 169.868 42.6623C166.872 43.7482 166.731 33.3557 165.363 31.3159C163.996 29.2982 156.476 27.6708 155.733 29.9703C154.99 32.2698 152.376 31.0548 152.094 32.9434C151.853 34.6999 152.718 34.1584 154.346 34.1584C155.974 34.1584 155.974 35.5026 156.719 37.2606C157.462 39.0186 161.986 37.8035 163.474 37.6729C164.982 37.5423 165.223 39.8213 163.091 39.0186C160.961 38.2145 160.961 40.103 159.473 39.6907C157.964 39.2783 155.974 39.4295 156.96 40.3628C157.964 41.3181 159.594 42.2514 159.594 44.4203C159.594 46.5907 162.469 46.1783 162.469 44.4203C162.469 42.6623 163.976 44.9633 166.851 45.7659C169.726 46.5907 167.736 47.7837 170.611 47.9348C173.487 48.0654 180.001 50.3649 182.493 52.3827C185.006 54.4004 183.238 55.7681 184.866 57.6552C186.494 59.5424 186.998 61.7127 184.745 61.7127C182.493 61.7127 180.122 64.1428 180.744 65.3578C181.367 66.5729 188.747 64.8149 190.495 64.8149C191.642 64.8149 192.808 67.0073 195 68.6127V39.7993C189.571 37.8241 182.032 34.201 180.482 34.3096L180.503 34.2875ZM126.318 68.5261C125.937 68.8078 125.495 69.025 124.951 69.1542C124.791 69.6531 124.61 70.218 124.328 70.4558C123.986 70.7595 123.383 70.152 122.941 69.6326C120.529 70.717 119.242 73.8412 120.93 74.7965C122.539 75.7283 124.892 73.2557 126.238 71.5197C126.46 71.2379 126.66 70.9767 126.802 70.739C126.882 70.6084 127.043 70.4778 127.224 70.3267C127.343 70.2181 127.485 70.1315 127.646 70.0229C127.244 69.4374 126.74 68.8504 126.318 68.5041V68.5261ZM91.5357 33.7666C93.7874 32.2918 94.2897 29.4494 94.0283 26.7375C93.7873 24.0257 99.5377 23.8951 100.402 22.8106C101.287 21.7262 99.1566 19.9682 97.527 19.1655C95.8988 18.3628 97.2657 16.6048 96.1398 15.5203C95.014 14.4359 93.1449 11.5934 94.773 11.4628C96.4012 11.3322 93.6472 8.90213 95.014 8.07889C95.1951 7.9703 95.4169 7.86171 95.6374 7.7311C94.8124 7.29674 94.0897 6.99299 93.6268 6.99299C91.6365 6.99299 86.8718 6.4515 87.1127 9.96604C87.3741 13.4806 84.3587 12.1349 84.62 14.0235C84.861 15.9107 83.1116 15.9107 83.373 18.3408C83.6344 20.7709 82.126 19.6864 79.6129 21.0526C77.1203 22.3983 78.106 20.2279 75.6119 20.2279C73.1193 20.2279 72.8579 21.5736 71.3495 22.1165C69.8425 22.658 66.8462 21.8553 65.8416 22.658C64.8355 23.4607 63.3475 20.7708 62.3429 20.7708C61.8405 20.7708 61.3981 19.2961 61.0754 17.8419C60.8944 17.7978 60.7337 17.7772 60.5935 17.7978C58.9654 17.9284 56.2713 22.5714 57.8396 24.1563C59.7086 26.0434 59.2268 29.015 60.0912 30.4913C60.9746 31.9661 63.7301 32.2478 63.7301 35.0903C63.7301 37.9327 66.103 42.3805 67.7311 41.1655C69.3593 39.9504 70.6063 41.7084 71.1086 42.9235C71.6109 44.1385 75.4922 41.9682 76.7377 42.2514C77.9848 42.5111 81.8646 43.3359 82.126 44.9633C82.3684 46.5907 85.8861 44.8326 88.2589 43.8773C90.6318 42.9235 89.2635 35.2208 91.5152 33.7461L91.5357 33.7666ZM100.905 71.5637C101.649 72.7787 103.78 72.7787 104.665 73.5814C105.549 74.3841 108.666 76.1407 108.666 73.8412C108.666 71.5417 100.081 70.1961 100.905 71.5417V71.5637ZM94.6518 64.9455C94.1495 66.1606 92.019 66.4203 90.772 65.4885C89.525 64.5552 87.9771 66.7681 88.7612 67.9186C89.1438 68.4601 91.7577 70.6304 94.8928 69.003C98.0294 67.3756 100.141 68.8724 100.905 67.1159C101.649 65.3578 95.1541 63.7305 94.6518 64.9455Z" fill="#6B6B6B" stroke="#1C1D20" stroke-width="0.5" stroke-miterlimit="10"/>
</svg>
