<svg width="134" height="143" viewBox="0 0 134 143" fill="none" xmlns="http://www.w3.org/2000/svg">
<path d="M125.976 14.4325C124.35 12.2049 121.618 15.6646 118.143 16.4206C114.708 17.1766 103.884 7.51023 101.112 3.05501C98.3402 -1.39752 93.7596 2.30169 96.0512 5.52204C98.3401 8.74508 95.571 9.73783 95.571 14.1931C95.571 18.6483 92.7991 18.6483 93.2794 21.6319C93.7222 24.6155 89.5844 24.0989 86.8125 24.6154C84.0433 25.132 87.0353 28.0753 83.8206 29.5872C80.606 31.0589 80.8288 33.5662 82.4549 34.5213C84.0783 35.514 82.8977 38.7371 82.4549 40.9647C82.0095 43.1923 84.5237 41.4409 86.3698 39.2133C88.2186 36.9857 90.1399 40.2894 90.5075 38.2205C90.9502 35.7535 85.6668 34.5214 85.8895 32.0139C86.1122 29.5496 89.5844 32.7699 92.3187 31.2579C95.0906 29.7863 100.594 31.0211 104.031 34.2415C107.466 37.4645 108.389 36.2297 109.092 32.2534C109.793 28.2743 115.079 26.566 120.359 26.566C125.643 26.566 126.123 23.8191 124.5 22.5869C122.909 21.3547 133.255 14.1554 132.995 12.2048C132.775 10.2167 127.492 16.6601 125.866 14.4325H125.976ZM83.6731 48.3228C81.3815 49.5577 79.7554 57.2333 82.3046 59.4609C84.8188 61.6885 78.1669 65.9042 78.3896 70.5989C78.6124 75.2935 74.2519 75.2936 73.5489 78.7533C72.8485 82.2131 70.3343 81.4975 66.4193 84.6802C62.5017 87.9032 60.4329 84.204 61.3586 81.9764C62.2817 79.7488 55.3721 83.2086 55.5948 88.6592C55.8149 94.1072 49.1656 94.5861 50.7541 97.0908C52.3802 99.5578 45.6933 101.07 45.9133 98.8018C46.136 96.5742 41.7757 97.8064 36.4922 100.034C31.2088 102.262 27.9942 97.567 25.0023 100.79C22.0104 104.013 16.947 109.7 13.032 110.456C9.11435 111.212 11.3683 116.303 13.032 115.388C15.8039 113.876 20.1616 115.388 21.5301 113.16C22.8959 110.933 34.1659 108.229 41.0727 107.949C47.9823 107.712 43.8446 111.411 44.2874 115.388C44.7328 119.367 50.4964 118.611 53.4883 114.912C56.4802 111.212 58.7719 111.452 56.2576 109.224C53.7461 106.997 56.738 105.006 58.5492 107.989C60.398 110.973 66.1242 111.212 68.4507 107.233C70.7422 103.257 71.4425 107.989 74.1768 107.712C76.9487 107.473 78.5372 100.034 78.7948 102.778C79.0175 105.485 83.4155 104.769 86.1471 101.546C88.919 98.3229 86.3699 92.6355 88.2187 89.6519C90.0648 86.6683 91.9109 80.5047 90.0648 76.7651C88.2187 73.0659 94.2024 70.5585 97.1944 67.6153C100.189 64.6317 93.7597 49.7944 93.4994 45.3392C93.2793 40.884 85.927 47.0906 83.5979 48.3228H83.6731ZM33.0577 112.724C32.1319 115.469 29.3626 114.236 25.7052 114.952C22.0103 115.708 21.8977 125.135 24.5596 126.09C26.6284 126.843 28.2545 126.843 28.92 123.862C29.6203 120.879 33.2776 119.883 35.6067 121.116C37.8956 122.35 40.8903 117.416 40.8903 113.679C40.8903 109.94 33.9807 109.98 33.0577 112.684V112.724ZM17.2072 122.391C17.2072 119.924 12.1438 120.4 11.9237 118.172C11.701 115.945 8.22889 117.18 4.79156 119.924C1.35691 122.668 0.173505 123.144 1.57957 125.851C2.94538 128.554 5.01428 126.09 5.93734 123.384C6.86309 120.68 9.15197 127.363 7.08313 131.818C5.01429 136.273 7.3407 142.558 10.075 141.96C12.3666 141.484 15.3584 132.574 18.8333 127.839C22.3055 123.106 17.2072 124.855 17.2072 122.391Z" fill="#6B6B6B" stroke="#1C1D20" stroke-width="0.5" stroke-miterlimit="10"/>
</svg>
