<svg width="294" height="200" viewBox="0 0 294 200" fill="none" xmlns="http://www.w3.org/2000/svg">
<mask id="mask0_592_3333" style="mask-type:alpha" maskUnits="userSpaceOnUse" x="0" y="0" width="294" height="200">
<path d="M0 0H294V200H0V0Z" fill="#D9D9D9"/>
</mask>
<g mask="url(#mask0_592_3333)">
<path d="M205.976 42.4325C204.35 40.2049 201.618 43.6646 198.143 44.4206C194.708 45.1766 183.884 35.5102 181.112 31.055C178.34 26.6025 173.76 30.3017 176.051 33.522C178.34 36.7451 175.571 37.7378 175.571 42.1931C175.571 46.6483 172.799 46.6483 173.279 49.6319C173.722 52.6155 169.584 52.0989 166.813 52.6154C164.043 53.132 167.035 56.0753 163.821 57.5872C160.606 59.0589 160.829 61.5662 162.455 62.5213C164.078 63.514 162.898 66.7371 162.455 68.9647C162.009 71.1923 164.524 69.4409 166.37 67.2133C168.219 64.9857 170.14 68.2894 170.507 66.2205C170.95 63.7535 165.667 62.5214 165.889 60.0139C166.112 57.5496 169.584 60.7699 172.319 59.2579C175.091 57.7863 180.594 59.0211 184.031 62.2415C187.466 65.4645 188.389 64.2297 189.092 60.2534C189.793 56.2743 195.079 54.566 200.359 54.566C205.643 54.566 206.123 51.8191 204.5 50.5869C202.909 49.3547 213.255 42.1554 212.995 40.2048C212.775 38.2167 207.492 44.6601 205.866 42.4325H205.976ZM163.673 76.3228C161.382 77.5577 159.755 85.2333 162.305 87.4609C164.819 89.6885 158.167 93.9042 158.39 98.5989C158.612 103.294 154.252 103.294 153.549 106.753C152.849 110.213 150.334 109.498 146.419 112.68C142.502 115.903 140.433 112.204 141.359 109.976C142.282 107.749 135.372 111.209 135.595 116.659C135.815 122.107 129.166 122.586 130.754 125.091C132.38 127.558 125.693 129.07 125.913 126.802C126.136 124.574 121.776 125.806 116.492 128.034C111.209 130.262 107.994 125.567 105.002 128.79C102.01 132.013 96.947 137.7 93.032 138.456C89.1143 139.212 91.3683 144.303 93.032 143.388C95.8039 141.876 100.162 143.388 101.53 141.16C102.896 138.933 114.166 136.229 121.073 135.949C127.982 135.712 123.845 139.411 124.287 143.388C124.733 147.367 130.496 146.611 133.488 142.912C136.48 139.212 138.772 139.452 136.258 137.224C133.746 134.997 136.738 133.006 138.549 135.989C140.398 138.973 146.124 139.212 148.451 135.233C150.742 131.257 151.443 135.989 154.177 135.712C156.949 135.473 158.537 128.034 158.795 130.778C159.018 133.485 163.415 132.769 166.147 129.546C168.919 126.323 166.37 120.636 168.219 117.652C170.065 114.668 171.911 108.505 170.065 104.765C168.219 101.066 174.202 98.5585 177.194 95.6153C180.189 92.6317 173.76 77.7944 173.499 73.3392C173.279 68.884 165.927 75.0906 163.598 76.3228H163.673ZM113.058 140.724C112.132 143.469 109.363 142.236 105.705 142.952C102.01 143.708 101.898 153.135 104.56 154.09C106.628 154.843 108.255 154.843 108.92 151.862C109.62 148.879 113.278 147.883 115.607 149.116C117.896 150.35 120.89 145.416 120.89 141.679C120.89 137.94 113.981 137.98 113.058 140.684V140.724ZM97.2072 150.391C97.2072 147.924 92.1438 148.4 91.9237 146.172C91.701 143.945 88.2289 145.18 84.7916 147.924C81.3569 150.668 80.1735 151.144 81.5796 153.851C82.9454 156.554 85.0143 154.09 85.9373 151.384C86.8631 148.68 89.152 155.363 87.0831 159.818C85.0143 164.273 87.3407 170.558 90.075 169.96C92.3666 169.484 95.3584 160.574 98.8333 155.839C102.306 151.106 97.2072 152.855 97.2072 150.391Z" fill="#6B6B6B" stroke="#1C1D20" stroke-width="0.5" stroke-miterlimit="10"/>
</g>
</svg>
