<svg width="82" height="156" viewBox="0 0 82 156" fill="none" xmlns="http://www.w3.org/2000/svg">
<path d="M24.8067 110.267C24.0303 110.602 23.5867 110.863 23.4758 110.975C23.4388 111.012 23.3279 111.311 23.1061 111.87C22.9582 112.28 22.6624 112.466 22.2558 112.466C22.2558 112.466 22.1818 112.429 22.0709 112.354C21.96 112.28 21.8491 112.243 21.7382 112.243C21.5903 112.243 21.4055 112.28 21.1097 112.392C20.8139 112.504 20.5551 112.541 20.3333 112.541C20.1115 112.541 19.8897 112.429 19.7048 112.243C19.52 112.056 19.3721 111.944 19.2242 111.944C18.9654 111.944 18.7806 112.131 18.5957 112.504C18.4478 112.876 18.3 113.361 18.1521 113.92C18.0042 114.517 17.8563 114.964 17.6715 115.299C17.5236 115.635 17.5236 116.082 17.7454 116.679C17.7454 117.014 17.5605 117.424 17.1908 117.946C16.8211 118.468 16.6363 118.915 16.6363 119.325C16.6363 119.773 16.7472 120.146 16.9321 120.369C17.1169 120.63 17.2278 120.816 17.2278 120.928C17.2278 121.115 17.1539 121.413 17.006 121.786C16.8581 122.196 16.7842 122.419 16.7842 122.531C16.7842 122.643 16.8211 122.755 16.8951 122.941C16.969 123.128 17.006 123.314 17.006 123.426L17.1169 124.432C17.1169 124.842 16.9321 125.364 16.5624 125.998C16.1927 126.632 16.0078 127.154 16.0078 127.564C16.0078 127.676 16.0448 127.937 16.1187 128.309C16.1557 128.421 16.1557 128.533 16.1557 128.645C16.2666 128.682 16.4145 128.682 16.5624 128.719C17.043 128.831 17.4127 129.018 17.5605 129.39C17.5975 129.502 17.6345 129.651 17.6715 129.875C17.7084 130.061 17.8193 130.248 18.0042 130.36C18.0781 130.397 18.3 130.471 18.7066 130.658C18.9284 130.732 19.1503 130.844 19.2982 130.919C19.3721 130.956 19.446 131.031 19.52 131.068C21.3685 132.149 22.5146 133.006 22.9952 133.677C23.254 134.013 23.5497 134.46 23.9194 134.982C24.3261 135.355 24.7328 135.877 25.1025 136.51C25.5092 137.219 25.731 137.852 25.8049 138.411C25.8419 138.672 25.9528 138.933 26.1746 139.194C26.2855 139.343 26.5073 139.567 26.7661 139.865C26.8771 140.052 26.951 140.35 27.0619 140.76C27.1728 141.356 27.2098 141.692 27.2098 141.729C27.2468 141.916 27.3946 142.251 27.5795 142.736C27.7643 143.183 27.8752 143.519 27.9122 143.705C27.9492 143.966 28.0971 144.301 28.3189 144.749C28.5037 145.159 28.6516 145.457 28.7625 145.606V145.83C28.6147 145.942 28.3928 146.016 28.0971 146.053C27.8752 146.128 27.7643 146.314 27.7643 146.613C27.7643 146.687 27.8383 147.097 27.9862 147.843C27.9862 148.327 27.8752 148.737 27.6904 149.036C27.5055 149.334 27.3946 149.52 27.3946 149.632C27.3946 149.707 27.5795 149.93 27.9492 150.303C28.3189 150.75 28.5037 151.235 28.5037 151.72C28.5037 151.831 28.5037 151.981 28.4668 152.13C28.4298 152.316 28.3928 152.465 28.3928 152.614C28.3928 152.912 28.4668 153.211 28.6147 153.472C28.7995 153.77 29.0583 153.919 29.3541 153.919C29.6129 153.919 29.7977 153.695 29.8716 153.211C29.9456 152.726 30.2413 152.502 30.7589 152.502C31.1286 152.502 31.6092 152.652 32.2377 152.912C32.8293 153.173 33.199 153.397 33.4208 153.583C33.6056 153.77 33.7165 154.105 33.7165 154.59C33.7165 154.888 33.9753 155.075 34.456 155.075C34.7147 155.075 34.8257 154.925 34.8257 154.59C34.8257 154.515 34.7147 154.329 34.5299 154.031C34.3081 153.733 34.1972 153.509 34.1602 153.323C33.9384 152.652 33.8275 152.204 33.8275 151.943C33.8275 151.533 34.2711 150.937 35.1214 150.117C36.0087 149.297 36.4154 148.663 36.4154 148.178C36.4154 147.992 36.3045 147.694 36.1196 147.321C35.9348 146.948 35.8239 146.613 35.8239 146.277C35.8239 146.091 35.8608 145.867 35.9717 145.718C36.0826 145.532 36.1196 145.382 36.1196 145.308C35.8239 144.413 35.676 143.556 35.676 142.773C35.676 142.326 35.7499 141.729 35.9348 140.946C36.1196 140.238 36.1936 139.865 36.1936 139.828C36.1936 139.679 36.1936 139.53 36.1566 139.381C35.9348 139.642 35.7129 139.791 35.4172 139.791C35.3063 139.791 34.8257 139.567 33.9753 139.082C33.125 138.598 32.6444 138.337 32.5335 138.337C32.2377 138.262 32.0899 137.927 32.0529 137.33C32.0159 136.771 31.7571 136.51 31.2765 136.548V136.026C31.3505 135.877 31.4244 135.765 31.4983 135.69C31.5353 135.653 31.5723 135.578 31.5723 135.541C31.5723 134.982 31.3135 134.497 30.7959 134.087C30.2783 133.677 30.0195 133.379 30.0195 133.155C30.0195 132.671 30.3153 132.186 30.8698 131.776C31.4244 131.441 31.7202 131.254 31.7202 131.217C31.7202 131.142 31.4244 130.807 30.8329 130.136C30.2413 129.465 29.9456 129.092 29.9456 128.943C29.9456 128.757 30.0935 128.607 30.3892 128.496C30.685 128.384 30.7959 128.16 30.7959 127.713C30.7959 127.116 30.611 126.632 30.2413 126.334C29.8716 126.035 29.6868 125.7 29.6868 125.402C29.6868 124.992 29.6868 124.768 29.7238 124.656C29.8347 124.134 30.2044 123.09 30.8329 121.562C30.9438 121.301 31.1286 120.928 31.4244 120.369C31.6092 119.996 31.7571 119.735 31.868 119.549C31.9789 119.251 32.4596 119.027 33.2359 118.804C33.8644 118.617 34.0862 118.356 33.8644 117.946C34.0123 117.909 34.345 117.834 34.7887 117.722C35.1954 117.573 35.4911 117.312 35.5651 116.977C35.602 116.865 35.7129 116.641 35.8978 116.306C36.0826 116.008 36.1936 115.821 36.1936 115.709C36.1936 114.74 36.2305 114.218 36.2305 114.144C36.2305 113.92 36.0457 113.696 35.676 113.547C35.2323 113.398 34.9366 113.286 34.7517 113.212C34.5299 113.1 34.456 112.914 34.456 112.615C34.4929 112.205 34.4929 111.907 34.4929 111.609C34.2711 111.609 34.0493 111.534 33.7535 111.423C33.4208 111.273 33.199 111.199 33.0881 111.199C32.4965 111.199 32.2008 111.46 32.1268 111.944C32.0529 112.429 31.868 112.653 31.6462 112.653C31.6462 112.653 31.2765 112.243 30.5371 111.46C29.8347 110.677 29.0953 110.267 28.3928 110.267C28.2819 110.267 28.0231 110.416 27.6904 110.752C27.3577 111.087 27.0249 111.236 26.6922 111.236C26.3595 111.236 26.1746 111.162 26.1746 111.013C26.2486 110.752 26.2855 110.565 26.2855 110.491C26.2855 110.081 26.1376 109.894 25.8049 109.894C25.5461 109.931 25.1764 110.081 24.8067 110.267ZM34.6038 85.5147C34.9366 85.4028 35.639 84.9555 36.7481 84.2472C37.3396 83.9117 37.8572 83.6508 38.3009 83.4644C37.8942 83.278 37.4875 83.1662 37.0808 83.0916C36.3045 82.9425 35.4541 82.9425 34.5299 83.0544C34.1602 83.0916 33.8275 82.9798 33.5687 82.7189C33.2729 82.4579 33.199 82.1597 33.2729 81.8615C33.3838 81.4141 33.2359 81.0041 32.8662 80.6686C32.4596 80.2958 32.2747 80.0349 32.2747 79.8858C32.2747 79.8112 32.4226 79.6994 32.7553 79.4757C33.0511 79.2893 33.2359 79.0657 33.2359 78.8793C33.2359 77.9473 32.9771 77.4254 32.4596 77.3136C32.2747 77.2763 32.0529 77.2763 31.7571 77.2763C31.4244 77.2763 31.2026 77.2763 31.1286 77.2763C30.9438 77.2391 30.7589 77.1272 30.5741 76.9408C30.3892 76.7544 30.2413 76.6426 30.0195 76.6426C29.9086 76.6426 29.7607 76.6799 29.5759 76.7544C29.5019 76.7917 29.391 76.7917 29.3171 76.829C29.3171 76.9036 29.2801 76.9781 29.2801 77.0527C29.2062 77.2018 29.1692 77.3136 29.1692 77.3882L29.2801 78.1337C29.2801 78.3947 29.2062 78.581 29.0213 78.6929C28.8734 78.8047 28.5407 78.8047 28.0231 78.6929C27.6534 78.5065 27.3207 78.3947 26.988 78.3947C26.951 78.3947 26.8031 78.4692 26.4704 78.581H26.0637C26.0267 78.3201 25.9898 78.1337 25.9528 78.0219C25.9158 77.8355 25.8049 77.7237 25.6201 77.7237C25.2873 77.7237 25.0285 77.8355 24.8807 78.0592C24.7328 78.2456 24.3261 78.3574 23.7346 78.3574C23.3649 78.3574 23.1431 78.3201 23.0321 78.2456C22.7734 78.0219 22.4776 77.8355 22.1449 77.6864C21.3315 77.4254 20.777 77.2018 20.5551 77.0527C20.2594 76.8663 19.9636 76.4935 19.6309 76.0089C19.446 75.7107 19.0763 75.5243 18.5218 75.5243C18.3 75.5243 18.0042 75.6361 17.6345 75.8225L17.0799 76.1207C16.8951 76.1207 16.6733 76.0462 16.3775 75.8598C16.1187 75.6734 15.8969 75.5988 15.749 75.5988C15.4902 75.5988 15.3054 75.8598 15.1575 76.3444C14.9726 76.829 14.6769 77.1272 14.1963 77.1272C13.9375 77.1272 13.5678 77.3882 13.0502 77.8728C12.7914 78.1337 12.5326 78.3574 12.2738 78.6183C12.1259 78.6183 12.015 78.5438 11.9411 78.3947H11.5344C11.5714 78.5438 11.5344 78.6929 11.3865 78.8047C11.3126 78.8793 11.1277 78.9911 10.795 79.1402C10.6471 79.2148 10.5362 79.4012 10.4623 79.7366C10.3883 80.0349 10.2404 80.1467 10.0186 80.1467C9.94468 80.1467 9.87074 80.1094 9.87074 79.9976C9.83377 79.8858 9.72286 79.8112 9.53801 79.8112C9.24225 79.8112 9.05739 80.1094 9.05739 80.7431C9.05739 81.3769 8.87254 81.6751 8.50284 81.6751C8.4289 81.6751 8.09617 81.5632 7.50464 81.3769C6.91312 81.1905 6.50645 81.0786 6.3216 81.0786C6.09978 81.1532 5.95189 81.1905 5.87795 81.1905C5.84098 81.1905 5.58219 81.0786 5.13855 80.855C4.80582 80.6686 4.39914 80.5195 3.9555 80.4076C3.84459 80.5195 3.77065 80.7059 3.69671 80.9668C3.5858 81.265 3.54883 81.5633 3.54883 81.8242C3.54883 82.0106 3.5858 82.1224 3.62277 82.1597C3.65974 82.197 3.77065 82.2342 3.91853 82.2342C4.06641 82.2342 4.39914 82.1597 4.91673 82.0479C5.02764 82.0479 5.10158 82.1597 5.10158 82.3834C5.10158 82.5697 4.99067 82.7934 4.76885 83.0916C4.51005 83.3898 4.39914 83.5762 4.39914 83.6881C4.39914 83.8745 4.51005 84.0236 4.73188 84.0236C4.9537 84.0608 5.06461 84.1727 5.06461 84.3591C5.06461 84.4336 5.02764 84.5082 4.9537 84.6573C4.87976 84.8064 4.84279 84.9555 4.84279 85.1046C4.84279 85.3283 4.9537 85.5519 5.13855 85.7756C5.3234 85.9993 5.43431 86.1857 5.43431 86.2975C5.43431 86.5212 5.36037 86.7821 5.17552 87.0803C4.99067 87.304 4.80582 87.5277 4.62097 87.714C4.25126 88.1241 4.06641 88.385 4.06641 88.4969C4.06641 88.6087 4.06641 88.7578 4.10338 88.8324C4.14035 88.9442 4.14035 89.0933 4.14035 89.2424C4.14035 89.4288 4.10338 89.5779 4.02944 89.7643C4.28823 89.8389 4.65794 90.0252 5.17552 90.3235C5.87795 90.7335 6.50645 90.9199 7.02403 90.9199C7.20888 90.9199 7.61555 90.7335 8.24405 90.3607C8.83557 89.988 9.31619 89.6898 9.64892 89.3915C9.87074 89.2051 10.0556 88.8324 10.1665 88.2359C10.2404 87.8632 10.5732 87.714 11.1647 87.7513C11.2017 87.304 11.4974 87.043 12.052 86.9685C12.7914 86.8939 13.309 86.633 13.6417 86.1857C13.7156 86.0738 14.3441 85.9247 15.4532 85.8129C16.3405 85.7011 16.9321 85.6638 17.1908 85.6638C17.6715 85.6638 18.0781 85.9247 18.4109 86.4466C18.5218 86.5957 18.7436 86.7076 19.0763 86.7821C19.3721 86.8194 19.483 86.9312 19.483 87.1176C19.483 87.1922 19.4091 87.2667 19.2612 87.3785C19.0763 87.5277 18.9284 87.6022 18.9284 87.6395V87.8632C19.7418 88.0495 20.2224 88.1987 20.3703 88.385C20.3703 88.385 20.3703 88.6833 20.3703 89.1679C20.3703 89.1679 20.4442 89.2797 20.6291 89.5034C20.8139 89.6898 20.8879 89.9507 20.8879 90.2116C20.8879 90.3607 20.8509 90.5471 20.74 90.8454C20.6291 91.1436 20.5921 91.3672 20.5921 91.5164C20.5921 91.5909 20.666 91.74 20.777 91.9637C20.8879 92.1873 20.9618 92.411 20.9618 92.6347C20.9618 92.8211 20.9248 92.9702 20.8139 93.1193C20.703 93.2684 20.666 93.3802 20.666 93.5293C20.666 93.7157 20.8509 93.9021 21.1836 94.1258C21.4794 94.3494 21.7012 94.4613 21.8121 94.4613C22.0709 94.4613 22.3297 94.3122 22.5885 94.0512C22.8473 93.753 23.0691 93.6412 23.254 93.6412C23.4388 93.6412 23.6976 93.7157 24.1043 93.9021C24.4 94.0512 24.8437 94.2003 25.3982 94.3122C25.5831 94.2749 25.731 94.2003 25.8419 94.1631C26.1376 94.0512 26.2486 93.9767 26.2486 93.9021C26.2486 93.8276 26.1376 93.7157 25.8789 93.5666C25.6201 93.3802 25.4722 93.082 25.4722 92.5974C25.4722 92.4856 25.5092 92.3365 25.6201 92.0382C25.731 91.74 25.7679 91.5909 25.7679 91.5909C25.657 91.33 25.5831 91.1436 25.5831 91.0317C25.5831 90.9572 25.657 90.9199 25.7679 90.8826C25.8789 90.8454 26.0267 90.8081 26.1746 90.8081C26.2116 90.8081 26.3595 90.9572 26.6552 91.2554C26.914 91.5536 27.1728 91.6655 27.4316 91.6655C27.8383 91.6655 28.0601 91.5163 28.171 91.1809C28.208 90.8454 28.245 90.6217 28.2819 90.5844C28.6147 90.7335 28.9474 90.6963 29.2062 90.398C29.5019 90.0253 29.6868 89.7643 29.8716 89.6525C30.0565 89.5406 30.1674 89.4288 30.2044 89.3543C30.2413 89.2797 30.3153 89.1679 30.3523 89.0188C30.3892 88.8324 30.5741 88.7205 30.8329 88.7578C30.9807 88.7578 31.1656 88.7951 31.4244 88.8696C31.6462 88.8696 31.905 88.5714 32.2377 87.9377C32.3117 87.8632 32.4965 87.8259 32.8293 87.8259C33.162 87.8259 33.3838 87.7513 33.4947 87.6022C33.4947 87.6022 33.5687 87.2294 33.7165 86.5212C33.8644 86.0366 34.1232 85.6638 34.6038 85.5147ZM17.8193 81.3023C18.1151 81.5632 18.4109 81.7124 18.6697 81.7869C18.9654 81.8242 19.2982 81.9733 19.6309 82.2715C20.0376 82.5697 20.2224 82.868 20.2224 83.2035C20.2224 83.278 20.1115 83.3898 19.9266 83.539C19.7418 83.6881 19.5939 83.7626 19.52 83.7626C19.4091 83.7626 19.2612 83.7253 19.1133 83.6508C18.9284 83.5762 18.8175 83.539 18.7436 83.539C18.4848 83.539 18.3 83.7253 18.1521 84.0981C18.0042 84.4336 17.8193 84.62 17.5236 84.62C17.3018 84.62 17.1539 84.5082 17.0799 84.2845C17.006 84.0236 16.8951 83.8745 16.7842 83.8372C16.6733 83.7999 16.3775 83.7626 15.9339 83.7626C15.6381 83.7626 15.4532 83.6508 15.4532 83.4644C15.4532 83.3526 15.5272 83.2407 15.6381 83.1289C15.749 82.9798 15.786 82.9052 15.786 82.868C15.786 82.8307 15.6751 82.7189 15.4163 82.5325C15.1575 82.3461 15.0466 82.197 15.0466 82.0851C15.0466 81.8615 15.1945 81.7496 15.4532 81.7496L16.0817 81.8615C16.2666 81.8615 16.3405 81.8615 16.3775 81.8242C16.4884 81.7496 16.6733 81.526 16.969 81.1532C17.3018 81.0041 17.5975 81.0786 17.8193 81.3023ZM50.538 22.5156C50.4641 22.5156 50.3901 22.5529 50.2792 22.5902C50.1683 22.6275 50.0944 22.6647 49.9835 22.6647C49.7616 22.6647 49.1701 22.292 48.2089 21.5464C47.2477 20.8009 46.767 20.3535 46.767 20.2417L47.2107 19.3843C47.2107 19.1607 46.9519 19.0115 46.4343 19.0115C45.8428 19.0488 45.5101 19.0488 45.3991 19.0488C45.2513 19.0115 45.1034 18.8624 44.8816 18.6388C44.6967 18.4151 44.4379 18.266 44.1422 18.2287C43.5876 18.1169 43.1809 17.7068 42.9221 16.9986C42.7003 16.3276 42.2936 15.9921 41.6651 15.9921C41.3324 15.9921 40.9257 16.0293 40.4821 16.1412C40.0754 16.253 39.7427 16.2903 39.4839 16.2903H39.4469C39.41 16.3648 39.373 16.4394 39.336 16.5512C39.2621 16.7003 39.2251 16.8494 39.1881 16.9986C39.1881 17.0731 39.1142 17.1477 38.9663 17.2595L38.4487 18.1542L38.3378 18.8252C38.4118 19.0115 38.3009 19.1979 38.0051 19.3843C37.8202 19.5334 37.6724 19.6825 37.5245 19.8689C37.6354 19.9435 37.7093 20.018 37.7463 20.1299C38.0051 20.5399 38.2269 20.7263 38.4118 20.7263C38.6336 20.7263 38.8924 20.8381 39.1881 21.0618C39.4839 21.2855 39.7797 21.36 40.0385 21.36C40.2973 21.3228 40.556 21.36 40.8148 21.5464C41.1106 21.7328 41.2215 22.031 41.2215 22.4411C41.2215 22.5529 41.3324 22.7766 41.5173 23.1121C41.7021 23.4476 41.813 23.7458 41.813 24.044C41.813 24.1558 41.7761 24.305 41.7021 24.4168C41.5912 24.5659 41.5173 24.6032 41.4064 24.6032C41.2954 24.4913 41.1476 24.2304 40.9627 23.7831C40.8518 23.5221 40.667 23.4103 40.4451 23.4103C39.9275 23.4103 39.5578 23.5967 39.336 23.9695C39.2621 24.1931 39.1881 24.3795 39.1142 24.5286C39.0033 24.7523 38.7815 24.8641 38.4857 24.8641C38.3009 24.8641 38.2269 24.976 38.2269 25.1996C38.2269 25.3487 38.2269 25.5351 38.2639 25.7961C38.153 25.9824 38.0051 26.1316 37.8942 26.2061C37.7463 26.2807 37.5984 26.3925 37.4505 26.4671C37.6354 26.4671 37.8572 26.4671 38.116 26.4671C38.2269 26.4671 38.3748 26.5043 38.5227 26.6162C38.7075 26.728 38.8554 26.8025 39.0033 26.8398C39.1142 26.8398 39.2621 26.8771 39.41 26.8771C39.4839 26.9144 39.5209 27.0262 39.5209 27.2499C39.5209 27.4363 39.4839 27.5481 39.41 27.6227C39.2991 27.7345 39.2251 27.8836 39.1512 28.07C39.5209 28.2564 40.0015 28.6664 40.667 29.3001C41.2954 29.9339 41.7021 30.3066 41.85 30.3439C41.9979 30.4185 42.2197 30.4557 42.5155 30.5303C42.7373 30.6049 42.8852 30.754 42.9221 30.9776C42.9221 31.164 43.033 31.3504 43.2179 31.5741C43.3658 31.7605 43.4397 31.9841 43.4397 32.2078C43.4397 32.3196 43.4027 32.506 43.2918 32.767C43.1809 33.0279 43.144 33.2516 43.144 33.4752C43.144 33.6616 43.2549 33.9226 43.5137 34.1462C43.7355 34.4072 43.8464 34.6308 43.8464 34.8172C43.8464 34.9291 43.7725 35.0782 43.6615 35.2273C43.5137 35.3764 43.4397 35.5255 43.4397 35.7119C43.4397 36.0474 43.7725 36.1965 44.4749 36.1965L45.1404 36.0474C45.621 35.9355 45.9537 35.861 46.1755 35.861C46.5452 35.861 47.0628 35.8983 47.7283 36.0101C47.9871 36.0101 48.1719 35.9728 48.3198 35.861C48.4677 35.7492 48.6156 35.7119 48.6895 35.7119C48.9113 35.7119 49.1331 35.8237 49.3919 36.0474C49.6138 36.271 49.7986 36.4947 49.8725 36.7184C49.9095 36.8302 50.0204 36.9793 50.1683 37.0539C50.3532 37.203 50.501 37.3521 50.575 37.5012C50.7968 37.874 50.9077 38.1349 50.9077 38.284C50.9077 38.3586 50.8707 38.4704 50.7968 38.6568C50.7229 38.8059 50.6859 38.955 50.6859 39.0296L50.9817 39.7006C51.1665 39.5887 51.3144 39.5515 51.4253 39.5142C51.6471 39.4396 51.9798 39.4024 52.4605 39.3651C52.8671 39.3278 53.1629 39.1787 53.3108 38.9923C53.3847 38.9177 53.4587 38.8432 53.5326 38.7686C53.5326 38.2095 53.7544 37.7621 54.1241 37.4639C54.3459 37.2775 54.7896 36.942 55.4181 36.4202C55.492 36.3456 55.566 36.1965 55.6399 35.9355C55.7138 35.7492 55.7878 35.6 55.9357 35.5255C56.4163 35.0409 56.6751 34.7427 56.6751 34.5936C56.6751 34.4444 56.6751 34.0717 56.712 33.4007C57.1926 33.2888 57.3405 32.8415 57.2296 32.0587V32.0214C56.8599 32.2078 56.6381 32.3196 56.5272 32.3196C55.492 32.0214 54.9744 31.7605 54.9744 31.5741C54.9744 31.5368 55.0484 31.425 55.1963 31.2386C55.3072 31.0522 55.3811 30.8658 55.3811 30.6794C54.9744 29.4865 54.6787 28.741 54.5308 28.48C54.235 28.0327 53.7914 27.6599 53.2738 27.3244C52.8302 27.1008 52.6083 26.9889 52.6083 26.9144C52.7562 26.5043 52.8302 26.1316 52.8302 25.7961C52.8302 25.4606 52.7192 25.0878 52.5344 24.715C52.3495 24.305 52.0908 24.0067 51.758 23.8576C51.5362 23.7458 51.3514 23.6712 51.2035 23.5967C50.9817 23.4848 50.8707 23.373 50.8707 23.2239C50.8338 23.0375 50.7598 22.8511 50.6489 22.702C50.8338 22.6275 50.6859 22.5156 50.538 22.5156ZM20.0745 51.0702C20.0006 50.7347 19.7418 50.3992 19.2982 50.0637C19.1503 50.1756 19.0024 50.362 18.8915 50.5856C18.7066 50.9584 18.6327 51.2939 18.7806 51.5921C18.7436 51.8903 18.5218 52.1513 18.1151 52.4122C17.6715 52.6359 17.3757 52.785 17.2278 52.8595C16.9321 53.0087 16.7472 53.4187 16.6363 54.0524C16.4884 54.9471 16.4145 55.3944 16.4145 55.4317C16.3405 55.6926 15.8969 56.1027 15.1205 56.7364C14.3072 57.3701 13.8266 57.8175 13.6787 58.0411C13.4569 58.4885 13.1981 59.0476 12.9762 59.7932C12.8284 60.1659 12.6805 60.7624 12.4587 61.6198C12.2738 62.4771 11.6823 63.3718 10.758 64.3037C9.98165 65.0866 9.27922 65.7949 8.65072 66.4286H9.75983C10.1665 66.4286 10.6471 66.5404 11.2386 66.7641C11.7932 66.9505 12.1999 67.0623 12.4217 67.0623C12.4587 67.0623 12.7174 67.025 13.235 66.9132C13.7156 66.8013 14.1223 66.7641 14.455 66.7641L15.6751 66.8759C15.8599 66.8759 16.0448 66.8386 16.2296 66.7641C16.4145 66.6895 16.5993 66.6522 16.7102 66.6522C16.969 66.6522 17.1539 66.7268 17.2648 66.8386C17.3387 66.9132 17.4496 67.0623 17.6715 67.286C17.7824 67.3978 18.0042 67.4723 18.3369 67.5096C18.5218 67.5469 18.7436 67.5469 19.0763 67.5842C19.1872 67.5842 19.6679 67.696 20.5182 67.9569C20.9618 68.0688 21.3685 68.1806 21.8121 68.2924C21.8491 68.2924 21.997 68.2552 22.2558 68.1806C22.5146 68.1061 22.7734 68.0688 23.0321 68.0688C23.217 68.0688 23.6606 68.1433 24.4 68.2924C24.7697 68.367 25.1395 68.4043 25.4352 68.4416C25.731 68.4788 26.0267 68.4788 26.3225 68.4788C26.4704 68.4788 26.6552 68.3297 26.8771 67.9942C27.0619 67.696 27.1728 67.4723 27.1728 67.3605C27.1728 67.1741 26.951 67.0623 26.5443 67.0623C26.1007 67.0996 25.8419 67.1368 25.8049 67.1368C25.8049 67.0996 25.6201 66.8759 25.2134 66.4658C24.8067 66.0558 24.6219 65.7948 24.6219 65.7203C24.6219 65.4966 24.6958 65.273 24.8067 65.0493C24.9176 64.8256 24.9916 64.5274 24.9916 64.1174C25.0285 63.4091 25.0655 62.8872 25.0655 62.589C25.0655 62.2908 25.0285 62.1044 25.0285 61.9925C25.0285 61.7689 25.1025 61.5079 25.2134 61.2843C25.3243 61.0606 25.4722 60.8742 25.657 60.6878C25.7679 60.576 25.8049 60.4269 25.8049 60.2032C25.8049 60.0168 25.731 59.7559 25.5461 59.5322C25.3613 59.3086 25.2504 59.1222 25.2504 58.9731L25.9158 58.7121C26.2116 58.6003 26.4704 58.4139 26.6922 58.1157C26.6183 58.0784 26.5443 58.0411 26.5073 58.0038C26.4704 58.0038 26.1007 57.892 25.4722 57.7056C25.1395 57.5938 24.9916 57.4074 24.9916 57.1092C24.9916 56.55 24.9546 56.2518 24.8807 56.14C24.474 55.6554 24.2891 55.2826 24.2891 55.0589C24.2891 54.6116 24.0673 54.3134 23.5867 54.2015C22.9952 54.127 22.5146 54.0524 22.1818 53.9033C21.5533 53.6796 21.1836 53.3442 21.0727 52.9714C20.9248 52.4868 20.74 52.1513 20.4442 51.9276C20.3703 51.9276 20.2224 51.5921 20.0745 51.0702ZM70.465 43.8757C69.9104 43.7638 69.5407 43.6893 69.3928 43.5774C69.208 43.4656 68.9122 43.3911 68.5055 43.2792C68.1728 43.2047 67.914 43.1301 67.8031 42.981C67.5813 42.7201 67.4334 42.5709 67.3225 42.4964C67.1746 42.3473 66.9528 42.2355 66.657 42.1609H66.3613V42.4964C66.3982 42.5337 66.4722 42.6455 66.5461 42.7573C66.6201 42.9064 66.657 42.981 66.657 43.0183C66.657 43.1301 66.6201 43.2792 66.5461 43.3538C66.4722 43.5029 66.3613 43.5774 66.2134 43.5774C66.1395 43.5774 66.0655 43.5402 65.9546 43.4656H65.511V43.8011C65.6219 43.8384 65.7697 43.9129 65.8807 43.9875C65.9916 44.0993 66.0655 44.2112 66.0655 44.323C66.0655 44.3603 66.0285 44.3975 65.9546 44.4348C65.8807 44.4721 65.8067 44.5094 65.6958 44.5094C65.474 44.5094 64.9194 44.323 64.0321 43.9502C63.1449 43.5774 62.6642 43.3911 62.5164 43.3911L61.2224 43.5402C60.9636 43.5402 60.5569 43.2792 60.0024 42.7573C59.6697 42.4591 59.3739 42.2727 59.0781 42.1609C59.1151 42.31 59.1151 42.4591 59.1151 42.6082C58.9672 42.6082 58.7824 42.6828 58.6345 42.8319C58.4866 42.981 58.4127 43.0928 58.4127 43.1674L58.5975 44.1366C58.3018 44.3975 57.969 44.6958 57.6733 44.994C57.0448 45.5904 56.712 46.1869 56.6751 46.746C56.6381 47.1188 56.6011 47.3425 56.5642 47.417C56.4163 47.678 56.0835 47.9016 55.529 48.1253C55.1593 48.2744 54.7896 48.4235 54.4569 48.6472C54.4938 48.6845 54.5308 48.759 54.5678 48.7963C54.6047 48.9081 54.6787 49.0572 54.7156 49.1691L54.7526 49.691C54.7526 49.8401 54.5308 49.9892 54.0872 50.1756C53.5696 50.3247 53.2738 50.5111 53.1629 50.6602C53.089 50.8093 52.8671 51.0329 52.5714 51.3312C52.3865 51.5176 52.2756 51.7412 52.2756 52.0394C52.2756 52.4495 52.3495 52.7104 52.4605 52.8223C52.5344 52.9341 52.7562 53.0459 53.1259 53.2323C53.6435 53.456 53.9023 53.6051 53.9023 53.6797C53.9023 53.7542 53.9393 53.8288 54.0502 53.9779C54.1611 54.127 54.1981 54.2388 54.1981 54.2761C53.9023 54.6861 53.5696 55.1335 53.2738 55.5435C52.6453 56.4009 52.3126 56.8855 52.3126 56.9228L52.4235 57.5565C52.4235 58.0411 52.2756 58.5257 51.9429 58.9358C51.6101 59.234 51.4623 59.4204 51.4623 59.4204C51.4623 59.4204 51.5732 59.5695 51.758 59.8677C51.9429 60.1659 52.0538 60.3896 52.0538 60.576V62.6635C52.0908 62.8499 52.0168 62.999 51.8689 63.1109C51.6841 63.2227 51.6101 63.2973 51.6101 63.4464C51.6101 63.5582 51.6841 63.7073 51.795 63.8937C51.9059 64.0801 51.9429 64.2292 51.9429 64.3037C51.9429 64.4156 51.758 64.602 51.4253 64.8256C51.0556 65.0866 50.8707 65.273 50.8338 65.3848C50.7229 65.7576 50.6119 66.2422 50.501 66.8386C50.4271 67.025 50.3901 67.2487 50.3532 67.5842C50.3162 67.8451 50.2422 68.0688 50.1313 68.2552C50.0204 68.367 49.8356 68.5161 49.5028 68.6652C49.244 68.7771 49.0962 68.9262 49.0962 69.1871C49.0962 69.3735 49.318 69.5972 49.7986 69.8208C50.2422 70.0072 50.4641 70.1936 50.4641 70.3427C50.4641 70.4918 50.4271 70.6409 50.3162 70.7528C50.2053 70.9019 50.1683 71.051 50.1683 71.1628C50.501 71.6474 50.6489 71.9829 50.6489 72.0948C50.6489 72.2439 50.6119 72.5048 50.501 72.9521C50.3901 73.3995 50.2792 73.7722 50.2053 74.0332C50.1313 74.3314 50.0574 74.7787 49.9835 75.4125C49.9095 76.0089 49.7616 76.4189 49.5768 76.6426C49.5398 76.6799 49.244 76.8663 48.7265 77.2018C48.6156 77.2763 48.5046 77.4254 48.3568 77.7237C48.2458 77.9473 48.098 78.0592 47.9131 78.0592L47.2477 77.8355H46.9149V78.0964C46.9519 78.171 47.0258 78.3574 47.1367 78.6556C47.2477 78.9538 47.2846 79.1029 47.2846 79.1402C47.2846 79.3266 47.1367 79.6621 46.878 80.184C46.5822 80.7431 46.3234 81.0414 46.0646 81.0414C45.9537 81.0414 45.7319 81.0041 45.4361 80.9295C45.1404 80.8177 44.8446 80.7804 44.5858 80.7804C44.29 80.7804 44.0312 80.8177 43.8094 80.8923C43.2918 81.0041 43.033 81.1905 43.033 81.4141C43.033 81.4887 43.07 81.6378 43.144 81.8242C43.144 81.9733 43.033 82.1597 42.8482 82.3461C42.6264 82.5325 42.5155 82.6816 42.5155 82.7561C42.5155 82.868 42.5894 83.0171 42.7373 83.1662C42.8482 83.3153 42.9221 83.4271 42.9221 83.5017C42.9221 83.7999 42.6633 84.0981 42.1458 84.4336C42.0349 84.5082 41.887 84.5827 41.7391 84.6573C41.887 84.9928 41.9609 85.3283 41.9609 85.7011C41.9609 85.7383 41.6282 86.0366 40.9997 86.5212C40.3712 87.0058 40.0385 87.3785 40.0385 87.6022C40.0385 87.9004 40.4451 88.3105 41.2585 88.7578C42.0718 89.2051 42.4785 89.7643 42.4785 90.398C42.4785 90.4353 42.4415 90.5099 42.3676 90.5471C42.7743 90.8081 43.07 91.33 43.2179 92.0755C43.4397 93.2684 43.6985 93.9021 43.9573 93.9767C44.1052 94.0139 44.4009 94.0885 44.7706 94.1631C45.1034 94.2749 45.3252 94.424 45.4361 94.7222C45.4731 94.7968 45.7319 95.1696 46.2864 95.8033C46.3973 95.8033 46.5822 95.6914 46.878 95.4678C47.1737 95.2441 47.4325 95.1323 47.6543 95.1323C48.098 95.1323 48.4307 95.3187 48.6895 95.6542C48.8743 95.9524 48.9853 96.2133 48.9483 96.4743C48.8743 96.8843 48.9483 97.1453 49.1701 97.2571C49.281 97.3689 49.5028 97.518 49.8725 97.7417C49.9835 97.8535 50.0944 98.0026 50.2792 98.2263C50.4641 98.4127 50.6859 98.5618 50.8707 98.6364C51.3514 98.7482 51.5362 99.1582 51.3883 99.8665C51.4623 99.9038 51.6101 99.9038 51.832 99.9038C52.0168 99.9038 52.2386 99.8665 52.4605 99.792C52.6453 99.7174 52.9041 99.6801 53.1259 99.6801C53.3108 99.6801 53.4587 99.531 53.5696 99.2701C53.6805 99.0464 53.7174 98.8228 53.7174 98.6364C53.6435 98.3382 53.6065 98.1145 53.6065 97.9654C53.5326 97.6299 53.4956 97.4435 53.4956 97.3689C53.4956 97.2198 53.7174 96.847 54.1611 96.2506C54.6417 95.6169 54.9005 95.1695 54.9375 94.9832C55.0114 94.7222 55.2702 94.3122 55.7138 93.6784C55.8248 93.4921 55.8987 93.3057 55.9357 93.082C55.9357 92.8211 55.9726 92.6347 56.0096 92.5229C56.0466 92.411 56.3793 91.74 57.0448 90.4353C57.6363 89.2424 57.969 88.5341 57.969 88.3478C57.969 88.2732 57.8951 88.1614 57.7102 88.0495C57.5254 87.9377 57.4514 87.8259 57.4514 87.714C57.4514 87.2667 57.7102 86.633 58.1908 85.8502C58.7454 84.9555 59.263 84.5454 59.7436 84.5454C60.1133 84.5454 60.4091 84.62 60.5939 84.8064C60.7048 84.9182 60.8527 85.0301 60.9636 85.1419C61.0376 84.8437 61.0745 84.5827 61.0745 84.2845C61.0745 84.1727 61.2224 83.7626 61.4812 82.9798C61.74 82.197 61.8509 81.6751 61.8509 81.526C61.8509 81.4141 61.8139 81.1905 61.74 80.855C61.6661 80.5195 61.6291 80.2213 61.6291 79.8858C61.6291 79.1029 61.74 78.5065 61.9248 78.0592C62.1467 77.5 62.3315 76.7172 62.4055 75.7852C62.4794 74.9278 62.8861 73.6604 63.6255 71.9829C63.8103 71.5729 63.9582 71.3119 64.0321 71.1255C64.1431 70.8273 64.217 70.5291 64.18 70.1936C64.1431 69.8581 64.18 69.4481 64.2909 68.9634C64.3649 68.4788 64.4758 68.1433 64.6237 67.8824C64.8085 67.5096 65.0673 66.8759 65.4 65.944C65.7697 65.012 65.8807 64.4156 65.8067 64.1174C65.7328 63.8564 65.6958 63.4464 65.7328 62.8499C65.7697 62.4026 65.7328 61.8807 65.6958 61.2097C65.7697 61.0233 65.8807 60.8369 65.9916 60.6878C66.1764 60.5014 66.4352 60.3151 66.8049 60.1287C66.8789 60.0914 66.9528 59.8677 67.0267 59.4204C67.1376 59.0103 67.1746 58.6748 67.1746 58.4885C67.1746 58.1902 66.9898 57.892 66.5831 57.6311C66.1764 57.3701 65.9546 56.811 65.9546 55.9909C65.9546 55.2826 66.0285 54.8353 66.2134 54.6116C66.3243 54.4625 66.694 54.0524 67.3225 53.4187C67.5813 53.0832 67.7292 52.6359 67.7292 52.114C67.6922 51.5176 67.6922 51.1075 67.6922 50.8838C67.6922 50.5111 67.7661 50.2501 67.951 50.101C68.3577 49.7282 68.6904 49.3927 68.9492 49.0572C69.2449 48.6472 69.5037 48.3117 69.7256 48.1253C70.0213 47.8644 70.391 47.6034 70.8716 47.3797C71.1674 47.2306 71.3892 46.9697 71.5371 46.5224C71.722 45.9259 71.8698 45.5904 71.8698 45.5159C71.9808 45.2922 72.1656 44.994 72.4244 44.6585C72.4614 44.5839 72.4983 44.5467 72.5353 44.4721C72.3874 44.3603 72.2395 44.2857 72.0917 44.2484C71.648 44.1366 71.0935 43.9875 70.465 43.8757ZM66.5461 1.56566C66.3243 1.19288 66.0285 0.894661 65.6588 0.708273C65.3261 0.521886 64.8825 0.372775 64.2909 0.223665C63.6994 0.0745551 63.2188 0 62.8491 0C62.3315 0 61.8879 0.260943 61.4812 0.820106C61.0376 1.37927 60.6309 1.67749 60.2612 1.75204C59.5218 1.8266 59.0781 2.23665 58.9303 2.94493C58.7824 3.61592 58.5236 4.13781 58.1169 4.43603C57.8951 4.58514 57.7842 4.69697 57.7102 4.73425C57.6363 4.8088 57.5993 4.88336 57.5993 4.95791C57.5993 4.99519 57.8951 5.1443 58.4866 5.4798C59.0781 5.77802 59.3369 6.22535 59.3369 6.78451C59.3369 7.04545 59.3 7.19456 59.226 7.23184C59.189 7.26912 59.1521 7.26912 59.1151 7.26912C59.0042 7.26912 58.8193 7.00818 58.5236 6.48629C58.2278 5.92713 57.8951 5.66619 57.5254 5.66619C57.1187 5.66619 56.9339 5.88985 56.9339 6.33718C56.9339 6.44901 56.8229 6.56085 56.6381 6.67268C56.3793 6.82179 56.1575 6.93362 55.9726 7.08273C55.4551 7.41823 55.0484 7.64189 54.7156 7.71645C54.5308 7.75373 54.1611 7.75373 53.5326 7.75373C53.015 7.75373 52.6823 7.82828 52.4974 7.94012C52.3496 8.01467 52.2386 8.08922 52.1277 8.08922C52.2386 8.49928 52.3865 8.76022 52.6083 8.83478L53.7914 9.24483C53.8284 9.28211 54.0502 9.50577 54.4199 9.91582C54.6047 10.1022 54.8635 10.1768 55.2702 10.214C55.6769 10.214 55.9726 10.3632 56.1945 10.5868C56.3793 10.7732 56.4902 11.0342 56.4902 11.3696C56.4902 11.5188 56.5272 11.6679 56.6381 11.8543C56.786 12.0406 56.8599 12.1525 56.8599 12.227L56.9708 13.159C56.9708 13.3454 56.6751 13.6063 56.0835 13.9791C55.529 14.3146 55.1593 14.4637 54.9375 14.4637L54.3459 14.3519C54.1611 14.3519 54.0872 14.6128 54.0872 15.0974C54.0872 15.3956 54.1241 15.6566 54.1981 15.7684C54.272 15.9175 54.309 16.0666 54.309 16.253C54.309 16.4394 54.272 16.5512 54.1611 16.6631C54.0502 16.8122 54.0132 16.9613 54.0132 17.1477C54.0132 17.4832 54.1611 17.8559 54.4938 18.266C54.7896 18.676 54.9744 19.1607 54.9744 19.6825C54.9744 19.8317 54.9375 19.9435 54.8266 20.018C54.7156 20.0926 54.6787 20.2044 54.6787 20.3908C54.6787 20.5772 54.7896 20.689 54.9744 20.689C55.0854 20.689 55.2702 20.689 55.492 20.6518C55.6399 20.6518 55.7878 20.689 55.8987 20.8009C56.0466 20.9127 56.1945 20.95 56.3054 20.95C56.4532 20.95 56.6011 20.9127 56.786 20.8381C56.9708 20.7636 57.0817 20.7263 57.1927 20.7263C57.3036 20.7263 57.5624 20.9127 57.9321 21.3228C58.2278 21.6955 58.4496 21.9565 58.5236 22.1429C58.5975 22.292 58.7454 22.5156 59.0412 22.8884C59.226 23.1121 59.3369 23.3357 59.3369 23.5221C58.8933 23.7458 58.5975 23.9322 58.4496 24.1186C58.3387 24.2677 58.2648 24.4541 58.2648 24.715C58.2648 25.0505 58.5236 25.4606 59.0412 26.0197C59.5588 26.5416 59.8175 26.9517 59.8175 27.2872L59.7066 27.809C59.7066 27.8836 59.7806 28.0327 59.9654 28.2191C60.0394 28.2937 60.0763 28.3682 60.1133 28.5173C60.1503 28.5173 60.1872 28.5173 60.2612 28.5546C60.3721 28.5546 60.6309 28.48 61.0745 28.2937C61.4812 28.1073 61.777 27.9209 61.9248 27.809C62.1097 27.5854 62.6273 27.399 63.4406 27.2499C63.6994 27.1753 63.9212 27.1008 64.0321 26.9889C64.1061 26.9144 64.2909 26.7653 64.5497 26.5043C64.8455 26.2434 65.0303 26.057 65.1413 25.9452C65.2891 25.7588 65.3631 25.5724 65.3631 25.3487C65.3631 24.976 65.3261 24.715 65.2522 24.6032C65.1413 24.4913 65.1043 24.305 65.1043 24.044C65.1043 23.4103 65.2152 23.0375 65.474 22.9257C65.6958 22.8139 66.4722 22.5529 67.7661 22.1056C68.4686 21.7701 68.8013 21.621 68.8752 21.5837C69.2819 21.3973 69.5777 21.1736 69.7625 20.95C69.9104 20.8009 70.0583 20.5399 70.2062 20.2044C70.391 19.9435 70.7238 19.7944 71.1304 19.7944C71.2044 19.7944 71.3892 19.8689 71.685 19.9808C71.9808 20.0926 72.1656 20.1671 72.2395 20.1671C72.6092 20.1671 72.868 19.8689 73.0159 19.2352C73.1638 18.5642 73.2377 18.2287 73.2747 18.1914C73.3856 18.1542 73.8662 18.0051 74.7165 17.8187C75.4929 17.595 75.8996 17.3341 75.8996 17.0731C75.8996 16.8867 75.7887 16.6631 75.5299 16.4021C75.2711 16.1785 75.1602 15.9921 75.1602 15.843C75.1602 15.3956 75.4559 15.172 76.0844 15.172C76.8608 15.1347 77.3045 15.0601 77.4154 14.9856C77.6372 14.7992 78.0439 14.5755 78.7093 14.3891C79.2639 14.2027 79.6336 14.1282 79.8184 14.1282C79.9663 14.1282 80.1142 14.1655 80.2251 14.24C81.3712 13.569 81.9627 13.0099 81.9627 12.5625C81.9627 12.4134 81.8518 12.3016 81.63 12.227C81.4821 12.1898 81.3342 12.1525 81.2233 12.1525C81.0385 12.1525 80.8166 12.227 80.5948 12.3761C80.41 12.488 80.1512 12.5625 79.8924 12.5625C79.4857 12.5625 79.2269 12.4507 79.116 12.2643C79.0421 12.1525 79.0051 11.817 78.9681 11.2578C78.9681 10.9969 78.8572 10.6987 78.6354 10.4004C78.4505 10.1022 78.3396 9.84127 78.3396 9.54305C78.3396 9.31938 78.4136 8.94661 78.5615 8.42472C78.7093 7.90284 78.8202 7.60462 78.8942 7.53006V7.41823L78.3396 7.3064C78.1178 7.3064 77.822 7.41823 77.4893 7.6419C77.1566 7.82828 76.7869 7.94012 76.3802 7.94012C75.8996 7.94012 75.4559 7.90284 75.0863 7.82828C74.4947 7.71645 74.199 7.53006 74.125 7.3064C74.0881 7.15729 73.9771 7.04545 73.8293 6.9709C73.7553 7.15729 73.6444 7.38095 73.4596 7.67917C73.1268 8.20106 72.868 8.462 72.6832 8.462C72.3874 8.35017 72.2395 8.31289 72.2395 8.31289C72.1656 8.31289 72.0917 8.35017 72.0177 8.42472C71.9068 8.49928 71.8698 8.61111 71.8698 8.72294C71.8698 8.7975 71.9807 9.02116 72.2026 9.43122C72.4244 9.80399 72.5353 10.0649 72.5353 10.1768C72.5353 10.6987 72.2765 10.9596 71.7959 10.9596C71.7589 10.9596 71.5001 10.885 71.0195 10.7359C70.5389 10.5868 70.2431 10.5123 70.0953 10.5123C69.7625 10.5123 69.4668 10.4004 69.171 10.214C69.0601 10.1768 68.8383 9.99038 68.4316 9.65488C68.0249 9.35666 67.7292 9.09572 67.5813 8.94661C67.2855 8.68567 67.1746 8.42472 67.2486 8.16378C67.2855 7.75373 67.1746 7.41823 66.9158 7.23184C66.657 7.12001 66.5092 7.04545 66.5092 7.00818C66.5092 6.85907 66.731 6.70996 67.1746 6.56085C67.5074 6.44901 67.7292 6.41174 67.8771 6.41174C68.3577 6.33718 68.6534 6.26263 68.8013 6.18807C68.9862 6.07624 69.171 5.92713 69.3928 5.70346C69.2449 5.36797 69.134 5.1443 69.0601 4.95791C68.9862 4.84608 68.9492 4.73425 68.9492 4.62241C68.9492 4.51058 68.9862 4.39875 68.9862 4.32419C68.9862 4.13781 68.8383 3.9887 68.5795 3.95142C68.2098 3.91414 68.0249 3.83959 67.951 3.80231C67.8031 3.69048 67.6552 3.50409 67.4704 3.24315C67.2486 2.94493 67.1007 2.75854 66.8789 2.64671C66.8789 2.31121 66.7679 1.93843 66.5461 1.56566ZM63.9582 4.39875C63.9952 4.43603 64.1431 4.51058 64.3279 4.65969C64.5128 4.84608 64.6237 4.99519 64.6237 5.21886C64.6237 5.29341 64.5867 5.36797 64.5497 5.44252C64.5128 5.51708 64.4758 5.59163 64.4758 5.70346C64.4758 5.92713 64.5867 6.18807 64.8455 6.48629C65.1043 6.82179 65.2152 7.12001 65.2152 7.38095C65.2152 7.75373 65.437 8.05195 65.8437 8.31289C66.2504 8.57383 66.4722 8.83478 66.4722 9.09572L66.1764 10.3632C66.1764 10.475 66.2873 10.9223 66.4722 11.5933C66.5092 11.7424 66.694 11.817 67.0637 11.817C67.3964 11.817 67.5443 11.8915 67.5443 12.0406C67.5443 12.3761 67.2486 12.5625 66.6201 12.5625C66.4352 12.5625 66.2504 12.5253 66.0655 12.4507C65.8807 12.3761 65.7697 12.3389 65.6958 12.3389C65.4 12.3389 65.2891 12.488 65.2891 12.7489C65.2891 12.9353 65.3261 13.0471 65.437 13.159C65.5479 13.2708 65.5849 13.4199 65.5849 13.6063L65.474 14.0909C65.474 14.2027 65.6588 14.2773 66.0285 14.3891C66.3982 14.501 66.5831 14.6501 66.5831 14.7992C66.5831 14.8365 66.5461 14.911 66.5092 15.0601H65.1413C63.8473 14.6501 63.1079 14.3146 62.8861 14.0909C62.8491 14.0536 62.7752 13.7554 62.7012 13.2335C62.6273 12.7862 62.4794 12.5625 62.2576 12.5625C62.0727 12.5625 61.8879 12.6371 61.703 12.7862C61.5182 12.9353 61.3703 13.0099 61.2224 13.0099C61.1115 13.0099 61.0006 12.9726 60.8897 12.8608C60.7418 12.7489 60.6679 12.5998 60.6679 12.5253C60.6679 12.488 60.7788 12.1152 61.0006 11.4069C61.1854 10.6987 61.2963 10.2513 61.2963 10.0649C61.2963 9.6176 61.2594 9.35666 61.1854 9.20755C61.0006 8.94661 60.6309 8.7975 60.0024 8.72294C59.7436 8.68567 59.5957 8.49928 59.5218 8.1265C59.5957 8.01467 59.6697 7.82828 59.7806 7.6419C59.8175 7.60462 59.9284 7.34368 60.1133 6.93362C60.2612 6.67268 60.4091 6.48629 60.5939 6.33718C60.6309 6.2999 60.8897 6.15079 61.3703 5.85257C61.777 5.59163 61.9988 5.40524 62.1097 5.29341C62.1836 5.18158 62.4055 4.84608 62.7012 4.24964C62.8491 3.95142 63.0709 3.83959 63.3667 3.83959C63.6255 3.83959 63.7364 3.91414 63.6994 4.02597C63.6994 4.13781 63.7734 4.28692 63.9582 4.39875Z" fill="#6B6B6B"/>
<path d="M39.9279 91.7761C39.743 91.9625 39.5582 92.0743 39.3363 92.1116C38.6339 92.298 38.2642 92.4098 38.2272 92.4471C38.0424 92.5589 37.7466 92.8199 37.303 93.3045C36.9333 93.7145 36.7115 93.9382 36.7115 93.9755C36.4896 94.2737 36.3787 94.5346 36.3787 94.7956C36.3787 95.0192 36.4527 95.2429 36.6005 95.4666C36.7115 95.6902 36.7854 95.8766 36.7854 96.0257C36.7854 96.1376 36.6005 96.3612 36.2308 96.6967C35.8611 96.995 35.6763 97.3305 35.6763 97.6287C35.6763 97.7032 35.7133 97.8151 35.7872 98.0014C35.8242 98.1506 35.8611 98.2624 35.8611 98.3742C35.8611 98.4115 35.8611 98.5979 35.8242 98.8961C35.972 99.3807 35.8981 99.8653 35.6393 100.387C35.3805 100.909 35.2326 101.245 35.2326 101.394C35.2326 101.394 35.3436 101.58 35.5284 101.953C35.7133 102.326 35.8242 102.587 35.8242 102.736C35.8242 102.959 35.5284 103.295 34.9739 103.668C34.3823 104.078 33.9757 104.525 33.8278 104.972C33.7538 105.233 33.569 105.606 33.2732 106.128C33.0514 106.501 32.9405 106.836 32.9405 107.134C32.9405 107.321 33.0884 107.768 33.4211 108.551C33.7169 109.334 33.8647 109.781 33.8647 109.93C34.0496 109.93 34.3084 110.042 34.6041 110.228C35.0108 110.415 35.1957 110.676 35.1957 110.899C35.1957 111.049 35.1587 111.16 35.0848 111.272C34.9739 111.421 34.826 111.496 34.6411 111.496C34.6042 111.496 34.5672 111.496 34.5302 111.496C34.5302 111.757 34.5302 112.092 34.4932 112.502C34.4563 112.801 34.5672 113.024 34.789 113.099C34.9739 113.173 35.2696 113.285 35.7133 113.434C36.083 113.583 36.2678 113.77 36.2678 114.031C36.2678 114.105 36.2678 114.627 36.2308 115.596C36.2308 115.708 36.1199 115.895 35.9351 116.193C35.7502 116.491 35.6393 116.715 35.6023 116.864C35.4914 117.237 35.2326 117.46 34.826 117.609C34.3454 117.721 34.0496 117.759 33.9017 117.833C34.0866 118.243 33.9017 118.541 33.2732 118.69C32.4968 118.877 32.0532 119.138 31.9053 119.436C31.7944 119.622 31.6465 119.883 31.4617 120.256C31.1659 120.778 30.9811 121.188 30.8702 121.449C30.2786 122.977 29.9089 123.984 29.761 124.543C29.7241 124.655 29.7241 124.916 29.7241 125.289C29.7241 125.587 29.9089 125.922 30.2786 126.221C30.6483 126.519 30.8332 127.003 30.8332 127.6C30.8332 128.01 30.6853 128.271 30.4265 128.383C30.1308 128.494 29.9829 128.644 29.9829 128.83C29.9829 128.979 30.2786 129.389 30.8702 130.023C31.4617 130.694 31.7574 131.029 31.7574 131.104C31.7574 131.141 31.4617 131.328 30.9071 131.663C30.3156 132.073 30.0568 132.558 30.0568 133.042C30.0568 133.229 30.3156 133.564 30.8332 133.974C31.3508 134.384 31.6096 134.869 31.6096 135.428C31.6096 135.503 31.5726 135.54 31.5356 135.577C31.4617 135.652 31.3877 135.764 31.3138 135.913V136.435C31.7944 136.435 32.0532 136.696 32.0902 137.217C32.1271 137.814 32.312 138.149 32.5708 138.224C32.6817 138.224 33.1623 138.485 34.0126 138.969C34.8629 139.454 35.3436 139.678 35.4545 139.678C35.7133 139.678 35.972 139.529 36.1939 139.268C36.1569 139.007 36.046 138.709 35.9351 138.41C35.7133 137.888 35.6023 137.553 35.6023 137.404C35.6023 137.217 35.6393 136.956 35.7502 136.621C35.8611 136.323 35.8981 135.875 35.972 135.279C36.046 134.72 36.1939 134.31 36.4896 134.049C36.7854 133.788 37.0072 133.266 37.1181 132.483C37.229 131.738 37.4139 131.178 37.6727 130.806C37.7836 130.619 37.8575 130.396 37.9684 130.06C38.0794 129.65 38.1533 129.389 38.1903 129.277C38.486 128.644 38.6709 128.084 38.7448 127.6C38.8188 127.078 38.9297 126.519 39.1145 125.885C39.2994 125.251 39.4842 124.804 39.6321 124.58C39.743 124.431 39.8909 124.282 40.0757 124.17C40.2976 123.984 40.4824 123.835 40.6303 123.648C40.8152 123.387 40.8891 122.94 40.7782 122.306C40.6303 121.374 41.1849 120.517 42.4049 119.734C42.7376 119.511 43.1812 119.138 43.7358 118.579C44.3643 117.945 44.8079 117.498 45.1037 117.199C45.1407 117.162 45.3625 117.05 45.7692 116.864C46.1758 116.677 46.4716 116.528 46.5455 116.454C47.0262 116.007 47.4328 115.671 47.7286 115.447C47.8395 115.336 47.8765 115.149 47.8395 114.814C47.8025 114.515 47.9134 114.366 48.1722 114.329C48.5789 114.217 48.8007 114.143 48.9116 113.994C48.9486 113.919 48.9486 113.733 48.9486 113.434C48.9486 113.211 48.8747 112.912 48.6898 112.614C48.505 112.316 48.431 112.092 48.431 112.018C48.431 111.496 48.5789 111.198 48.8747 111.086C49.5401 110.862 49.9838 110.676 50.2426 110.527C50.3165 110.489 50.4644 110.378 50.7232 110.117C51.3517 109.52 51.7583 108.924 51.9432 108.365C52.0911 107.768 52.2759 107.284 52.4608 106.911C52.5347 106.799 52.7935 106.389 53.2372 105.718C53.6069 105.196 53.8287 104.674 53.9026 104.152C53.9396 103.891 54.0505 103.63 54.2353 103.407L54.8269 102.661C54.9008 102.587 54.9748 102.326 55.0487 101.841C55.1596 101.356 55.1966 101.058 55.2705 100.984C55.5663 100.313 55.936 99.9026 56.4536 99.7908C56.7863 99.7162 57.156 99.3807 57.6366 98.8588C57.6366 98.8216 57.5627 98.7097 57.4148 98.5233C57.2669 98.3369 57.156 97.9269 57.156 97.2559L57.0451 95.3175C57.0451 95.2056 57.2299 95.0192 57.5996 94.8329C57.9324 94.6092 58.1172 94.311 58.1172 93.9755L58.0063 92.9317C58.0063 92.6335 58.1912 92.1489 58.5609 91.4779C58.9306 90.8814 59.2263 90.5459 59.4112 90.4714C59.7439 90.3223 59.9657 89.9868 60.0766 89.5022C60.2245 88.7566 60.4094 87.8992 60.5573 86.93C60.5573 86.7809 60.6682 86.4454 60.853 85.9235C60.9639 85.6626 61.0379 85.4016 61.1118 85.1407C61.0009 85.0289 60.853 84.917 60.7421 84.8052C60.5573 84.6188 60.2615 84.5443 59.8918 84.5443C59.4112 84.5443 58.8566 84.9916 58.339 85.849C57.8584 86.6318 57.5996 87.2655 57.5996 87.7129C57.5996 87.8247 57.6736 87.9365 57.8584 88.0484C58.0433 88.1602 58.1172 88.2347 58.1172 88.3466C58.1172 88.533 57.8215 89.2039 57.193 90.4341C56.5275 91.7388 56.1948 92.4471 56.1578 92.5217C56.1208 92.6335 56.1208 92.7826 56.0839 93.0808C56.0839 93.3045 56.0099 93.5281 55.862 93.6773C55.3814 94.2737 55.1226 94.721 55.0857 94.982C55.0117 95.1684 54.7529 95.6157 54.3093 96.2494C53.8656 96.8458 53.6438 97.2559 53.6438 97.3677C53.6438 97.4423 53.6808 97.666 53.7547 97.9642C53.7547 98.076 53.7917 98.2997 53.8656 98.6352C53.8656 98.8216 53.8287 99.0452 53.7178 99.2689C53.6069 99.5298 53.459 99.6789 53.2741 99.6789C53.0153 99.6789 52.7935 99.7162 52.6087 99.7908C52.3868 99.8653 52.165 99.9026 51.9802 99.9026C51.7583 99.9026 51.6105 99.9026 51.5365 99.8653C51.6844 99.1571 51.5365 98.7097 51.0189 98.6352C50.7971 98.5606 50.6123 98.4488 50.4274 98.2251C50.2426 98.0015 50.0947 97.8523 50.0207 97.7405C49.651 97.5168 49.4292 97.3677 49.3183 97.2559C49.1335 97.1068 49.0595 96.8458 49.0965 96.4731C49.1335 96.2121 49.0595 95.9139 48.8377 95.653C48.5789 95.3175 48.2092 95.1311 47.8025 95.1311C47.5807 95.1311 47.3219 95.2429 47.0262 95.4666C46.7304 95.6902 46.5455 95.8021 46.4346 95.8021C45.917 95.1684 45.6213 94.7956 45.5843 94.721C45.4734 94.4601 45.2516 94.2737 44.9188 94.1619C44.5122 94.0873 44.2534 94.0128 44.1055 93.9755C43.8467 93.9009 43.6249 93.2672 43.3661 92.0743C43.2182 91.3288 42.9225 90.8069 42.5158 90.5459C42.4049 90.6578 42.1831 90.7696 41.8873 90.8814L40.7782 91.3288C40.3345 91.4779 40.1127 91.5897 39.9279 91.7761ZM25.9161 94.1991C25.8052 94.2364 25.6574 94.2737 25.4725 94.3483C24.9179 94.1991 24.4743 94.05 24.1785 93.9382C23.7719 93.7518 23.4761 93.6773 23.3282 93.6773C23.1434 93.6773 22.9216 93.8264 22.6628 94.0873C22.367 94.3855 22.1082 94.4974 21.8864 94.4974C21.7755 94.4974 21.5537 94.3855 21.2579 94.1619C20.9252 93.9382 20.7403 93.7145 20.7403 93.5654C20.7403 93.4536 20.7773 93.3045 20.8882 93.1554C20.9991 93.0435 21.0361 92.8572 21.0361 92.6708C21.0361 92.4471 20.9621 92.2234 20.8512 91.9998C20.7403 91.7761 20.6664 91.627 20.6664 91.5524C20.6664 91.3661 20.7033 91.1424 20.8142 90.8814C20.9252 90.5832 20.9621 90.3968 20.9621 90.2477C20.9621 89.9868 20.8882 89.7631 20.7033 89.5395C20.5185 89.3531 20.4445 89.2412 20.4445 89.2039C20.4445 88.6821 20.4445 88.4211 20.4445 88.4211C20.3336 88.2347 19.853 88.0856 19.0027 87.8992V87.6756C19.0397 87.6383 19.1506 87.5637 19.3354 87.4146C19.4833 87.3028 19.5573 87.2282 19.5573 87.1537C19.5573 86.9673 19.4094 86.8555 19.1506 86.8182C18.8179 86.7436 18.596 86.6318 18.4851 86.4827C18.1154 85.9608 17.7087 85.6999 17.2651 85.6999C17.0063 85.6999 16.4148 85.7371 15.5275 85.849C14.3814 85.9608 13.7899 86.1099 13.716 86.2217C13.3832 86.6691 12.8656 86.93 12.1262 87.0046C11.5717 87.0791 11.2759 87.3401 11.239 87.7874C10.6474 87.7501 10.3147 87.9365 10.2408 88.272C10.1298 88.8685 9.945 89.2412 9.72317 89.4276C9.39044 89.7258 8.90983 90.0241 8.31831 90.3968C7.68981 90.7696 7.28314 90.956 7.09829 90.956C6.5807 90.956 5.95221 90.7696 5.24977 90.3596C4.73219 90.0613 4.36249 89.8749 4.1037 89.8004C4.02976 89.9868 3.91885 90.1359 3.73399 90.285C3.40126 90.5832 3.25338 90.7323 3.25338 90.7696C3.25338 90.9933 3.40126 91.2169 3.73399 91.4406C4.02976 91.6643 4.21461 91.8507 4.21461 91.9998C4.21461 92.2607 3.95582 92.5217 3.4752 92.8572C2.92065 93.2299 2.55095 93.6027 2.3661 93.9755C2.29216 94.0873 2.25518 94.2364 2.25518 94.4601C2.25518 94.721 2.25518 94.9074 2.21821 95.0565C2.14427 95.2802 1.99639 95.5039 1.77457 95.6902C1.58972 95.8766 1.51578 96.0257 1.51578 96.1749C1.51578 96.2867 1.58972 96.5476 1.77457 97.0322C1.84851 97.5914 1.99639 97.9269 2.21821 98.0387C2.44004 98.1506 2.55095 98.2624 2.55095 98.4115C2.55095 98.5979 2.14427 98.7843 1.29396 99.0079C0.443643 99.1943 0 99.4926 0 99.9026C0 99.9026 0.110911 100.164 0.295762 100.574C0.517583 101.058 0.628494 101.431 0.665464 101.692C0.702435 101.99 0.850316 102.177 1.07214 102.288C1.25699 102.363 1.62669 102.475 2.25518 102.698C2.80974 102.959 3.58611 103.63 4.58431 104.674C5.58251 105.755 6.02615 106.724 5.95221 107.582C5.95221 107.805 5.95221 107.992 5.95221 108.178C6.24797 108.066 6.54373 108.029 6.80253 108.029L8.90983 108.7C10.4256 109.147 11.4238 109.371 11.9044 109.371C12.2741 109.371 12.7178 109.147 13.1984 108.663C13.679 108.178 14.1596 107.955 14.6402 107.955L15.6384 108.066C16.3778 108.066 16.8954 107.619 17.2281 106.687C17.4869 105.606 17.7087 104.935 17.9306 104.637C18.0415 104.45 18.3003 104.264 18.67 104.078C19.0397 103.891 19.2615 103.705 19.3354 103.593C19.4464 103.332 19.6312 103.108 19.89 102.885C19.9639 102.81 20.2597 102.587 20.7773 102.139C21.073 101.916 21.4797 101.356 21.9973 100.424C22.4409 99.6789 23.0325 99.1198 23.8088 98.7843C24.1785 98.5979 24.6592 98.0015 25.2507 96.9577C25.7683 95.9885 26.0271 95.392 26.0271 95.1311C25.9531 95.2429 25.9531 94.9074 25.9161 94.1991ZM25.9901 70.938C25.9901 70.6025 25.9161 70.1179 25.7313 69.5214C25.6204 69.1486 25.5095 68.7759 25.3986 68.4404C25.0658 68.4031 24.7331 68.3658 24.3634 68.2913C23.661 68.1421 23.1803 68.0676 22.9955 68.0676C22.7367 68.0676 22.4779 68.1049 22.2191 68.1794C21.9603 68.254 21.8124 68.2913 21.7755 68.2913C21.3688 68.1794 20.9252 68.0303 20.4815 67.9558C19.6312 67.6948 19.1506 67.583 19.0397 67.583C18.7439 67.583 18.4851 67.5457 18.3003 67.5084C18.0045 67.4711 17.7827 67.3966 17.6348 67.2848C17.45 67.0611 17.3021 66.912 17.2281 66.8374C17.1172 66.7256 16.9324 66.651 16.6736 66.651C16.5627 66.651 16.3778 66.6883 16.193 66.7629C16.0081 66.8374 15.8233 66.8747 15.6384 66.8747L14.4184 66.7629C14.1226 66.7629 13.716 66.8002 13.1984 66.912C12.6808 67.0238 12.422 67.0611 12.385 67.0611C12.1632 67.0611 11.7565 66.9493 11.202 66.7629C10.6105 66.5392 10.1298 66.4274 9.72317 66.4274H8.61407C8.50316 66.5765 8.39225 66.6883 8.28133 66.8374C8.35528 67.2475 8.13345 67.6948 7.5789 68.0676C7.02435 68.5149 6.76555 68.9622 6.80253 69.3723C6.91344 69.7824 6.76556 70.2297 6.32191 70.7516C5.8413 71.3107 5.58251 71.7208 5.58251 71.9445C5.58251 72.1308 5.61948 72.28 5.73039 72.4663C5.8413 72.6527 5.87827 72.7646 5.87827 72.8764C5.87827 72.951 5.61948 73.6219 5.13886 74.9267C4.65825 76.1941 4.39946 77.0142 4.39946 77.387C4.39946 77.5734 4.54734 78.2816 4.8431 79.5118C5.02795 79.6982 5.13886 79.8473 5.13886 79.9964C5.13886 80.2201 4.99098 80.3319 4.73219 80.3319L4.36249 80.2946C4.25158 80.2946 4.1037 80.3319 4.02976 80.4437C4.4734 80.5556 4.8431 80.7047 5.2128 80.8911C5.65645 81.1147 5.87827 81.2266 5.95221 81.2266C6.02615 81.2266 6.17403 81.1893 6.39585 81.1147C6.5807 81.1147 6.95041 81.2266 7.5789 81.4129C8.17042 81.5993 8.50316 81.7112 8.5771 81.7112C8.9468 81.7112 9.13165 81.4129 9.13165 80.7792C9.13165 80.1455 9.27953 79.8473 9.61226 79.8473C9.79712 79.8473 9.90803 79.9218 9.945 80.0337C9.98197 80.1455 10.0189 80.1828 10.0929 80.1828C10.3147 80.1828 10.4626 80.0337 10.5365 79.7727C10.6105 79.4372 10.7214 79.2136 10.8693 79.1763C11.165 79.0272 11.3868 78.9154 11.4608 78.8408C11.6087 78.729 11.6826 78.5799 11.6087 78.4307H12.0153C12.0893 78.5799 12.2002 78.6544 12.3481 78.6544C12.6069 78.4307 12.8656 78.1698 13.1244 77.9089C13.642 77.4243 14.0117 77.1633 14.2705 77.1633C14.7511 77.126 15.0469 76.8651 15.2317 76.3805C15.3796 75.8959 15.6014 75.6349 15.8233 75.6349C15.9711 75.6349 16.193 75.7095 16.4518 75.8959C16.7475 76.0823 16.9693 76.1568 17.1542 76.1568L17.7087 75.8586C18.0785 75.6722 18.3742 75.5604 18.596 75.5604C19.1876 75.5604 19.5573 75.7095 19.7051 76.045C20.0009 76.5296 20.3336 76.9024 20.6294 77.0888C20.8512 77.2379 21.4058 77.4615 22.2191 77.7225C22.5519 77.8716 22.8476 78.058 23.1064 78.2816C23.2173 78.3562 23.4391 78.3935 23.8088 78.3935C24.4004 78.3935 24.807 78.2816 24.9549 78.0953C25.1028 77.8716 25.3616 77.7598 25.6943 77.7598C25.8792 77.7598 25.9901 77.8716 26.0271 78.058C26.0271 78.1698 26.064 78.3562 26.138 78.6171H26.5446C26.8404 78.5053 27.0253 78.4307 27.0622 78.4307C27.358 78.4307 27.7277 78.5426 28.0974 78.729C28.578 78.8408 28.9107 78.8408 29.0956 78.729C29.2804 78.6171 29.3544 78.468 29.3544 78.1698L29.2435 77.4243C29.2435 77.3497 29.2804 77.2379 29.3544 77.0888C29.3913 77.0142 29.3913 76.9396 29.3913 76.8651C29.3913 76.8278 29.4283 76.7905 29.4283 76.7533C29.2435 76.2686 29.0586 76.0077 28.7998 76.0077C28.8738 76.2314 28.7998 76.3805 28.615 76.4178C28.2822 76.455 28.0974 76.4923 28.0604 76.5296C28.0234 76.5296 27.9125 76.6787 27.7277 76.9396C27.5798 77.1633 27.4319 77.2751 27.2471 77.2751C27.0253 77.2751 26.7665 77.0888 26.5077 76.7533C26.2489 76.4178 26.064 76.2314 25.9901 76.2314C25.8052 76.2687 25.6574 76.2686 25.5834 76.2686C25.4355 76.2686 25.3616 76.1941 25.3616 76.0077C25.3616 75.8213 25.5095 75.374 25.7683 74.6284L26.1749 73.5847C26.1749 73.5101 26.138 73.2864 26.0271 72.8764C25.9161 72.5036 25.8422 72.2054 25.8422 71.9445C25.8422 71.6835 25.9161 71.4971 26.0271 71.3853C25.9531 71.1989 25.9901 71.0871 25.9901 70.938ZM41.4067 22.4399C41.4067 22.0298 41.2588 21.7316 41 21.5452C40.7412 21.3588 40.4824 21.3216 40.2236 21.3588C39.9279 21.3961 39.6691 21.2843 39.3733 21.0606C39.0775 20.837 38.7818 20.7251 38.5969 20.7251C38.4121 20.7251 38.1533 20.5387 37.9315 20.1287C37.8575 20.0168 37.7836 19.9423 37.7097 19.8677C37.6357 19.9796 37.5987 20.0914 37.5618 20.2032C37.4509 20.5015 37.266 20.7624 37.0812 20.9861C36.8593 21.247 36.7484 21.3961 36.7484 21.4707C36.7484 21.6571 36.8593 21.8434 37.0442 22.0671C37.1181 22.2535 37.1551 22.5144 37.1551 22.8499C37.1551 23.0363 37.0812 23.3345 36.9333 23.7819C36.7484 24.3038 36.5266 24.7138 36.3048 24.9748C36.1569 25.1239 35.972 25.273 35.7133 25.4594C35.6393 25.4966 35.6023 25.5339 35.5654 25.5712C35.6023 25.6458 35.6763 25.7576 35.7133 25.8321L36.4157 25.6085C36.5266 25.6085 36.6005 25.7576 36.6375 26.0931C36.7854 26.354 37.1181 26.4659 37.6727 26.5031C37.8206 26.4286 37.9684 26.3168 38.1163 26.2422C38.2272 26.1676 38.3751 26.0185 38.486 25.8321C38.486 25.5712 38.4491 25.3848 38.4491 25.2357C38.4491 24.9748 38.523 24.8629 38.7078 24.9002C39.0036 24.9002 39.2254 24.7884 39.3363 24.5647C39.4103 24.4529 39.4842 24.2665 39.5582 24.0055C39.78 23.6328 40.1497 23.4464 40.6673 23.4464C40.8891 23.4464 41.0739 23.5582 41.1849 23.8192C41.3697 24.2665 41.5176 24.5274 41.6285 24.6393C41.7394 24.6393 41.8503 24.602 41.9243 24.4529C41.9982 24.341 42.0352 24.1919 42.0352 24.0801C42.0352 23.8192 41.9243 23.5209 41.7394 23.1482C41.5176 22.7754 41.4067 22.5517 41.4067 22.4399ZM54.4572 9.87736C54.0875 9.4673 53.8656 9.24364 53.8287 9.20636L52.6456 8.79631C52.4238 8.72175 52.239 8.46081 52.165 8.05076C52.128 8.05076 52.128 8.08803 52.0911 8.08803C51.9802 8.08803 51.8323 8.01348 51.6474 7.90165C51.4626 7.78981 51.3147 7.71526 51.1668 7.71526C51.0189 7.71526 50.8341 7.78981 50.5753 7.9762C50.3165 8.12531 50.0947 8.27442 49.8729 8.34898C49.651 8.42353 49.4662 8.49809 49.3183 8.49809C49.1335 8.49809 48.9856 8.57264 48.8377 8.72175C48.6898 8.94542 48.505 9.09453 48.2462 9.20636C48.2092 9.20636 47.7286 9.31819 46.8043 9.4673C46.1019 9.57914 45.6213 9.76552 45.3995 10.0265C45.2886 10.1383 44.4752 10.6602 43.0334 11.5921C41.8503 12.3004 41.2588 12.9341 41.2588 13.456C41.2588 13.5306 41.2958 13.6424 41.3697 13.8288C41.3697 13.9406 41.2588 14.1643 41.037 14.4998C40.8152 14.8353 40.5933 15.0589 40.4454 15.1708C40.1497 15.3199 39.9279 15.5808 39.78 15.9163C39.743 16.0281 39.6691 16.1773 39.5951 16.3636H39.6321C39.8539 16.3636 40.1867 16.3264 40.6303 16.2145C41.0739 16.1027 41.4436 16.0654 41.8133 16.0654C42.4418 16.0654 42.8485 16.4009 43.0703 17.0719C43.3291 17.7802 43.7358 18.1902 44.2904 18.3021C44.5861 18.3394 44.8079 18.4885 45.0298 18.7121C45.2146 18.9731 45.3995 19.1222 45.5473 19.1222C45.6583 19.1595 45.991 19.1595 46.5825 19.0849C47.1001 19.0849 47.3589 19.234 47.3589 19.4577L46.9152 20.3151C46.9152 20.4642 47.3959 20.9115 48.3571 21.6198C49.3183 22.3653 49.9098 22.7381 50.1316 22.7381C50.2426 22.7381 50.3535 22.7008 50.4274 22.6636C50.5383 22.6263 50.6123 22.589 50.6862 22.589C50.8341 22.589 50.982 22.7008 51.0929 22.8872C51.2038 23.0363 51.2777 23.2227 51.3147 23.4091C51.3147 23.5582 51.4626 23.67 51.6474 23.7819C51.7583 23.8564 51.9432 23.931 52.202 24.0428C52.4977 24.2292 52.7565 24.4902 52.9784 24.9002C53.1632 25.273 53.2741 25.6458 53.2741 25.9813C53.2741 26.3168 53.2002 26.6895 53.0523 27.0996C53.0523 27.1369 53.2741 27.286 53.7178 27.5096C54.2353 27.8451 54.679 28.2179 54.9748 28.6652C55.1596 28.9262 55.4184 29.6345 55.8251 30.8646C55.8251 31.051 55.7511 31.2747 55.6402 31.4238C55.4923 31.6102 55.4184 31.722 55.4184 31.7593C55.4184 31.9457 55.936 32.2066 56.9711 32.5048C57.0821 32.5048 57.3039 32.393 57.6736 32.2066C57.6736 32.0948 57.7475 31.9829 57.8584 31.8338C58.0803 31.5729 58.2281 31.3492 58.339 31.1628C58.376 30.6409 58.4869 30.2309 58.6348 29.9699C59.1154 28.8889 59.67 28.4043 60.2985 28.4788C60.2615 28.367 60.1876 28.2552 60.1506 28.1806C59.9657 27.9942 59.8918 27.8451 59.8918 27.7706L60.0027 27.2487C60.0027 26.9132 59.7439 26.5031 59.2263 25.9813C58.7087 25.4594 58.45 25.012 58.45 24.6765C58.45 24.4156 58.5239 24.1919 58.6348 24.0801C58.7827 23.8937 59.0785 23.67 59.5221 23.4837C59.5221 23.2973 59.4112 23.0736 59.2263 22.8499C58.9306 22.5144 58.7827 22.2535 58.7087 22.1044C58.5978 21.918 58.413 21.6571 58.1172 21.2843C57.7475 20.8742 57.5257 20.6878 57.3778 20.6878C57.2669 20.6878 57.119 20.7251 56.9711 20.7997C56.7863 20.8742 56.6384 20.9115 56.4905 20.9115C56.3427 20.9115 56.1948 20.8742 56.0839 20.7624C55.9729 20.6506 55.8251 20.6133 55.6772 20.6133C55.4554 20.6506 55.2705 20.6506 55.1596 20.6506C54.9748 20.6506 54.8638 20.5387 54.8638 20.3523C54.8638 20.166 54.9008 20.0541 55.0117 19.9796C55.1226 19.905 55.1596 19.7932 55.1596 19.6441C55.1596 19.1222 55.0117 18.6376 54.679 18.2275C54.3463 17.8175 54.1984 17.4447 54.1984 17.1092C54.1984 16.9228 54.2354 16.7737 54.3463 16.6246C54.4572 16.5128 54.4941 16.3636 54.4941 16.2145C54.4941 16.0654 54.4572 15.9163 54.3832 15.7299C54.3093 15.5808 54.2723 15.3572 54.2723 15.0589C54.2723 14.5743 54.3463 14.3134 54.5311 14.3134L55.1226 14.4252C55.3075 14.4252 55.7142 14.2761 56.2687 13.9406C56.8602 13.5678 57.156 13.3069 57.156 13.1205L57.0451 12.1886C57.0451 12.114 56.9342 12.0022 56.8233 11.8158C56.7124 11.6294 56.6754 11.4803 56.6754 11.3312C56.6754 11.033 56.5645 10.772 56.3796 10.5484C56.1578 10.3247 55.862 10.1756 55.4554 10.1756C54.9008 10.1383 54.642 10.0637 54.4572 9.87736ZM24.7331 38.9538C24.6961 38.9911 24.6961 39.0284 24.6222 39.0657C24.5113 39.2148 24.4373 39.3266 24.4004 39.4012C24.3634 39.4384 24.2525 39.6994 24.0676 40.1467C23.9567 40.4449 23.8458 40.6686 23.7719 40.7804C23.6979 40.9295 23.661 41.0787 23.7349 41.1532C23.6979 41.3023 23.624 41.4142 23.5131 41.526C23.3282 41.7124 23.1803 41.8615 23.1064 41.9733C22.9216 42.197 22.7737 42.5325 22.6258 42.9798C22.5149 43.3153 22.33 43.5763 22.0343 43.7999C21.6276 43.9863 21.2579 44.1727 20.9621 44.3218C20.8142 44.3964 20.6664 44.62 20.5185 44.9182C20.4445 45.0301 20.2967 45.2537 20.0379 45.6265C19.853 45.8502 19.7421 46.0738 19.7421 46.3348C19.7421 46.6703 19.853 46.9312 20.0379 47.1176C20.2227 47.304 20.2967 47.4531 20.2967 47.6022C20.2967 47.7886 20.1858 48.0123 19.9639 48.1987C19.7051 48.4223 19.5942 48.6087 19.5942 48.7206L19.7421 49.2797C19.7421 49.317 19.7421 49.3915 19.7051 49.5779C19.7051 49.727 19.5942 49.8762 19.3724 50.0253C19.3354 50.0253 19.3354 50.0625 19.2985 50.0625C19.7421 50.3608 20.0009 50.6963 20.0748 51.069C20.1858 51.5909 20.3336 51.9264 20.4815 52.0755C20.7773 52.2619 20.9621 52.6347 21.11 53.1193C21.2209 53.4921 21.5906 53.7903 22.2191 54.0512C22.5519 54.1631 22.9955 54.2749 23.624 54.3495C24.1046 54.4613 24.3264 54.7595 24.3264 55.2068C24.3264 55.4305 24.5113 55.8033 24.9179 56.2879C24.9919 56.3997 25.0289 56.6979 25.0289 57.2571C25.0289 57.5553 25.1767 57.7417 25.5095 57.8535C26.1749 58.0399 26.5077 58.1145 26.5446 58.1518C26.5816 58.189 26.6555 58.189 26.7295 58.2636C26.9143 58.3754 27.2101 58.5618 27.5798 58.8228C27.8016 58.9719 28.2083 59.0464 28.7259 59.0464L29.9089 58.86C30.0938 58.86 30.4265 58.9719 30.9071 59.1583C31.3877 59.1583 31.7205 58.7109 31.9423 57.8535L32.349 56.2506C32.4229 56.1388 32.6817 55.9897 33.1253 55.766C33.4581 55.5796 33.6429 55.3932 33.606 55.2068C33.569 54.9832 33.606 54.685 33.7538 54.2749C33.9017 53.8276 34.0496 53.6039 34.2344 53.6039C34.4563 53.6039 34.6411 53.6785 34.789 53.8276C34.9369 54.014 35.1217 54.1258 35.3436 54.2003C35.4914 54.2376 35.5284 54.3867 35.5284 54.685C35.5284 54.9459 35.6023 55.0577 35.7502 55.0577C36.009 55.0577 36.1569 54.8713 36.1199 54.4613C36.1199 54.0512 36.3048 53.8648 36.6375 53.8648C36.6745 53.8648 36.8224 53.9021 37.1181 54.014C37.4139 54.1258 37.5987 54.1631 37.7097 54.1631C37.8206 54.1631 38.1163 54.014 38.56 53.753C39.0036 53.4548 39.3363 53.343 39.5212 53.343C39.6321 53.343 39.743 53.4175 39.8539 53.5294C40.1867 53.5294 40.4824 53.2684 40.7042 52.7838C40.9261 52.2992 41.4436 52.0382 42.294 52.0382C42.3309 52.0382 42.6267 51.8891 43.1443 51.6282C43.3661 51.5164 43.6619 51.2927 44.0685 51.069C44.5861 50.7335 44.8449 50.5099 44.8449 50.3235C44.8449 50.2862 44.8079 50.1744 44.734 49.988C44.771 49.9507 44.9188 49.9507 45.1776 49.9507C45.2886 49.9507 45.6952 49.988 46.3607 50.0998C46.5455 50.0998 46.8043 49.9134 47.1001 49.5407C47.3959 49.1679 47.5807 48.9815 47.6916 48.9815C47.8025 48.9815 47.9504 49.0188 48.0983 49.1306C48.2462 49.2424 48.431 49.2797 48.6528 49.2797C48.7638 49.2797 48.9856 49.2052 49.3183 49.056C49.651 48.9069 49.8729 48.8324 50.0207 48.8324C50.1686 48.8324 50.3165 48.8697 50.3904 48.9069C50.5014 48.9442 50.6123 48.9815 50.7601 48.9815C50.982 48.9815 51.0929 48.8324 51.0929 48.4969C51.0929 48.1614 51.2777 48.0123 51.6474 48.0123C51.7583 48.0123 51.9062 48.0868 52.0541 48.2359C52.202 48.3851 52.4608 48.4596 52.8305 48.4596L53.9396 48.3478C54.1614 48.3478 54.3463 48.4969 54.4941 48.7578C54.8269 48.5714 55.1966 48.3851 55.5663 48.2359C56.1208 48.0123 56.4536 47.7886 56.6014 47.5277C56.6384 47.4531 56.6754 47.2295 56.7124 46.8567C56.7493 46.2602 57.0821 45.7011 57.7106 45.1046C58.0063 44.8064 58.339 44.5082 58.6348 44.2472L58.376 43.2035C58.376 43.1289 58.45 43.0171 58.5978 42.868C58.7827 42.7189 58.9306 42.6443 59.0784 42.6443C59.0784 42.4952 59.0785 42.3461 59.0415 42.197C59.0045 41.936 58.9306 41.7497 58.7457 41.6378C58.5239 41.4887 58.1912 41.4142 57.7106 41.4142C57.3039 41.4142 56.9342 41.526 56.6754 41.7496C56.3796 41.936 56.1208 42.0479 55.936 42.0479C55.7881 42.0479 55.6402 41.936 55.5293 41.6751C55.4184 41.4514 55.3445 41.265 55.3075 41.1159C55.2705 40.9295 55.1226 40.7804 54.8269 40.6686C54.5681 40.5568 54.4202 40.4449 54.4202 40.3331L54.5311 39.6994C54.5311 39.4757 54.4941 39.2893 54.4202 39.1029C54.3093 38.9166 54.1614 38.8047 54.0135 38.8047C53.9396 38.8047 53.8287 38.842 53.7547 38.8793C53.6808 38.9166 53.6069 38.9911 53.5329 39.1029C53.3481 39.2893 53.0893 39.4384 52.6826 39.4757C52.202 39.513 51.8323 39.5876 51.6474 39.6248C51.5365 39.6621 51.3886 39.6994 51.2038 39.8112C51.1668 39.8112 51.1668 39.8485 51.1298 39.8485C50.7601 40.0349 50.5014 40.4077 50.2795 40.9668C50.0947 41.4514 49.9098 41.7124 49.725 41.7124C49.5401 41.7124 49.3922 41.6005 49.2813 41.3769C49.1704 41.1532 48.9856 41.0414 48.7638 41.0414C48.5789 41.0414 48.2462 41.3023 47.8025 41.8615C47.3589 42.4579 47.0631 42.7934 46.9522 42.868C46.4716 43.2408 45.917 43.6135 45.2886 44.0236C44.6231 44.4336 44.1794 44.62 43.9576 44.62C43.8097 44.62 43.6249 44.5827 43.3661 44.5455C43.1443 44.4709 42.9964 44.4336 42.9594 44.4336C42.7376 44.4336 42.5528 44.62 42.4418 44.9555C42.3309 45.291 42.22 45.4774 42.1461 45.4774C41.8503 45.4774 41.5915 45.2165 41.3697 44.7319C41.1109 44.1354 40.963 43.8372 40.963 43.8372C40.8152 43.7254 40.5564 43.6881 40.1127 43.7254C39.6691 43.7626 39.3733 43.7999 39.2624 43.7999C38.9297 43.7999 38.523 43.7254 38.0794 43.6135C37.6357 43.4644 37.3769 43.3899 37.303 43.3899C37.0812 43.3899 36.9702 43.4644 36.9702 43.6135C36.9702 43.8372 37.0072 44.0236 37.0812 44.1354C37.1551 44.2472 37.1921 44.4336 37.1921 44.62C37.1921 44.9555 37.1551 45.1792 37.0812 45.291C36.9702 45.4774 36.7115 45.5892 36.3418 45.5892L35.5654 45.4774C35.4545 45.4774 35.2696 45.5147 35.0108 45.6265C34.752 45.7383 34.5672 45.7756 34.4563 45.7756C34.1235 45.7756 33.8278 45.6265 33.606 45.291C33.3102 44.9182 32.8296 44.7319 32.1641 44.6573C32.0162 44.6573 31.8314 44.5082 31.5726 44.3218C31.2768 44.0981 31.055 43.9863 30.9071 43.949C30.2786 43.8372 29.798 43.6508 29.4653 43.4271C28.8738 43.1289 28.3932 42.8307 28.0234 42.6443C27.321 42.2343 26.9883 41.8615 26.9143 41.526L26.8404 40.9295C26.8404 40.8177 26.7295 40.7059 26.5077 40.594C26.2858 40.4449 26.1749 40.3331 26.101 40.2585C26.064 40.2213 25.7683 39.9231 25.1767 39.4384C24.9919 39.2893 24.844 39.1402 24.7331 38.9538ZM51.5365 40.5195L51.6105 40.5568H51.5735L51.5365 40.5195ZM73.7187 6.8206C73.4599 6.74604 73.312 6.67149 73.2381 6.55966C72.9423 6.18688 72.5356 6.00049 72.055 6.00049C71.7962 6.00049 71.6483 6.1496 71.5374 6.41054C71.4265 6.70877 71.2786 6.8206 71.0938 6.8206C70.872 6.8206 70.7241 6.67149 70.6501 6.41054C70.5392 6.07505 70.4653 5.85138 70.3913 5.8141C70.2065 5.70227 69.8368 5.59044 69.2822 5.51588C69.0974 5.73955 68.8756 5.92594 68.6907 6.00049C68.5428 6.07505 68.2471 6.1496 67.7665 6.22416C67.6186 6.22416 67.3968 6.26144 67.064 6.37327C66.6204 6.52238 66.3986 6.67149 66.3986 6.8206C66.3986 6.85788 66.5464 6.93243 66.8052 7.04426C67.064 7.23065 67.1749 7.56615 67.138 7.9762C67.101 8.23714 67.2119 8.49809 67.4707 8.75903C67.6186 8.90814 67.9143 9.16908 68.321 9.4673C68.7277 9.8028 68.9865 9.98919 69.0604 10.0265C69.3562 10.2129 69.6519 10.3247 69.9847 10.3247C70.1326 10.3247 70.4653 10.3992 70.9089 10.5484C71.3895 10.6975 71.6483 10.772 71.6853 10.772C72.1659 10.772 72.4247 10.5111 72.4247 9.98919C72.4247 9.87736 72.3138 9.65369 72.092 9.24364C71.8702 8.83358 71.7592 8.60992 71.7592 8.53536C71.7592 8.42353 71.7962 8.34898 71.9071 8.23714C71.9811 8.16259 72.055 8.12531 72.1289 8.12531C72.1289 8.12531 72.2768 8.16259 72.5726 8.27442C72.7574 8.27442 73.0162 8.01348 73.349 7.49159C73.5338 7.19337 73.6447 6.96971 73.7187 6.78332C73.7926 6.85788 73.7556 6.85788 73.7187 6.8206ZM64.3282 4.6585C64.1434 4.50939 63.9955 4.43484 63.9585 4.39756C63.7737 4.28573 63.6997 4.09934 63.7367 3.91295C63.7367 3.80112 63.6258 3.72656 63.404 3.72656C63.1082 3.72656 62.8864 3.87567 62.7385 4.13662C62.4058 4.73306 62.2209 5.10583 62.147 5.18039C62.0361 5.29222 61.7773 5.47861 61.4076 5.73955C60.927 6.03777 60.6312 6.18688 60.6312 6.22416C60.4464 6.37327 60.2985 6.55966 60.1506 6.8206C59.9657 7.23065 59.8179 7.49159 59.8179 7.52887C59.7069 7.75254 59.633 7.90165 59.5591 8.01348C59.633 8.38625 59.8179 8.57264 60.0397 8.60992C60.6682 8.68447 61.0748 8.87086 61.2227 9.09453C61.2967 9.20636 61.3336 9.50458 61.3336 9.95191C61.3336 10.1383 61.2227 10.5856 61.0379 11.2939C60.8161 12.0022 60.7051 12.375 60.7051 12.4122C60.7051 12.5241 60.7791 12.6359 60.927 12.7477C61.0748 12.8596 61.1858 12.8968 61.2597 12.8968C61.3706 12.8968 61.5555 12.8223 61.7403 12.6732C61.9252 12.5241 62.073 12.4495 62.2949 12.4495C62.5167 12.4495 62.6646 12.6732 62.7385 13.1205C62.8124 13.6424 62.8864 13.9406 62.9234 13.9779C63.1452 14.2015 63.8846 14.537 65.1785 14.9471H66.5464C66.5834 14.798 66.6204 14.7234 66.6204 14.6862C66.6204 14.4998 66.4355 14.3879 66.0658 14.2761C65.6961 14.1643 65.5113 14.0897 65.5113 13.9779L65.6222 13.4933C65.6222 13.3069 65.5852 13.1578 65.4743 13.0459C65.3634 12.9341 65.3264 12.8223 65.3264 12.6359C65.3264 12.375 65.4743 12.2258 65.7331 12.2258C65.844 12.2258 65.9549 12.2631 66.1028 12.3377C66.2507 12.4122 66.4355 12.4495 66.6573 12.4495C67.2858 12.4495 67.5816 12.2631 67.5816 11.9276C67.5816 11.8158 67.4337 11.7412 67.101 11.704C66.7313 11.704 66.5464 11.5921 66.5095 11.4803C66.3246 10.772 66.2137 10.362 66.2137 10.2501L66.5095 8.9827C66.5095 8.72175 66.2877 8.46081 65.881 8.19987C65.4743 7.93892 65.2525 7.60343 65.2525 7.26793C65.2525 7.00699 65.1416 6.70877 64.8828 6.37327C64.624 6.07505 64.5131 5.77683 64.5131 5.59044C64.5131 5.47861 64.55 5.40405 64.587 5.3295C64.624 5.25494 64.661 5.18039 64.661 5.10583C64.624 5.03128 64.5131 4.84489 64.3282 4.6585Z" fill="#6B6B6B"/>
<path d="M18.6702 81.7504C18.3744 81.7131 18.1156 81.564 17.8199 81.2658C17.5981 81.0421 17.3393 80.9675 17.0435 81.0421C16.7477 81.4149 16.5259 81.6385 16.452 81.7131C16.415 81.7131 16.3041 81.7504 16.1562 81.7504L15.5277 81.6385C15.2689 81.6385 15.121 81.7504 15.121 81.974C15.121 82.0859 15.232 82.235 15.4908 82.4214C15.7495 82.6077 15.8605 82.7196 15.8605 82.7569C15.8605 82.7941 15.8235 82.8687 15.7126 83.0178C15.6017 83.1669 15.5277 83.2787 15.5277 83.3533C15.5277 83.5397 15.6756 83.6515 16.0083 83.6515C16.452 83.6515 16.7477 83.6888 16.8587 83.7261C16.9696 83.7633 17.0435 83.9125 17.1544 84.1734C17.2284 84.3971 17.3762 84.5089 17.5981 84.5089C17.8938 84.5089 18.0787 84.3225 18.2266 83.987C18.3744 83.6142 18.5593 83.4278 18.8181 83.4278C18.892 83.4278 19.0029 83.4651 19.1878 83.5397C19.3726 83.6142 19.4835 83.6515 19.5944 83.6515C19.6684 83.6515 19.8163 83.577 20.0011 83.4278C20.186 83.2787 20.2969 83.1669 20.2969 83.0924C20.2969 82.7569 20.112 82.4586 19.7054 82.1604C19.2987 81.974 18.966 81.7876 18.6702 81.7504ZM44.8082 50.2881C44.8082 50.4372 44.5494 50.6982 44.0318 51.0337C43.6251 51.2946 43.3293 51.481 43.1075 51.5928C42.5899 51.8911 42.2942 52.0029 42.2572 52.0029C41.4069 52.0029 40.8893 52.2638 40.6675 52.7484C40.4457 53.233 40.1869 53.494 39.8172 53.494C39.7063 53.3822 39.5584 53.3076 39.4844 53.3076C39.2996 53.3076 38.9669 53.4567 38.5232 53.7177C38.0796 54.0159 37.7838 54.1277 37.6729 54.1277C37.562 54.1277 37.3771 54.0904 37.0814 53.9786C36.7856 53.8668 36.6377 53.8295 36.6008 53.8295C36.268 53.8295 36.0832 54.0159 36.0832 54.4259C36.0832 54.836 35.9723 55.0224 35.7135 55.0224C35.5286 55.0224 35.4547 54.9105 35.4917 54.6496C35.4917 54.3886 35.4547 54.2395 35.3068 54.165C35.085 54.0904 34.9001 53.9786 34.7522 53.7922C34.6413 53.6431 34.4565 53.5685 34.1977 53.5685C34.0128 53.5685 33.865 53.7922 33.7171 54.2395C33.6062 54.6496 33.5322 54.9478 33.5692 55.1715C33.5692 55.3579 33.4213 55.507 33.0886 55.7306C32.6449 55.9543 32.3862 56.1034 32.3122 56.2152L31.9055 57.8182C31.7207 58.7128 31.351 59.1229 30.8704 59.1229C30.3898 58.9365 30.0201 58.8247 29.8722 58.8247L28.6891 58.9365C28.1715 58.9365 27.7649 58.862 27.5431 58.7128C27.1733 58.4519 26.8776 58.2655 26.6927 58.1537C26.4709 58.4146 26.2121 58.6383 25.9164 58.7501L25.2509 59.0111C25.2509 59.1229 25.3618 59.3093 25.5467 59.5702C25.7315 59.8312 25.8055 60.0548 25.8055 60.2412C25.8055 60.4649 25.7685 60.614 25.6576 60.7258C25.4727 60.9122 25.3248 61.0986 25.2139 61.3223C25.103 61.5459 25.0291 61.8069 25.0291 62.0305C25.0291 62.1424 25.0291 62.366 25.066 62.627C25.066 62.9252 25.0291 63.4471 24.9921 64.1554C24.9921 64.5654 24.9182 64.8636 24.8073 65.0873C24.6963 65.2737 24.6224 65.4974 24.6224 65.7583C24.6224 65.8701 24.8073 66.0938 25.2139 66.5038C25.6206 66.9139 25.8055 67.1376 25.8055 67.1748C25.8424 67.1748 26.0642 67.1376 26.5449 67.1003C26.9515 67.1003 27.1733 67.2121 27.1733 67.3985C27.1733 67.5103 27.0624 67.734 26.8776 68.0322C26.6558 68.3304 26.4709 68.5168 26.323 68.5168C26.0273 68.5168 25.7315 68.5168 25.4357 68.4796C25.5467 68.8151 25.6945 69.1878 25.7685 69.5606C25.9533 70.157 26.0273 70.6417 26.0273 70.9771C26.0273 71.1263 25.9903 71.2381 25.8794 71.3126C25.7685 71.4245 25.6945 71.5736 25.6945 71.8718C25.6945 72.0955 25.7685 72.431 25.8794 72.8037C25.9903 73.2138 26.0273 73.4375 26.0273 73.512L25.6206 74.5558C25.3618 75.3013 25.2139 75.7487 25.2139 75.9351C25.2139 76.1215 25.2879 76.196 25.4357 76.196C25.5097 76.196 25.6576 76.196 25.8424 76.1587C25.9164 76.1587 26.1012 76.3451 26.36 76.6806C26.6188 77.0161 26.8776 77.2025 27.0994 77.2025C27.2473 77.2025 27.3952 77.0907 27.58 76.867C27.7649 76.6061 27.9128 76.4569 27.9128 76.4569C27.9128 76.4569 28.0976 76.4197 28.4673 76.3451C28.6522 76.3078 28.7261 76.196 28.6522 75.9351C28.9109 75.9351 29.0958 76.196 29.2807 76.6806C29.2807 76.7179 29.2807 76.7552 29.2437 76.7924C29.3176 76.7924 29.4285 76.7552 29.5025 76.7179C29.6873 76.6433 29.8352 76.6061 29.9461 76.6061C30.131 76.6061 30.3158 76.7179 30.5007 76.9043C30.6855 77.0907 30.8704 77.2398 31.0552 77.2398C31.1661 77.2398 31.351 77.2398 31.6837 77.2398C31.9795 77.2398 32.2013 77.2398 32.3862 77.2771C32.9037 77.3889 33.1625 77.8735 33.1625 78.8427C33.1625 79.0291 33.0146 79.2155 32.6819 79.4391C32.3862 79.6255 32.2013 79.7747 32.2013 79.8492C32.2013 79.9983 32.3862 80.2593 32.7928 80.632C33.1625 81.0048 33.2734 81.3776 33.1995 81.8249C33.1256 82.1231 33.2365 82.4214 33.4953 82.6823C33.7541 82.9432 34.0868 83.0551 34.4565 83.0178C35.3807 82.8687 36.2311 82.8687 37.0074 83.0551C37.4141 83.1296 37.8208 83.2415 38.2275 83.4278C37.7838 83.6142 37.2662 83.8752 36.6747 84.2107C35.5656 84.919 34.8632 85.3663 34.5304 85.4781C34.0868 85.6645 33.791 86.0373 33.6801 86.5964C33.5692 87.3047 33.4953 87.6775 33.4583 87.6775C33.3474 87.7893 33.1625 87.8639 32.7928 87.9012C32.4601 87.9012 32.2383 87.9384 32.2013 88.013C31.8686 88.6094 31.6098 88.9449 31.388 88.9449C31.1292 88.9076 30.9073 88.8704 30.7964 88.8331C30.5007 88.7958 30.3528 88.8704 30.3158 89.094C30.2789 89.2804 30.2049 89.3923 30.1679 89.4295C30.131 89.5041 30.0201 89.5786 29.8352 89.7278C29.6873 89.8396 29.4655 90.0632 29.1697 90.4733C28.874 90.7715 28.5782 90.8088 28.2455 90.6597C28.2085 90.7342 28.1715 90.9206 28.1346 91.2561C28.0237 91.5544 27.8018 91.7407 27.3952 91.7407C27.1364 91.7407 26.8776 91.5916 26.6188 91.3307C26.36 91.0325 26.2121 90.8834 26.1382 90.8834C25.9903 90.8834 25.8794 90.9206 25.7315 90.9579C25.6206 90.9952 25.5467 91.0697 25.5467 91.107C25.5467 91.2189 25.6206 91.368 25.7315 91.6662C25.7315 91.6662 25.6945 91.8153 25.5836 92.1135C25.4727 92.3745 25.4357 92.5608 25.4357 92.6727C25.4357 93.1573 25.5836 93.4555 25.8424 93.6419C26.1012 93.8283 26.2121 93.9401 26.2121 93.9774C26.2121 94.0519 26.0642 94.1265 25.8055 94.2383C25.8424 94.9093 25.8424 95.2821 25.8424 95.3194C25.8424 95.5803 25.5836 96.2141 25.066 97.146C24.4745 98.1525 24.0309 98.7862 23.6242 98.9726C22.8848 99.3081 22.2933 99.8672 21.8127 100.613C21.2581 101.545 20.8514 102.104 20.5926 102.328C20.0751 102.738 19.7793 102.999 19.7054 103.073C19.4466 103.297 19.2617 103.52 19.1508 103.781C19.0769 103.893 18.855 104.042 18.4853 104.266C18.0787 104.452 17.8568 104.676 17.7459 104.825C17.5611 105.123 17.3023 105.794 17.0435 106.875C16.7108 107.807 16.1932 108.255 15.4538 108.255L14.4556 108.143C14.0119 108.143 13.5313 108.367 13.0137 108.851C12.5331 109.336 12.0895 109.559 11.7198 109.559C11.2392 109.559 10.241 109.336 8.7252 108.888L6.61789 108.217C6.32213 108.217 6.06334 108.255 5.76758 108.367C5.80455 109.075 5.95243 109.746 6.21122 110.454C6.58092 111.386 6.83972 112.169 6.9876 112.803C7.17245 113.436 7.39427 114.033 7.65306 114.592C7.76397 114.816 8.0967 115.337 8.57732 116.158L9.79733 118.73C9.79733 118.842 9.64945 119.028 9.31672 119.289C8.98399 119.55 8.83611 119.848 8.83611 120.184C8.83611 120.37 8.94702 120.631 9.20581 120.966C9.4646 121.265 9.53854 121.637 9.50157 122.047C9.4646 122.457 9.61248 122.867 9.90825 123.24C10.4628 123.874 10.9804 124.545 11.461 125.253C12.0155 126.036 12.3853 126.521 12.4962 126.67C12.9398 127.154 13.901 127.788 15.3429 128.534C15.3429 128.534 15.5647 128.608 15.9714 128.683C15.9714 128.571 15.9344 128.459 15.9344 128.347C15.8605 127.975 15.8235 127.714 15.8235 127.602C15.8235 127.192 16.0083 126.67 16.378 126.036C16.7477 125.44 16.9326 124.918 16.9326 124.47L16.8217 123.464C16.8217 123.352 16.7847 123.203 16.7108 122.979C16.6368 122.793 16.5999 122.644 16.5999 122.569C16.5999 122.495 16.6738 122.234 16.8217 121.824C16.9696 121.414 17.0435 121.153 17.0435 120.966C17.0435 120.854 16.9326 120.668 16.7477 120.407C16.5629 120.146 16.452 119.811 16.452 119.363C16.452 118.953 16.6368 118.506 17.0065 117.984C17.3762 117.462 17.5611 117.052 17.5611 116.717C17.3762 116.12 17.3393 115.673 17.4871 115.337C17.672 115.002 17.8199 114.555 17.9678 113.958C18.1156 113.399 18.2635 112.914 18.4114 112.542C18.5963 112.169 18.7811 112.02 19.0399 111.982C19.1878 111.982 19.3726 112.094 19.5205 112.281C19.7054 112.467 19.9272 112.579 20.149 112.579C20.3708 112.579 20.6296 112.542 20.9254 112.43C21.2211 112.318 21.406 112.281 21.5539 112.281C21.6648 112.281 21.8127 112.318 21.8866 112.392C21.9975 112.467 22.0715 112.504 22.0715 112.504C22.4781 112.504 22.7739 112.318 22.9218 111.908C23.1436 111.349 23.2545 111.05 23.2915 111.013C23.4024 110.901 23.846 110.64 24.6224 110.305C24.9921 110.119 25.3618 109.969 25.7315 109.82C26.0273 109.82 26.2121 110.007 26.2121 110.417C26.2121 110.491 26.1751 110.678 26.1012 110.939C26.1012 111.088 26.2861 111.162 26.6188 111.162C26.9515 111.162 27.2843 111.013 27.617 110.678C27.9497 110.342 28.2085 110.193 28.3194 110.193C29.0219 110.193 29.7613 110.603 30.4637 111.386C31.1661 112.169 31.5358 112.579 31.5728 112.579C31.8316 112.579 31.9795 112.355 32.0534 111.871C32.1274 111.386 32.4231 111.125 33.0146 111.125C33.1256 111.125 33.3474 111.2 33.6801 111.349C33.9759 111.461 34.2347 111.535 34.4195 111.535C34.4565 111.535 34.4935 111.535 34.5304 111.535C34.7153 111.535 34.8632 111.461 34.9741 111.311C35.048 111.2 35.085 111.088 35.085 110.939C35.085 110.678 34.9001 110.454 34.4935 110.268C34.1977 110.081 33.9389 110.007 33.7541 109.969C33.7541 109.82 33.6062 109.373 33.3104 108.59C33.0146 107.807 32.8298 107.36 32.8298 107.174C32.8298 106.875 32.9407 106.54 33.1625 106.167C33.4583 105.645 33.6431 105.272 33.7171 105.012C33.865 104.527 34.2716 104.117 34.8632 103.707C35.4177 103.334 35.7135 103.036 35.7135 102.775C35.7135 102.589 35.6026 102.328 35.4177 101.992C35.2329 101.619 35.122 101.433 35.122 101.433C35.122 101.284 35.2698 100.948 35.5286 100.426C35.7874 99.9045 35.8614 99.4199 35.7135 98.9353C35.7504 98.6371 35.7504 98.4507 35.7504 98.4134C35.7504 98.3016 35.7135 98.1898 35.6765 98.0406C35.6026 97.8543 35.5656 97.7424 35.5656 97.6679C35.5656 97.3697 35.7504 97.0714 36.1201 96.7359C36.4899 96.4377 36.6747 96.214 36.6747 96.0649C36.6747 95.9158 36.6008 95.7294 36.4899 95.5058C36.342 95.3194 36.268 95.0957 36.268 94.8348C36.268 94.5738 36.3789 94.2756 36.6008 94.0147C36.6377 93.9774 36.8226 93.7537 37.1923 93.3437C37.6359 92.8591 37.9317 92.5608 38.1165 92.4863C38.1535 92.4863 38.5232 92.3745 39.2256 92.1508C39.4475 92.0762 39.6323 91.9644 39.8172 91.8153C40.002 91.6289 40.2238 91.4798 40.4087 91.4052L41.5178 90.9579C41.8136 90.8088 42.0354 90.697 42.1463 90.6224C42.2202 90.5479 42.2572 90.5106 42.2572 90.4733C42.2572 89.8396 41.8505 89.3177 41.0372 88.8331C40.2238 88.3858 39.8172 87.9757 39.8172 87.6775C39.8172 87.4538 40.1499 87.081 40.7784 86.5964C41.4069 86.1118 41.7396 85.8136 41.7396 85.7763C41.7396 85.4036 41.6657 85.0681 41.5178 84.7326C41.6657 84.658 41.7766 84.5835 41.9245 84.5089C42.4421 84.1734 42.7009 83.8752 42.7009 83.577C42.7009 83.5024 42.6269 83.3906 42.516 83.2415C42.3681 83.0923 42.2942 82.9432 42.2942 82.8314C42.2942 82.7569 42.4051 82.6077 42.6269 82.4214C42.8118 82.235 42.9227 82.0486 42.9227 81.8995C42.8487 81.7131 42.8118 81.564 42.8118 81.4894C42.8118 81.2657 43.0706 81.0794 43.5881 80.9675C43.8469 80.9303 44.1057 80.893 44.3645 80.8557C44.6603 80.8557 44.9191 80.893 45.2148 81.0048C45.5106 81.0794 45.7324 81.1166 45.8433 81.1166C46.1021 81.1166 46.3609 80.8184 46.6567 80.2593C46.9155 79.7747 47.0633 79.4019 47.0633 79.2155C47.0633 79.1782 47.0264 78.9918 46.9155 78.7309C46.8046 78.4327 46.7306 78.2463 46.6936 78.1717V77.9108H47.0264L47.6918 78.1344C47.8767 78.1344 48.0246 78.0226 48.1355 77.7989C48.2834 77.5007 48.4312 77.3516 48.5052 77.2771C49.0597 76.9416 49.3555 76.7552 49.3555 76.7179C49.5403 76.5315 49.6882 76.1215 49.7622 75.4877C49.8361 74.854 49.91 74.4067 49.984 74.1085C50.0579 73.8475 50.1688 73.4747 50.2798 73.0274C50.3907 72.6174 50.4276 72.3191 50.4276 72.17C50.4276 72.0582 50.2798 71.76 49.947 71.2381C49.947 71.089 49.984 70.9399 50.0949 70.828C50.2058 70.7162 50.2428 70.5671 50.2428 70.418C50.2428 70.2689 50.021 70.1198 49.5773 69.8961C49.0967 69.6724 48.8749 69.4488 48.8749 69.2624C48.8749 69.0014 49.0228 68.8523 49.2816 68.7405C49.6143 68.5914 49.8361 68.4796 49.9101 68.3304C50.021 68.1441 50.0949 67.9204 50.1319 67.6595C50.1688 67.324 50.2058 67.063 50.2798 66.9139C50.3907 66.3175 50.4646 65.8329 50.6125 65.4601C50.6495 65.3482 50.8343 65.1619 51.204 64.9009C51.5367 64.6772 51.7216 64.4909 51.7216 64.379C51.7216 64.3045 51.6846 64.1554 51.5737 63.969C51.4628 63.7826 51.3889 63.6335 51.3889 63.5216C51.3889 63.4098 51.4628 63.298 51.6477 63.1861C51.7955 63.0743 51.8695 62.9252 51.8325 62.7388V60.6513C51.8325 60.4649 51.7586 60.2412 51.5367 59.943C51.3519 59.6448 51.241 59.4957 51.241 59.4957C51.241 59.4957 51.3889 59.3093 51.7216 59.0111C52.0174 58.601 52.2022 58.1537 52.2022 57.6318L52.0913 56.9981C52.0913 56.9235 52.424 56.4762 53.0525 55.6188C53.3483 55.2088 53.681 54.7614 53.9768 54.3514C53.9768 54.3141 53.9398 54.2023 53.8289 54.0532C53.718 53.904 53.681 53.7922 53.681 53.7549C53.681 53.6804 53.3853 53.5313 52.9046 53.3076C52.5349 53.1212 52.3131 53.0094 52.2392 52.8975C52.1283 52.7484 52.0543 52.4875 52.0543 52.1147C52.0543 51.8165 52.1652 51.5928 52.3501 51.4064C52.6828 51.1082 52.8677 50.8473 52.9416 50.7354C53.0525 50.5491 53.3483 50.3999 53.8659 50.2508C54.3095 50.1017 54.5313 49.9526 54.5313 49.7662L54.4944 49.2443C54.4574 49.0952 54.4204 48.9834 54.3465 48.8716C54.3095 48.797 54.3095 48.7597 54.2356 48.7225C54.0877 48.4615 53.9398 48.3124 53.681 48.3124L52.5719 48.4242C52.2022 48.4242 51.9434 48.3497 51.7955 48.2006C51.6476 48.0515 51.4998 47.9769 51.3889 47.9769C51.0561 47.9769 50.8713 48.126 50.8343 48.4615C50.8343 48.797 50.7234 48.9461 50.5016 48.9461C50.3537 48.9461 50.2428 48.9088 50.1319 48.8716C50.021 48.8343 49.91 48.797 49.7622 48.797C49.6143 48.797 49.3925 48.8716 49.0597 49.0207C48.727 49.1698 48.5052 49.2443 48.3943 49.2443C48.1724 49.2443 47.9876 49.2071 47.8397 49.0952C47.6918 48.9834 47.544 48.9461 47.433 48.9461C47.3221 48.9461 47.1373 49.1325 46.8415 49.5053C46.5458 49.8781 46.287 50.0644 46.1021 50.0644C45.4366 49.9526 45.03 49.9153 44.9191 49.9153C44.6603 49.9153 44.5124 49.9153 44.4754 49.9526C44.7712 50.139 44.8082 50.2508 44.8082 50.2881ZM34.0128 28.1453C33.9759 28.2944 33.6801 28.4062 33.1625 28.4435C32.4971 28.4808 32.0534 28.5926 31.7577 28.7417C31.6467 28.8163 31.4249 29.0399 31.0922 29.4127C30.7595 29.7855 30.6116 30.0091 30.6116 30.0837C30.6116 30.2328 30.6486 30.3446 30.7225 30.3819C30.8704 30.4937 30.8704 30.6056 30.7595 30.7547C30.7595 30.8665 30.5007 30.9038 30.057 30.9038C30.131 30.9038 30.2049 30.9038 30.2049 30.9411C30.2049 30.9411 30.2049 30.9784 30.1679 30.9784L29.8722 30.9411C29.7613 30.9411 29.7243 30.9411 29.7243 30.9411C29.3176 30.9411 29.0219 31.1275 28.837 31.5002C28.6522 32.0967 28.4673 32.6186 28.2455 33.0286C28.0976 33.2523 27.9497 33.6996 27.8018 34.2961C27.617 35.0416 27.4691 35.5635 27.3582 35.8617C27.1733 36.309 26.9515 36.7564 26.6927 37.1664C26.5449 37.3155 26.4339 37.4274 26.36 37.5392C25.9164 37.9865 25.5836 38.2847 25.3248 38.4339C25.103 38.5457 24.9551 38.6948 24.9182 38.8439C24.8812 38.8812 24.8442 38.9185 24.8073 38.9557C24.9182 39.1421 25.066 39.2912 25.2509 39.4404C25.8424 39.925 26.1382 40.2232 26.1752 40.2605C26.2121 40.335 26.36 40.4468 26.5818 40.596C26.7667 40.7078 26.8776 40.8569 26.9146 40.9315L26.9885 41.5279C27.0255 41.8634 27.3952 42.2362 28.0976 42.6462C28.4673 42.8699 28.9479 43.1308 29.5394 43.4291C29.8722 43.6527 30.3528 43.8391 30.9813 43.9509C31.1661 43.9882 31.388 44.1 31.6467 44.3237C31.9055 44.5474 32.0904 44.6592 32.2383 44.6592C32.9407 44.7338 33.4213 44.9202 33.6801 45.2929C33.9389 45.5911 34.2347 45.7775 34.5304 45.7775C34.6413 45.7775 34.7892 45.7403 35.085 45.6284C35.3438 45.5166 35.5286 45.4793 35.6395 45.4793L36.4159 45.5911C36.7856 45.5911 37.0444 45.4793 37.1553 45.2929C37.2293 45.1811 37.2662 44.9574 37.2662 44.6219C37.2662 44.4355 37.2293 44.2864 37.1553 44.1373C37.0814 44.0255 37.0444 43.8391 37.0444 43.6154C37.0444 43.4663 37.1553 43.3918 37.3771 43.3918C37.4511 43.3918 37.7099 43.4663 38.1535 43.6154C38.5972 43.7273 39.0038 43.8018 39.3366 43.8018C39.4844 43.8018 39.7802 43.7645 40.1869 43.7273C40.5935 43.69 40.8893 43.7273 41.0372 43.8391C41.0372 43.8391 41.1851 44.1373 41.4439 44.7338C41.6287 45.2184 41.8875 45.4793 42.2202 45.4793C42.3312 45.4793 42.4051 45.2929 42.516 44.9574C42.6269 44.6219 42.8118 44.4355 43.0336 44.4355C43.0706 44.4355 43.2184 44.4728 43.4403 44.5474C43.6621 44.5847 43.8839 44.6219 44.0318 44.6219C44.2536 44.6219 44.6972 44.4355 45.3627 44.0255C45.9912 43.6154 46.5458 43.2427 47.0264 42.8699C47.1373 42.7581 47.433 42.4226 47.8767 41.8634C48.3203 41.3042 48.6531 41.0433 48.8379 41.0433C49.0597 41.0433 49.2446 41.1551 49.3555 41.3788C49.4664 41.6025 49.6143 41.7143 49.7991 41.7143C49.984 41.7143 50.1319 41.4533 50.3537 40.9687C50.5755 40.4096 50.8713 40.0368 51.204 39.8504C51.241 39.8504 51.241 39.8131 51.278 39.8131L50.9822 39.1421C50.9822 39.0303 51.0192 38.9185 51.0931 38.7694C51.167 38.583 51.204 38.4711 51.204 38.3966C51.204 38.2102 51.0931 37.9493 50.8713 37.6138C50.7604 37.4646 50.6495 37.3155 50.4646 37.1664C50.3167 37.0546 50.2058 36.9428 50.1688 36.8309C50.0949 36.6073 49.947 36.3836 49.6882 36.1599C49.4294 35.9363 49.2076 35.8244 48.9858 35.8244C48.8749 35.8244 48.764 35.8617 48.6161 35.9735C48.4682 36.0854 48.2834 36.1227 48.0246 36.1227C47.3221 36.0108 46.8046 35.9735 46.4718 35.9735C46.25 35.9735 45.8803 36.0481 45.4366 36.1599L44.7712 36.309C44.0687 36.309 43.736 36.1599 43.736 35.8244C43.736 35.638 43.81 35.4889 43.9578 35.3398C44.0688 35.1907 44.1427 35.0416 44.1427 34.9298C44.1427 34.7434 44.0318 34.5197 43.81 34.2588C43.5512 33.9978 43.4403 33.7742 43.4403 33.5878C43.4403 33.4014 43.4772 33.1405 43.5881 32.8795C43.699 32.6186 43.736 32.4322 43.736 32.3203C43.736 32.0967 43.6621 31.873 43.5142 31.6866C43.3293 31.5002 43.2554 31.2766 43.2184 31.0902C43.1815 30.8665 43.0706 30.7174 42.8118 30.6429C42.516 30.5683 42.2942 30.531 42.1463 30.4565C41.9984 30.4192 41.6287 30.0464 40.9632 29.4127C40.2978 28.7417 39.8172 28.3316 39.4475 28.1825C39.5214 27.9961 39.5954 27.847 39.7063 27.7352C39.7802 27.6607 39.8172 27.5488 39.8172 27.3624C39.8172 27.1388 39.7802 27.0269 39.7063 26.9897C39.5584 26.9897 39.4475 26.9524 39.2996 26.9524C39.1517 26.9524 39.0038 26.8778 38.819 26.7287C38.6711 26.6169 38.5232 26.5796 38.4123 26.5796C38.1535 26.5796 37.9687 26.5796 37.7468 26.5796C37.1923 26.5423 36.8226 26.4305 36.7117 26.1696C36.6747 25.8341 36.6008 25.6849 36.4899 25.6849L35.7874 25.9086C35.7135 25.8341 35.6765 25.7222 35.6395 25.6477C35.4547 25.7968 35.3807 25.9086 35.3438 25.9832C35.3438 26.095 35.3068 26.2814 35.3068 26.505C35.2698 26.6914 35.1589 26.8033 35.011 26.8405C34.5674 26.9524 34.2716 27.2133 34.1977 27.5861C34.0128 27.6607 33.9759 27.8843 34.0128 28.1453ZM75.1977 15.7691C75.1977 15.881 75.3086 16.0673 75.5674 16.3283C75.8262 16.5519 75.9371 16.7756 75.9371 16.9993C75.9371 17.2602 75.5304 17.5212 74.7541 17.7448C73.9037 17.9312 73.4231 18.0803 73.3122 18.1176C73.2752 18.1176 73.2013 18.4904 73.0534 19.1614C72.9055 19.7951 72.6468 20.0933 72.277 20.0933C72.2031 20.0933 72.0183 20.0188 71.7225 19.9069C71.4267 19.7951 71.2419 19.7205 71.1679 19.7205C70.7613 19.7205 70.4285 19.8696 70.2437 20.1306C70.0958 20.4661 69.9479 20.6898 69.8 20.8761C69.6152 21.0998 69.3194 21.3235 68.9128 21.5099C68.8758 21.5099 68.5061 21.6962 67.8036 22.0317C66.5097 22.4791 65.7333 22.7773 65.5115 22.8519C65.2527 22.9637 65.1418 23.3365 65.1418 23.9702C65.1418 24.2311 65.1788 24.4175 65.2897 24.5293C65.3636 24.6412 65.4006 24.9021 65.4006 25.2749C65.4006 25.4613 65.3266 25.6849 65.1788 25.8713C65.0678 25.9832 64.883 26.1696 64.5872 26.4305C64.3284 26.6914 64.1436 26.8405 64.0696 26.9151C63.9218 27.0269 63.7369 27.1015 63.4781 27.176C62.6648 27.3252 62.1472 27.5115 61.9623 27.7352C61.8145 27.847 61.5557 28.0334 61.112 28.2198C60.6684 28.4062 60.4096 28.4808 60.2987 28.4808C60.2617 28.4808 60.1878 28.4435 60.1508 28.4435C59.5223 28.3689 58.9308 28.8908 58.4871 29.9346C58.3393 30.2328 58.2653 30.6056 58.1914 31.1275C58.0805 31.3139 57.9326 31.5375 57.7108 31.7985C57.5999 31.9476 57.5259 32.0594 57.5259 32.1712V32.2085C57.6368 32.9913 57.4889 33.4387 57.0083 33.5505C56.9714 34.2215 56.9714 34.5943 56.9714 34.7434C56.9714 34.8925 56.7126 35.1907 56.232 35.6753C56.0841 35.7872 55.9732 35.899 55.9362 36.0854C55.8623 36.3463 55.7883 36.4954 55.7144 36.57C55.0859 37.0546 54.6422 37.4274 54.4204 37.6138C54.0137 37.912 53.8289 38.3593 53.8289 38.9185C53.9028 38.8812 54.0137 38.8439 54.0877 38.8439C54.2356 38.8439 54.3834 38.9557 54.4944 39.1421C54.5683 39.3285 54.6053 39.5149 54.6053 39.7386L54.4944 40.3723C54.4944 40.4841 54.6422 40.596 54.901 40.7078C55.1968 40.8196 55.3447 40.9687 55.3816 41.1551C55.3816 41.3042 55.4556 41.4906 55.6035 41.7143C55.7513 41.9752 55.8992 42.0871 56.0101 42.0871C56.195 42.0871 56.4538 41.9752 56.7495 41.7888C57.0453 41.5652 57.378 41.4533 57.7847 41.4533C58.2653 41.4533 58.635 41.5279 58.8199 41.677C59.0047 41.7888 59.0787 41.9752 59.1156 42.2362C59.4114 42.348 59.7072 42.5717 60.0399 42.8326C60.6314 43.3545 61.0381 43.6154 61.2599 43.6154L62.5539 43.4663C62.7018 43.4663 63.1824 43.6527 64.0696 44.0255C64.9569 44.3983 65.5115 44.5847 65.7333 44.5847C65.8442 44.5847 65.9182 44.5474 65.9921 44.5101C66.066 44.4728 66.103 44.4355 66.103 44.3983C66.103 44.2864 66.0291 44.2119 65.9182 44.0628C65.8073 43.9509 65.6594 43.9137 65.5485 43.8764V43.5409H65.9921C66.103 43.6154 66.177 43.6527 66.2509 43.6527C66.3988 43.6527 66.5097 43.5782 66.5836 43.4291C66.6576 43.3172 66.6945 43.2054 66.6945 43.0936C66.6945 43.0563 66.6576 42.9817 66.5836 42.8326C66.5097 42.7208 66.4357 42.6089 66.3988 42.5717V42.2362H66.6945C66.9903 42.348 67.1752 42.4598 67.36 42.5717C67.4709 42.6462 67.6188 42.8326 67.8406 43.0563C67.9515 43.1681 68.2103 43.2799 68.5431 43.3545C68.9497 43.4663 69.2455 43.5409 69.4303 43.6527C69.5782 43.7645 69.9479 43.8391 70.5025 43.9509C71.131 44.0628 71.7225 44.2119 72.2031 44.4355C72.351 44.4728 72.4989 44.5847 72.6468 44.6592C72.7577 44.3983 72.8316 44.1746 72.8316 43.9137C72.7946 43.019 72.7577 42.348 72.7577 41.9007C72.9055 41.2297 73.1274 40.596 73.3492 39.9995C73.4971 39.5149 73.608 39.1794 73.6819 38.9557C73.8298 38.5457 74.0146 38.2847 74.2365 38.1729C74.3474 38.1356 74.6801 38.0238 75.2716 37.8747C75.8262 37.7256 76.085 37.5392 76.085 37.3528C76.085 37.3155 75.9371 37.2037 75.6044 36.98C75.2716 36.7564 75.0868 36.6073 75.0868 36.4954C75.0868 36.309 75.2347 36.0481 75.5674 35.7499C75.6413 35.6753 75.7153 35.6008 75.7892 35.5262C75.9741 35.3771 76.1219 35.2653 76.2698 35.1907C76.2698 35.0043 76.3068 34.7434 76.4177 34.4079L76.5656 33.8114C76.5656 32.8795 76.3438 31.873 75.9001 30.7547C75.4565 29.6364 75.2347 29.0399 75.2347 28.9281C75.2347 28.4435 75.2716 28.108 75.2716 27.9216C75.2716 27.5861 75.1607 27.2879 75.0128 27.0269C74.5692 26.3559 74.3104 25.9459 74.2365 25.7968C74.1256 25.6477 74.0886 25.2749 74.0886 24.6785C74.0886 24.343 74.1256 23.8211 74.1995 23.1501C74.3104 22.1809 74.4213 21.4726 74.5692 20.9507C74.7541 20.2424 74.9759 19.646 75.2347 19.1987C75.4195 18.8632 75.6044 18.6022 75.7892 18.4158C76.048 18.0803 76.4177 17.7448 76.8983 17.4093C77.1201 17.2229 77.268 16.8502 77.342 16.4028C77.3789 15.9928 77.5638 15.6946 77.8965 15.5082C78.1183 15.3963 78.8947 14.9863 80.2256 14.3153C80.2626 14.278 80.2996 14.278 80.3366 14.2407C80.2256 14.1662 80.1147 14.1289 79.9299 14.1289C79.745 14.1289 79.3753 14.2035 78.8208 14.3898C78.1923 14.5762 77.7486 14.7999 77.5268 14.9863C77.4159 15.0981 76.9723 15.1354 76.1959 15.1727C75.4935 15.1354 75.1977 15.3591 75.1977 15.7691Z" fill="#6B6B6B"/>
</svg>
