<svg width="17" height="18" viewBox="0 0 17 18" fill="none" xmlns="http://www.w3.org/2000/svg">
<path d="M1.60116 16.5618C-0.565011 14.5686 -0.509081 11.1953 1.62215 9.16669L10.0301 1.16317C11.6278 -0.357752 14.2963 -0.408832 15.8668 1.138C17.3938 2.64117 17.3774 5.04579 15.8186 6.52971L8.25656 13.728C7.26524 14.6716 5.66365 14.7982 4.58445 13.9478C3.34587 12.9716 3.28134 11.213 4.3924 10.1554L9.62959 5.17012C9.89238 4.91996 10.3192 4.91996 10.582 5.17012C10.8448 5.42028 10.8448 5.82659 10.582 6.07676L5.3775 11.0304C4.89389 11.4908 4.80836 12.2324 5.22667 12.7475C5.73283 13.3714 6.68216 13.4136 7.24813 12.8748L14.8101 5.67649C15.8014 4.73284 15.9344 3.20828 15.041 2.18099C14.0155 1.00198 12.1681 0.940556 11.057 1.99818L2.56273 10.0839C0.964967 11.6049 0.911306 14.145 2.5363 15.6399C4.11541 17.0935 6.64153 17.0779 8.20042 15.594L14.3902 9.70193C14.653 9.45177 15.0799 9.45177 15.3427 9.70193C15.6055 9.95209 15.6055 10.3584 15.3427 10.6086L9.15288 16.5007C7.07468 18.4789 3.7065 18.4997 1.60104 16.5621L1.60116 16.5618Z" fill="#FF4D29"/>
</svg>
